<svg width="32" height="32" viewBox="0 0 32 32" fill="none" xmlns="http://www.w3.org/2000/svg">
<circle cx="16" cy="16" r="16" fill="#EBEBFF"/>
<path d="M24.4526 10.875C24.432 10.3155 24.432 9.77748 24.432 9.26102C24.432 8.85216 24.1232 8.52937 23.7322 8.52937C20.7064 8.50785 18.401 7.60405 16.4868 5.66733C16.2192 5.38758 15.7663 5.38758 15.4988 5.66733C13.5845 7.60405 11.2791 8.50785 8.27396 8.50785C7.88287 8.50785 7.57412 8.83064 7.57412 9.2395C7.57412 9.75596 7.57412 10.2939 7.55354 10.875C7.45062 16.1902 7.30653 23.4421 15.7663 26.4978C15.8487 26.5193 15.9104 26.5409 15.9928 26.5409C16.0751 26.5409 16.1574 26.5193 16.2192 26.4978C24.679 23.4421 24.5349 16.1902 24.4526 10.875Z" fill="url(#paint0_radial_30577_77233)"/>
<path d="M18.4215 13.4357L15.0252 16.9864L13.5638 15.4585C13.2962 15.1788 12.8433 15.1788 12.5552 15.4585C12.2876 15.7383 12.2876 16.2117 12.5552 16.513L14.5106 18.5573C14.6547 18.7079 14.8194 18.7725 15.0046 18.7725C15.1899 18.7725 15.3751 18.7079 15.4986 18.5573L19.4095 14.4687C19.6771 14.1889 19.6771 13.7155 19.4095 13.4142C19.1419 13.1345 18.6891 13.1345 18.4215 13.4357Z" fill="#6160A2"/>
<defs>
<radialGradient id="paint0_radial_30577_77233" cx="0" cy="0" r="1" gradientUnits="userSpaceOnUse" gradientTransform="translate(25.6252 4.02002) rotate(132.437) scale(44.1499 61.8091)">
<stop stop-color="#D2D1FF"/>
<stop offset="0.330293" stop-color="#D2D1FF"/>
<stop offset="0.330393" stop-color="#B1B0F5"/>
<stop offset="1" stop-color="#B1B0F5"/>
</radialGradient>
</defs>
</svg>
