<svg width="113" height="37" viewBox="0 0 113 37" fill="none" xmlns="http://www.w3.org/2000/svg">
<path d="M48.0983 19.4875C48.0983 24.762 43.9471 28.6488 38.8526 28.6488C33.7581 28.6488 29.6069 24.762 29.6069 19.4875C29.6069 14.1757 33.7581 10.3262 38.8526 10.3262C43.9471 10.3262 48.0983 14.1757 48.0983 19.4875ZM44.0509 19.4875C44.0509 16.1914 41.645 13.9362 38.8526 13.9362C36.0602 13.9362 33.6542 16.1914 33.6542 19.4875C33.6542 22.7505 36.0602 25.0388 38.8526 25.0388C41.645 25.0388 44.0509 22.7464 44.0509 19.4875Z" fill="#B4B4BA"/>
<path d="M68.0438 19.4875C68.0438 24.762 63.8926 28.6488 58.7982 28.6488C53.7037 28.6488 49.5525 24.762 49.5525 19.4875C49.5525 14.1799 53.7037 10.3262 58.7982 10.3262C63.8926 10.3262 68.0438 14.1757 68.0438 19.4875ZM63.9965 19.4875C63.9965 16.1914 61.5906 13.9362 58.7982 13.9362C56.0058 13.9362 53.5998 16.1914 53.5998 19.4875C53.5998 22.7505 56.0058 25.0388 58.7982 25.0388C61.5906 25.0388 63.9965 22.7464 63.9965 19.4875Z" fill="#B4B4BA"/>
<path d="M87.1586 10.8797V27.327C87.1586 34.0927 83.1445 36.856 78.3991 36.856C73.9321 36.856 71.2436 33.8862 70.2296 31.4575L73.7534 29.9994C74.3808 31.4905 75.9183 33.2501 78.3949 33.2501C81.4325 33.2501 83.3149 31.3873 83.3149 27.8805V26.5629H83.1736C82.2677 27.674 80.5225 28.6447 78.3201 28.6447C73.7118 28.6447 69.49 24.6547 69.49 19.5205C69.49 14.3492 73.7118 10.3262 78.3201 10.3262C80.5183 10.3262 82.2636 11.2968 83.1736 12.3749H83.3149V10.8838H87.1586V10.8797ZM83.6016 19.5205C83.6016 16.2947 81.4366 13.9362 78.6816 13.9362C75.8892 13.9362 73.5498 16.2947 73.5498 19.5205C73.5498 22.7133 75.8892 25.0388 78.6816 25.0388C81.4366 25.0388 83.6016 22.7133 83.6016 19.5205Z" fill="#B4B4BA"/>
<path d="M93.4954 1.23926V28.0871H89.5479V1.23926H93.4954Z" fill="#B4B4BA"/>
<path d="M108.879 22.5029L112.02 24.5847C111.006 26.0757 108.563 28.6449 104.341 28.6449C99.1053 28.6449 95.1951 24.6218 95.1951 19.4836C95.1951 14.0355 99.1385 10.3223 103.888 10.3223C108.671 10.3223 111.01 14.1057 111.775 16.1503L112.195 17.1912L99.874 22.2634C100.817 24.1014 102.284 25.039 104.341 25.039C106.402 25.039 107.831 24.0312 108.879 22.5029ZM99.2091 19.2068L107.445 15.8075C106.992 14.6634 105.629 13.8662 104.025 13.8662C101.968 13.8662 99.1053 15.6712 99.2091 19.2068Z" fill="#B4B4BA"/>
<path d="M14.6641 17.1043V13.2176H27.8407C27.9695 13.895 28.036 14.6963 28.036 15.5637C28.036 18.4798 27.234 22.0856 24.6494 24.6548C22.1354 27.2569 18.9233 28.6448 14.6682 28.6448C6.78136 28.6448 0.149414 22.2591 0.149414 14.4196C0.149414 6.57999 6.78136 0.194336 14.6682 0.194336C19.0313 0.194336 22.1395 1.89608 24.4749 4.11412L21.7157 6.85673C20.0411 5.29542 17.7723 4.08108 14.6641 4.08108C8.90475 4.08108 4.40034 8.69477 4.40034 14.4196C4.40034 20.1443 8.90475 24.758 14.6641 24.758C18.3997 24.758 20.5273 23.2669 21.8902 21.9122C22.9956 20.8135 23.7227 19.2439 24.0095 17.1002L14.6641 17.1043Z" fill="#B4B4BA"/>
</svg>
