<svg width="25" height="21" viewBox="0 0 25 21" fill="none" xmlns="http://www.w3.org/2000/svg">
<path d="M10.8265 0.575996L7.1046 14.822L6.07786 10.0092C7.57519 10.0092 8.81583 10.4797 9.79979 11.4209C10.7837 12.3621 11.2757 13.6241 11.2757 15.207C11.2757 16.7899 10.7837 18.0733 9.79979 19.0573C8.81583 19.9985 7.59658 20.469 6.14203 20.469C4.60193 20.469 3.33989 19.9771 2.35594 18.9931C1.37198 18.0092 0.88 16.7471 0.88 15.207C0.88 14.6936 0.901391 14.2231 0.944171 13.7952C1.02973 13.3247 1.17947 12.7685 1.39337 12.1268C1.60727 11.4851 1.90674 10.6723 2.29176 9.6883L5.69283 0.575996H10.8265ZM24.4308 0.575996L20.7089 14.822L19.6821 10.0092C21.1795 10.0092 22.4201 10.4797 23.4041 11.4209C24.388 12.3621 24.88 13.6241 24.88 15.207C24.88 16.7899 24.388 18.0733 23.4041 19.0573C22.4201 19.9985 21.2009 20.469 19.7463 20.469C18.2062 20.469 16.9442 19.9771 15.9602 18.9931C14.9763 18.0092 14.4843 16.7471 14.4843 15.207C14.4843 14.6936 14.5057 14.2231 14.5485 13.7952C14.634 13.3247 14.7837 12.7685 14.9976 12.1268C15.2116 11.4851 15.511 10.6723 15.896 9.6883L19.2971 0.575996H24.4308Z" fill="#B1B0F5"/>
</svg>
