<svg width="41" height="40" viewBox="0 0 41 40" fill="none" xmlns="http://www.w3.org/2000/svg">
<path d="M27 27.5649H22.5C22.3011 27.5649 22.1103 27.4859 21.9697 27.3453C21.829 27.2046 21.75 27.0139 21.75 26.8149C21.75 26.616 21.829 26.4253 21.9697 26.2846C22.1103 26.144 22.3011 26.0649 22.5 26.0649H27C27.1989 26.0649 27.3897 26.144 27.5303 26.2846C27.671 26.4253 27.75 26.616 27.75 26.8149C27.75 27.0139 27.671 27.2046 27.5303 27.3453C27.3897 27.4859 27.1989 27.5649 27 27.5649ZM30 23.0649H25.5C25.3011 23.0649 25.1103 22.9859 24.9697 22.8453C24.829 22.7046 24.75 22.5139 24.75 22.3149C24.75 22.116 24.829 21.9253 24.9697 21.7846C25.1103 21.644 25.3011 21.5649 25.5 21.5649H30C30.1989 21.5649 30.3897 21.644 30.5303 21.7846C30.671 21.9253 30.75 22.116 30.75 22.3149C30.75 22.5139 30.671 22.7046 30.5303 22.8453C30.3897 22.9859 30.1989 23.0649 30 23.0649Z" fill="black"/>
<path d="M15.75 16.3149H9.75C9.55109 16.3149 9.36032 16.2359 9.21967 16.0953C9.07902 15.9546 9 15.7639 9 15.5649C9 15.366 9.07902 15.1753 9.21967 15.0346C9.36032 14.894 9.55109 14.8149 9.75 14.8149H15.75C15.9489 14.8149 16.1397 14.894 16.2803 15.0346C16.421 15.1753 16.5 15.366 16.5 15.5649C16.5 15.7639 16.421 15.9546 16.2803 16.0953C16.1397 16.2359 15.9489 16.3149 15.75 16.3149ZM18.75 11.8149H9.75C9.55109 11.8149 9.36032 11.7359 9.21967 11.5953C9.07902 11.4546 9 11.2639 9 11.0649C9 10.866 9.07902 10.6753 9.21967 10.5346C9.36032 10.394 9.55109 10.3149 9.75 10.3149H18.75C18.9489 10.3149 19.1397 10.394 19.2803 10.5346C19.421 10.6753 19.5 10.866 19.5 11.0649C19.5 11.2639 19.421 11.4546 19.2803 11.5953C19.1397 11.7359 18.9489 11.8149 18.75 11.8149Z" fill="black"/>
<path d="M26.25 35.1939C25.9551 35.1944 25.663 35.1366 25.3906 35.0239C25.1181 34.9111 24.8706 34.7457 24.6622 34.5369L23.3798 33.2544C23.0981 32.9741 22.7173 32.8162 22.32 32.8149H19.5C18.7044 32.8149 17.9413 32.4989 17.3787 31.9363C16.8161 31.3737 16.5 30.6106 16.5 29.8149V24.5799C16.5 24.381 16.579 24.1903 16.7197 24.0496C16.8603 23.909 17.0511 23.8299 17.25 23.8299C17.4489 23.8299 17.6397 23.909 17.7803 24.0496C17.921 24.1903 18 24.381 18 24.5799V29.8149C18 30.2128 18.158 30.5943 18.4393 30.8756C18.7206 31.1569 19.1022 31.3149 19.5 31.3149H22.32C23.1149 31.3173 23.8768 31.6331 24.4402 32.1939L25.7228 33.4764C25.8631 33.6152 26.0526 33.6931 26.25 33.6931C26.4474 33.6931 26.6369 33.6152 26.7772 33.4764L28.0597 32.1939C28.6232 31.6331 29.3851 31.3173 30.18 31.3149H33C33.3978 31.3149 33.7794 31.1569 34.0607 30.8756C34.342 30.5943 34.5 30.2128 34.5 29.8149V19.3149C34.5 18.9171 34.342 18.5356 34.0607 18.2543C33.7794 17.973 33.3978 17.8149 33 17.8149H26.25C26.0511 17.8149 25.8603 17.7359 25.7197 17.5953C25.579 17.4546 25.5 17.2639 25.5 17.0649C25.5 16.866 25.579 16.6753 25.7197 16.5346C25.8603 16.394 26.0511 16.3149 26.25 16.3149H33C33.7956 16.3149 34.5587 16.631 35.1213 17.1936C35.6839 17.7562 36 18.5193 36 19.3149V29.8149C36 30.6106 35.6839 31.3737 35.1213 31.9363C34.5587 32.4989 33.7956 32.8149 33 32.8149H30.18C29.7827 32.8162 29.4019 32.9741 29.1202 33.2544L27.8378 34.5369C27.6294 34.7457 27.3819 34.9111 27.1094 35.0239C26.837 35.1366 26.5449 35.1944 26.25 35.1939Z" fill="black"/>
<path d="M15.75 26.2037C15.1591 26.2048 14.5915 25.9734 14.1698 25.5594L12.6495 24.0594C12.3702 23.7826 11.9928 23.6273 11.5995 23.6274H7.5C6.70435 23.6274 5.94129 23.3114 5.37868 22.7488C4.81607 22.1862 4.5 21.4231 4.5 20.6274V8.06494C4.5 7.26929 4.81607 6.50623 5.37868 5.94362C5.94129 5.38101 6.70435 5.06494 7.5 5.06494H24C24.7956 5.06494 25.5587 5.38101 26.1213 5.94362C26.6839 6.50623 27 7.26929 27 8.06494V20.6274C27 21.4231 26.6839 22.1862 26.1213 22.7488C25.5587 23.3114 24.7956 23.6274 24 23.6274H19.9042C19.5097 23.6263 19.1308 23.7817 18.8505 24.0594L17.3302 25.5594C16.9085 25.9734 16.3409 26.2048 15.75 26.2037ZM7.5 6.56494C7.10218 6.56494 6.72064 6.72298 6.43934 7.00428C6.15804 7.28559 6 7.66712 6 8.06494V20.6274C6 21.0253 6.15804 21.4068 6.43934 21.6881C6.72064 21.9694 7.10218 22.1274 7.5 22.1274H11.5958C12.3849 22.1254 13.1427 22.4361 13.7032 22.9914L15.2228 24.4914C15.3637 24.6291 15.5529 24.7062 15.75 24.7062C15.9471 24.7062 16.1363 24.6291 16.2772 24.4914L17.7968 22.9914C18.3573 22.4361 19.1151 22.1254 19.9042 22.1274H24C24.3978 22.1274 24.7794 21.9694 25.0607 21.6881C25.342 21.4068 25.5 21.0253 25.5 20.6274V8.06494C25.5 7.66712 25.342 7.28559 25.0607 7.00428C24.7794 6.72298 24.3978 6.56494 24 6.56494H7.5Z" fill="black"/>
</svg>
