<svg width="41" height="40" viewBox="0 0 41 40" fill="none" xmlns="http://www.w3.org/2000/svg">
<path d="M24.498 15.4399C24.498 14.6612 24.2671 13.8999 23.8345 13.2524C23.4018 12.6049 22.7868 12.1002 22.0674 11.8022C21.3479 11.5041 20.5562 11.4262 19.7924 11.5781C19.0286 11.73 18.327 12.105 17.7763 12.6557C17.2256 13.2064 16.8506 13.908 16.6987 14.6718C16.5468 15.4356 16.6248 16.2273 16.9228 16.9468C17.2208 17.6662 17.7255 18.2812 18.373 18.7139C19.0205 19.1465 19.7818 19.3774 20.5605 19.3774C21.6045 19.3763 22.6053 18.961 23.3435 18.2229C24.0816 17.4847 24.4969 16.4839 24.498 15.4399ZM20.5605 18.2524C20.0043 18.2524 19.4605 18.0875 18.998 17.7785C18.5355 17.4694 18.175 17.0302 17.9621 16.5162C17.7493 16.0023 17.6936 15.4368 17.8021 14.8913C17.9106 14.3457 18.1785 13.8445 18.5718 13.4512C18.9651 13.0579 19.4663 12.79 20.0119 12.6815C20.5574 12.573 21.1229 12.6287 21.6368 12.8415C22.1508 13.0544 22.59 13.4149 22.8991 13.8774C23.2081 14.3399 23.373 14.8837 23.373 15.4399C23.3722 16.1856 23.0756 16.9004 22.5483 17.4277C22.021 17.9549 21.3062 18.2516 20.5605 18.2524Z" fill="black"/>
<path d="M21.123 8.68994H19.998V9.81494H21.123V8.68994Z" fill="black"/>
<path d="M7.91838 12.1774L9.02031 11.9524L8.39819 8.9335C9.19548 8.64361 9.87794 8.10418 10.3441 7.39538C10.8103 6.68659 11.0353 5.84628 10.9857 4.99938L13.2486 4.5325V12.6921C12.7981 13.1525 12.4671 13.7161 12.2845 14.3338C12.1018 14.9515 12.073 15.6045 12.2007 16.2359C12.3549 16.9725 12.7188 17.6488 13.2486 18.1833V24.7049C12.7227 24.5018 12.1594 24.4137 11.5966 24.4467L9.25488 13.0943L8.15294 13.3193L10.4361 24.3966L9.877 28.8702C9.86392 28.9744 9.88029 29.0802 9.92425 29.1756L13.2993 36.4881C13.3618 36.6236 13.4755 36.7287 13.6155 36.7803C13.7555 36.8318 13.9102 36.8257 14.0457 36.7632C14.1811 36.7007 14.2862 36.5869 14.3378 36.4469C14.3894 36.307 14.3833 36.1522 14.3208 36.0168L11.0144 28.8499L11.1432 27.8206L11.2804 28.4854C11.3064 28.6124 11.3753 28.7265 11.4756 28.8085C11.576 28.8905 11.7015 28.9353 11.8311 28.9354C11.8797 28.9354 11.9281 28.9291 11.9751 28.9169L16.1343 27.8149H18.3111V29.9598C18.3111 30.1089 18.3704 30.252 18.4759 30.3575C18.5814 30.463 18.7244 30.5223 18.8736 30.5223C19.0228 30.5223 19.1659 30.463 19.2714 30.3575C19.3769 30.252 19.4361 30.1089 19.4361 29.9598V23.3149C19.4361 23.0166 19.5547 22.7304 19.7656 22.5194C19.9766 22.3085 20.2628 22.1899 20.5611 22.1899C20.8595 22.1899 21.1456 22.3085 21.3566 22.5194C21.5676 22.7304 21.6861 23.0166 21.6861 23.3149V28.7071C21.686 28.8035 21.7107 28.8983 21.7578 28.9824C21.8049 29.0665 21.8728 29.1371 21.955 29.1874C22.8168 29.7145 23.3736 30.9424 23.3736 32.3149C23.3736 34.1442 22.3431 35.6899 21.1236 35.6899C20.9744 35.6899 20.8314 35.7492 20.7259 35.8547C20.6204 35.9602 20.5611 36.1033 20.5611 36.2524C20.5611 36.4016 20.6204 36.5447 20.7259 36.6502C20.8314 36.7557 20.9744 36.8149 21.1236 36.8149C22.9849 36.8149 24.4986 34.7961 24.4986 32.3149C24.4986 32.1698 24.4874 32.0275 24.4773 31.8846L25.5241 31.3902C25.8874 31.2256 26.1959 30.9603 26.4129 30.6257C26.63 30.2911 26.7465 29.9013 26.7486 29.5024C26.7484 29.0904 26.6231 28.688 26.3892 28.3488L29.1736 28.9231C29.2106 28.9304 29.2483 28.9341 29.2861 28.9343C29.4157 28.9343 29.5414 28.8896 29.6419 28.8076C29.7423 28.7256 29.8114 28.6114 29.8373 28.4843L31.4624 20.5998L30.3604 20.3748L29.5212 24.4473C28.96 24.4143 28.3983 24.5015 27.8736 24.7032V18.1782C28.4016 17.6445 28.7641 16.9696 28.9176 16.2348C29.0448 15.6045 29.0162 14.9527 28.8343 14.336C28.6523 13.7193 28.3226 13.1564 27.8736 12.6961V4.53307L30.1309 4.99825C30.0808 5.84526 30.3056 6.68581 30.7718 7.39472C31.2381 8.10362 31.9208 8.64295 32.7184 8.93238L30.5911 19.2604L31.693 19.4854L34.6079 5.347C34.638 5.20136 34.6093 5.0497 34.5279 4.92521C34.4465 4.80071 34.3191 4.71351 34.1736 4.68269L27.8033 3.36982C27.7571 3.27876 27.6868 3.20216 27.6 3.14839C27.5132 3.09462 27.4132 3.06575 27.3111 3.06494H13.8111C13.7092 3.06575 13.6095 3.0945 13.5228 3.14805C13.4361 3.20161 13.3658 3.27793 13.3195 3.36869L6.94863 4.68269C6.8026 4.71288 6.67454 4.79981 6.59259 4.92438C6.51063 5.04895 6.48149 5.20096 6.51156 5.347L7.91838 12.1774ZM14.3736 26.6899V24.4962C14.9136 24.6075 15.4092 24.8746 15.7991 25.2645C16.189 25.6544 16.4561 26.1499 16.5674 26.6899H14.3736ZM11.8261 25.5616C12.3272 25.5648 12.8183 25.702 13.2486 25.9587V27.2524C13.2514 27.305 13.2618 27.357 13.2796 27.4066L12.262 27.676L11.8261 25.5616ZM20.5611 21.0649C19.9644 21.0649 19.3921 21.302 18.9701 21.724C18.5482 22.1459 18.3111 22.7182 18.3111 23.3149V26.6899H17.7036C17.5815 25.8502 17.1914 25.0723 16.5913 24.4722C15.9913 23.8722 15.2134 23.482 14.3736 23.3599V7.51994C15.2134 7.39784 15.9913 7.0077 16.5913 6.40764C17.1914 5.80759 17.5815 5.02972 17.7036 4.18994H23.4186C23.5407 5.02972 23.9309 5.80759 24.5309 6.40764C25.131 7.0077 25.9088 7.39784 26.7486 7.51994V23.3599C25.9204 23.4812 25.1522 23.863 24.5555 24.4501C23.9588 25.0372 23.5645 25.7991 23.4299 26.6253L22.8111 26.3333V23.3149C22.8111 22.7182 22.5741 22.1459 22.1521 21.724C21.7302 21.302 21.1579 21.0649 20.5611 21.0649ZM24.5549 26.6899C24.6662 26.1499 24.9333 25.6544 25.3232 25.2645C25.713 24.8746 26.2086 24.6075 26.7486 24.4962V26.6899H24.5549ZM25.0431 30.3726L24.277 30.7343C24.0483 29.8239 23.5347 29.0103 22.8111 28.4123V27.8149H23.3134L25.0437 28.6323C25.2155 28.7039 25.3622 28.8247 25.4654 28.9795C25.5687 29.1344 25.6237 29.3163 25.6237 29.5024C25.6237 29.6885 25.5687 29.8705 25.4654 30.0253C25.3622 30.1802 25.2155 30.301 25.0437 30.3726H25.0431ZM29.2917 25.5616L28.8496 27.7075L27.8134 27.4938C27.8518 27.419 27.8724 27.3364 27.8736 27.2524V25.9587C28.3028 25.7025 28.7919 25.5654 29.2917 25.5616ZM32.9479 7.81863C32.4418 7.60067 32.0105 7.23917 31.7075 6.77882C31.4045 6.31847 31.243 5.77944 31.243 5.22832L33.3906 5.671L32.9479 7.81863ZM26.7486 6.38369C26.2086 6.27237 25.713 6.00527 25.3232 5.6154C24.9333 5.22552 24.6662 4.72996 24.5549 4.18994H26.7486V6.38369ZM16.5674 4.18994C16.4561 4.72996 16.189 5.22552 15.7991 5.6154C15.4092 6.00527 14.9136 6.27237 14.3736 6.38369V4.18994H16.5674ZM9.87363 5.22832C9.87352 5.77956 9.71194 6.3187 9.40885 6.77914C9.10575 7.23958 8.67442 7.60115 8.16813 7.81919L7.72544 5.671L9.87363 5.22832Z" fill="black"/>
</svg>
