<svg width="295" height="229" viewBox="0 0 295 229" fill="none" xmlns="http://www.w3.org/2000/svg">
<g opacity="0.3">
<mask id="mask0_1269_3015" style="mask-type:alpha" maskUnits="userSpaceOnUse" x="-79" y="-40" width="314" height="314">
<rect x="295" y="158" width="312.765" height="312.765" rx="156.382" transform="rotate(145.668 295 158)" fill="#D9D9D9"/>
</mask>
<g mask="url(#mask0_1269_3015)">
<rect x="290.973" y="152.104" width="312.765" height="14.2815" transform="rotate(145.668 290.973 152.104)" fill="white" fill-opacity="0.3"/>
<rect x="274.863" y="128.516" width="312.765" height="14.2815" transform="rotate(145.668 274.863 128.516)" fill="#531D6F"/>
<rect x="258.756" y="104.93" width="312.765" height="14.2815" transform="rotate(145.668 258.756 104.93)" fill="white" fill-opacity="0.3"/>
<rect x="242.645" y="81.3438" width="312.765" height="14.2815" transform="rotate(145.668 242.645 81.3438)" fill="white" fill-opacity="0.3"/>
<rect x="226.535" y="57.7559" width="312.765" height="14.2815" transform="rotate(145.668 226.535 57.7559)" fill="#531D6F"/>
<rect x="210.428" y="34.1699" width="312.765" height="14.2815" transform="rotate(145.668 210.428 34.1699)" fill="white" fill-opacity="0.3"/>
<rect x="194.318" y="10.582" width="312.765" height="14.2815" transform="rotate(145.668 194.318 10.582)" fill="white" fill-opacity="0.3"/>
<rect x="178.209" y="-13.0039" width="312.765" height="14.2815" transform="rotate(145.668 178.209 -13.0039)" fill="white" fill-opacity="0.3"/>
<rect x="162.1" y="-36.5918" width="312.765" height="14.2815" transform="rotate(145.668 162.1 -36.5918)" fill="white" fill-opacity="0.3"/>
<rect x="145.99" y="-60.1797" width="312.765" height="14.2815" transform="rotate(145.668 145.99 -60.1797)" fill="white" fill-opacity="0.3"/>
<rect x="129.881" y="-83.7656" width="312.765" height="14.2815" transform="rotate(145.668 129.881 -83.7656)" fill="white" fill-opacity="0.3"/>
</g>
</g>
</svg>
