<svg width="40" height="40" viewBox="0 0 40 40" fill="none" xmlns="http://www.w3.org/2000/svg">
<rect x="0.5" y="0.5" width="39" height="39" rx="19.5" stroke="#DCDCDC"/>
<path d="M23.6335 27.1666C22.8802 27.1666 22.0868 26.9866 21.2668 26.64C20.4668 26.3 19.6602 25.8333 18.8735 25.2666C18.0935 24.6933 17.3402 24.0533 16.6268 23.3533C15.9202 22.64 15.2802 21.8866 14.7135 21.1133C14.1402 20.3133 13.6802 19.5133 13.3535 18.74C13.0068 17.9133 12.8335 17.1133 12.8335 16.36C12.8335 15.84 12.9268 15.3466 13.1068 14.8866C13.2935 14.4133 13.5935 13.9733 14.0002 13.5933C14.5135 13.0866 15.1002 12.8333 15.7268 12.8333C15.9868 12.8333 16.2535 12.8933 16.4802 13C16.7402 13.12 16.9602 13.3 17.1202 13.54L18.6668 15.72C18.8068 15.9133 18.9135 16.1 18.9868 16.2866C19.0735 16.4866 19.1202 16.6866 19.1202 16.88C19.1202 17.1333 19.0468 17.38 18.9068 17.6133C18.8068 17.7933 18.6535 17.9866 18.4602 18.18L18.0068 18.6533C18.0135 18.6733 18.0202 18.6866 18.0268 18.7C18.1068 18.84 18.2668 19.08 18.5735 19.44C18.9002 19.8133 19.2068 20.1533 19.5135 20.4666C19.9068 20.8533 20.2335 21.16 20.5402 21.4133C20.9202 21.7333 21.1668 21.8933 21.3135 21.9666L21.3002 22L21.7868 21.52C21.9935 21.3133 22.1935 21.16 22.3868 21.06C22.7535 20.8333 23.2202 20.7933 23.6868 20.9866C23.8602 21.06 24.0468 21.16 24.2468 21.3L26.4602 22.8733C26.7068 23.04 26.8868 23.2533 26.9935 23.5066C27.0935 23.76 27.1402 23.9933 27.1402 24.2266C27.1402 24.5466 27.0668 24.8666 26.9268 25.1666C26.7868 25.4666 26.6135 25.7266 26.3935 25.9666C26.0135 26.3866 25.6002 26.6866 25.1202 26.88C24.6602 27.0666 24.1602 27.1666 23.6335 27.1666ZM15.7268 13.8333C15.3602 13.8333 15.0202 13.9933 14.6935 14.3133C14.3868 14.6 14.1735 14.9133 14.0402 15.2533C13.9002 15.6 13.8335 15.9666 13.8335 16.36C13.8335 16.98 13.9802 17.6533 14.2735 18.3466C14.5735 19.0533 14.9935 19.7866 15.5268 20.52C16.0602 21.2533 16.6668 21.9666 17.3335 22.64C18.0002 23.3 18.7202 23.9133 19.4602 24.4533C20.1802 24.98 20.9202 25.4066 21.6535 25.7133C22.7935 26.2 23.8602 26.3133 24.7402 25.9466C25.0802 25.8066 25.3802 25.5933 25.6535 25.2866C25.8068 25.12 25.9268 24.94 26.0268 24.7266C26.1068 24.56 26.1468 24.3866 26.1468 24.2133C26.1468 24.1066 26.1268 24 26.0735 23.88C26.0535 23.84 26.0135 23.7666 25.8868 23.68L23.6735 22.1066C23.5402 22.0133 23.4202 21.9466 23.3068 21.9C23.1602 21.84 23.1002 21.78 22.8735 21.92C22.7402 21.9866 22.6202 22.0866 22.4868 22.22L21.9802 22.72C21.7202 22.9733 21.3202 23.0333 21.0135 22.92L20.8335 22.84C20.5602 22.6933 20.2402 22.4666 19.8868 22.1666C19.5668 21.8933 19.2202 21.5733 18.8002 21.16C18.4735 20.8266 18.1468 20.4733 17.8068 20.08C17.4935 19.7133 17.2668 19.4 17.1268 19.14L17.0468 18.94C17.0068 18.7866 16.9935 18.7 16.9935 18.6066C16.9935 18.3666 17.0802 18.1533 17.2468 17.9866L17.7468 17.4666C17.8802 17.3333 17.9802 17.2066 18.0468 17.0933C18.1002 17.0066 18.1202 16.9333 18.1202 16.8666C18.1202 16.8133 18.1002 16.7333 18.0668 16.6533C18.0202 16.5466 17.9468 16.4266 17.8535 16.3L16.3068 14.1133C16.2402 14.02 16.1602 13.9533 16.0602 13.9066C15.9535 13.86 15.8402 13.8333 15.7268 13.8333ZM21.3002 22.0066L21.1935 22.46L21.3735 21.9933C21.3402 21.9866 21.3135 21.9933 21.3002 22.0066Z" fill="black"/>
</svg>
