<svg width="41" height="40" viewBox="0 0 41 40" fill="none" xmlns="http://www.w3.org/2000/svg">
<path d="M11.9375 36.815C11.7883 36.815 11.6452 36.7558 11.5398 36.6503C11.4343 36.5448 11.375 36.4017 11.375 36.2525V33.6707L7.58263 30.6984C7.10788 30.3204 6.47112 29.579 6.22362 28.9895L3.54613 22.7649C3.51568 22.6946 3.49998 22.6188 3.5 22.5422V17.1208C3.5 16.421 4.29312 15.9047 5.05925 15.8113C6.02225 15.6875 7.20238 16.2062 7.65125 18.0017C7.86387 18.8533 7.92462 19.8377 7.96962 20.5565L7.98537 20.8029C7.99026 20.8766 7.98058 20.9506 7.95688 21.0206C7.93318 21.0906 7.89592 21.1552 7.84723 21.2108C7.79855 21.2664 7.7394 21.3118 7.67315 21.3445C7.6069 21.3772 7.53485 21.3966 7.46112 21.4014C7.31252 21.4101 7.16646 21.36 7.05448 21.2619C6.94251 21.1638 6.8736 21.0256 6.86263 20.8772L6.84575 20.6263C6.80413 19.9513 6.74675 19.0265 6.56 18.2739C6.41937 17.7092 6.1145 17.015 5.46537 16.9284C5.039 16.8654 4.66887 17.0994 4.60812 17.2052L4.625 22.4263L7.25975 28.5497C7.424 28.9423 7.93363 29.5397 8.28125 29.8164L12.2863 32.9552C12.4201 33.0609 12.5 33.224 12.5 33.3973V36.2525C12.5 36.4017 12.4407 36.5448 12.3352 36.6503C12.2298 36.7558 12.0867 36.815 11.9375 36.815ZM18.6875 36.815C18.5383 36.815 18.3952 36.7558 18.2898 36.6503C18.1843 36.5448 18.125 36.4017 18.125 36.2525V31.7942C18.125 29.4238 16.4881 27.3572 14.1436 26.7677C14.072 26.7496 14.0046 26.7177 13.9453 26.6736C13.886 26.6295 13.8359 26.5742 13.798 26.5108C13.7601 26.4474 13.735 26.3771 13.7243 26.304C13.7135 26.2309 13.7172 26.1564 13.7352 26.0848C13.7533 26.0131 13.7852 25.9457 13.8293 25.8864C13.8734 25.8271 13.9287 25.7771 13.9921 25.7392C14.0555 25.7013 14.1258 25.6762 14.1989 25.6654C14.272 25.6547 14.3465 25.6584 14.4181 25.6764C17.2633 26.3919 19.25 28.9074 19.25 31.7942V36.2525C19.25 36.4017 19.1907 36.5448 19.0852 36.6503C18.9798 36.7558 18.8367 36.815 18.6875 36.815Z" fill="black"/>
<path d="M12.2323 28.8465C12.083 28.8466 11.9399 28.7875 11.834 28.6823L6.89865 23.7548C6.84627 23.7025 6.80471 23.6405 6.77635 23.5721C6.748 23.5038 6.7334 23.4305 6.7334 23.3565C6.7334 23.2825 6.748 23.2093 6.77635 23.1409C6.80471 23.0726 6.84627 23.0105 6.89865 22.9583C8.44665 21.4103 10.3535 21.5419 12.1288 23.3183L14.6645 25.8495C14.7183 25.9014 14.7613 25.9634 14.7908 26.0319C14.8204 26.1005 14.836 26.1743 14.8368 26.249C14.8375 26.3237 14.8234 26.3978 14.7952 26.4669C14.767 26.5361 14.7254 26.599 14.6726 26.6518C14.6199 26.7047 14.5571 26.7466 14.488 26.775C14.419 26.8034 14.3449 26.8177 14.2702 26.8172C14.1955 26.8166 14.1217 26.8012 14.053 26.7718C13.9844 26.7424 13.9222 26.6997 13.8703 26.646L11.3334 24.1148C10.1792 22.9594 9.10253 22.7164 8.1249 23.3903L12.6272 27.8858C12.7047 27.9647 12.7575 28.0646 12.7788 28.1732C12.8 28.2818 12.789 28.3942 12.7469 28.4965C12.7048 28.5989 12.6336 28.6866 12.5422 28.7488C12.4507 28.811 12.3429 28.845 12.2323 28.8465ZM28.8125 36.8149C28.6633 36.8149 28.5203 36.7556 28.4148 36.6502C28.3093 36.5447 28.25 36.4016 28.25 36.2524V33.3972C28.25 33.2239 28.3299 33.0608 28.4649 32.9539L32.4733 29.8129C32.8175 29.5395 33.3272 28.941 33.4892 28.5529L36.125 22.4262V17.1207C36.0823 17.0993 35.7122 16.8709 35.2847 16.9283C34.6367 17.0149 34.3318 17.7079 34.19 18.2738C34.0033 19.0253 33.9459 19.95 33.9043 20.625L33.8885 20.8759C33.8773 21.0243 33.8083 21.1623 33.6964 21.2603C33.5845 21.3583 33.4386 21.4085 33.29 21.4002C33.2163 21.3953 33.1443 21.376 33.078 21.3432C33.0118 21.3105 32.9526 21.2651 32.9039 21.2095C32.8552 21.1539 32.818 21.0893 32.7943 21.0193C32.7706 20.9494 32.7609 20.8754 32.7658 20.8017L32.7815 20.5553C32.8265 19.8364 32.8873 18.852 33.0988 18.0004C33.5488 16.206 34.73 15.6874 35.6908 15.81C36.4569 15.9057 37.25 16.4209 37.25 17.1207V22.542C37.2499 22.6186 37.2342 22.6944 37.2039 22.7648L34.5242 28.9939C34.2778 29.5789 33.6422 30.3203 33.1697 30.696L29.375 33.6705V36.2524C29.375 36.4016 29.3158 36.5447 29.2103 36.6502C29.1048 36.7556 28.9617 36.8149 28.8125 36.8149ZM22.0625 36.8149C21.9133 36.8149 21.7703 36.7556 21.6648 36.6502C21.5593 36.5447 21.5 36.4016 21.5 36.2524V31.794C21.5 28.9073 23.4868 26.3918 26.3319 25.6763C26.4036 25.6583 26.4781 25.6545 26.5512 25.6653C26.6242 25.6761 26.6945 25.7011 26.7579 25.739C26.8213 25.777 26.8766 25.827 26.9207 25.8863C26.9648 25.9456 26.9968 26.013 27.0148 26.0847C27.0328 26.1563 27.0365 26.2308 27.0258 26.3039C27.015 26.377 26.9899 26.4473 26.952 26.5107C26.9141 26.5741 26.8641 26.6294 26.8048 26.6735C26.7455 26.7176 26.6781 26.7495 26.6064 26.7675C24.2619 27.357 22.625 29.4237 22.625 31.794V36.2524C22.625 36.4016 22.5658 36.5447 22.4603 36.6502C22.3548 36.7556 22.2117 36.8149 22.0625 36.8149Z" fill="black"/>
<path d="M28.5178 28.8466C28.4068 28.8457 28.2986 28.8122 28.2066 28.7502C28.1146 28.6883 28.0429 28.6006 28.0004 28.4981C27.958 28.3956 27.9466 28.2829 27.9678 28.174C27.9889 28.0651 28.0417 27.9649 28.1195 27.8858L32.6217 23.3903C31.643 22.7164 30.5686 22.9594 29.4144 24.1148L26.8775 26.6461C26.7713 26.7484 26.6291 26.8049 26.4816 26.8034C26.3341 26.8019 26.1931 26.7426 26.089 26.6381C25.9848 26.5337 25.9259 26.3925 25.9248 26.245C25.9237 26.0975 25.9806 25.9555 26.0833 25.8496L28.6201 23.3183C30.3976 21.5431 32.3034 21.4114 33.8503 22.9583C33.9026 23.0106 33.9442 23.0726 33.9726 23.141C34.0009 23.2093 34.0155 23.2826 34.0155 23.3566C34.0155 23.4306 34.0009 23.5038 33.9726 23.5722C33.9442 23.6405 33.9026 23.7026 33.8503 23.7548L28.9149 28.6823C28.8627 28.7345 28.8008 28.7758 28.7327 28.804C28.6645 28.8322 28.5915 28.8467 28.5178 28.8466ZM20.375 24.4399C14.4823 24.4399 9.6875 19.6452 9.6875 13.7524C9.6875 8.73494 13.2436 4.33732 18.143 3.29782C18.2157 3.28114 18.2911 3.2791 18.3646 3.29181C18.4381 3.30453 18.5084 3.33174 18.5713 3.37188C18.6342 3.41201 18.6885 3.46427 18.731 3.52559C18.7735 3.58691 18.8034 3.65608 18.8189 3.72907C18.8345 3.80206 18.8353 3.8774 18.8214 3.95072C18.8075 4.02404 18.7792 4.09386 18.7381 4.15612C18.6969 4.21839 18.6438 4.27184 18.5819 4.31338C18.5199 4.35492 18.4502 4.3837 18.377 4.39807C13.994 5.32844 10.8125 9.26257 10.8125 13.7524C10.8125 19.0253 15.1021 23.3149 20.375 23.3149C25.6479 23.3149 29.9375 19.0253 29.9375 13.7524C29.9375 8.47957 25.6479 4.18994 20.375 4.18994C20.2258 4.18994 20.0827 4.13068 19.9773 4.02519C19.8718 3.9197 19.8125 3.77663 19.8125 3.62744C19.8125 3.47826 19.8718 3.33518 19.9773 3.22969C20.0827 3.1242 20.2258 3.06494 20.375 3.06494C26.2677 3.06494 31.0625 7.85969 31.0625 13.7524C31.0625 19.6452 26.2677 24.4399 20.375 24.4399Z" fill="black"/>
<path d="M28.4749 20.3899C28.3535 20.3897 28.2355 20.3502 28.1385 20.2774L20.0385 14.2024C19.9191 14.1129 19.8402 13.9797 19.8191 13.832C19.798 13.6843 19.8365 13.5343 19.926 13.4149C20.0155 13.2956 20.1487 13.2167 20.2964 13.1956C20.4441 13.1745 20.5941 13.2129 20.7135 13.3024L28.8135 19.3774C28.908 19.4483 28.9778 19.5472 29.013 19.66C29.0482 19.7728 29.0469 19.8938 29.0094 20.0059C28.972 20.1179 28.9001 20.2153 28.8042 20.2843C28.7082 20.3532 28.593 20.3902 28.4749 20.3899Z" fill="black"/>
<path d="M12.2749 20.3899C12.1568 20.3899 12.0418 20.3528 11.946 20.2838C11.8502 20.2147 11.7786 20.1173 11.7413 20.0053C11.7039 19.8933 11.7028 19.7724 11.738 19.6597C11.7732 19.547 11.843 19.4483 11.9374 19.3774L20.0374 13.3024C20.1567 13.2129 20.3068 13.1745 20.4545 13.1956C20.6021 13.2167 20.7354 13.2956 20.8249 13.4149C20.9144 13.5343 20.9528 13.6843 20.9317 13.832C20.9107 13.9797 20.8317 14.1129 20.7124 14.2024L12.6124 20.2774C12.515 20.3505 12.3966 20.3899 12.2749 20.3899Z" fill="black"/>
<path d="M20.375 24.4399C20.2258 24.4399 20.0827 24.3807 19.9773 24.2752C19.8718 24.1697 19.8125 24.0266 19.8125 23.8774V3.62744C19.8125 3.47826 19.8718 3.33518 19.9773 3.22969C20.0827 3.1242 20.2258 3.06494 20.375 3.06494C20.5242 3.06494 20.6673 3.1242 20.7727 3.22969C20.8782 3.33518 20.9375 3.47826 20.9375 3.62744V23.8774C20.9375 24.0266 20.8782 24.1697 20.7727 24.2752C20.6673 24.3807 20.5242 24.4399 20.375 24.4399Z" fill="black"/>
</svg>
