<svg width="41" height="40" viewBox="0 0 41 40" fill="none" xmlns="http://www.w3.org/2000/svg">
<path d="M37.585 7.17193H30.7845V3.51709C30.7845 3.26997 30.7266 3.02628 30.6154 2.80557C30.5043 2.58485 30.343 2.39324 30.1445 2.24609C29.9459 2.09895 29.7157 2.00035 29.4722 1.95822C29.2287 1.91609 28.9787 1.93159 28.7423 2.00347L23.0013 3.74905C22.4984 3.29472 21.8447 3.04319 21.167 3.04319C20.4892 3.04319 19.8356 3.29472 19.3327 3.74905L13.5917 2.00354C13.3552 1.93167 13.1053 1.91618 12.8618 1.95832C12.6183 2.00046 12.388 2.09905 12.1895 2.2462C11.991 2.39334 11.8297 2.58495 11.7185 2.80566C11.6074 3.02637 11.5495 3.27005 11.5495 3.51716V7.172H4.74902C4.32959 7.17249 3.92748 7.33932 3.63089 7.6359C3.33431 7.93249 3.16748 8.3346 3.16699 8.75403V11.954C3.16752 12.3368 3.30669 12.7065 3.55875 12.9947C3.81081 13.2829 4.15871 13.47 4.53809 13.5215V35.2977C4.53887 35.9968 4.81692 36.667 5.31123 37.1613C5.80554 37.6556 6.47574 37.9336 7.1748 37.9344H35.1592C35.8582 37.9336 36.5284 37.6556 37.0228 37.1613C37.5171 36.667 37.7951 35.9968 37.7959 35.2977V13.5214C38.1753 13.4699 38.5232 13.2828 38.7752 12.9946C39.0273 12.7065 39.1665 12.3367 39.167 11.9539V8.75396C39.1665 8.33453 38.9997 7.93242 38.7031 7.63583C38.4065 7.33925 38.0044 7.17242 37.585 7.17193ZM23.7909 9.60889C23.8572 9.62904 23.9268 9.63594 23.9957 9.6292C24.0646 9.62245 24.1315 9.6022 24.1926 9.5696C24.2537 9.53699 24.3078 9.49267 24.3518 9.43916C24.3958 9.38565 24.4288 9.32401 24.4489 9.25775C24.469 9.19149 24.4759 9.12191 24.4692 9.05299C24.4625 8.98406 24.4422 8.91714 24.4096 8.85604C24.377 8.79494 24.3327 8.74086 24.2792 8.69689C24.2257 8.65292 24.164 8.61992 24.0978 8.59977L23.6622 8.46737C23.8252 8.11118 23.9094 7.72406 23.9092 7.33238V7.08622H26.1769C26.3168 7.08622 26.4509 7.03066 26.5498 6.93177C26.6487 6.83287 26.7042 6.69874 26.7042 6.55888C26.7042 6.41902 26.6487 6.28488 26.5498 6.18599C26.4509 6.08709 26.3168 6.03153 26.1769 6.03153H23.9092V5.78544C23.9094 5.39377 23.8252 5.00665 23.6623 4.65045L29.0491 3.01253C29.1279 2.98857 29.2112 2.98341 29.2924 2.99746C29.3736 3.01151 29.4503 3.04438 29.5165 3.09343C29.5826 3.14248 29.6364 3.20635 29.6735 3.27992C29.7105 3.35349 29.7298 3.43472 29.7298 3.51709V7.61462C29.7199 7.67065 29.7199 7.72797 29.7298 7.784V9.60067C29.7298 9.68304 29.7105 9.76426 29.6735 9.83783C29.6364 9.9114 29.5826 9.97527 29.5165 10.0243C29.4503 10.0734 29.3736 10.1062 29.2924 10.1203C29.2112 10.1343 29.1279 10.1292 29.0491 10.1052L25.9266 9.1558C25.9097 9.15067 25.8925 9.1464 25.8751 9.143C25.87 9.14195 25.8649 9.14153 25.8599 9.14061C25.848 9.13849 25.8361 9.13678 25.8241 9.13548C25.8169 9.13478 25.8098 9.13478 25.8026 9.13435C25.7926 9.13372 25.7826 9.13302 25.7725 9.13302C25.7655 9.13302 25.7587 9.13358 25.7517 9.13386C25.7414 9.13428 25.7311 9.13456 25.7208 9.13562C25.7148 9.13618 25.709 9.13731 25.7031 9.13808C25.6918 9.13956 25.6806 9.14103 25.6695 9.14328C25.6647 9.1442 25.6602 9.1456 25.6555 9.14666C25.6434 9.1494 25.6314 9.15228 25.6195 9.15587C25.6156 9.15706 25.6118 9.15868 25.6079 9.15988C25.5956 9.16382 25.5834 9.16823 25.5714 9.1731C25.5669 9.17499 25.5626 9.17731 25.5583 9.17921C25.5472 9.18413 25.5361 9.18906 25.5252 9.19482C25.5101 9.20288 25.4954 9.21167 25.481 9.22119L25.4809 9.22133C25.4794 9.22231 25.4781 9.22344 25.4767 9.22442C25.4636 9.23322 25.451 9.24261 25.4388 9.25255C25.434 9.25635 25.4298 9.26063 25.4253 9.26464C25.4168 9.27203 25.4084 9.27941 25.4004 9.28728C25.395 9.29263 25.3901 9.29839 25.385 9.30395C25.3785 9.31098 25.3718 9.31801 25.3657 9.32546C25.3605 9.33179 25.3559 9.33854 25.3509 9.34515C25.3455 9.35232 25.34 9.35942 25.3349 9.36695C25.33 9.37426 25.3258 9.38192 25.3212 9.38945C25.3169 9.39662 25.3123 9.40365 25.3083 9.4111C25.3035 9.42024 25.2993 9.42974 25.295 9.43909C25.2921 9.44542 25.2889 9.45139 25.2862 9.45786C25.2803 9.47209 25.2751 9.48656 25.2706 9.50124C25.2699 9.50321 25.2692 9.50497 25.2685 9.50687L25.2685 9.50715C25.2634 9.5237 25.2593 9.54046 25.2559 9.55742C25.254 9.56706 25.2529 9.57676 25.2515 9.58639C25.2505 9.59363 25.2491 9.60081 25.2484 9.60812C25.2473 9.61895 25.247 9.62963 25.2466 9.64046C25.2464 9.64679 25.2458 9.65312 25.2458 9.65945C25.2458 9.66964 25.2465 9.67977 25.247 9.68989C25.2474 9.69699 25.2476 9.7041 25.2482 9.71113C25.2491 9.72006 25.2506 9.72885 25.2519 9.7377C25.2531 9.746 25.2541 9.7543 25.2558 9.7626C25.2572 9.77012 25.2593 9.7775 25.2612 9.78488C25.2635 9.79424 25.2655 9.80359 25.2683 9.8128C25.2704 9.81948 25.2729 9.82595 25.2752 9.83263C25.2786 9.84219 25.2817 9.85182 25.2856 9.86124C25.2886 9.8687 25.2924 9.8758 25.2957 9.88304C25.2996 9.89127 25.3031 9.89963 25.3074 9.90765C25.3156 9.92298 25.3244 9.93788 25.334 9.95237L25.3341 9.95251L27.5548 13.2876C27.5605 13.2969 27.5665 13.3059 27.5727 13.3147L28.5154 14.7302L26.9938 14.9275C26.9135 14.9379 26.8367 14.9666 26.7693 15.0115C26.7019 15.0564 26.6458 15.1162 26.6052 15.1862L25.8364 16.514L24.3829 14.3309L24.3806 14.3274L21.8006 10.4526L22.1824 9.8791C22.4833 9.75857 22.7605 9.58577 23.0012 9.3687L23.7909 9.60889ZM19.4795 5.78544C19.4795 5.33789 19.6573 4.90866 19.9737 4.5922C20.2902 4.27573 20.7194 4.09794 21.167 4.09794C21.6145 4.09794 22.0438 4.27573 22.3602 4.5922C22.6767 4.90866 22.8545 5.33789 22.8545 5.78544V7.33231C22.8541 7.67576 22.749 8.01094 22.5534 8.29319C22.3577 8.57544 22.0807 8.79138 21.7592 8.91224C21.7084 8.92082 21.6591 8.93676 21.6129 8.95956C21.3625 9.02834 21.0996 9.03838 20.8447 8.98889C20.5898 8.9394 20.3498 8.83173 20.1433 8.67425C19.9368 8.51677 19.7695 8.31375 19.6544 8.081C19.5392 7.84825 19.4794 7.59206 19.4795 7.33238V5.78544ZM12.6042 3.51709C12.6042 3.43472 12.6235 3.35349 12.6605 3.27992C12.6976 3.20635 12.7513 3.14248 12.8175 3.09343C12.8837 3.04438 12.9604 3.01151 13.0416 2.99746C13.1228 2.98341 13.2061 2.98857 13.2849 3.01253L18.6717 4.65045C18.5088 5.00666 18.4247 5.39378 18.4249 5.78544V6.03153H16.1572C16.0173 6.03153 15.8832 6.08709 15.7843 6.18599C15.6854 6.28488 15.6298 6.41902 15.6298 6.55888C15.6298 6.69874 15.6854 6.83287 15.7843 6.93177C15.8832 7.03066 16.0173 7.08622 16.1572 7.08622H18.4249V7.33231C18.4247 7.72402 18.5089 8.11116 18.6718 8.46737L16.4085 9.15552L16.4079 9.15573L13.285 10.1052C13.2062 10.1292 13.1228 10.1343 13.0417 10.1203C12.9605 10.1062 12.8838 10.0734 12.8176 10.0243C12.7514 9.97527 12.6976 9.9114 12.6606 9.83783C12.6236 9.76426 12.6043 9.68304 12.6043 9.60067L12.6042 3.51709ZM4.74902 12.4812C4.60921 12.4811 4.47516 12.4255 4.3763 12.3266C4.27744 12.2277 4.22183 12.0937 4.22168 11.9539V8.75396C4.22183 8.61415 4.27744 8.4801 4.3763 8.38124C4.47516 8.28237 4.60921 8.22677 4.74902 8.22662H11.5495V9.60067C11.5498 10.0195 11.7159 10.4211 12.0115 10.7178C12.307 11.0145 12.708 11.1821 13.1268 11.184C13.2844 11.1839 13.4411 11.1604 13.5917 11.1144L15.3064 10.593L14.0491 12.4812H4.74902ZM17.8623 36.8797H7.1748C6.75537 36.8792 6.35326 36.7124 6.05667 36.4158C5.76009 36.1192 5.59326 35.7171 5.59277 35.2976V13.5359H13.3468L12.4705 14.852C12.4208 14.9266 12.391 15.0127 12.3838 15.102C12.3767 15.1914 12.3924 15.2811 12.4296 15.3627C12.4667 15.4443 12.5241 15.5151 12.5962 15.5684C12.6683 15.6216 12.7529 15.6556 12.8418 15.6672L14.9464 15.94L16.0099 17.7767C16.0548 17.8543 16.1187 17.9191 16.1957 17.9651C16.2727 18.0111 16.3601 18.0367 16.4497 18.0395C16.4552 18.0397 16.4607 18.0398 16.4663 18.0398C16.5532 18.0398 16.6387 18.0183 16.7153 17.9773C16.7918 17.9363 16.8571 17.877 16.9052 17.8047L17.8636 16.3654L17.8623 36.8797ZM17.9523 14.329L16.4975 16.514L15.7287 15.1862C15.6882 15.1162 15.632 15.0564 15.5647 15.0115C15.4973 14.9666 15.4205 14.9379 15.3402 14.9275L13.8186 14.7302L14.7679 13.3047L14.7698 13.3018L16.8951 10.1099L19.3328 9.3687C19.7424 9.73884 20.2545 9.97627 20.8016 10.0498L20.7652 10.1045C20.7366 10.1376 20.7123 10.1742 20.6928 10.2134L17.9548 14.3253L17.9523 14.329ZM36.7412 35.2976C36.7407 35.7171 36.5739 36.1192 36.2773 36.4158C35.9807 36.7124 35.5786 36.8792 35.1592 36.8797H24.4717V33.0786C24.4717 32.9387 24.4161 32.8046 24.3172 32.7057C24.2183 32.6068 24.0842 32.5512 23.9443 32.5512C23.8045 32.5512 23.6703 32.6068 23.5714 32.7057C23.4726 32.8046 23.417 32.9387 23.417 33.0786V36.8797H18.917L18.9183 14.7813L21.1669 11.4042L23.417 14.7833V30.9692C23.417 31.1091 23.4726 31.2432 23.5714 31.3421C23.6703 31.441 23.8045 31.4965 23.9443 31.4965C24.0842 31.4965 24.2183 31.441 24.3172 31.3421C24.4161 31.2432 24.4717 31.1091 24.4717 30.9692V16.3673L25.4288 17.8047C25.4769 17.877 25.5422 17.9363 25.6188 17.9773C25.6953 18.0183 25.7809 18.0398 25.8677 18.0398C25.8732 18.0398 25.8788 18.0397 25.8843 18.0395C25.9739 18.0367 26.0613 18.0111 26.1383 17.9651C26.2153 17.9191 26.2792 17.8543 26.3241 17.7767L27.3875 15.94L29.4922 15.6672C29.5811 15.6556 29.6656 15.6216 29.7378 15.5684C29.8099 15.5151 29.8672 15.4443 29.9044 15.3627C29.9416 15.2811 29.9573 15.1914 29.9501 15.102C29.943 15.0127 29.9131 14.9266 29.8635 14.852L28.9871 13.5359H36.7412V35.2976ZM38.1123 11.9539C38.1122 12.0937 38.0565 12.2277 37.9577 12.3266C37.8588 12.4255 37.7248 12.4811 37.585 12.4812H28.2849L27.0277 10.593L28.7423 11.1144C28.8929 11.1604 29.0496 11.1838 29.2072 11.184C29.6259 11.182 30.0269 11.0144 30.3225 10.7178C30.618 10.4211 30.7841 10.0194 30.7845 9.60067V8.22662H37.585C37.7248 8.22677 37.8588 8.28237 37.9577 8.38124C38.0565 8.4801 38.1122 8.61415 38.1123 8.75396V11.9539Z" fill="#282828"/>
</svg>
