<svg width="209" height="34" viewBox="0 0 209 34" fill="none" xmlns="http://www.w3.org/2000/svg">
<mask id="mask0_665_2413" style="mask-type:luminance" maskUnits="userSpaceOnUse" x="22" y="5" width="156" height="24">
<path d="M177.14 5.51562H22.5957V28.8809H177.14V5.51562Z" fill="white"/>
</mask>
<g mask="url(#mask0_665_2413)">
<path d="M121.339 27.9624V12.0028C121.339 11.7732 121.281 11.7732 121.224 12.0028L115.77 28.1346C115.598 28.5939 115.138 28.9383 114.679 28.9383H111.751C111.235 28.9383 110.833 28.5939 110.661 28.1346L105.207 12.0028C105.149 11.7732 105.092 11.7732 105.092 12.0028V27.9624C105.092 28.4791 104.69 28.8809 104.173 28.8809H100.844C100.327 28.8809 99.9251 28.4791 99.9251 27.9624V6.43416C99.9251 5.91749 100.327 5.51563 100.844 5.51563H107.618C108.135 5.51563 108.594 5.86008 108.709 6.31935L113.129 19.9826C113.186 20.0974 113.244 20.0974 113.244 19.9826L117.722 6.31935C117.894 5.86008 118.353 5.51562 118.813 5.51562H125.587C126.103 5.51562 126.505 5.91749 126.505 6.43416V27.9624C126.505 28.4791 126.103 28.8809 125.587 28.8809H122.257C121.74 28.8809 121.339 28.4791 121.339 27.9624ZM90.5675 17.1696C90.5101 17.1696 90.5101 17.227 90.5675 17.227C93.0361 18.0307 94.1842 20.3845 94.1842 22.4512V27.905C94.1842 28.4217 93.7824 28.8235 93.2657 28.8235H89.7064C89.1897 28.8235 88.7878 28.4217 88.7878 27.905V22.9104C88.7878 20.7863 87.5823 19.1789 84.4248 19.1789H79.1432C79.0858 19.1789 79.0284 19.2363 79.0284 19.2937V27.905C79.0284 28.4217 78.6265 28.8235 78.1098 28.8235H74.6653C74.1486 28.8235 73.7468 28.4217 73.7468 27.905V6.43416C73.7468 5.91749 74.1486 5.51563 74.6653 5.51563H87.2378C91.4286 5.51563 94.3565 7.41011 94.3565 11.7732C94.2991 14.4714 92.6916 16.8251 90.5675 17.1696ZM89.1897 12.2324C89.1897 10.0509 87.2952 9.76386 85.4581 9.76386H79.0858C79.0284 9.76386 78.971 9.82127 78.971 9.87868V14.701C78.971 14.7584 79.0284 14.8158 79.0858 14.8158H85.4581C87.2378 14.8158 89.1897 14.5288 89.1897 12.2324ZM173.351 17.1696C173.293 17.1696 173.293 17.227 173.351 17.227C175.819 18.0307 176.967 20.3845 176.967 22.4512V27.905C176.967 28.4217 176.566 28.8235 176.049 28.8235H172.49C171.973 28.8235 171.571 28.4217 171.571 27.905V22.9104C171.571 20.7863 170.365 19.1789 167.208 19.1789H161.926C161.869 19.1789 161.812 19.2363 161.812 19.2937V27.905C161.812 28.4217 161.41 28.8235 160.893 28.8235H157.449C156.932 28.8235 156.53 28.4217 156.53 27.905V6.43416C156.53 5.91749 156.932 5.51563 157.449 5.51563H170.021C174.212 5.51563 177.14 7.41011 177.14 11.7732C177.14 14.4714 175.532 16.8251 173.351 17.1696ZM171.973 12.2324C171.973 10.0509 170.078 9.76386 168.241 9.76386H161.926C161.869 9.76386 161.812 9.82127 161.812 9.87868V14.701C161.812 14.7584 161.869 14.8158 161.926 14.8158H168.299C170.021 14.8158 171.973 14.5288 171.973 12.2324ZM40.5646 16.6529C40.5072 16.6529 40.5072 16.7103 40.5646 16.7677C41.8276 17.2844 43.8943 18.777 43.8943 22.566C43.8943 26.929 40.3924 28.8809 37.2349 28.8809H23.5142C22.9976 28.8809 22.5957 28.4791 22.5957 27.9624V6.43416C22.5957 5.91749 22.9976 5.51563 23.5142 5.51563H37.3497C41.4257 5.51563 43.7795 8.32865 43.7795 11.1991C43.8369 14.701 41.7702 16.1936 40.5646 16.6529ZM38.2683 21.7623C38.2683 19.5233 36.3738 19.2363 34.5367 19.2363H28.2217C28.1643 19.2363 28.1069 19.2937 28.1069 19.3511V24.3456C28.1069 24.4031 28.1643 24.4605 28.2217 24.4605H34.5941C36.3164 24.4031 38.2683 24.116 38.2683 21.7623ZM38.2683 12.2324C38.2683 10.0509 36.3738 9.76386 34.5367 9.76386H28.2217C28.1643 9.76386 28.1069 9.82127 28.1069 9.87868V14.701C28.1069 14.7584 28.1643 14.8158 28.2217 14.8158H34.5941C36.3164 14.8158 38.2683 14.5288 38.2683 12.2324ZM137.93 9.76386H149.928C150.445 9.76386 150.847 9.362 150.847 8.84532V6.43416C150.847 5.91749 150.445 5.51563 149.928 5.51563H133.394C132.878 5.51563 132.476 5.91749 132.476 6.43416V27.9624C132.476 28.4791 132.878 28.8809 133.394 28.8809H149.928C150.445 28.8809 150.847 28.4791 150.847 27.9624V25.379C150.847 24.8623 150.445 24.4605 149.928 24.4605H137.93C137.872 24.4605 137.815 24.4031 137.815 24.3456V19.4085C137.815 19.3511 137.872 19.2937 137.93 19.2937H149.928C150.445 19.2937 150.847 18.8918 150.847 18.3752V15.8492C150.847 15.3325 150.445 14.9306 149.928 14.9306H137.93C137.872 14.9306 137.815 14.8732 137.815 14.8158V9.87868C137.815 9.82127 137.872 9.76386 137.93 9.76386ZM46.7647 28.8809C46.1906 28.8809 45.7888 28.3068 46.0184 27.7902L54.1704 6.26194C54.3427 5.80267 54.8019 5.51563 55.2612 5.51563H61.4039C61.8632 5.51563 62.3225 5.80267 62.4947 6.26194L70.5319 27.7902C70.7041 28.3068 70.3597 28.8809 69.7856 28.8809H65.9966C65.5373 28.8809 65.1355 28.5939 65.0207 28.192L63.241 23.3123C63.241 23.2549 63.1836 23.2549 63.1262 23.2549H53.1945C53.1371 23.2549 53.0797 23.3123 53.0797 23.3123L51.3 28.192C51.1278 28.5939 50.7259 28.8809 50.3241 28.8809H46.7647ZM54.8019 19.0066H61.4613C61.5187 19.0066 61.5762 18.9492 61.5762 18.8344L58.189 9.64904C58.1316 9.59164 58.1316 9.59164 58.0742 9.64904L54.6871 18.8344C54.6871 18.8918 54.7445 19.0066 54.8019 19.0066Z" fill="#84BD00"/>
</g>
</svg>
