<svg width="91" height="49" viewBox="0 0 91 49" fill="none" xmlns="http://www.w3.org/2000/svg">
<g clip-path="url(#clip0_665_2347)">
<mask id="mask0_665_2347" style="mask-type:luminance" maskUnits="userSpaceOnUse" x="0" y="0" width="91" height="49">
<path d="M90.9474 0.738281H0V48.7383H90.9474V0.738281Z" fill="white"/>
</mask>
<g mask="url(#mask0_665_2347)">
<path d="M14.521 30.8081H11.3838V24.3084C11.3838 23.1968 10.9386 22.5723 9.83919 22.5723C8.73974 22.5723 8.19961 23.1953 8.19961 24.3084V30.8081H5.06445V23.5965C5.06445 20.9691 7.1239 19.7236 9.37131 19.7236C10.0609 19.6981 10.7453 19.853 11.3567 20.173C11.9681 20.493 12.4855 20.967 12.8576 21.5481C13.2827 20.9753 13.8374 20.5114 14.4763 20.1942C15.1152 19.8771 15.8202 19.7158 16.5334 19.7236C18.7813 19.7236 20.8403 20.9701 20.8403 23.5965V30.8081H17.7036V24.3084C17.7036 23.1968 17.165 22.5723 16.064 22.5723C14.9631 22.5723 14.5205 23.1953 14.5205 24.3084L14.521 30.8081ZM82.9255 30.8081V24.7095C82.9255 23.4191 81.8958 22.5728 80.2567 22.5728C78.8288 22.5728 77.7304 23.8188 77.7304 25.4023C77.7248 25.7386 77.7855 26.0728 77.909 26.3857C78.0325 26.6987 78.2165 26.9842 78.4504 27.226C78.6843 27.4678 78.9635 27.6612 79.2721 27.7951C79.5808 27.929 79.9128 28.0008 80.2491 28.0064C80.283 28.0064 80.3173 28.0064 80.3502 28.0064C80.9355 28.0019 81.5149 27.8888 82.059 27.6729V30.6292C81.4392 30.7889 80.8035 30.8782 80.1637 30.8955C76.6532 30.8955 74.7337 28.3358 74.7337 25.5084C74.7337 22.0367 77.168 19.7221 80.3037 19.7221C83.7223 19.7221 85.9227 21.7699 85.9227 24.5726V30.803L82.9255 30.8081ZM30.9021 30.8081V24.7095C30.9021 23.4191 29.8724 22.5728 28.2328 22.5728C26.8049 22.5728 25.7065 23.8188 25.7065 25.4023C25.6953 26.0817 25.9544 26.7377 26.4268 27.226C26.8993 27.7144 27.5463 27.9951 28.2257 28.0064C28.2601 28.0064 28.2944 28.0064 28.3268 28.0064C28.9119 28.0016 29.4911 27.8885 30.0351 27.6729V30.6292C29.415 30.7889 28.7789 30.8782 28.1388 30.8955C24.6282 30.8955 22.7087 28.3358 22.7087 25.5084C22.7087 22.0367 25.1431 19.7221 28.2798 19.7221C31.6969 19.7221 33.8978 21.7699 33.8978 24.5726V30.803L30.9021 30.8081ZM45.6477 19.9904V26.4901C45.6477 27.6017 46.0918 28.2262 47.1923 28.2262C48.2927 28.2262 48.8319 27.6032 48.8319 26.4901V19.9904H51.9675V27.2015C51.9675 29.8289 49.9081 31.0754 47.6607 31.0754C46.9473 31.083 46.2422 30.9215 45.6033 30.6041C44.9644 30.2867 44.4098 29.8224 43.9849 29.2493C43.6128 29.8307 43.0956 30.3049 42.4841 30.6252C41.8727 30.9454 41.1883 31.1006 40.4986 31.0754C38.2506 31.0754 36.1917 29.8279 36.1917 27.2015V19.9904H39.3279V26.4901C39.3279 27.6017 39.8665 28.2262 40.9674 28.2262C42.0684 28.2262 42.512 27.6032 42.512 26.4901V19.9904H45.6477ZM54.2821 19.9904H57.2778V30.8081H54.2816L54.2821 19.9904ZM73.5433 19.9904V22.7501H71.3661V26.7564C71.3661 27.5582 71.7875 27.9594 72.3958 27.9594H73.5433V30.8081H71.977C69.2147 30.8081 68.3719 29.2498 68.3719 26.8463V17.0947H71.3686V19.9879L73.5433 19.9904ZM58.9154 28.1373H62.7781C63.34 28.1373 63.6214 27.871 63.6214 27.537C63.6214 26.1789 59.0331 25.8671 59.0331 23.1735C59.0331 20.8362 60.7647 19.9904 62.7306 19.9904H66.3357V22.6612H62.8716C62.4967 22.6612 62.1233 22.7057 62.1233 23.1508C62.1233 24.129 66.945 24.6666 66.945 27.5138C66.945 29.6733 65.2595 30.8081 63.105 30.8081H58.9159L58.9154 28.1373Z" fill="#040506"/>
<path d="M57.557 15.946C57.557 16.2974 57.4527 16.641 57.2575 16.9332C57.0622 17.2254 56.7847 17.4532 56.46 17.5877C56.1353 17.7222 55.778 17.7574 55.4333 17.6888C55.0886 17.6203 54.7719 17.451 54.5234 17.2025C54.2749 16.954 54.1056 16.6373 54.0371 16.2926C53.9685 15.9479 54.0037 15.5906 54.1382 15.2659C54.2727 14.9412 54.5005 14.6637 54.7927 14.4684C55.0849 14.2732 55.4285 14.1689 55.7799 14.1689C56.2512 14.1689 56.7032 14.3562 57.0365 14.6894C57.3697 15.0227 57.557 15.4747 57.557 15.946Z" fill="#CB161A"/>
<path d="M57.557 11.3483C57.557 11.6998 57.4527 12.0433 57.2575 12.3356C57.0622 12.6278 56.7847 12.8555 56.46 12.99C56.1353 13.1245 55.778 13.1597 55.4333 13.0912C55.0886 13.0226 54.7719 12.8534 54.5234 12.6048C54.2749 12.3563 54.1056 12.0397 54.0371 11.695C53.9685 11.3503 54.0037 10.993 54.1382 10.6683C54.2727 10.3436 54.5005 10.066 54.7927 9.87077C55.0849 9.67551 55.4285 9.57129 55.7799 9.57129C56.2512 9.57129 56.7032 9.75851 57.0365 10.0918C57.3697 10.425 57.557 10.877 57.557 11.3483Z" fill="#CB161A"/>
<path d="M57.557 6.7526C57.557 7.10405 57.4527 7.44762 57.2575 7.73985C57.0622 8.03208 56.7847 8.25984 56.46 8.39434C56.1353 8.52884 55.778 8.56403 55.4333 8.49546C55.0886 8.4269 54.7719 8.25765 54.5234 8.00913C54.2749 7.76061 54.1056 7.44398 54.0371 7.09927C53.9685 6.75457 54.0037 6.39727 54.1382 6.07256C54.2727 5.74786 54.5005 5.47033 54.7927 5.27507C55.0849 5.07981 55.4285 4.97559 55.7799 4.97559C56.2512 4.97559 56.7032 5.16281 57.0365 5.49606C57.3697 5.82931 57.557 6.2813 57.557 6.7526Z" fill="#CB161A"/>
<path d="M57.557 34.8415C57.557 35.1929 57.4527 35.5365 57.2575 35.8287C57.0622 36.1209 56.7847 36.3487 56.46 36.4832C56.1353 36.6177 55.778 36.6529 55.4333 36.5843C55.0886 36.5158 54.7719 36.3465 54.5234 36.098C54.2749 35.8495 54.1056 35.5328 54.0371 35.1881C53.9685 34.8434 54.0037 34.4861 54.1382 34.1614C54.2727 33.8367 54.5005 33.5592 54.7927 33.3639C55.0849 33.1687 55.4285 33.0645 55.7799 33.0645C56.2512 33.0645 56.7032 33.2517 57.0365 33.5849C57.3697 33.9182 57.557 34.3702 57.557 34.8415Z" fill="#CB161A"/>
<path d="M7.00222 40.6074L4.91699 37.6299H5.7623L7.33367 39.9283L8.90504 37.6299H9.74984L7.67826 40.6074V42.8957H6.99918L7.00222 40.6074Z" fill="#676767"/>
<path d="M10.2198 42.736C9.93544 42.5729 9.7038 42.3316 9.55237 42.0408C9.39649 41.7238 9.31543 41.3752 9.31543 41.0219C9.31543 40.6686 9.39649 40.3201 9.55237 40.003C9.70328 39.713 9.93515 39.4731 10.2198 39.3124C10.524 39.1515 10.863 39.0674 11.2071 39.0674C11.5512 39.0674 11.8902 39.1515 12.1944 39.3124C12.4788 39.4732 12.7105 39.7131 12.8613 40.003C13.0174 40.32 13.0985 40.6686 13.0985 41.0219C13.0985 41.3752 13.0174 41.7238 12.8613 42.0408C12.7099 42.3314 12.4785 42.5726 12.1944 42.736C11.891 42.8994 11.5517 42.9849 11.2071 42.9849C10.8625 42.9849 10.5233 42.8994 10.2198 42.736ZM12.1151 42.0014C12.3556 41.7316 12.4824 41.3793 12.4688 41.0181C12.4832 40.6593 12.3562 40.3091 12.1151 40.043C11.8737 39.8021 11.5466 39.6668 11.2056 39.6668C10.8646 39.6668 10.5375 39.8021 10.2961 40.043C10.0549 40.309 9.92788 40.6593 9.94244 41.0181C9.92738 41.3807 10.0543 41.7349 10.2961 42.0054C10.412 42.1303 10.5535 42.2289 10.7108 42.2942C10.8682 42.3596 11.0378 42.3904 11.2081 42.3844C11.378 42.3901 11.5471 42.3588 11.7037 42.2927C11.8604 42.2266 12.0007 42.1271 12.1151 42.0014Z" fill="#676767"/>
<path d="M17.1427 39.147V42.8981H16.5505V42.3372C16.4317 42.5407 16.2578 42.7064 16.0488 42.8152C15.8296 42.9257 15.5869 42.9812 15.3415 42.9769C15.1437 42.9856 14.9465 42.9509 14.7636 42.8753C14.5807 42.7996 14.4166 42.6847 14.2829 42.5388C14.003 42.1989 13.8619 41.7658 13.8878 41.3262V39.1465H14.5194V41.2236C14.4955 41.5337 14.5869 41.8417 14.7761 42.0886C14.8668 42.1861 14.9778 42.2624 15.1012 42.3123C15.2247 42.3621 15.3576 42.3843 15.4905 42.3771C15.6292 42.3841 15.7677 42.3608 15.8966 42.309C16.0254 42.2572 16.1415 42.178 16.2368 42.077C16.4295 41.8452 16.5268 41.5488 16.5091 41.2479V39.1475L17.1427 39.147Z" fill="#676767"/>
<path d="M20.2378 39.17L20.1509 39.794C20.0313 39.7531 19.9059 39.7318 19.7796 39.7308C19.6507 39.7237 19.5219 39.7459 19.4029 39.7957C19.2838 39.8456 19.1777 39.9219 19.0924 40.0188C18.9117 40.2671 18.825 40.5715 18.8479 40.8778V42.8988H18.2168V39.1477H18.809V39.748C18.8878 39.55 19.0254 39.3808 19.2033 39.2634C19.3812 39.146 19.5907 39.0858 19.8038 39.0911C19.9523 39.0884 20.0998 39.1152 20.2378 39.17Z" fill="#676767"/>
<path d="M25.5306 39.5064C25.8105 39.8463 25.9517 40.2794 25.9257 40.719V42.8987H25.2942V40.8216C25.3175 40.5117 25.2262 40.204 25.0375 39.9571C24.9468 39.8596 24.8358 39.7833 24.7123 39.7334C24.5889 39.6836 24.456 39.6614 24.323 39.6686C24.1843 39.6616 24.0458 39.6849 23.917 39.7367C23.7881 39.7885 23.672 39.8677 23.5768 39.9687C23.3841 40.2005 23.2867 40.4969 23.3044 40.7978V42.8987H22.6729V37.3555H23.3044V39.6458C23.4241 39.4569 23.5954 39.3061 23.7981 39.2113C24.0125 39.1141 24.2458 39.0656 24.4812 39.0693C24.6774 39.0611 24.873 39.096 25.0543 39.1715C25.2356 39.247 25.3982 39.3613 25.5306 39.5064Z" fill="#676767"/>
<path d="M30.2282 41.2475H27.3537C27.3632 41.4099 27.4047 41.5689 27.4758 41.7152C27.5469 41.8616 27.6462 41.9925 27.768 42.1003C28.0274 42.3035 28.3509 42.4071 28.68 42.3924C28.9028 42.3917 29.1242 42.3577 29.3369 42.2913C29.5453 42.2293 29.7426 42.1346 29.9215 42.0109L30.0953 42.5561C29.9011 42.6952 29.6848 42.8006 29.4556 42.8679C29.2023 42.945 28.9388 42.9837 28.674 42.9825C28.3187 42.9894 27.9674 42.908 27.6513 42.7456C27.3588 42.5926 27.1182 42.3563 26.9601 42.0665C26.7902 41.743 26.706 41.3813 26.7156 41.0161C26.7091 40.6665 26.785 40.3204 26.9369 40.0055C27.0753 39.7207 27.2917 39.481 27.5609 39.3143C27.8366 39.1466 28.1542 39.0604 28.4769 39.0657C28.8007 39.0597 29.1201 39.1416 29.4011 39.3027C29.6683 39.4595 29.8849 39.6898 30.0251 39.9661C30.177 40.2698 30.253 40.6058 30.2464 40.9453C30.2447 41.0312 30.2386 41.1319 30.2282 41.2475ZM27.7347 39.9206C27.5266 40.1262 27.3945 40.3962 27.3598 40.6866H29.6042C29.591 40.4001 29.4697 40.1293 29.2646 39.9287C29.0544 39.7352 28.7761 39.6329 28.4906 39.6443C28.2121 39.6336 27.9406 39.7328 27.7347 39.9206Z" fill="#676767"/>
<path d="M31.6849 42.7283C31.4175 42.5609 31.2026 42.3215 31.065 42.0376C30.9192 41.7191 30.8438 41.373 30.8438 41.0228C30.8438 40.6725 30.9192 40.3264 31.065 40.008C31.2684 39.607 31.6209 39.3018 32.0469 39.1578C32.4728 39.0139 32.9382 39.0426 33.3432 39.2379C33.5785 39.3564 33.7808 39.5314 33.9318 39.7472V39.149H34.522V42.9001H33.9298V42.2998C33.7788 42.5158 33.5766 42.6908 33.3412 42.8091C33.0795 42.9331 32.7914 42.9907 32.5022 42.977C32.213 42.9632 31.9316 42.8785 31.6829 42.7303L31.6849 42.7283ZM33.5685 42.0098C33.7961 41.7312 33.9116 41.3777 33.8924 41.0185C33.9119 40.6599 33.7947 40.3073 33.5645 40.0317C33.4567 39.9119 33.3239 39.8173 33.1754 39.7545C33.027 39.6918 32.8666 39.6624 32.7055 39.6684C32.5385 39.6621 32.3721 39.6924 32.2179 39.7572C32.0638 39.822 31.9257 39.9196 31.8133 40.0433C31.5934 40.3224 31.4739 40.6673 31.4739 41.0225C31.4739 41.3778 31.5934 41.7227 31.8133 42.0017C31.9256 42.1256 32.0637 42.2234 32.2178 42.2882C32.372 42.3531 32.5384 42.3834 32.7055 42.3771C32.8676 42.3839 33.0292 42.3544 33.1785 42.2909C33.3278 42.2274 33.461 42.1313 33.5685 42.0098Z" fill="#676767"/>
<path d="M36.309 37.3555V41.9205C36.2984 42.0389 36.332 42.157 36.4036 42.252C36.4412 42.288 36.486 42.3156 36.535 42.333C36.5841 42.3504 36.6363 42.3573 36.6882 42.353C36.7767 42.354 36.8648 42.3407 36.9491 42.3136L37.0204 42.8583C36.8645 42.9189 36.6975 42.9458 36.5305 42.9371C36.4133 42.9474 36.2953 42.9334 36.1837 42.896C36.0722 42.8587 35.9696 42.7987 35.8824 42.7199C35.7284 42.5239 35.6549 42.2768 35.6766 42.0286V37.3555H36.309Z" fill="#676767"/>
<path d="M39.5159 42.8344C39.3169 42.9108 39.105 42.9484 38.8919 42.945C38.7443 42.9549 38.5962 42.9341 38.457 42.8838C38.3179 42.8335 38.1907 42.7549 38.0835 42.653C37.8844 42.4243 37.7836 42.1264 37.803 41.8238V39.7467H37.2422V39.1465H37.803V38.1986L38.4346 38.0723V39.1465H39.4694V39.7467H38.4346V41.7526C38.4206 41.9149 38.4702 42.0764 38.5731 42.2028C38.6262 42.2525 38.689 42.2908 38.7576 42.3152C38.8262 42.3396 38.8991 42.3497 38.9717 42.3448C39.1254 42.3466 39.278 42.3199 39.4219 42.266L39.5159 42.8344Z" fill="#676767"/>
<path d="M43.1087 39.5064C43.3886 39.8463 43.5297 40.2794 43.5039 40.719V42.8987H42.8723V40.8216C42.8957 40.5117 42.8043 40.204 42.6156 39.9571C42.5249 39.8596 42.4139 39.7833 42.2904 39.7334C42.167 39.6836 42.0341 39.6614 41.9012 39.6686C41.7625 39.6616 41.6239 39.6849 41.4951 39.7367C41.3662 39.7885 41.2502 39.8677 41.1549 39.9687C40.9622 40.2005 40.8648 40.4969 40.8826 40.7978V42.8987H40.251V37.3555H40.8826V39.6458C41.0023 39.4569 41.1736 39.3061 41.3762 39.2113C41.5906 39.1141 41.8239 39.0656 42.0593 39.0693C42.2555 39.0612 42.4511 39.0961 42.6324 39.1716C42.8137 39.2471 42.9763 39.3614 43.1087 39.5064Z" fill="#676767"/>
<path d="M44.5102 42.8388C44.4548 42.7854 44.4135 42.7191 44.3901 42.6459C44.3667 42.5726 44.3619 42.4947 44.3762 42.4192C44.3904 42.3436 44.4232 42.2727 44.4716 42.213C44.52 42.1532 44.5825 42.1064 44.6535 42.0768C44.7245 42.0472 44.8018 42.0357 44.8783 42.0433C44.9549 42.0509 45.0284 42.0775 45.0921 42.1205C45.1559 42.1636 45.2079 42.2218 45.2435 42.2899C45.2792 42.3581 45.2973 42.434 45.2963 42.5109C45.2981 42.5712 45.2878 42.6312 45.2661 42.6875C45.2444 42.7438 45.2117 42.7953 45.1699 42.8388C45.0805 42.9226 44.9626 42.9692 44.8401 42.9692C44.7175 42.9692 44.5996 42.9226 44.5102 42.8388Z" fill="#676767"/>
<path d="M49.45 40.6074L47.3652 37.6299H48.21L49.7814 39.9283L51.3533 37.6299H52.1981L50.1265 40.6074V42.8957H49.4474L49.45 40.6074Z" fill="#676767"/>
<path d="M52.6676 42.736C52.3834 42.5728 52.1519 42.3315 52.0007 42.0408C51.8448 41.7238 51.7637 41.3752 51.7637 41.0219C51.7637 40.6686 51.8448 40.3201 52.0007 40.003C52.1514 39.7131 52.3831 39.4731 52.6676 39.3124C52.9718 39.1515 53.3108 39.0674 53.6549 39.0674C53.999 39.0674 54.338 39.1515 54.6422 39.3124C54.9269 39.4731 55.1587 39.713 55.3096 40.003C55.4655 40.3201 55.5466 40.6686 55.5466 41.0219C55.5466 41.3752 55.4655 41.7238 55.3096 42.0408C55.1582 42.3316 54.9266 42.5729 54.6422 42.736C54.3388 42.8994 53.9995 42.9849 53.6549 42.9849C53.3103 42.9849 52.9711 42.8994 52.6676 42.736ZM54.5634 42.0014C54.8039 41.7316 54.9307 41.3793 54.9171 41.0181C54.9315 40.6593 54.8045 40.3091 54.5634 40.043C54.322 39.8021 53.9949 39.6668 53.6539 39.6668C53.3129 39.6668 52.9858 39.8021 52.7444 40.043C52.5031 40.309 52.3761 40.6592 52.3907 41.0181C52.3756 41.3807 52.5025 41.7349 52.7444 42.0054C52.8603 42.1303 53.0018 42.2289 53.1591 42.2942C53.3165 42.3596 53.4861 42.3904 53.6564 42.3844C53.8263 42.3901 53.9955 42.3588 54.1521 42.2927C54.3087 42.2266 54.449 42.1271 54.5634 42.0014Z" fill="#676767"/>
<path d="M59.5899 39.147V42.8981H58.9978V42.3372C58.8791 42.5406 58.7054 42.7063 58.4965 42.8152C58.2774 42.9257 58.0346 42.9812 57.7892 42.9769C57.5915 42.9856 57.3944 42.9509 57.2116 42.8752C57.0288 42.7995 56.8648 42.6847 56.7312 42.5388C56.4512 42.1989 56.3101 41.7658 56.336 41.3262V39.1465H56.9676V41.2236C56.944 41.5337 57.0354 41.8416 57.2243 42.0886C57.315 42.1861 57.426 42.2624 57.5495 42.3123C57.6729 42.3621 57.8058 42.3843 57.9387 42.3771C58.0774 42.3841 58.216 42.3608 58.3448 42.309C58.4737 42.2572 58.5897 42.178 58.685 42.077C58.8776 41.8451 58.975 41.5488 58.9573 41.2479V39.1475L59.5899 39.147Z" fill="#676767"/>
<path d="M62.6861 39.17L62.5992 39.794C62.4796 39.7531 62.3542 39.7318 62.2279 39.7308C62.099 39.7237 61.9702 39.7459 61.8511 39.7957C61.7321 39.8456 61.626 39.9219 61.5407 40.0188C61.3598 40.267 61.273 40.5715 61.2956 40.8778V42.8988H60.6641V39.1477H61.2562V39.748C61.3351 39.55 61.4727 39.3808 61.6506 39.2634C61.8284 39.146 62.038 39.0858 62.2511 39.0911C62.3999 39.0883 62.5478 39.1151 62.6861 39.17Z" fill="#676767"/>
<path d="M65.8453 39.1471H66.872V39.7474H65.8453V42.8972H65.2137V39.7463H64.6523V39.1461H65.2132V38.5014C65.1924 38.1774 65.2972 37.8579 65.5057 37.6091C65.6148 37.4999 65.7459 37.4152 65.8902 37.3608C66.0346 37.3063 66.189 37.2833 66.343 37.2933C66.5447 37.2922 66.7451 37.3264 66.9351 37.3943L66.8341 37.9552C66.6986 37.9007 66.5536 37.8737 66.4076 37.8759C66.3299 37.8697 66.2518 37.8806 66.1788 37.908C66.1059 37.9353 66.0398 37.9783 65.9852 38.034C65.8798 38.1834 65.8307 38.3652 65.8468 38.5474L65.8453 39.1471Z" fill="#676767"/>
<path d="M70.7892 39.147V42.8981H70.197V42.3372C70.0782 42.5407 69.9043 42.7064 69.6953 42.8152C69.4761 42.9256 69.2333 42.9811 68.9879 42.9769C68.7902 42.9857 68.5929 42.951 68.4101 42.8753C68.2272 42.7996 68.0631 42.6848 67.9294 42.5388C67.6495 42.1989 67.5083 41.7658 67.5343 41.3262V39.1465H68.1664V41.2236C68.1429 41.5337 68.2342 41.8416 68.423 42.0886C68.5138 42.1862 68.6249 42.2625 68.7484 42.3124C68.872 42.3623 69.005 42.3844 69.138 42.3771C69.2767 42.3841 69.4152 42.3608 69.5441 42.309C69.6729 42.2572 69.789 42.178 69.8843 42.077C70.077 41.8452 70.1743 41.5488 70.1566 41.2479V39.1475L70.7892 39.147Z" fill="#676767"/>
<path d="M73.6711 42.8344C73.4721 42.9108 73.2603 42.9484 73.0471 42.945C72.8995 42.9549 72.7514 42.9341 72.6123 42.8838C72.4731 42.8335 72.3459 42.7549 72.2387 42.653C72.0396 42.4244 71.9388 42.1264 71.9583 41.8238V39.7467H71.3975V39.1465H71.9583V38.1986L72.5899 38.0723V39.1465H73.6247V39.7467H72.5899V41.7526C72.5758 41.9149 72.6255 42.0764 72.7283 42.2028C72.7815 42.2525 72.8443 42.2908 72.9129 42.3153C72.9815 42.3397 73.0543 42.3497 73.127 42.3448C73.2806 42.3466 73.4333 42.3199 73.5772 42.266L73.6711 42.8344Z" fill="#676767"/>
<path d="M77.5807 39.147V42.8981H76.9875V42.3372C76.8687 42.5407 76.6948 42.7064 76.4858 42.8152C76.2666 42.9256 76.0239 42.9811 75.7784 42.9769C75.5808 42.9856 75.3836 42.9509 75.2009 42.8752C75.0181 42.7995 74.8541 42.6847 74.7204 42.5388C74.4404 42.199 74.2993 41.7658 74.3253 41.3262V39.1465H74.9574V41.2236C74.9339 41.5337 75.0253 41.8416 75.2141 42.0886C75.3048 42.1862 75.4159 42.2625 75.5395 42.3124C75.663 42.3623 75.796 42.3844 75.929 42.3771C76.0677 42.3841 76.2063 42.3608 76.3351 42.309C76.4639 42.2572 76.58 42.178 76.6753 42.077C76.868 41.8452 76.9654 41.5488 76.9476 41.2479V39.1475L77.5807 39.147Z" fill="#676767"/>
<path d="M80.6764 39.17L80.5894 39.794C80.4699 39.7531 80.3445 39.7318 80.2181 39.7308C80.0892 39.7236 79.9604 39.7458 79.8413 39.7957C79.7223 39.8456 79.6162 39.9219 79.5309 40.0188C79.35 40.267 79.2631 40.5714 79.2859 40.8778V42.8988H78.6543V39.1477H79.2465V39.748C79.3254 39.5499 79.4631 39.3808 79.641 39.2633C79.819 39.1459 80.0287 39.0858 80.2418 39.0911C80.3905 39.0884 80.5382 39.1152 80.6764 39.17Z" fill="#676767"/>
<path d="M84.4118 41.2475H81.5373C81.5468 41.4099 81.5883 41.5689 81.6594 41.7152C81.7305 41.8616 81.8298 41.9925 81.9516 42.1003C82.211 42.3035 82.5345 42.4071 82.8636 42.3924C83.0864 42.3917 83.3078 42.3576 83.5205 42.2913C83.7289 42.2293 83.9262 42.1346 84.1051 42.0109L84.2789 42.5561C84.0847 42.6952 83.8684 42.8006 83.6392 42.8679C83.3859 42.945 83.1224 42.9837 82.8576 42.9825C82.5023 42.9894 82.1509 42.908 81.8349 42.7456C81.5424 42.5926 81.3018 42.3563 81.1437 42.0665C80.9738 41.743 80.8896 41.3813 80.8992 41.0161C80.8926 40.6665 80.9685 40.3203 81.1205 40.0055C81.2589 39.7207 81.4753 39.481 81.7445 39.3143C82.0202 39.1466 82.3378 39.0604 82.6605 39.0657C82.9843 39.0597 83.3037 39.1416 83.5847 39.3027C83.8519 39.4595 84.0685 39.6898 84.2087 39.9661C84.3606 40.2698 84.4366 40.6058 84.43 40.9453C84.4283 41.0312 84.4222 41.1319 84.4118 41.2475ZM81.9198 39.9206C81.7117 40.1262 81.5796 40.3962 81.5449 40.6866H83.7878C83.7746 40.4 83.653 40.1291 83.4477 39.9287C83.2377 39.7352 82.9595 39.6329 82.6742 39.6443C82.3962 39.634 82.1253 39.7332 81.9198 39.9206Z" fill="#676767"/>
<path d="M85.2455 42.8388C85.1901 42.7854 85.1489 42.7191 85.1255 42.6459C85.1021 42.5726 85.0973 42.4947 85.1115 42.4192C85.1257 42.3436 85.1585 42.2727 85.2069 42.213C85.2553 42.1532 85.3179 42.1064 85.3889 42.0768C85.4599 42.0472 85.5371 42.0357 85.6137 42.0433C85.6902 42.0509 85.7637 42.0775 85.8274 42.1205C85.8912 42.1636 85.9432 42.2218 85.9789 42.2899C86.0145 42.3581 86.0327 42.434 86.0317 42.5109C86.0334 42.5712 86.0231 42.6312 86.0014 42.6875C85.9797 42.7438 85.9471 42.7953 85.9053 42.8388C85.8159 42.9226 85.6979 42.9692 85.5754 42.9692C85.4529 42.9692 85.3349 42.9226 85.2455 42.8388Z" fill="#676767"/>
</g>
</g>
<defs>
<clipPath id="clip0_665_2347">
<rect width="90.9474" height="48" fill="white" transform="translate(0 0.738281)"/>
</clipPath>
</defs>
</svg>
