<svg width="80" height="80" viewBox="0 0 80 80" fill="none" xmlns="http://www.w3.org/2000/svg">
<path opacity="0.2" d="M33.2957 75.2621C48.3512 75.2621 60.5562 73.4642 60.5562 71.2463C60.5562 69.0284 48.3512 67.2305 33.2957 67.2305C18.2401 67.2305 6.03516 69.0284 6.03516 71.2463C6.03516 73.4642 18.2401 75.2621 33.2957 75.2621Z" fill="url(#paint0_radial_5692_16936)"/>
<path d="M11.4019 64.9077C11.2488 64.7547 7.66793 61.0207 6.47429 56.6849C4.95419 51.1758 6.07641 44.9423 9.63692 39.117C15.6867 29.1904 27.8475 21.6817 42.9976 18.4987C59.0148 15.1422 65.8399 18.9782 68.7475 22.7937C71.6959 26.6501 71.8795 32.4754 69.2372 37.6377L66.9723 36.4746C68.6455 33.2202 69.5841 28.0886 66.7275 24.3444C63.2486 19.7841 55.0054 18.5905 43.5281 20.9982C29.0616 24.0282 17.5027 31.1186 11.8202 40.4432C8.63712 45.6667 7.61692 51.1962 8.94318 56.0115C9.96339 59.7047 13.2178 63.102 13.2484 63.1326L11.4121 64.9077H11.4019Z" fill="url(#paint1_linear_5692_16936)"/>
<path d="M38.5593 5.60135L15.9005 9.99843C12.5951 10.6412 10.4323 13.8446 11.075 17.1501L20.6751 66.6911C21.3178 69.9966 24.5213 72.1594 27.8267 71.5167L50.4752 67.1298C53.7807 66.4871 55.9435 63.2836 55.3008 59.9782L45.7007 10.4269C45.058 7.12145 41.8545 4.95862 38.5491 5.60135H38.5593Z" fill="url(#paint2_linear_5692_16936)"/>
<path d="M41.0901 5.11307L18.4416 9.49994C15.1361 10.1427 12.9733 13.3461 13.616 16.6516L23.2161 66.1926C23.8588 69.4981 27.0623 71.6609 30.3677 71.0182L53.0163 66.6313C56.3217 65.9886 58.4845 62.7852 57.8418 59.4797L48.2417 9.93863C47.599 6.63317 44.3955 4.47034 41.0901 5.11307Z" fill="url(#paint3_linear_5692_16936)"/>
<path d="M40.7426 8.79772L20.1447 12.7867C17.8901 13.2254 16.421 15.4086 16.8597 17.6633L25.8477 64.0519C26.2864 66.3066 28.4696 67.7757 30.7242 67.337L51.3221 63.348C53.5768 62.9093 55.0459 60.7261 54.6072 58.4816L45.609 12.093C45.1703 9.83833 42.9871 8.36924 40.7324 8.80792L40.7426 8.79772Z" fill="white"/>
<path d="M34.5091 37.9127C39.0898 37.9127 42.8034 34.1992 42.8034 29.6185C42.8034 25.0378 39.0898 21.3242 34.5091 21.3242C29.9284 21.3242 26.2148 25.0378 26.2148 29.6185C26.2148 34.1992 29.9284 37.9127 34.5091 37.9127Z" fill="url(#paint4_linear_5692_16936)"/>
<path d="M38.4778 27.5481L35.611 28.0582L35.1009 25.1914L32.428 25.6607L32.9381 28.5275L30.0713 29.0376L30.5406 31.7105L33.4074 31.2004L33.9175 34.0672L36.5904 33.5979L36.0803 30.7311L38.9471 30.221L38.4778 27.5481Z" fill="white"/>
<path d="M65.9828 67.1117C65.3197 67.1117 64.6565 66.9587 64.0444 66.6526L64.9524 64.8265C65.5033 65.1019 66.1358 65.1427 66.7173 64.9489C67.2989 64.7551 67.7784 64.3368 68.0538 63.7859L72.7059 54.4612C75.6441 48.5746 73.2364 41.3924 67.3499 38.4542C64.4933 37.0259 61.2592 36.8015 58.2394 37.8115C55.2196 38.8215 52.7712 40.9537 51.3429 43.8001L46.6907 53.1247C46.4153 53.6757 46.3745 54.3082 46.5683 54.8897C46.7622 55.4712 47.1804 55.9507 47.7314 56.2262L48.2313 56.471L47.3233 58.2972L46.8234 58.0523C45.7828 57.532 45.0074 56.6444 44.6401 55.5426C44.2729 54.4408 44.3545 53.2574 44.8748 52.2168L49.5269 42.8921C51.1898 39.556 54.0566 37.0565 57.5967 35.8731C61.1368 34.6897 64.9218 34.9549 68.268 36.6179C75.1646 40.0559 77.9702 48.4624 74.5321 55.359L69.88 64.6837C69.3597 65.7243 68.4721 66.4996 67.3703 66.8669C66.9214 67.0199 66.4521 67.0913 65.9828 67.0913V67.1117Z" fill="url(#paint5_linear_5692_16936)"/>
<path d="M49.0986 60.1116C48.7925 60.1116 48.4763 60.0402 48.1804 59.8871L46.8541 59.2138C45.8441 58.7037 45.4463 57.4795 45.9564 56.4695C46.4665 55.4697 47.6907 55.0616 48.7007 55.5717L50.027 56.245C51.037 56.7551 51.4349 57.9794 50.9247 58.9894C50.5677 59.7035 49.8433 60.1116 49.0986 60.1116Z" fill="url(#paint6_linear_5692_16936)"/>
<path d="M63.5957 67.303C63.2896 67.303 62.9733 67.2316 62.6775 67.0785L61.3512 66.4052C60.3412 65.8951 59.9433 64.6709 60.4534 63.6609C60.9635 62.6611 62.1878 62.253 63.1978 62.7631L64.524 63.4364C65.534 63.9465 65.9319 65.1708 65.4218 66.1808C65.0647 66.8949 64.3404 67.303 63.5957 67.303Z" fill="url(#paint7_linear_5692_16936)"/>
<path d="M4.33189 66.1225C5.59694 69.1321 9.4125 70.3971 12.8506 68.9587C16.2887 67.5202 18.0638 63.9087 16.7988 60.8991C16.4723 60.1135 14.0748 57.7466 14.0748 57.7466C14.0748 57.7466 10.8204 56.9917 8.28008 58.0629C5.73977 59.1341 4.01562 62.409 4.01562 62.409C4.01562 62.409 4.04623 65.4288 4.34209 66.1225H4.33189Z" fill="url(#paint8_linear_5692_16936)"/>
<path d="M4.35227 63.7835C5.44388 66.385 8.73914 67.4868 11.7181 66.232C14.6971 64.9771 16.2274 61.8655 15.1358 59.264C14.0442 56.6624 10.7489 55.5606 7.76995 56.8155C4.79095 58.0703 3.26065 61.1819 4.35227 63.7835Z" fill="url(#paint9_linear_5692_16936)"/>
<path d="M5.6883 63.2243C6.50446 65.1729 8.98355 65.9993 11.2178 65.0607C13.452 64.1221 14.5947 61.7859 13.7785 59.8271C12.9623 57.8683 10.4833 57.0521 8.24901 57.9907C6.01476 58.9293 4.87213 61.2656 5.6883 63.2243Z" fill="url(#paint10_linear_5692_16936)"/>
<defs>
<radialGradient id="paint0_radial_5692_16936" cx="0" cy="0" r="1" gradientUnits="userSpaceOnUse" gradientTransform="translate(33.3009 71.2502) scale(26.9494 4.06288)">
<stop/>
<stop offset="1" stop-color="#414042" stop-opacity="0"/>
</radialGradient>
<linearGradient id="paint1_linear_5692_16936" x1="71.468" y1="29.8457" x2="4.11772" y2="47.7914" gradientUnits="userSpaceOnUse">
<stop offset="0.11" stop-color="#777777"/>
<stop offset="0.32" stop-color="#3E3D3F"/>
<stop offset="0.75" stop-color="#3E3D3F"/>
<stop offset="0.97" stop-color="#939393"/>
</linearGradient>
<linearGradient id="paint2_linear_5692_16936" x1="38.8857" y1="67.9358" x2="28.5715" y2="14.7322" gradientUnits="userSpaceOnUse">
<stop stop-color="#606060"/>
<stop offset="0.26" stop-color="#666666"/>
<stop offset="0.61" stop-color="#777777"/>
<stop offset="1" stop-color="#939393"/>
</linearGradient>
<linearGradient id="paint3_linear_5692_16936" x1="42.549" y1="73.2729" x2="25.0933" y2="-16.7805" gradientUnits="userSpaceOnUse">
<stop stop-color="#939393"/>
<stop offset="0.1" stop-color="#A3A3A3"/>
<stop offset="0.38" stop-color="#CBCBCB"/>
<stop offset="0.62" stop-color="#E7E7E7"/>
<stop offset="0.84" stop-color="#F8F8F8"/>
<stop offset="1" stop-color="white"/>
</linearGradient>
<linearGradient id="paint4_linear_5692_16936" x1="34.5091" y1="38.6575" x2="34.5091" y2="20.457" gradientUnits="userSpaceOnUse">
<stop stop-color="#7C47E1"/>
<stop offset="1" stop-color="#D0BDF4"/>
</linearGradient>
<linearGradient id="paint5_linear_5692_16936" x1="75.9701" y1="51.0947" x2="44.3269" y2="51.8874" gradientUnits="userSpaceOnUse">
<stop stop-color="#414042"/>
<stop offset="1"/>
</linearGradient>
<linearGradient id="paint6_linear_5692_16936" x1="51.1441" y1="57.7379" x2="45.7277" y2="57.7443" gradientUnits="userSpaceOnUse">
<stop stop-color="#414042"/>
<stop offset="1"/>
</linearGradient>
<linearGradient id="paint7_linear_5692_16936" x1="65.6298" y1="64.9353" x2="60.2228" y2="64.9306" gradientUnits="userSpaceOnUse">
<stop stop-color="#414042"/>
<stop offset="1"/>
</linearGradient>
<linearGradient id="paint8_linear_5692_16936" x1="12.9469" y1="69.0542" x2="8.38019" y2="58.1585" gradientUnits="userSpaceOnUse">
<stop stop-color="#414042"/>
<stop offset="1"/>
</linearGradient>
<linearGradient id="paint9_linear_5692_16936" x1="11.8071" y1="66.3322" x2="7.8596" y2="56.9138" gradientUnits="userSpaceOnUse">
<stop stop-color="#606060"/>
<stop offset="0.26" stop-color="#666666"/>
<stop offset="0.61" stop-color="#777777"/>
<stop offset="1" stop-color="#939393"/>
</linearGradient>
<linearGradient id="paint10_linear_5692_16936" x1="11.3138" y1="65.1581" x2="8.35212" y2="58.0919" gradientUnits="userSpaceOnUse">
<stop stop-color="#939393"/>
<stop offset="0.1" stop-color="#A3A3A3"/>
<stop offset="0.38" stop-color="#CBCBCB"/>
<stop offset="0.62" stop-color="#E7E7E7"/>
<stop offset="0.84" stop-color="#F8F8F8"/>
<stop offset="1" stop-color="white"/>
</linearGradient>
</defs>
</svg>
