<svg width="32" height="32" viewBox="0 0 32 32" fill="none" xmlns="http://www.w3.org/2000/svg">
<path d="M14.8164 0.0696671C16.8356 -0.119449 18.9062 0.0713407 20.9204 0.704796C30.5101 3.7181 34.5131 14.5864 30.382 23.3234C26.8061 30.8872 17.0075 34.0512 9.49843 30.6195C-0.0736176 26.2455 -3.2292 13.6283 3.8418 5.64692C6.6242 2.50642 10.6213 0.462125 14.8164 0.0696671ZM9.1918 22.8163C9.53549 22.7469 9.81516 22.5377 10.121 22.3887C10.6298 22.141 10.6281 22.1343 11.0189 22.5243C11.2599 22.7644 11.4991 23.0079 11.7392 23.2498C11.7358 22.7845 11.6735 22.3561 11.5968 21.9293C11.5631 21.741 11.5993 21.6289 11.7931 21.541C12.2 21.3569 12.5917 21.1402 13.0676 20.8984C12.5529 20.8189 12.125 20.7419 11.6937 20.6917C11.4705 20.6658 11.3694 20.5779 11.3424 20.3511C11.2919 19.9202 11.2118 19.4926 11.1318 18.9821C10.917 19.4005 10.7123 19.7394 10.5657 20.1009C10.4394 20.4114 10.2717 20.4825 9.94658 20.4147C9.57087 20.3361 9.18843 20.2474 8.7209 20.2582C9.09577 20.6239 9.4125 20.9419 9.73935 21.2482C9.85728 21.3586 9.86992 21.4431 9.79579 21.5929C9.59277 22.0004 9.33753 22.3845 9.19854 22.8222C9.19011 22.8247 9.18085 22.8264 9.17411 22.8314C9.17074 22.8339 9.17411 22.8431 9.17411 22.8498L9.1918 22.8172V22.8163ZM9.1918 9.17737L9.17327 9.14473C9.17327 9.15142 9.17074 9.16063 9.17327 9.16314C9.18 9.16816 9.18927 9.169 9.19769 9.17151C9.33079 9.60078 9.58267 9.97483 9.77978 10.3731C9.86234 10.5388 9.86065 10.6392 9.71661 10.7681C9.38555 11.0643 9.07218 11.379 8.75123 11.6861L8.8043 11.7597C9.1859 11.7028 9.5734 11.6719 9.94658 11.5806C10.2709 11.5012 10.4394 11.5823 10.5649 11.8919C10.7123 12.2543 10.917 12.5932 11.1318 13.0107C11.2118 12.5011 11.291 12.0735 11.3424 11.6426C11.3694 11.4158 11.4696 11.3271 11.6928 11.3012C12.1241 11.2509 12.5521 11.1731 13.0685 11.0936C12.6001 10.856 12.2168 10.6459 11.8192 10.4669C11.6052 10.3715 11.5597 10.2434 11.5993 10.0317C11.6768 9.61585 11.7366 9.19745 11.804 8.77989L11.7206 8.72633C11.4275 9.0326 11.1217 9.32882 10.8446 9.64932C10.6811 9.83843 10.5489 9.83007 10.3417 9.72128C9.96595 9.5238 9.60625 9.2895 9.19011 9.17569L9.1918 9.17737ZM21.0021 13.0107C21.2228 12.584 21.4359 12.2375 21.5858 11.8652C21.7114 11.553 21.895 11.5154 22.189 11.5773C22.5664 11.6576 22.953 11.6986 23.3355 11.7564C23.1224 11.456 22.8848 11.2242 22.6481 10.9907C22.3808 10.7257 22.3305 10.43 22.4973 10.1037C22.6506 9.80245 22.8031 9.50121 22.9564 9.19996C22.5411 9.3397 22.1671 9.51459 21.8074 9.71543C21.5976 9.83174 21.4544 9.8468 21.2792 9.64095C21.0063 9.32046 20.6929 9.03427 20.3972 8.73303C20.3989 9.21084 20.4621 9.64179 20.5404 10.0711C20.5758 10.2627 20.5286 10.3715 20.3399 10.4577C19.9348 10.6426 19.5422 10.8568 19.0797 11.0928C19.597 11.174 20.0375 11.2518 20.4798 11.3078C20.6803 11.333 20.7637 11.4208 20.7889 11.6183C20.8454 12.0576 20.922 12.4944 21.0029 13.0107H21.0021ZM19.0789 20.9009C19.5102 21.121 19.8682 21.3369 20.2523 21.4892C20.548 21.6063 20.5699 21.777 20.5202 22.0431C20.4478 22.4322 20.361 22.8222 20.3475 23.2925C20.612 23.0289 20.8243 22.8155 21.0374 22.6038C21.3519 22.2908 21.7088 22.2359 22.1081 22.4389C22.3768 22.5745 22.6489 22.705 22.9193 22.8381C22.7551 22.3937 22.5664 21.9996 22.3541 21.618C22.2614 21.4515 22.28 21.3511 22.4206 21.2247C22.7517 20.9285 23.0668 20.6155 23.3885 20.3093L23.3338 20.2315C22.9118 20.2992 22.4897 20.3603 22.0694 20.4365C21.8571 20.475 21.7265 20.4289 21.6305 20.2164C21.4511 19.8214 21.2396 19.4407 21.0037 18.9813C20.9237 19.4884 20.8445 19.9135 20.7932 20.3411C20.7662 20.562 20.6794 20.6632 20.4503 20.69C20.0165 20.7411 19.586 20.8206 19.0789 20.9001V20.9009ZM17.427 21.582C16.9948 21.8917 16.6259 22.1444 16.2721 22.4163C16.1204 22.5335 16.016 22.5343 15.8643 22.4163C15.5105 22.1427 15.1407 21.89 14.7069 21.5779C14.8644 22.0691 14.9807 22.4883 15.1357 22.8925C15.2208 23.1142 15.1626 23.228 14.979 23.351C14.6277 23.5862 14.2908 23.8431 13.9479 24.0908C14.3379 24.1535 14.7136 24.1862 15.0818 24.1443C15.4642 24.1016 15.6167 24.2531 15.6976 24.602C15.7809 24.9594 15.9216 25.3033 16.0674 25.7434C16.1912 25.3719 16.2864 25.0916 16.3774 24.8096C16.52 24.3722 16.8191 24.1535 17.2745 24.1535C17.5769 24.1535 17.8785 24.1535 18.1809 24.1535C17.8246 23.8263 17.4725 23.5627 17.1094 23.3167C16.9519 23.2096 16.9241 23.1067 16.9898 22.9276C17.1414 22.5101 17.2669 22.0841 17.4278 21.5829L17.427 21.582ZM17.4295 10.4142C17.2753 9.94136 17.1625 9.54388 17.0142 9.15896C16.9207 8.91628 16.9519 8.76733 17.1827 8.62173C17.5306 8.40165 17.8549 8.14476 18.1893 7.90292C17.7361 7.84016 17.3006 7.82594 16.8668 7.84602C16.6427 7.8569 16.5576 7.77238 16.4995 7.57239C16.379 7.15817 16.2325 6.75065 16.0674 6.25192C15.9444 6.61928 15.8492 6.89877 15.7574 7.17993C15.6142 7.62009 15.3056 7.84016 14.8316 7.84016H13.9563C14.2529 8.12467 14.5367 8.36065 14.8501 8.54642C15.1517 8.72549 15.241 8.91043 15.0893 9.24849C14.9344 9.59493 14.8476 9.97149 14.7052 10.415C15.1382 10.1037 15.508 9.85099 15.8618 9.57819C16.0126 9.46188 16.1171 9.45686 16.2704 9.57568C16.6242 9.84931 16.994 10.1012 17.4295 10.4142ZM24.2764 13.922C24.1585 13.8894 24.1484 13.9873 24.1113 14.0358C23.8856 14.3362 23.6564 14.635 23.4467 14.9462C23.3338 15.1136 23.2293 15.1487 23.0331 15.0759C22.6178 14.9228 22.1907 14.804 21.6869 14.645C21.986 15.0559 22.2185 15.4023 22.4813 15.7245C22.6397 15.9186 22.6574 16.0567 22.4897 16.2592C22.221 16.583 21.9877 16.937 21.6869 17.3504C22.1907 17.1914 22.6127 17.0751 23.0213 16.9211C23.231 16.8424 23.338 16.8851 23.4576 17.0625C23.6977 17.4181 23.9639 17.757 24.2183 18.1026C24.2756 17.6951 24.3076 17.3085 24.2663 16.9303C24.2284 16.5839 24.3792 16.4583 24.6808 16.3788C25.0573 16.2801 25.4238 16.1454 25.7952 16.0257C25.3749 15.8291 24.9638 15.6843 24.5451 15.5638C24.3438 15.5061 24.2587 15.4224 24.2697 15.199C24.2916 14.773 24.2756 14.3454 24.2756 13.9203L24.2764 13.922ZM6.35716 15.9646L6.36053 16.0316C6.7573 16.1613 7.14985 16.3102 7.55336 16.4148C7.8086 16.4801 7.87599 16.6031 7.86251 16.8516C7.84061 17.2625 7.85661 17.675 7.85661 18.0876C8.16914 17.7646 8.42775 17.4299 8.66446 17.0809C8.78829 16.8985 8.90202 16.8391 9.12609 16.9244C9.53212 17.0784 9.95416 17.193 10.4419 17.347C10.1378 16.9269 9.89435 16.5621 9.61973 16.2224C9.47737 16.0466 9.49422 15.9337 9.62647 15.7663C9.89519 15.4266 10.1395 15.0676 10.4419 14.65C9.94573 14.8065 9.5237 14.9245 9.1143 15.0759C8.90623 15.1529 8.79588 15.1111 8.67542 14.9329C8.43449 14.5764 8.16998 14.2358 7.91474 13.8894C7.85577 14.3488 7.84398 14.7847 7.86083 15.219C7.86841 15.4241 7.7968 15.5102 7.60221 15.5655C7.1827 15.6843 6.77078 15.8307 6.35632 15.9655L6.35716 15.9646Z" fill="#1163C5"/>
<path d="M9.19279 9.17788C9.60893 9.29084 9.96863 9.52598 10.3443 9.72347C10.5516 9.83225 10.6838 9.84062 10.8472 9.6515C11.1244 9.33101 11.4293 9.03478 11.7233 8.72852L11.8067 8.78207C11.7393 9.19963 11.6795 9.61803 11.602 10.0339C11.5624 10.2456 11.6079 10.3737 11.8219 10.4691C12.2195 10.6473 12.6028 10.8582 13.0711 11.0958C12.5539 11.1753 12.126 11.2531 11.6955 11.3033C11.4723 11.3293 11.3712 11.418 11.3451 11.6448C11.2945 12.0757 11.2145 12.5033 11.1345 13.0129C10.9197 12.5954 10.715 12.2565 10.5676 11.8941C10.4412 11.5845 10.2736 11.5033 9.94925 11.5828C9.57608 11.674 9.18858 11.7042 8.80698 11.7619L8.75391 11.6883C9.07486 11.3812 9.38822 11.0657 9.71928 10.7703C9.86333 10.6414 9.86501 10.5419 9.78246 10.3753C9.58534 9.97618 9.33347 9.60297 9.20037 9.17369L9.19447 9.17955L9.19279 9.17788Z" fill="#FFDA7B"/>
<path d="M9.19834 22.8215C9.33817 22.383 9.59342 21.9998 9.79559 21.5923C9.86972 21.4433 9.85708 21.3579 9.73915 21.2475C9.41146 20.9412 9.09557 20.6241 8.7207 20.2576C9.18823 20.2467 9.57151 20.3354 9.94638 20.414C10.2715 20.4818 10.4392 20.4107 10.5655 20.1002C10.7129 19.7379 10.9168 19.399 11.1316 18.9814C11.2116 19.4919 11.2917 19.9195 11.3422 20.3504C11.3692 20.5781 11.4703 20.6651 11.6935 20.691C12.1248 20.7412 12.5527 20.8191 13.0674 20.8977C12.5923 21.1404 12.1998 21.3563 11.7929 21.5404C11.5991 21.6282 11.5629 21.7404 11.5966 21.9286C11.6733 22.3554 11.7356 22.7839 11.739 23.2491C11.4989 23.0073 11.2605 22.7638 11.0187 22.5236C10.6279 22.1337 10.6296 22.1395 10.1208 22.388C9.81412 22.537 9.53529 22.7462 9.1916 22.8156L9.19749 22.8215H9.19834Z" fill="#FFDA7B"/>
<path d="M21.0032 13.0111C20.9224 12.4948 20.8457 12.058 20.7893 11.6187C20.764 11.4212 20.6806 11.3342 20.4801 11.3082C20.037 11.2522 19.5973 11.1743 19.0801 11.0932C19.5425 10.858 19.9351 10.6438 20.3403 10.458C20.5298 10.3718 20.5762 10.2631 20.5408 10.0714C20.4624 9.643 20.4001 9.21121 20.3976 8.7334C20.6941 9.03381 21.0066 9.32083 21.2796 9.64132C21.4548 9.84718 21.598 9.83211 21.8077 9.7158C22.1674 9.5158 22.5414 9.34008 22.9567 9.20033C22.8043 9.50158 22.6518 9.80282 22.4976 10.1041C22.3314 10.4304 22.3817 10.7261 22.6484 10.9911C22.8843 11.2254 23.1227 11.4572 23.3358 11.7567C22.9534 11.699 22.5667 11.6588 22.1893 11.5777C21.8953 11.5149 21.7117 11.5526 21.5862 11.8655C21.4371 12.2379 21.224 12.5843 21.0024 13.0111H21.0032Z" fill="#FFDA7B"/>
<path d="M19.0801 20.9012C19.5872 20.8217 20.0177 20.7422 20.4515 20.6912C20.6798 20.6644 20.7674 20.5631 20.7943 20.3422C20.8457 19.9146 20.9249 19.4895 21.0049 18.9824C21.2408 19.4418 21.4522 19.8217 21.6317 20.2175C21.7277 20.4301 21.8583 20.4761 22.0706 20.4376C22.4909 20.3615 22.9138 20.2995 23.335 20.2326L23.3897 20.3104C23.0679 20.6167 22.7529 20.9305 22.4218 21.2259C22.2811 21.3522 22.2626 21.4526 22.3553 21.6192C22.5676 22.0007 22.7563 22.3949 22.9205 22.8392C22.6501 22.7062 22.378 22.5756 22.1093 22.4401C21.71 22.2381 21.3531 22.2931 21.0386 22.6049C20.8255 22.8166 20.6132 23.03 20.3487 23.2936C20.3622 22.8225 20.4498 22.4334 20.5214 22.0443C20.5703 21.779 20.5492 21.6075 20.2535 21.4903C19.8702 21.338 19.5122 21.1221 19.0801 20.902V20.9012Z" fill="#FFDA7B"/>
<path d="M17.4291 21.5822C17.2674 22.0834 17.1419 22.5102 16.9911 22.9269C16.9262 23.106 16.9532 23.2089 17.1107 23.316C17.4738 23.5629 17.8259 23.8256 18.1822 24.1528C17.8798 24.1528 17.5782 24.1528 17.2758 24.1528C16.8198 24.1528 16.5207 24.3715 16.3787 24.8089C16.2868 25.0909 16.1917 25.3712 16.0687 25.7427C15.9229 25.3034 15.7823 24.9586 15.6989 24.6013C15.618 24.2532 15.4647 24.1009 15.0831 24.1436C14.7158 24.1846 14.3401 24.1528 13.9492 24.09C14.2921 23.8424 14.629 23.5855 14.9803 23.3503C15.1639 23.2273 15.2221 23.1135 15.137 22.8918C14.982 22.4876 14.8657 22.0692 14.7082 21.5771C15.142 21.8884 15.5118 22.142 15.8656 22.4156C16.0181 22.5336 16.1217 22.5328 16.2734 22.4156C16.6272 22.1437 16.9961 21.8909 17.4283 21.5813L17.4291 21.5822Z" fill="#FFDA7B"/>
<path d="M17.4302 10.4142C16.9947 10.1021 16.6249 9.84934 16.2711 9.57571C16.1178 9.45772 16.0141 9.46191 15.8625 9.57822C15.5087 9.85102 15.1397 10.1037 14.7059 10.415C14.8483 9.97152 14.9342 9.59496 15.09 9.24852C15.2417 8.91046 15.1532 8.72552 14.8508 8.54645C14.5374 8.36068 14.2536 8.12387 13.957 7.84019H14.8323C15.3063 7.84019 15.6148 7.62012 15.7581 7.17996C15.8499 6.8988 15.9451 6.61931 16.0681 6.25195C16.2332 6.75068 16.3797 7.1582 16.5002 7.57242C16.5583 7.77325 16.6434 7.85693 16.8675 7.84605C17.3013 7.82513 17.7377 7.84019 18.19 7.90295C17.8556 8.14479 17.5313 8.40168 17.1834 8.62176C16.9526 8.76736 16.9214 8.91548 17.0149 9.15899C17.1632 9.54391 17.276 9.94139 17.4302 10.4142Z" fill="#FFDA7B"/>
<path d="M24.2762 13.9218C24.2762 14.3478 24.2913 14.7754 24.2703 15.2005C24.2593 15.4239 24.3444 15.5076 24.5457 15.5653C24.9644 15.6858 25.3755 15.8306 25.7958 16.0272C25.4252 16.1469 25.0579 16.2816 24.6813 16.3804C24.3798 16.4598 24.229 16.5862 24.2669 16.9318C24.3082 17.31 24.2762 17.6966 24.2189 18.1042C23.9636 17.7586 23.6983 17.4197 23.4582 17.064C23.3377 16.8866 23.2316 16.8431 23.0218 16.9226C22.6141 17.0757 22.1921 17.192 21.6875 17.3519C21.9882 16.9385 22.2216 16.5854 22.4903 16.2607C22.6579 16.0582 22.6402 15.9201 22.4819 15.726C22.219 15.4038 21.9865 15.0574 21.6875 14.6465C22.1912 14.8055 22.6192 14.9243 23.0336 15.0775C23.2299 15.1503 23.3352 15.1143 23.4472 14.9478C23.657 14.6365 23.8861 14.3377 24.1119 14.0373C24.1481 13.9888 24.1582 13.8909 24.277 13.9235L24.2762 13.9218Z" fill="#FFDA7B"/>
<path d="M6.35742 15.9648C6.77188 15.83 7.1838 15.6836 7.60331 15.5648C7.7979 15.5095 7.87035 15.4234 7.86193 15.2183C7.84592 14.784 7.85687 14.3481 7.91584 13.8887C8.17108 14.2359 8.43559 14.5757 8.67651 14.9322C8.79613 15.1096 8.90649 15.1522 9.1154 15.0753C9.52395 14.9238 9.94599 14.8058 10.443 14.6493C10.1406 15.0669 9.89629 15.4259 9.62757 15.7656C9.49531 15.933 9.47847 16.0451 9.62083 16.2217C9.89545 16.5614 10.1389 16.9262 10.443 17.3463C9.95441 17.1923 9.53322 17.0777 9.12719 16.9237C8.90312 16.8384 8.78939 16.8978 8.66556 17.0802C8.42885 17.43 8.1694 17.7639 7.85771 18.0869C7.85771 17.6752 7.84171 17.2618 7.86361 16.8509C7.87709 16.6024 7.80885 16.4802 7.55445 16.4141C7.15095 16.3104 6.7584 16.1614 6.36163 16.0309L6.35826 15.9639L6.35742 15.9648Z" fill="#FFDA7B"/>
<path d="M9.1978 9.17229C9.18938 9.16977 9.18011 9.16894 9.17337 9.16392C9.17 9.16141 9.17337 9.1522 9.17337 9.14551C9.17927 9.15639 9.18601 9.16726 9.19191 9.17814L9.1978 9.17229Z" fill="#FFDA7B"/>
<path d="M9.19069 22.8163L9.173 22.8489C9.173 22.8422 9.17047 22.833 9.173 22.8305C9.17974 22.8255 9.189 22.8246 9.19743 22.8213L9.19069 22.8154V22.8163Z" fill="#FFDA7B"/>
</svg>
