<svg width="288" height="288" viewBox="0 0 288 288" fill="none" xmlns="http://www.w3.org/2000/svg">
<path d="M228.466 131.131L169.812 120.673C168.441 120.429 167.133 121.341 166.888 122.711L159.728 162.866C159.484 164.236 160.397 165.545 161.767 165.789L220.422 176.248C221.792 176.492 223.101 175.579 223.345 174.209L230.505 134.055C230.749 132.684 229.837 131.376 228.466 131.131Z" fill="url(#paint0_linear_6298_11339)"/>
<path d="M207.058 127.344L156.058 118.251C154.786 118.024 153.571 118.871 153.344 120.144L146.121 160.653C145.894 161.925 146.742 163.14 148.014 163.367L199.014 172.461C200.286 172.687 201.501 171.84 201.728 170.568L208.951 130.059C209.178 128.786 208.33 127.571 207.058 127.344Z" fill="url(#paint1_linear_6298_11339)"/>
<path d="M155.867 118.207L228.556 131.168C229.868 131.402 230.741 132.655 230.508 133.966L230.489 134.073L153.298 120.309L153.368 119.919C153.576 118.75 154.697 117.999 155.831 118.201L155.867 118.207Z" fill="url(#paint2_linear_6298_11339)"/>
<path d="M153.345 120.296L208.965 130.196V130.052C209.253 128.684 208.245 127.532 207.093 127.316L155.865 118.172C154.713 117.956 153.597 118.748 153.381 119.9L153.309 120.26L153.345 120.296Z" fill="url(#paint3_linear_6298_11339)"/>
<g opacity="0.2">
<path d="M146.152 160.514L223.343 174.277L223.324 174.384C223.09 175.695 221.837 176.569 220.526 176.335L147.836 163.374C146.667 163.165 145.916 162.044 146.118 160.91L146.188 160.52L146.152 160.514Z" fill="url(#paint4_linear_6298_11339)"/>
<path d="M146.181 160.466L201.801 170.366V170.51C201.513 171.878 200.217 172.634 199.065 172.418L147.837 163.274C146.685 163.058 145.893 161.942 146.109 160.79L146.181 160.43V160.466Z" fill="url(#paint5_linear_6298_11339)"/>
</g>
<path d="M148.629 230.312H89.0488C87.6571 230.312 86.5288 231.441 86.5288 232.833V273.621C86.5288 275.012 87.6571 276.14 89.0488 276.14H148.629C150.021 276.14 151.149 275.012 151.149 273.621V232.833C151.149 231.441 150.021 230.312 148.629 230.312Z" fill="url(#paint6_linear_6298_11339)"/>
<path d="M126.884 230.312H75.0804C73.7881 230.312 72.7404 231.36 72.7404 232.652V273.8C72.7404 275.093 73.7881 276.14 75.0804 276.14H126.884C128.177 276.14 129.224 275.093 129.224 273.8V232.652C129.224 231.36 128.177 230.312 126.884 230.312Z" fill="#E0E0E8"/>
<path opacity="0.8" d="M74.6843 230.312H148.52C149.852 230.312 150.932 231.392 150.932 232.724V232.833H72.5243V232.437C72.5243 231.249 73.4963 230.312 74.6483 230.312H74.6843Z" fill="url(#paint7_linear_6298_11339)"/>
<path d="M72.5243 232.833H129.008V232.652C129.008 231.248 127.82 230.312 126.668 230.312H74.6483C73.4603 230.312 72.5243 231.285 72.5243 232.437V232.833Z" fill="url(#paint8_linear_6298_11339)"/>
<g opacity="0.2">
<path d="M72.5245 273.615H150.932V273.723C150.932 275.055 149.852 276.135 148.52 276.135H74.6845C73.4965 276.135 72.5605 275.163 72.5605 274.011V273.615H72.5245Z" fill="url(#paint9_linear_6298_11339)"/>
<path d="M72.5245 273.615H129.008V273.795C129.008 275.199 127.82 276.135 126.668 276.135H74.6485C73.4605 276.135 72.5245 275.163 72.5245 274.011V273.615Z" fill="url(#paint10_linear_6298_11339)"/>
</g>
<path d="M179.012 184.484H119.432C118.041 184.484 116.912 185.613 116.912 187.004V227.792C116.912 229.184 118.041 230.312 119.432 230.312H179.012C180.404 230.312 181.532 229.184 181.532 227.792V187.004C181.532 185.613 180.404 184.484 179.012 184.484Z" fill="url(#paint11_linear_6298_11339)"/>
<path d="M157.269 184.484H105.465C104.172 184.484 103.125 185.532 103.125 186.824V227.972C103.125 229.265 104.172 230.312 105.465 230.312H157.269C158.561 230.312 159.609 229.265 159.609 227.972V186.824C159.609 185.532 158.561 184.484 157.269 184.484Z" fill="#E0E0E8"/>
<path d="M207.849 230.312H148.269C146.877 230.312 145.749 231.441 145.749 232.833V273.621C145.749 275.012 146.877 276.14 148.269 276.14H207.849C209.241 276.14 210.369 275.012 210.369 273.621V232.833C210.369 231.441 209.241 230.312 207.849 230.312Z" fill="url(#paint12_linear_6298_11339)"/>
<path d="M186.105 230.312H134.301C133.009 230.312 131.961 231.36 131.961 232.652V273.8C131.961 275.093 133.009 276.14 134.301 276.14H186.105C187.398 276.14 188.445 275.093 188.445 273.8V232.652C188.445 231.36 187.398 230.312 186.105 230.312Z" fill="#E0E0E8"/>
<path opacity="0.8" d="M105.285 184.484H179.121C180.453 184.484 181.533 185.564 181.533 186.896V187.004H103.125V186.608C103.125 185.42 104.097 184.484 105.249 184.484H105.285Z" fill="url(#paint13_linear_6298_11339)"/>
<path d="M103.125 187.004H159.609V186.824C159.609 185.42 158.421 184.484 157.269 184.484H105.249C104.061 184.484 103.125 185.456 103.125 186.608V187.004Z" fill="url(#paint14_linear_6298_11339)"/>
<g opacity="0.2">
<path d="M103.124 227.789H181.532V227.897C181.532 229.229 180.452 230.309 179.12 230.309H105.284C104.096 230.309 103.16 229.337 103.16 228.185V227.789H103.124Z" fill="url(#paint15_linear_6298_11339)"/>
<path d="M103.124 227.789H159.608V227.969C159.608 229.373 158.42 230.309 157.268 230.309H105.248C104.06 230.309 103.124 229.337 103.124 228.185V227.789Z" fill="url(#paint16_linear_6298_11339)"/>
</g>
<path d="M238.268 184.484H178.688C177.296 184.484 176.168 185.613 176.168 187.004V227.792C176.168 229.184 177.296 230.312 178.688 230.312H238.268C239.66 230.312 240.788 229.184 240.788 227.792V187.004C240.788 185.613 239.66 184.484 238.268 184.484Z" fill="url(#paint17_linear_6298_11339)"/>
<path d="M216.524 184.484H164.72C163.428 184.484 162.38 185.532 162.38 186.824V227.972C162.38 229.265 163.428 230.312 164.72 230.312H216.524C217.817 230.312 218.864 229.265 218.864 227.972V186.824C218.864 185.532 217.817 184.484 216.524 184.484Z" fill="#E0E0E8"/>
<path d="M164.504 184.484H238.34C239.672 184.484 240.752 185.564 240.752 186.896V187.004H162.344V186.608C162.344 185.42 163.316 184.484 164.468 184.484H164.504Z" fill="url(#paint18_linear_6298_11339)"/>
<path d="M162.38 187.004H218.864V186.824C218.864 185.42 217.676 184.484 216.524 184.484H164.504C163.316 184.484 162.38 185.456 162.38 186.608V187.004Z" fill="url(#paint19_linear_6298_11339)"/>
<g opacity="0.2">
<path d="M162.38 227.789H240.788V227.897C240.788 229.229 239.708 230.309 238.376 230.309H164.54C163.352 230.309 162.416 229.337 162.416 228.185V227.789H162.38Z" fill="url(#paint20_linear_6298_11339)"/>
<path d="M162.38 227.789H218.864V227.969C218.864 229.373 217.676 230.309 216.524 230.309H164.504C163.316 230.309 162.38 229.337 162.38 228.185V227.789Z" fill="url(#paint21_linear_6298_11339)"/>
</g>
<path opacity="0.8" d="M134.084 230.312H207.92C209.252 230.312 210.332 231.392 210.332 232.724V232.833H131.924V232.437C131.924 231.249 132.896 230.312 134.048 230.312H134.084Z" fill="url(#paint22_linear_6298_11339)"/>
<path d="M131.961 232.833H188.445V232.652C188.445 231.248 187.257 230.312 186.105 230.312H134.085C132.897 230.312 131.961 231.285 131.961 232.437V232.833Z" fill="url(#paint23_linear_6298_11339)"/>
<g opacity="0.2">
<path d="M131.962 273.615H210.37V273.723C210.37 275.055 209.29 276.135 207.958 276.135H134.122C132.934 276.135 131.998 275.163 131.998 274.011V273.615H131.962Z" fill="url(#paint24_linear_6298_11339)"/>
<path d="M131.962 273.615H188.446V273.795C188.446 275.199 187.258 276.135 186.106 276.135H134.086C132.898 276.135 131.962 275.163 131.962 274.011V273.615Z" fill="url(#paint25_linear_6298_11339)"/>
</g>
<path d="M267.285 230.312H207.705C206.313 230.312 205.185 231.441 205.185 232.833V273.621C205.185 275.012 206.313 276.14 207.705 276.14H267.285C268.677 276.14 269.805 275.012 269.805 273.621V232.833C269.805 231.441 268.677 230.312 267.285 230.312Z" fill="url(#paint26_linear_6298_11339)"/>
<path d="M245.54 230.312H193.736C192.444 230.312 191.396 231.36 191.396 232.652V273.8C191.396 275.093 192.444 276.14 193.736 276.14H245.54C246.833 276.14 247.88 275.093 247.88 273.8V232.652C247.88 231.36 246.833 230.312 245.54 230.312Z" fill="#E0E0E8"/>
<path d="M193.556 230.312H267.392C268.724 230.312 269.804 231.392 269.804 232.724V232.833H191.396V232.437C191.396 231.249 192.368 230.312 193.52 230.312H193.556Z" fill="url(#paint27_linear_6298_11339)"/>
<path d="M191.396 232.833H247.88V232.652C247.88 231.248 246.692 230.312 245.54 230.312H193.52C192.332 230.312 191.396 231.285 191.396 232.437V232.833Z" fill="url(#paint28_linear_6298_11339)"/>
<g opacity="0.2">
<path d="M191.396 273.615H269.804V273.723C269.804 275.055 268.724 276.135 267.392 276.135H193.556C192.368 276.135 191.432 275.163 191.432 274.011V273.615H191.396Z" fill="url(#paint29_linear_6298_11339)"/>
<path d="M191.396 273.615H247.88V273.795C247.88 275.199 246.692 276.135 245.54 276.135H193.52C192.332 276.135 191.396 275.163 191.396 274.011V273.615Z" fill="url(#paint30_linear_6298_11339)"/>
</g>
<path d="M18.6337 62.4053C18.6337 62.4053 20.863 63.7716 21.9776 64.4548C29.4564 69.0571 36.8273 73.8392 44.0904 78.7652C77.3494 102.244 72.0999 109.076 110.321 125.04C148.542 141.005 159.257 151.432 163.068 145.571C173.028 130.434 133.44 107.026 131.679 100.554C130.564 96.5273 138.438 84.4821 147.607 82.3967C154.007 80.9944 164.434 86.2799 171.518 91.3137C175.509 94.1542 178.205 97.8577 179.464 99.3678C182.376 102.856 180.83 110.442 180.542 115.656C180.435 117.382 180.219 119.503 180.075 121.804C180.075 122.056 180.039 122.523 180.039 122.523L195.644 125.328C195.644 125.328 195.752 124.86 195.788 124.609C196.758 119.97 198.664 110.766 200.03 105.768C201.9 98.9004 198.305 92.6801 194.17 86.5676C192.12 83.5473 188.165 78.2978 184.498 74.3067C180.147 69.5605 176.264 66.2526 176.264 66.2526C176.264 66.2526 194.961 70.0998 204.525 74.1628C214.089 78.2258 215.599 78.873 215.599 78.873C215.599 78.873 230.197 54.1355 232.175 51.0793C235.339 46.1893 233.038 43.205 222.395 37.6318C206.718 29.398 205.1 29.5418 191.976 26.4496C185.684 24.9754 181.441 24.8675 176.479 24.6518C161.234 23.8967 148.362 29.2182 134.555 34.6475C122.654 39.3577 116.29 42.7375 103.885 42.8454C91.516 42.9533 75.3 33.389 66.6346 28.2833C58.0412 23.2136 43.0117 11.8516 43.0117 11.8516L18.6337 62.4053Z" fill="url(#paint31_linear_6298_11339)"/>
<path d="M222.427 37.6652C206.751 29.4313 205.169 29.5751 192.009 26.4829C185.717 25.0088 181.474 24.9009 176.548 24.6852C161.303 23.9301 148.43 29.2515 134.659 34.6808C122.758 39.391 116.394 42.7709 104.025 42.8788C102.875 42.8788 101.652 42.8068 100.466 42.6271C97.3374 46.762 95.3239 52.6228 93.2025 57.4768C90.4698 63.6252 87.4855 69.6298 84.5371 75.6704C81.4809 81.8907 78.2808 88.0392 75.5122 94.4033C74.4336 96.9202 73.247 99.3293 71.9886 101.702C80.7977 109.756 88.4204 115.905 110.389 125.074C148.61 141.038 159.325 151.465 163.136 145.604C173.096 130.467 133.509 107.096 131.747 100.624C130.632 96.5966 138.471 84.5515 147.675 82.466C154.076 81.0638 164.503 86.3493 171.586 91.3831C175.577 94.2236 178.274 97.927 179.532 99.4371C182.445 102.925 180.899 110.511 180.611 115.725C180.503 117.631 180.287 119.752 180.107 122.269C180.107 122.377 180.107 122.665 180.107 122.665L195.712 125.397C195.712 125.397 195.784 125.074 195.82 124.894C196.719 120.543 198.697 111.087 200.099 105.873C201.969 99.0057 198.373 92.7853 194.274 86.6728C192.225 83.6526 188.269 78.403 184.602 74.4119C180.251 69.6658 176.368 66.3579 176.368 66.3579C176.368 66.3579 195.065 70.1692 204.629 74.2681C214.194 78.3311 215.704 78.9783 215.704 78.9783C215.704 78.9783 230.302 54.2408 232.279 51.1845C235.443 46.2945 233.142 43.3102 222.499 37.7371L222.427 37.6652Z" fill="url(#paint32_linear_6298_11339)"/>
<path d="M131.719 100.586C131.719 100.586 131.719 100.298 131.683 100.154C131.683 100.154 130.101 102.024 136.069 110.905C144.735 123.741 157.535 131.148 159.98 141.288C161.67 148.335 152.034 144.596 152.034 144.596C152.034 144.596 154.263 145.602 155.234 145.998C159.405 147.652 161.706 147.652 163.108 145.53C173.068 130.393 133.48 107.022 131.719 100.55V100.586Z" fill="url(#paint33_linear_6298_11339)"/>
<path d="M184.529 74.341C181.006 70.4937 177.806 67.6173 176.727 66.6465C176.044 66.9341 175.289 67.1139 174.57 67.1499C174.354 67.1499 174.138 67.1499 173.922 67.1858C173.635 67.2218 173.347 67.2577 173.095 67.2937C172.34 67.4375 171.585 67.6173 170.866 67.833C170.147 68.0488 169.464 68.3005 168.781 68.5521C168.673 68.5881 168.565 68.66 168.457 68.696C168.134 68.8757 167.774 69.0196 167.45 69.1993C166.803 69.5589 166.156 69.9544 165.545 70.3499C165.221 70.5657 164.934 70.7814 164.646 70.9971C164.646 70.9971 164.646 70.9971 164.574 71.069C163.387 72.0398 162.309 73.1545 161.302 74.3051C161.302 74.3051 161.266 74.341 161.23 74.377C161.05 74.6646 160.763 74.9882 160.583 75.2399C160.151 75.8871 159.72 76.5703 159.324 77.2894C159.073 77.7568 158.857 78.2242 158.641 78.6917C158.785 78.3681 158.893 78.2602 158.462 79.0872C158.462 79.0872 158.462 79.1591 158.426 79.195C158.282 79.5905 158.138 80.022 157.994 80.4175C157.742 81.1726 157.563 81.9636 157.383 82.7547C157.311 83.0783 157.275 83.3659 157.203 83.6895C162.129 85.4154 167.379 88.4357 171.513 91.3481C175.505 94.1886 178.201 97.892 179.46 99.4022C182.372 102.89 180.826 110.477 180.538 115.69C180.43 117.524 180.215 119.753 180.035 122.198C180.035 122.27 180.035 122.594 180.035 122.594L195.64 125.326C195.64 125.326 195.784 124.571 195.82 124.391C196.79 119.681 198.696 110.692 200.026 105.802C201.896 98.9347 198.3 92.7144 194.202 86.6019C192.152 83.5816 188.197 78.3321 184.529 74.341Z" fill="url(#paint34_radial_6298_11339)"/>
<path d="M172.771 36.7257C172.771 36.7257 193.733 35.8987 209.158 41.2561C214.696 43.1618 219.37 44.3843 235.226 52.6541C241.267 55.8182 256.692 65.3465 257.411 68.7982C257.771 70.4881 257.555 74.2635 251.442 73.9758C246.049 73.7242 231.739 67.6476 231.739 67.6476L184.745 58.8025L172.735 36.6898L172.771 36.7257Z" fill="url(#paint35_linear_6298_11339)"/>
<path d="M172.771 36.7257C172.771 36.7257 193.733 35.8987 209.158 41.2561C214.696 43.1618 219.37 44.3843 235.226 52.6541C241.267 55.8182 256.692 65.3465 257.411 68.7982C257.771 70.4881 257.555 74.2635 251.442 73.9758C246.049 73.7242 231.739 67.6476 231.739 67.6476L184.745 58.8025L172.735 36.6898L172.771 36.7257Z" fill="url(#paint36_radial_6298_11339)"/>
<path d="M176.263 66.2553C176.263 66.2553 206.646 72.7992 218.044 80.314C223.221 83.7298 235.195 95.8469 243.968 99.1548C248.57 100.917 252.094 99.1548 254.036 97.5727C255.078 96.7458 255.222 95.1996 254.395 94.1569C249.361 87.9006 231.743 66.6868 225.774 62.3721C215.131 54.6416 179.356 48.8887 179.356 48.8887L176.263 66.2193V66.2553Z" fill="url(#paint37_linear_6298_11339)"/>
<path d="M176.263 66.2553C176.263 66.2553 206.646 72.7992 218.044 80.314C223.221 83.7298 235.195 95.8469 243.968 99.1548C248.57 100.917 252.094 99.1548 254.036 97.5727C255.078 96.7458 255.222 95.1996 254.395 94.1569C249.361 87.9006 231.743 66.6868 225.774 62.3721C215.131 54.6416 179.356 48.8887 179.356 48.8887L176.263 66.2193V66.2553Z" fill="url(#paint38_radial_6298_11339)"/>
<defs>
<linearGradient id="paint0_linear_6298_11339" x1="163.944" y1="205.027" x2="211.944" y2="139.027" gradientUnits="userSpaceOnUse">
<stop/>
<stop offset="1" stop-color="#8757E4"/>
</linearGradient>
<linearGradient id="paint1_linear_6298_11339" x1="147.438" y1="188.533" x2="190.938" y2="118.033" gradientUnits="userSpaceOnUse">
<stop/>
<stop offset="0.5" stop-color="#8757E4"/>
<stop offset="0.73" stop-color="#AA88EC"/>
<stop offset="1" stop-color="#C9B3F3"/>
</linearGradient>
<linearGradient id="paint2_linear_6298_11339" x1="191.887" y1="127.226" x2="192.304" y2="124.887" gradientUnits="userSpaceOnUse">
<stop stop-color="white" stop-opacity="0"/>
<stop offset="1" stop-color="white" stop-opacity="0.8"/>
</linearGradient>
<linearGradient id="paint3_linear_6298_11339" x1="181.108" y1="125.308" x2="181.525" y2="122.969" gradientUnits="userSpaceOnUse">
<stop stop-color="white" stop-opacity="0"/>
<stop offset="1" stop-color="white" stop-opacity="0.8"/>
</linearGradient>
<linearGradient id="paint4_linear_6298_11339" x1="184.725" y1="167.318" x2="184.308" y2="169.657" gradientUnits="userSpaceOnUse">
<stop stop-opacity="0"/>
<stop offset="1" stop-opacity="0.8"/>
</linearGradient>
<linearGradient id="paint5_linear_6298_11339" x1="174.018" y1="165.371" x2="173.601" y2="167.711" gradientUnits="userSpaceOnUse">
<stop stop-opacity="0"/>
<stop offset="1" stop-opacity="0.8"/>
</linearGradient>
<linearGradient id="paint6_linear_6298_11339" x1="118.821" y1="275.817" x2="118.821" y2="180.309" gradientUnits="userSpaceOnUse">
<stop stop-color="#606060"/>
<stop offset="1" stop-color="#DEDFE0"/>
</linearGradient>
<linearGradient id="paint7_linear_6298_11339" x1="111.728" y1="232.869" x2="111.728" y2="230.493" gradientUnits="userSpaceOnUse">
<stop stop-color="white" stop-opacity="0"/>
<stop offset="1" stop-color="white" stop-opacity="0.8"/>
</linearGradient>
<linearGradient id="paint8_linear_6298_11339" x1="100.784" y1="16.9403" x2="100.784" y2="16.9403" gradientUnits="userSpaceOnUse">
<stop stop-color="white" stop-opacity="0"/>
<stop offset="1" stop-color="white" stop-opacity="0.8"/>
</linearGradient>
<linearGradient id="paint9_linear_6298_11339" x1="111.728" y1="273.543" x2="111.728" y2="275.919" gradientUnits="userSpaceOnUse">
<stop stop-opacity="0"/>
<stop offset="1" stop-opacity="0.8"/>
</linearGradient>
<linearGradient id="paint10_linear_6298_11339" x1="100.784" y1="426.363" x2="100.784" y2="426.363" gradientUnits="userSpaceOnUse">
<stop stop-opacity="0"/>
<stop offset="1" stop-opacity="0.8"/>
</linearGradient>
<linearGradient id="paint11_linear_6298_11339" x1="135.308" y1="231.536" x2="170.336" y2="170.768" gradientUnits="userSpaceOnUse">
<stop stop-color="#606060"/>
<stop offset="1" stop-color="#DEDFE0"/>
</linearGradient>
<linearGradient id="paint12_linear_6298_11339" x1="178.041" y1="275.817" x2="178.041" y2="180.309" gradientUnits="userSpaceOnUse">
<stop stop-color="#606060"/>
<stop offset="1" stop-color="#DEDFE0"/>
</linearGradient>
<linearGradient id="paint13_linear_6298_11339" x1="142.329" y1="187.04" x2="142.329" y2="184.664" gradientUnits="userSpaceOnUse">
<stop stop-color="white" stop-opacity="0"/>
<stop offset="1" stop-color="white" stop-opacity="0.8"/>
</linearGradient>
<linearGradient id="paint14_linear_6298_11339" x1="131.385" y1="187.04" x2="131.385" y2="184.664" gradientUnits="userSpaceOnUse">
<stop stop-color="white" stop-opacity="0"/>
<stop offset="1" stop-color="white" stop-opacity="0.8"/>
</linearGradient>
<linearGradient id="paint15_linear_6298_11339" x1="142.328" y1="227.717" x2="142.328" y2="230.093" gradientUnits="userSpaceOnUse">
<stop stop-opacity="0"/>
<stop offset="1" stop-opacity="0.8"/>
</linearGradient>
<linearGradient id="paint16_linear_6298_11339" x1="131.384" y1="227.717" x2="131.384" y2="230.093" gradientUnits="userSpaceOnUse">
<stop stop-opacity="0"/>
<stop offset="1" stop-opacity="0.8"/>
</linearGradient>
<linearGradient id="paint17_linear_6298_11339" x1="194.528" y1="231.536" x2="229.556" y2="170.768" gradientUnits="userSpaceOnUse">
<stop stop-color="#606060"/>
<stop offset="1" stop-color="#DEDFE0"/>
</linearGradient>
<linearGradient id="paint18_linear_6298_11339" x1="201.548" y1="187.04" x2="201.548" y2="184.664" gradientUnits="userSpaceOnUse">
<stop stop-color="white" stop-opacity="0"/>
<stop offset="1" stop-color="white" stop-opacity="0.8"/>
</linearGradient>
<linearGradient id="paint19_linear_6298_11339" x1="190.604" y1="187.04" x2="190.604" y2="184.664" gradientUnits="userSpaceOnUse">
<stop stop-color="white" stop-opacity="0"/>
<stop offset="1" stop-color="white" stop-opacity="0.8"/>
</linearGradient>
<linearGradient id="paint20_linear_6298_11339" x1="201.548" y1="227.717" x2="201.548" y2="230.093" gradientUnits="userSpaceOnUse">
<stop stop-opacity="0"/>
<stop offset="1" stop-opacity="0.8"/>
</linearGradient>
<linearGradient id="paint21_linear_6298_11339" x1="190.604" y1="227.717" x2="190.604" y2="230.093" gradientUnits="userSpaceOnUse">
<stop stop-opacity="0"/>
<stop offset="1" stop-opacity="0.8"/>
</linearGradient>
<linearGradient id="paint22_linear_6298_11339" x1="171.164" y1="16.9403" x2="171.164" y2="16.9403" gradientUnits="userSpaceOnUse">
<stop stop-color="white" stop-opacity="0"/>
<stop offset="1" stop-color="white" stop-opacity="0.8"/>
</linearGradient>
<linearGradient id="paint23_linear_6298_11339" x1="160.221" y1="16.9403" x2="160.221" y2="16.9403" gradientUnits="userSpaceOnUse">
<stop stop-color="white" stop-opacity="0"/>
<stop offset="1" stop-color="white" stop-opacity="0.8"/>
</linearGradient>
<linearGradient id="paint24_linear_6298_11339" x1="171.166" y1="426.363" x2="171.166" y2="426.363" gradientUnits="userSpaceOnUse">
<stop stop-opacity="0"/>
<stop offset="1" stop-opacity="0.8"/>
</linearGradient>
<linearGradient id="paint25_linear_6298_11339" x1="160.222" y1="426.363" x2="160.222" y2="426.363" gradientUnits="userSpaceOnUse">
<stop stop-opacity="0"/>
<stop offset="1" stop-opacity="0.8"/>
</linearGradient>
<linearGradient id="paint26_linear_6298_11339" x1="223.581" y1="277.365" x2="258.609" y2="216.597" gradientUnits="userSpaceOnUse">
<stop stop-color="#606060"/>
<stop offset="1" stop-color="#DEDFE0"/>
</linearGradient>
<linearGradient id="paint27_linear_6298_11339" x1="230.6" y1="16.9403" x2="230.6" y2="16.9403" gradientUnits="userSpaceOnUse">
<stop stop-color="white" stop-opacity="0"/>
<stop offset="1" stop-color="white" stop-opacity="0.8"/>
</linearGradient>
<linearGradient id="paint28_linear_6298_11339" x1="219.656" y1="16.9403" x2="219.656" y2="16.9403" gradientUnits="userSpaceOnUse">
<stop stop-color="white" stop-opacity="0"/>
<stop offset="1" stop-color="white" stop-opacity="0.8"/>
</linearGradient>
<linearGradient id="paint29_linear_6298_11339" x1="230.6" y1="426.363" x2="230.6" y2="426.363" gradientUnits="userSpaceOnUse">
<stop stop-opacity="0"/>
<stop offset="1" stop-opacity="0.8"/>
</linearGradient>
<linearGradient id="paint30_linear_6298_11339" x1="219.656" y1="426.363" x2="219.656" y2="426.363" gradientUnits="userSpaceOnUse">
<stop stop-opacity="0"/>
<stop offset="1" stop-opacity="0.8"/>
</linearGradient>
<linearGradient id="paint31_linear_6298_11339" x1="148.038" y1="101.813" x2="98.4195" y2="-5.11954" gradientUnits="userSpaceOnUse">
<stop stop-color="#939393"/>
<stop offset="0.1" stop-color="#A3A3A3"/>
<stop offset="0.38" stop-color="#CBCBCB"/>
<stop offset="0.62" stop-color="#E7E7E7"/>
<stop offset="0.84" stop-color="#F8F8F8" stop-opacity="0.5"/>
<stop offset="1" stop-color="white" stop-opacity="0"/>
</linearGradient>
<linearGradient id="paint32_linear_6298_11339" x1="162.957" y1="96.1652" x2="114.596" y2="-8.10648" gradientUnits="userSpaceOnUse">
<stop stop-color="#939393"/>
<stop offset="0.1" stop-color="#A3A3A3"/>
<stop offset="0.38" stop-color="#CBCBCB"/>
<stop offset="0.62" stop-color="#E7E7E7"/>
<stop offset="0.84" stop-color="#F8F8F8" stop-opacity="0.5"/>
<stop offset="1" stop-color="white" stop-opacity="0"/>
</linearGradient>
<linearGradient id="paint33_linear_6298_11339" x1="163.504" y1="116.298" x2="142.146" y2="125.467" gradientUnits="userSpaceOnUse">
<stop stop-color="white" stop-opacity="0.5"/>
<stop offset="1" stop-color="white" stop-opacity="0"/>
</linearGradient>
<radialGradient id="paint34_radial_6298_11339" cx="0" cy="0" r="1" gradientUnits="userSpaceOnUse" gradientTransform="translate(200.707 91.4445) rotate(-122.01) scale(29.3593 17.6787)">
<stop stop-color="white" stop-opacity="0.5"/>
<stop offset="1" stop-color="white" stop-opacity="0"/>
</radialGradient>
<linearGradient id="paint35_linear_6298_11339" x1="195.351" y1="69.4814" x2="215.307" y2="54.1642" gradientUnits="userSpaceOnUse">
<stop stop-color="#C3C3C3" stop-opacity="0"/>
<stop offset="1" stop-color="#ACACAC"/>
</linearGradient>
<radialGradient id="paint36_radial_6298_11339" cx="0" cy="0" r="1" gradientUnits="userSpaceOnUse" gradientTransform="translate(219.249 44.6311) rotate(21.07) scale(38.8559 19.2191)">
<stop stop-color="white" stop-opacity="0.5"/>
<stop offset="1" stop-color="white" stop-opacity="0"/>
</radialGradient>
<linearGradient id="paint37_linear_6298_11339" x1="184.281" y1="79.7027" x2="212.183" y2="74.7408" gradientUnits="userSpaceOnUse">
<stop stop-color="#C3C3C3" stop-opacity="0"/>
<stop offset="1" stop-color="#ACACAC"/>
</linearGradient>
<radialGradient id="paint38_radial_6298_11339" cx="0" cy="0" r="1" gradientUnits="userSpaceOnUse" gradientTransform="translate(226.702 62.7127) rotate(27.88) scale(46.3797 19.9482)">
<stop stop-color="white" stop-opacity="0.5"/>
<stop offset="1" stop-color="white" stop-opacity="0"/>
</radialGradient>
</defs>
</svg>
