<svg width="86" height="86" viewBox="0 0 86 86" fill="none" xmlns="http://www.w3.org/2000/svg">
<path d="M26.8633 59.8536L39.8865 59.6745L49.2031 57.8716C50.2557 57.726 51.2523 58.3867 51.5211 59.4169C51.7786 60.3799 51.2299 61.2534 50.4237 61.8357C49.3935 62.5859 47.7026 63.1682 47.7026 63.1682L26.8633 59.8536Z" fill="url(#paint0_linear_5692_16992)"/>
<path d="M26.8637 59.8535C26.8637 59.8535 31.4997 59.6071 37.7593 60.962C44.0189 62.317 49.4051 63.7615 54.6234 63.8847L44.0973 66.8522L26.8525 59.8535H26.8637Z" fill="url(#paint1_linear_5692_16992)"/>
<path d="M53.8506 70.6148L65.2389 68.8343L75.9889 63.2802L75.7985 62.8434C75.1042 61.2645 73.2118 60.6151 71.6889 61.4101L64.3654 65.2622L53.8506 70.6036V70.6148Z" fill="url(#paint2_linear_5692_16992)"/>
<path d="M53.8506 70.6159L65.0709 67.7492L78.7547 56.4169L77.9485 55.5994C76.7727 54.4125 74.8915 54.3005 73.5925 55.3643L67.5568 60.2802L53.8618 70.6271L53.8506 70.6159Z" fill="url(#paint3_linear_5692_16992)"/>
<path d="M48.6098 72.3142L61.8122 68.0366C62.3833 67.8462 62.876 67.4767 63.2119 66.9728L72.6518 52.897L71.7335 52.3931C70.1546 51.5197 68.1614 52.0348 67.2096 53.5689L65.5299 56.2452L48.5986 72.3142H48.6098Z" fill="url(#paint4_linear_5692_16992)"/>
<path d="M16.1702 80.6378L21.366 75.7555C24.6358 72.6873 29.0926 71.1979 33.5493 71.713L44.7697 73.0008C46.091 73.1576 47.4348 72.9224 48.6217 72.3289L59.0358 67.1779C59.4053 66.9987 59.7189 66.7188 59.9428 66.3716L66.5384 56.2039L65.0603 55.7224C63.8061 55.3081 62.44 55.6776 61.5553 56.6518L55.4301 63.4714C55.2285 63.7065 54.9374 63.8521 54.635 63.8857L47.1212 64.7367C46.2478 64.8375 45.3743 64.7479 44.5345 64.4792L32.5751 60.6383C27.7488 59.093 22.4858 59.8096 18.253 62.6091L4.50195 71.6906" fill="url(#paint5_linear_5692_16992)"/>
<path d="M15.0384 81.7016L21.354 75.7555C24.6238 72.6873 29.0806 71.1979 33.5374 71.713L44.7577 73.0008C46.079 73.1576 47.4228 72.9224 48.6098 72.3289L59.0238 67.1779C59.3934 66.9987 59.7069 66.7188 59.9309 66.3716L66.5264 56.2039L65.0483 55.7224C63.7941 55.3081 62.428 55.6776 61.5434 56.6518L55.4181 63.4714C55.2165 63.7065 54.9254 63.8521 54.623 63.8857L47.1092 64.7367C46.2358 64.8375 45.3624 64.7479 44.5225 64.4792L32.5632 60.6383C27.7368 59.093 22.4738 59.8096 18.241 62.6091L3.22461 72.5417" fill="url(#paint6_linear_5692_16992)"/>
<path d="M40.4691 4.84948C33.9631 9.12708 27.5803 10.482 23.9746 10.9188C22.2501 11.1315 20.9512 12.5872 20.9512 14.3117V29.9552C20.9512 39.9885 27.054 48.9917 36.4155 52.7542L41.0066 54.6018C41.4322 54.7698 41.8689 54.8482 42.3056 54.8482H45.2283L48.1957 52.687C57.546 48.8237 63.66 39.7534 63.66 29.7201V14.0766C63.66 12.3521 62.3723 10.9076 60.6366 10.7172C57.0309 10.3253 51.8014 8.5112 45.2954 4.30078H42.3168C41.6785 4.30078 41.0402 4.47995 40.4803 4.84948H40.4691Z" fill="url(#paint7_linear_5692_16992)"/>
<path d="M43.3924 4.84951C36.8865 9.12712 30.5036 10.4821 26.8867 10.9188C25.1622 11.1315 23.8633 12.5873 23.8633 14.3118V29.9552C23.8633 39.9886 29.9661 48.9917 39.3276 52.7542L43.9187 54.6019C44.7474 54.9378 45.688 54.9378 46.5279 54.5795L51.119 52.687C60.4693 48.8237 66.5833 39.7534 66.5833 29.7201V14.0766C66.5833 12.3521 65.2956 10.9076 63.5599 10.7172C59.943 10.3253 53.5714 9.02634 47.0542 4.82712C45.9456 4.12165 44.501 4.12165 43.3813 4.84951H43.3924Z" fill="url(#paint8_linear_5692_16992)"/>
<path d="M43.6495 8.35292C38.0618 12.0258 32.586 13.1904 29.4842 13.5599C28.0061 13.7391 26.8975 14.9933 26.8975 16.4714V29.8977C26.8975 38.5089 32.1381 46.2467 40.167 49.4605L44.1087 51.0394C44.8253 51.3305 45.6316 51.3193 46.3482 51.0394L50.2899 49.4157C58.3188 46.1011 63.5594 38.3073 63.5594 29.6961V16.2698C63.5594 14.7917 62.4508 13.5488 60.9727 13.392C57.8709 13.0448 52.3951 11.9474 46.8074 8.34172C45.8555 7.72583 44.6126 7.73703 43.6607 8.36412L43.6495 8.35292Z" fill="url(#paint9_linear_5692_16992)"/>
<path d="M44.3105 17.2094C41.0519 19.337 37.8605 20.0312 36.0576 20.244C35.1954 20.3448 34.5459 21.0726 34.5459 21.9349V29.7622C34.5459 34.7789 37.6029 39.2917 42.2725 41.1729L44.568 42.0911C44.9936 42.2591 45.4527 42.2591 45.867 42.0911L48.1626 41.1393C52.8433 39.2133 55.8891 34.6669 55.8891 29.6502V21.8229C55.8891 20.9607 55.2508 20.2328 54.3774 20.1432C52.5745 19.9528 49.3719 19.3034 46.1245 17.1982C45.5758 16.8398 44.848 16.851 44.2881 17.1982L44.3105 17.2094Z" fill="url(#paint10_linear_5692_16992)"/>
<defs>
<linearGradient id="paint0_linear_5692_16992" x1="39.1922" y1="62.5299" x2="39.293" y2="52.4406" gradientUnits="userSpaceOnUse">
<stop stop-color="#939393"/>
<stop offset="0.1" stop-color="#A3A3A3"/>
<stop offset="0.47" stop-color="#CBCBCB"/>
<stop offset="0.74" stop-color="#E7E7E7"/>
<stop offset="0.93" stop-color="#F8F8F8"/>
<stop offset="1" stop-color="white"/>
</linearGradient>
<linearGradient id="paint1_linear_5692_16992" x1="41.1187" y1="59.2824" x2="40.3124" y2="64.8589" gradientUnits="userSpaceOnUse">
<stop stop-color="white"/>
<stop offset="1" stop-color="#777777"/>
</linearGradient>
<linearGradient id="paint2_linear_5692_16992" x1="66.2579" y1="51.9703" x2="64.0631" y2="76.4041" gradientUnits="userSpaceOnUse">
<stop stop-color="white"/>
<stop offset="0.67" stop-color="#666666"/>
<stop offset="0.78" stop-color="#777777"/>
<stop offset="0.95" stop-color="#939393"/>
<stop offset="1" stop-color="#989898"/>
</linearGradient>
<linearGradient id="paint3_linear_5692_16992" x1="60.9501" y1="47.7609" x2="69.1245" y2="71.8476" gradientUnits="userSpaceOnUse">
<stop stop-color="white"/>
<stop offset="0.67" stop-color="#666666"/>
<stop offset="0.78" stop-color="#777777"/>
<stop offset="0.95" stop-color="#939393"/>
<stop offset="1" stop-color="#989898"/>
</linearGradient>
<linearGradient id="paint4_linear_5692_16992" x1="57.0307" y1="49.9632" x2="64.4213" y2="75.8975" gradientUnits="userSpaceOnUse">
<stop stop-color="white"/>
<stop offset="0.67" stop-color="#666666"/>
<stop offset="0.78" stop-color="#777777"/>
<stop offset="0.95" stop-color="#939393"/>
<stop offset="1" stop-color="#989898"/>
</linearGradient>
<linearGradient id="paint5_linear_5692_16992" x1="39.753" y1="80.0107" x2="30.9626" y2="46.6745" gradientUnits="userSpaceOnUse">
<stop stop-color="#939393"/>
<stop offset="0.1" stop-color="#A3A3A3"/>
<stop offset="0.47" stop-color="#CBCBCB"/>
<stop offset="0.74" stop-color="#E7E7E7"/>
<stop offset="0.93" stop-color="#F8F8F8"/>
<stop offset="1" stop-color="white"/>
</linearGradient>
<linearGradient id="paint6_linear_5692_16992" x1="29.8197" y1="71.2987" x2="18.185" y2="83.3253" gradientUnits="userSpaceOnUse">
<stop stop-color="white" stop-opacity="0"/>
<stop offset="1" stop-color="white"/>
</linearGradient>
<linearGradient id="paint7_linear_5692_16992" x1="42.2944" y1="55.2625" x2="42.2944" y2="23.4492" gradientUnits="userSpaceOnUse">
<stop/>
<stop offset="0.5" stop-color="#666666"/>
<stop offset="0.73" stop-color="#777777"/>
<stop offset="0.95" stop-color="#939393"/>
<stop offset="1" stop-color="#989898"/>
</linearGradient>
<linearGradient id="paint8_linear_5692_16992" x1="32.8888" y1="70.0326" x2="58.532" y2="-26.9302" gradientUnits="userSpaceOnUse">
<stop stop-color="#939393"/>
<stop offset="0.1" stop-color="#A3A3A3"/>
<stop offset="0.38" stop-color="#CBCBCB"/>
<stop offset="0.62" stop-color="#E7E7E7"/>
<stop offset="0.84" stop-color="#F8F8F8"/>
<stop offset="1" stop-color="white"/>
</linearGradient>
<linearGradient id="paint9_linear_5692_16992" x1="-36.5387" y1="98.1154" x2="63.6378" y2="11.298" gradientUnits="userSpaceOnUse">
<stop stop-color="#939393"/>
<stop offset="0.1" stop-color="#A3A3A3"/>
<stop offset="0.38" stop-color="#CBCBCB"/>
<stop offset="0.62" stop-color="#E7E7E7"/>
<stop offset="0.84" stop-color="#F8F8F8"/>
<stop offset="1" stop-color="white"/>
</linearGradient>
<linearGradient id="paint10_linear_5692_16992" x1="45.2174" y1="43.3551" x2="45.2174" y2="15.6024" gradientUnits="userSpaceOnUse">
<stop stop-color="#7C47E1"/>
<stop offset="0.9994" stop-color="#D0BDF4"/>
</linearGradient>
</defs>
</svg>
