<svg width="564" height="564" viewBox="0 0 564 564" fill="none" xmlns="http://www.w3.org/2000/svg">
<path d="M90.849 511.852C-14.7205 450.94 -14.7205 352.082 90.849 291.125C196.419 230.168 367.581 230.213 473.151 291.125C578.72 352.037 578.72 450.895 473.151 511.852C367.581 572.809 196.419 572.798 90.849 511.852Z" fill="#F5F5F5"/>
<path d="M377.192 531.615C415.28 531.615 446.157 513.788 446.157 491.797C446.157 469.806 415.28 451.979 377.192 451.979C339.103 451.979 308.226 469.806 308.226 491.797C308.226 513.788 339.103 531.615 377.192 531.615Z" fill="#E6E6E6"/>
<path d="M92.0108 463.586C130.1 463.586 160.977 445.759 160.977 423.768C160.977 401.777 130.1 383.949 92.0108 383.949C53.922 383.949 23.0449 401.777 23.0449 423.768C23.0449 445.759 53.922 463.586 92.0108 463.586Z" fill="#E6E6E6"/>
<path d="M270.617 513.387L371.415 455.193L183.558 346.725L82.749 404.929L270.617 513.387Z" fill="#E6E6E6"/>
<path d="M239.237 268.284C227.066 275.312 227.066 286.705 239.237 293.743C251.408 300.782 271.159 300.771 283.33 293.743C295.501 286.716 295.501 275.312 283.33 268.284C271.159 261.257 251.419 261.257 239.237 268.284Z" fill="#E6E6E6"/>
<path d="M150.791 28.8887L153.961 30.6596V158.485L150.791 156.725V28.8887Z" fill="#FAFAFA"/>
<path d="M150.791 156.724V32.4863L23.5635 105.942L23.586 230.168L150.791 156.724Z" fill="white"/>
<path d="M159.838 161.892V20.4629L17.71 102.547V243.965L159.838 161.892ZM23.5643 233.779V105.943L153.961 30.66V158.496L23.5643 233.779Z" fill="#F0F0F0"/>
<path d="M153.96 158.484L150.791 156.725L23.586 230.169L23.5635 233.778L153.96 158.484Z" fill="#E0E0E0"/>
<path d="M118.451 51.1555L121.621 49.3281V177.164L118.451 175.393V51.1555Z" fill="#FAFAFA"/>
<path d="M46.9805 92.4172L50.1501 90.5898V218.426L46.9805 216.655V92.4172Z" fill="#FAFAFA"/>
<path d="M17.6867 243.965L14.5283 242.126V100.709L17.6867 102.548V243.965Z" fill="#E0E0E0"/>
<path d="M14.5283 100.708L17.6867 102.547L159.849 20.4621L156.69 18.6348L14.5283 100.708Z" fill="#FAFAFA"/>
<path d="M23.5635 163.719V167.373L153.972 92.0793L150.824 90.252L23.5635 163.719Z" fill="#E0E0E0"/>
<path d="M23.5748 174.151L23.5635 167.372L153.972 92.0781L153.96 98.88L23.5748 174.151Z" fill="#F0F0F0"/>
<path d="M50.1504 225.217L56.0273 221.833V80.4043L50.1504 83.7996V225.217Z" fill="#F0F0F0"/>
<path d="M121.609 183.965L127.475 180.57V39.1523L121.609 42.5476V183.965Z" fill="#F0F0F0"/>
<path d="M50.1501 152.021L46.9805 150.193V92.4172L50.1501 90.5898V152.021Z" fill="#FAFAFA"/>
<path d="M121.587 110.78L118.417 108.953V51.177L121.587 49.3496V110.78Z" fill="#FAFAFA"/>
<path d="M415.273 28.8887L412.104 30.6596V158.485L415.273 156.725V28.8887Z" fill="#FAFAFA"/>
<path d="M415.272 156.724L415.284 32.4863L542.5 105.942L542.477 230.168L415.272 156.724Z" fill="white"/>
<path d="M548.389 243.965V102.547L406.261 20.4629V161.892L548.389 243.965ZM412.104 158.496V30.66L542.501 105.943V233.779L412.104 158.496Z" fill="#F0F0F0"/>
<path d="M412.104 158.484L415.273 156.725L542.478 230.169L542.5 233.778L412.104 158.484Z" fill="#E0E0E0"/>
<path d="M447.624 51.1555L444.454 49.3281V177.164L447.624 175.393V51.1555Z" fill="#FAFAFA"/>
<path d="M519.094 92.4172L515.925 90.5898V218.426L519.094 216.655V92.4172Z" fill="#FAFAFA"/>
<path d="M548.389 243.965L551.536 242.126V100.709L548.389 102.548V243.965Z" fill="#E0E0E0"/>
<path d="M551.536 100.708L548.388 102.547L406.227 20.4621L409.374 18.6348L551.536 100.708Z" fill="#FAFAFA"/>
<path d="M542.5 163.719V167.373L412.104 92.0793L415.251 90.252L542.5 163.719Z" fill="#E0E0E0"/>
<path d="M542.489 174.151L542.5 167.372L412.104 92.0781V98.88L542.489 174.151Z" fill="#F0F0F0"/>
<path d="M515.925 225.217L510.048 221.833V80.4043L515.925 83.7996V225.217Z" fill="#F0F0F0"/>
<path d="M444.466 183.965L438.589 180.57V39.1523L444.466 42.5476V183.965Z" fill="#F0F0F0"/>
<path d="M515.925 152.021L519.094 150.193V92.4172L515.925 90.5898V152.021Z" fill="#FAFAFA"/>
<path d="M444.488 110.78L447.658 108.953V51.177L444.488 49.3496V110.78Z" fill="#FAFAFA"/>
<path opacity="0.1" d="M297.938 254.014L375.838 298.987L409.362 279.631V156.137L325.428 107.6V238.143L297.938 254.014Z" fill="black"/>
<path d="M374.157 285.248L370.682 286.782L308.913 251.115L312.387 249.592L374.157 285.248Z" fill="#FAFAFA"/>
<path d="M312.388 249.592L371.157 283.51L389.577 154.783L330.819 120.887L312.388 249.592Z" fill="white"/>
<path d="M302.371 253.889L375.499 296.11L396.13 152.008L323.002 109.787L302.371 253.889ZM327.819 119.116L389.577 154.783L370.683 286.759L308.913 251.103L327.819 119.116Z" fill="#F0F0F0"/>
<path d="M308.913 251.114L312.387 249.591L330.819 120.887L327.818 119.127L308.913 251.114Z" fill="#E0E0E0"/>
<path d="M323.002 109.788L326.521 108.299L399.65 150.52L396.13 152.009L323.002 109.788Z" fill="#FAFAFA"/>
<path d="M399.65 150.52L396.131 152.008L375.5 296.111L379.019 294.633L399.65 150.52Z" fill="#E0E0E0"/>
<path d="M317.6 246.536L367.547 275.367L384.14 159.499L334.192 130.656L317.6 246.536Z" fill="#F0F0F0"/>
<path d="M317.6 246.536L367.547 275.367L384.14 159.499L334.192 130.656L317.6 246.536Z" fill="#F0F0F0"/>
<path d="M374.134 229.334C371.572 229.38 369.009 229.256 366.464 228.962C357.753 228.056 349.192 226.055 340.982 223.006C334.767 220.682 328.653 217.738 321.806 217.287L317.621 246.536L324.389 250.439C327.616 248.294 331.241 246.817 335.049 246.096C345.742 244.179 355.725 249.085 366.215 250.608C367.824 250.829 369.443 250.964 371.066 251.014L374.134 229.334Z" fill="#FAFAFA"/>
<path d="M377.71 204.348C366.125 200.784 354.191 197.76 346.645 189.842C340.599 183.446 338.557 174.862 337.463 166.481C336.369 158.1 336.042 149.482 332.759 141.665L332.646 141.439L325.788 189.379C326.341 190.271 326.916 191.162 327.491 192.019C334.068 201.528 344.603 209.672 357.801 210.811C364.005 211.353 370.637 210.36 376.819 210.631L377.71 204.348Z" fill="#FAFAFA"/>
<path d="M380.508 184.812C376.445 181.299 373.529 176.647 372.137 171.459C370.746 166.271 370.943 160.785 372.702 155.709C372.973 154.942 373.3 154.187 373.639 153.453L354.463 142.365C354.384 143.493 354.282 144.7 354.147 145.873C353.402 152.641 352.139 159.5 352.951 166.177C354.293 177.378 361.749 187.609 372.77 193.249C374.768 194.275 376.842 195.147 378.974 195.855L380.508 184.812Z" fill="#FAFAFA"/>
<path opacity="0.1" d="M384.693 282.305L462.593 327.278L490.883 311.103V154.931L412.183 139.455V266.434L384.693 282.305Z" fill="black"/>
<path d="M461.769 314.273L458.283 315.796L396.525 280.128L400 278.605L461.769 314.273Z" fill="#FAFAFA"/>
<path d="M399.999 278.605L458.757 312.524L480.809 158.428L422.051 124.531L399.999 278.605Z" fill="white"/>
<path d="M389.972 282.903L463.1 325.124L487.363 155.664L414.235 113.443L389.972 282.903ZM419.052 122.727L480.81 158.394L458.283 315.84L396.525 280.173L419.052 122.727Z" fill="#F0F0F0"/>
<path d="M396.525 280.129L400 278.606L422.052 124.533L419.052 122.762L396.525 280.129Z" fill="#E0E0E0"/>
<path d="M414.235 113.432L417.755 111.943L490.883 154.164L487.364 155.653L414.235 113.432Z" fill="#FAFAFA"/>
<path d="M490.883 154.164L487.364 155.653L463.101 325.124L466.62 323.646L490.883 154.164Z" fill="#E0E0E0"/>
<path d="M405.2 275.549L455.148 304.392L475.373 163.144L425.425 134.301L405.2 275.549Z" fill="#F0F0F0"/>
<path d="M405.2 275.549L455.148 304.392L475.373 163.144L425.425 134.301L405.2 275.549Z" fill="#F0F0F0"/>
<path d="M461.734 258.312C459.172 258.358 456.61 258.234 454.064 257.94C445.373 257.046 436.83 255.056 428.639 252.018C422.423 249.695 416.31 246.75 409.463 246.311L405.267 275.548L412.035 279.451C415.264 277.311 418.888 275.834 422.694 275.108C433.388 273.191 443.37 278.098 453.861 279.62C455.463 279.846 457.076 279.959 458.711 280.026L461.734 258.312Z" fill="#FAFAFA"/>
<path d="M467.194 220.243C455.598 216.701 443.63 213.655 436.129 205.725C430.083 199.341 428.03 190.745 426.947 182.376C425.864 174.006 425.515 165.365 422.243 157.56C422.243 157.481 422.165 157.413 422.131 157.334L413.389 218.393C413.941 219.284 414.517 220.175 415.092 221.043C421.668 230.541 432.215 238.697 445.401 239.825C451.605 240.366 458.238 239.373 464.419 239.644L467.194 220.243Z" fill="#FAFAFA"/>
<path d="M471.741 188.456C467.677 184.943 464.761 180.292 463.37 175.104C461.978 169.915 462.175 164.429 463.935 159.354C464.205 158.587 464.533 157.831 464.871 157.098L445.695 146.01C445.616 147.138 445.515 148.345 445.379 149.507C444.635 156.275 443.371 163.144 444.183 169.811C445.526 181.012 452.982 191.243 464.002 196.883C466.001 197.909 468.075 198.78 470.206 199.488L471.741 188.456Z" fill="#FAFAFA"/>
<path d="M282.158 278.107C282.158 275.028 280.139 271.937 276.055 269.591C267.911 264.876 254.691 264.876 246.536 269.591C242.463 271.937 240.433 275.028 240.444 278.107V280.995C240.444 284.041 242.531 287.075 246.558 289.399C254.714 294.102 267.934 294.102 276.078 289.399C280.105 287.075 282.147 284.041 282.192 280.995L282.158 278.107Z" fill="#37474F"/>
<path d="M246.525 269.591C238.369 274.294 238.369 281.92 246.525 286.635C254.68 291.35 267.9 291.338 276.045 286.635C284.189 281.931 284.2 274.294 276.045 269.591C267.889 264.887 254.68 264.876 246.525 269.591Z" fill="#455A64"/>
<path d="M259.136 92.6641H263.524V275.851C263.534 276.063 263.478 276.273 263.365 276.452C263.252 276.632 263.087 276.772 262.892 276.855C262.412 277.103 261.881 277.232 261.341 277.232C260.801 277.232 260.27 277.103 259.79 276.855C259.596 276.772 259.432 276.631 259.321 276.451C259.21 276.272 259.157 276.062 259.17 275.851L259.136 92.6641Z" fill="#37474F"/>
<path d="M232.921 82.749L246.31 48.627H276.36L289.738 82.749C291.645 88.0844 289.028 93.8485 281.842 97.9882C270.506 104.531 252.131 104.531 240.806 97.9882C233.643 93.8485 231.026 88.0844 232.921 82.749Z" fill="#531D6F"/>
<g opacity="0.4">
<path d="M232.921 82.749L246.31 48.627H276.36L289.738 82.749C291.645 88.0844 289.028 93.8485 281.842 97.9882C270.506 104.531 252.131 104.531 240.806 97.9882C233.643 93.8485 231.026 88.0844 232.921 82.749Z" fill="white"/>
</g>
<path opacity="0.2" d="M247.731 89.2237C242.283 80.3802 249.242 63.6181 254.375 49.6309V48.627H246.298L232.909 82.749C231.014 88.0844 233.631 93.8485 240.805 97.9882C252.085 104.531 270.505 104.531 281.842 97.9882C271.611 102.004 253.179 98.1349 247.731 89.2237Z" fill="#531D6F"/>
<path d="M272.22 56.7943C266.208 60.2686 256.428 60.2686 250.45 56.7943C244.471 53.3201 244.437 47.7026 250.45 44.2284C256.462 40.7542 266.242 40.7654 272.22 44.2284C278.198 47.6914 278.221 53.3314 272.22 56.7943Z" fill="#531D6F"/>
<g opacity="0.6">
<path d="M272.22 56.7943C266.208 60.2686 256.428 60.2686 250.45 56.7943C244.471 53.3201 244.437 47.7026 250.45 44.2284C256.462 40.7542 266.242 40.7654 272.22 44.2284C278.198 47.6914 278.221 53.3314 272.22 56.7943Z" fill="white"/>
</g>
<path d="M261.335 57.6174C264.811 57.6955 268.248 56.8798 271.318 55.2486C273.653 53.9063 274.939 52.2256 274.939 50.511C274.939 48.7965 273.653 47.127 271.318 45.7847C268.219 44.2272 264.798 43.416 261.329 43.416C257.861 43.416 254.44 44.2272 251.341 45.7847C249.006 47.127 247.731 48.8078 247.731 50.511C247.731 52.2143 249.006 53.895 251.341 55.2486C254.415 56.8793 257.856 57.6949 261.335 57.6174Z" fill="#531D6F"/>
<path d="M387.683 380.665L456.795 420.585L529.799 378.488L460.506 338.67L387.683 380.665Z" fill="#E6E6E6"/>
<path d="M289.885 340.113L356.516 378.601L426.892 338.015L360.092 299.641L289.885 340.113Z" fill="#E6E6E6"/>
<path d="M415.037 286.443L360.058 254.701L301.707 288.462L356.686 320.215L415.037 286.443Z" fill="#531D6F"/>
<g opacity="0.8">
<path d="M415.037 286.443L360.058 254.701L301.707 288.462L356.686 320.215L415.037 286.443Z" fill="white"/>
</g>
<path d="M356.686 372.431L415.037 338.658V286.443L356.686 320.216V372.431Z" fill="#531D6F"/>
<g opacity="0.6">
<path d="M356.686 372.431L415.037 338.658V286.443L356.686 320.216V372.431Z" fill="white"/>
</g>
<path d="M363.026 357.993C362.76 357.994 362.499 357.924 362.27 357.79C361.94 357.558 361.678 357.243 361.511 356.876C361.345 356.509 361.279 356.104 361.322 355.703V349.544V349.082L361.638 349.138L366.477 346.307V353.187C366.463 354.074 366.24 354.944 365.827 355.728C365.413 356.512 364.821 357.187 364.097 357.699C363.772 357.889 363.402 357.99 363.026 357.993ZM362.101 349.995V355.703C362.066 355.967 362.099 356.236 362.196 356.484C362.292 356.732 362.45 356.953 362.653 357.124C362.824 357.192 363.009 357.218 363.192 357.198C363.375 357.178 363.55 357.114 363.702 357.011C364.307 356.568 364.801 355.991 365.147 355.326C365.493 354.661 365.682 353.926 365.699 353.176V352.669H363.905L363.556 350.255L362.101 349.995ZM364.582 351.902H365.71V347.638L362.823 349.341L364.255 349.589L364.582 351.902Z" fill="#455A64"/>
<path d="M363.893 362.911C363.791 362.908 363.693 362.865 363.621 362.791C363.55 362.718 363.51 362.619 363.51 362.516V357.339C363.51 357.237 363.55 357.139 363.622 357.067C363.694 356.995 363.792 356.955 363.893 356.955C363.996 356.955 364.095 356.995 364.169 357.067C364.242 357.138 364.285 357.236 364.288 357.339V362.516C364.288 362.568 364.278 362.619 364.258 362.667C364.238 362.715 364.209 362.759 364.172 362.795C364.136 362.832 364.092 362.861 364.044 362.881C363.996 362.901 363.945 362.911 363.893 362.911Z" fill="#455A64"/>
<path d="M361.649 364.208C361.579 364.21 361.511 364.191 361.451 364.155C361.391 364.119 361.342 364.067 361.311 364.005C361.285 363.962 361.268 363.914 361.262 363.864C361.255 363.814 361.259 363.763 361.273 363.714C361.287 363.666 361.31 363.621 361.342 363.581C361.373 363.542 361.413 363.51 361.457 363.486L365.969 360.881C366.014 360.855 366.063 360.838 366.113 360.831C366.164 360.825 366.216 360.828 366.265 360.842C366.315 360.856 366.361 360.879 366.401 360.911C366.441 360.943 366.475 360.982 366.5 361.027C366.549 361.117 366.561 361.223 366.534 361.322C366.506 361.421 366.441 361.506 366.353 361.557L361.841 364.152C361.783 364.187 361.717 364.207 361.649 364.208Z" fill="#455A64"/>
<path d="M377.678 355.319C377.532 355.32 377.389 355.286 377.26 355.218C377.106 355.117 376.982 354.977 376.901 354.813C376.82 354.648 376.784 354.465 376.798 354.281V353.221C376.798 353.119 376.838 353.022 376.91 352.95C376.982 352.878 377.08 352.838 377.181 352.838C377.283 352.838 377.381 352.878 377.453 352.95C377.524 353.022 377.565 353.119 377.565 353.221V354.281C377.565 354.439 377.565 354.518 377.644 354.541C377.723 354.563 377.768 354.541 377.892 354.473C378.132 354.251 378.32 353.98 378.445 353.678C378.57 353.376 378.627 353.051 378.614 352.725V345.833C378.617 345.73 378.66 345.632 378.733 345.561C378.807 345.489 378.906 345.449 379.009 345.449C379.11 345.449 379.208 345.49 379.28 345.562C379.352 345.633 379.392 345.731 379.392 345.833V352.725C379.407 353.188 379.313 353.647 379.117 354.067C378.921 354.486 378.629 354.853 378.264 355.139C378.089 355.252 377.886 355.314 377.678 355.319Z" fill="#455A64"/>
<path d="M373.605 349.273V348.551C373.7 346.832 374.197 345.159 375.057 343.668C375.918 342.177 377.117 340.909 378.557 339.967C379.073 339.533 379.71 339.268 380.381 339.208C381.052 339.149 381.725 339.297 382.309 339.633C382.893 339.97 383.36 340.478 383.645 341.088C383.93 341.699 384.021 342.382 383.904 343.046V343.272L373.605 349.273ZM380.881 340.079C380.192 340.107 379.522 340.317 378.941 340.688C377.711 341.493 376.671 342.556 375.892 343.802C375.113 345.049 374.614 346.449 374.429 347.908L383.137 342.877C383.17 342.387 383.076 341.898 382.865 341.455C382.653 341.013 382.331 340.632 381.93 340.35C381.612 340.165 381.249 340.072 380.881 340.079Z" fill="#455A64"/>
<path d="M391.596 347.356C391.495 347.356 391.397 347.315 391.325 347.243C391.253 347.171 391.213 347.074 391.213 346.972V333.786C391.213 333.684 391.253 333.587 391.325 333.515C391.397 333.443 391.495 333.402 391.596 333.402C391.698 333.402 391.796 333.443 391.868 333.515C391.94 333.587 391.98 333.684 391.98 333.786V346.972C391.98 347.074 391.94 347.171 391.868 347.243C391.796 347.315 391.698 347.356 391.596 347.356Z" fill="#455A64"/>
<path d="M390.469 336.786C390.417 336.798 390.363 336.798 390.311 336.786C390.265 336.767 390.222 336.738 390.186 336.701C390.151 336.665 390.123 336.622 390.104 336.575C390.085 336.528 390.075 336.477 390.076 336.426C390.077 336.375 390.088 336.325 390.108 336.279L391.485 333.098L393.03 334.869C393.063 334.907 393.089 334.952 393.105 335C393.121 335.049 393.127 335.1 393.123 335.15C393.12 335.201 393.106 335.251 393.083 335.296C393.061 335.342 393.029 335.382 392.99 335.416C392.952 335.449 392.907 335.474 392.859 335.491C392.811 335.507 392.76 335.513 392.709 335.509C392.658 335.506 392.608 335.492 392.563 335.469C392.517 335.446 392.477 335.415 392.443 335.376L391.71 334.53L390.819 336.594C390.784 336.655 390.733 336.706 390.671 336.739C390.609 336.773 390.54 336.789 390.469 336.786Z" fill="#455A64"/>
<path d="M395.184 345.314C395.079 345.314 394.979 345.273 394.905 345.199C394.831 345.125 394.789 345.024 394.789 344.919V331.733C394.792 331.63 394.835 331.533 394.909 331.461C394.982 331.39 395.081 331.35 395.184 331.35C395.286 331.35 395.383 331.39 395.455 331.462C395.527 331.534 395.567 331.631 395.567 331.733V344.919C395.567 345.022 395.527 345.121 395.456 345.195C395.384 345.268 395.287 345.311 395.184 345.314Z" fill="#455A64"/>
<path d="M394.045 334.743C393.997 334.754 393.947 334.754 393.898 334.743C393.85 334.725 393.807 334.697 393.77 334.661C393.734 334.625 393.705 334.582 393.686 334.534C393.667 334.486 393.658 334.435 393.659 334.384C393.661 334.332 393.673 334.282 393.695 334.236L395.071 331.055L396.606 332.758C396.677 332.83 396.717 332.927 396.717 333.029C396.717 333.13 396.677 333.228 396.606 333.299C396.532 333.372 396.433 333.412 396.329 333.412C396.226 333.412 396.127 333.372 396.053 333.299L395.331 332.453L394.44 334.506C394.406 334.581 394.35 334.644 394.279 334.686C394.209 334.728 394.127 334.748 394.045 334.743Z" fill="#455A64"/>
<path d="M356.686 372.431L301.707 340.689V288.463L356.686 320.216V372.431Z" fill="#531D6F"/>
<g opacity="0.3">
<path d="M356.686 372.431L301.707 340.689V288.463L356.686 320.216V372.431Z" fill="white"/>
</g>
<path d="M324.628 301.694L383.024 267.955L392.184 273.245L333.776 306.984L324.628 301.694Z" fill="#455A64"/>
<path d="M324.628 301.693V312.274L325.903 311.53L327.617 314L328.677 313.097L330.55 315.703L331.746 314.744L333.776 317.564V306.984L324.628 301.693Z" fill="#37474F"/>
<path d="M517.505 312.512L460.462 279.586L399.944 314.61L456.976 347.537L517.505 312.512Z" fill="#531D6F"/>
<g opacity="0.8">
<path d="M517.505 312.512L460.462 279.586L399.944 314.61L456.976 347.537L517.505 312.512Z" fill="white"/>
</g>
<path d="M456.976 414.178L517.504 379.154V312.512L456.976 347.536V414.178Z" fill="#531D6F"/>
<g opacity="0.6">
<path d="M456.976 414.178L517.504 379.154V312.512L456.976 347.536V414.178Z" fill="white"/>
</g>
<path d="M463.609 399.198C463.332 399.201 463.06 399.131 462.819 398.995C462.481 398.751 462.212 398.423 462.04 398.043C461.868 397.663 461.798 397.245 461.838 396.829V390.434V389.96L462.165 390.016L467.173 387.072V394.224C467.162 395.14 466.933 396.04 466.506 396.85C466.078 397.66 465.464 398.357 464.714 398.882C464.381 399.085 463.999 399.194 463.609 399.198ZM462.639 390.907V396.829C462.603 397.104 462.638 397.383 462.74 397.639C462.843 397.896 463.01 398.122 463.225 398.296C463.407 398.378 463.606 398.411 463.805 398.391C464.003 398.372 464.192 398.3 464.353 398.183C464.977 397.722 465.488 397.125 465.846 396.437C466.203 395.749 466.399 394.988 466.418 394.213V393.671H464.568L464.195 391.167L462.639 390.907ZM465.211 392.881H466.339V388.471L463.349 390.219L464.827 390.49L465.211 392.881Z" fill="#455A64"/>
<path d="M464.455 404.298C464.349 404.298 464.247 404.257 464.171 404.183C464.096 404.11 464.052 404.009 464.049 403.903V398.534C464.039 398.476 464.042 398.416 464.057 398.359C464.073 398.302 464.101 398.25 464.139 398.204C464.177 398.159 464.225 398.123 464.278 398.098C464.332 398.073 464.39 398.061 464.449 398.061C464.508 398.061 464.566 398.073 464.62 398.098C464.674 398.123 464.721 398.159 464.759 398.204C464.797 398.25 464.825 398.302 464.841 398.359C464.856 398.416 464.859 398.476 464.849 398.534V403.903C464.849 403.955 464.839 404.007 464.819 404.054C464.8 404.102 464.771 404.146 464.734 404.183C464.697 404.219 464.654 404.248 464.606 404.268C464.558 404.288 464.507 404.298 464.455 404.298Z" fill="#455A64"/>
<path d="M462.12 405.651C462.048 405.652 461.978 405.634 461.917 405.598C461.855 405.562 461.804 405.511 461.77 405.448C461.716 405.356 461.702 405.245 461.729 405.142C461.757 405.038 461.824 404.95 461.916 404.896L466.586 402.2C466.632 402.174 466.681 402.157 466.733 402.15C466.785 402.143 466.837 402.147 466.888 402.16C466.938 402.174 466.985 402.197 467.026 402.229C467.068 402.261 467.102 402.301 467.128 402.346C467.156 402.392 467.174 402.443 467.182 402.496C467.19 402.549 467.187 402.603 467.173 402.654C467.159 402.706 467.135 402.754 467.102 402.796C467.069 402.838 467.028 402.873 466.981 402.899L462.323 405.595C462.26 405.629 462.191 405.649 462.12 405.651Z" fill="#455A64"/>
<path d="M478.746 396.401C478.592 396.399 478.442 396.36 478.306 396.289C478.152 396.179 478.028 396.033 477.946 395.864C477.863 395.695 477.824 395.507 477.832 395.319V394.191C477.848 394.096 477.897 394.01 477.97 393.948C478.044 393.886 478.137 393.852 478.233 393.852C478.329 393.852 478.422 393.886 478.495 393.948C478.568 394.01 478.617 394.096 478.633 394.191V395.319C478.633 395.488 478.633 395.567 478.712 395.589C478.804 395.601 478.897 395.577 478.971 395.522C479.218 395.289 479.411 395.007 479.54 394.694C479.668 394.381 479.728 394.044 479.716 393.706V386.565C479.706 386.507 479.709 386.447 479.725 386.391C479.74 386.334 479.768 386.281 479.806 386.236C479.844 386.191 479.892 386.154 479.945 386.13C479.999 386.105 480.057 386.092 480.116 386.092C480.175 386.092 480.234 386.105 480.287 386.13C480.341 386.154 480.388 386.191 480.426 386.236C480.465 386.281 480.492 386.334 480.508 386.391C480.524 386.447 480.527 386.507 480.517 386.565V393.672C480.537 394.148 480.446 394.623 480.25 395.058C480.054 395.492 479.759 395.875 479.389 396.176C479.199 396.308 478.977 396.386 478.746 396.401Z" fill="#455A64"/>
<path d="M474.517 390.153V389.454C474.614 387.67 475.13 385.935 476.024 384.389C476.918 382.842 478.164 381.528 479.66 380.554C480.192 380.092 480.855 379.809 481.556 379.742C482.257 379.675 482.962 379.829 483.571 380.181C484.181 380.534 484.666 381.068 484.957 381.709C485.249 382.35 485.333 383.066 485.199 383.757V383.983L474.517 390.153ZM482.063 380.621C481.35 380.653 480.658 380.871 480.055 381.253C478.78 382.091 477.701 383.193 476.891 384.486C476.081 385.778 475.56 387.231 475.363 388.743L484.387 383.52C484.422 383.014 484.326 382.508 484.109 382.05C483.891 381.591 483.56 381.197 483.146 380.903C482.816 380.716 482.442 380.618 482.063 380.621Z" fill="#455A64"/>
<path d="M493.184 388.167C493.131 388.167 493.078 388.157 493.029 388.136C492.98 388.116 492.935 388.086 492.897 388.048C492.86 388.01 492.83 387.966 492.809 387.916C492.789 387.867 492.778 387.814 492.778 387.761V374.09C492.778 373.982 492.821 373.879 492.897 373.803C492.973 373.726 493.077 373.684 493.184 373.684C493.237 373.684 493.29 373.694 493.338 373.715C493.387 373.735 493.431 373.765 493.468 373.803C493.504 373.841 493.533 373.886 493.552 373.935C493.572 373.984 493.581 374.037 493.579 374.09V387.761C493.581 387.814 493.572 387.866 493.552 387.916C493.533 387.965 493.504 388.01 493.468 388.048C493.431 388.085 493.387 388.115 493.338 388.136C493.29 388.157 493.237 388.167 493.184 388.167Z" fill="#455A64"/>
<path d="M492.012 377.203C491.96 377.22 491.905 377.22 491.854 377.203C491.804 377.184 491.759 377.156 491.721 377.119C491.684 377.083 491.654 377.039 491.634 376.99C491.613 376.941 491.604 376.889 491.605 376.836C491.606 376.784 491.617 376.732 491.639 376.684L493.072 373.379L494.662 375.218C494.7 375.254 494.73 375.298 494.75 375.347C494.77 375.395 494.781 375.447 494.781 375.5C494.781 375.552 494.77 375.604 494.75 375.652C494.73 375.701 494.7 375.745 494.662 375.782C494.585 375.855 494.482 375.896 494.375 375.896C494.268 375.896 494.165 375.855 494.087 375.782L493.331 374.902L492.406 377.034C492.364 377.097 492.304 377.147 492.234 377.177C492.164 377.207 492.087 377.216 492.012 377.203Z" fill="#455A64"/>
<path d="M496.896 386.047C496.791 386.047 496.69 386.005 496.616 385.931C496.542 385.857 496.501 385.757 496.501 385.652V371.97C496.491 371.911 496.494 371.852 496.51 371.795C496.525 371.738 496.553 371.685 496.591 371.64C496.629 371.595 496.677 371.559 496.73 371.534C496.784 371.509 496.842 371.496 496.901 371.496C496.96 371.496 497.019 371.509 497.072 371.534C497.126 371.559 497.173 371.595 497.211 371.64C497.249 371.685 497.277 371.738 497.293 371.795C497.308 371.852 497.311 371.911 497.302 371.97V385.652C497.299 385.758 497.255 385.858 497.179 385.932C497.103 386.006 497.001 386.047 496.896 386.047Z" fill="#455A64"/>
<path d="M495.722 375.083C495.67 375.094 495.617 375.094 495.565 375.083C495.468 375.039 495.393 374.959 495.355 374.86C495.317 374.76 495.319 374.65 495.361 374.553L496.783 371.248L498.385 373.087C498.442 373.169 498.467 373.269 498.455 373.369C498.442 373.468 498.394 373.56 498.318 373.625C498.243 373.691 498.145 373.727 498.045 373.725C497.945 373.724 497.849 373.685 497.775 373.617L497.02 372.737L496.095 374.869C496.059 374.936 496.005 374.991 495.939 375.029C495.873 375.067 495.798 375.086 495.722 375.083Z" fill="#455A64"/>
<path d="M456.976 414.178L399.944 381.252V314.609L456.976 347.536V414.178Z" fill="#531D6F"/>
<g opacity="0.3">
<path d="M456.976 414.178L399.944 381.252V314.609L456.976 347.536V414.178Z" fill="white"/>
</g>
<path d="M423.723 328.327L484.296 293.336L493.794 298.829L433.209 333.82L423.723 328.327Z" fill="#455A64"/>
<path d="M423.723 328.326V339.313L425.042 338.535L426.813 341.095L427.919 340.159L429.848 342.855L431.1 341.862L433.209 344.795V333.82L423.723 328.326Z" fill="#37474F"/>
<g opacity="0.15">
<path d="M408.54 313.572L462.188 344.592V359.391L517.494 327.457L517.505 312.511L463.902 281.57L408.54 313.572Z" fill="black"/>
</g>
<path d="M530.07 266.907L473.027 233.98L412.51 269.005L469.541 301.931L530.07 266.907Z" fill="#531D6F"/>
<g opacity="0.8">
<path d="M530.07 266.907L473.027 233.98L412.51 269.005L469.541 301.931L530.07 266.907Z" fill="white"/>
</g>
<path d="M469.541 345.844L530.069 310.808V266.906L469.541 301.931V345.844Z" fill="#531D6F"/>
<g opacity="0.6">
<path d="M469.541 345.844L530.069 310.808V266.906L469.541 301.931V345.844Z" fill="white"/>
</g>
<path d="M476.117 330.864C475.841 330.867 475.568 330.797 475.328 330.661C474.988 330.415 474.719 330.085 474.547 329.703C474.375 329.321 474.306 328.901 474.346 328.484V322.1V321.626L474.673 321.682L479.682 318.738V325.879C479.67 326.796 479.442 327.698 479.014 328.509C478.587 329.321 477.973 330.02 477.223 330.548C476.888 330.747 476.507 330.856 476.117 330.864ZM475.147 322.573V328.484C475.112 328.76 475.148 329.04 475.25 329.299C475.353 329.557 475.519 329.785 475.734 329.962C475.916 330.043 476.116 330.074 476.314 330.052C476.512 330.03 476.701 329.956 476.862 329.838C477.487 329.379 477.999 328.782 478.357 328.093C478.715 327.405 478.91 326.643 478.926 325.867V325.348H477.031L476.659 322.844L475.147 322.573ZM477.719 324.547H478.847V320.126L475.858 321.885L477.335 322.145L477.719 324.547Z" fill="#455A64"/>
<path d="M477.02 335.964C476.967 335.964 476.914 335.953 476.865 335.933C476.815 335.912 476.771 335.883 476.733 335.845C476.695 335.807 476.665 335.762 476.645 335.713C476.625 335.664 476.614 335.611 476.614 335.558V330.188C476.604 330.13 476.607 330.071 476.623 330.014C476.638 329.957 476.666 329.904 476.704 329.859C476.743 329.814 476.79 329.777 476.844 329.753C476.897 329.728 476.955 329.715 477.014 329.715C477.074 329.715 477.132 329.728 477.185 329.753C477.239 329.777 477.286 329.814 477.325 329.859C477.363 329.904 477.39 329.957 477.406 330.014C477.422 330.071 477.425 330.13 477.415 330.188V335.558C477.415 335.663 477.374 335.765 477.3 335.841C477.226 335.917 477.126 335.961 477.02 335.964Z" fill="#455A64"/>
<path d="M474.686 337.271C474.596 337.276 474.507 337.25 474.434 337.197C474.361 337.144 474.308 337.068 474.284 336.981C474.261 336.894 474.267 336.801 474.304 336.719C474.34 336.636 474.403 336.568 474.483 336.527L479.153 333.831C479.198 333.804 479.248 333.787 479.3 333.779C479.352 333.772 479.405 333.775 479.456 333.788C479.507 333.801 479.554 333.824 479.596 333.856C479.638 333.887 479.673 333.927 479.7 333.972C479.727 334.017 479.744 334.067 479.752 334.119C479.759 334.171 479.756 334.224 479.743 334.275C479.73 334.325 479.707 334.373 479.675 334.415C479.644 334.457 479.604 334.492 479.559 334.519L474.889 337.271C474.823 337.291 474.752 337.291 474.686 337.271Z" fill="#455A64"/>
<path d="M491.312 328.055C491.158 328.058 491.006 328.019 490.872 327.943C490.713 327.841 490.586 327.698 490.502 327.529C490.419 327.36 490.383 327.172 490.398 326.984V325.856C490.388 325.798 490.391 325.738 490.407 325.681C490.423 325.624 490.45 325.571 490.489 325.526C490.527 325.481 490.574 325.445 490.628 325.42C490.681 325.395 490.74 325.382 490.799 325.382C490.858 325.382 490.916 325.395 490.97 325.42C491.023 325.445 491.071 325.481 491.109 325.526C491.147 325.571 491.175 325.624 491.19 325.681C491.206 325.738 491.209 325.798 491.199 325.856V326.984C491.193 327.032 491.196 327.081 491.21 327.127C491.224 327.174 491.247 327.217 491.278 327.254C491.371 327.26 491.463 327.232 491.538 327.175C491.785 326.944 491.979 326.662 492.108 326.349C492.236 326.035 492.296 325.698 492.282 325.359V318.219C492.282 318.166 492.293 318.114 492.313 318.065C492.334 318.017 492.364 317.973 492.402 317.936C492.439 317.899 492.484 317.87 492.533 317.851C492.583 317.832 492.635 317.823 492.688 317.824C492.74 317.823 492.792 317.832 492.841 317.851C492.89 317.871 492.934 317.9 492.971 317.937C493.008 317.974 493.037 318.018 493.056 318.066C493.075 318.115 493.084 318.167 493.083 318.219V325.359C493.105 325.838 493.014 326.315 492.819 326.752C492.623 327.188 492.327 327.573 491.955 327.875C491.761 327.992 491.539 328.054 491.312 328.055Z" fill="#455A64"/>
<path d="M487.082 321.819V321.119C487.18 319.335 487.697 317.598 488.591 316.05C489.484 314.502 490.729 313.186 492.226 312.208C492.758 311.747 493.421 311.463 494.122 311.396C494.823 311.329 495.527 311.483 496.137 311.836C496.747 312.188 497.231 312.722 497.523 313.363C497.814 314.004 497.899 314.72 497.764 315.412V315.648L487.082 321.819ZM494.628 312.287C493.917 312.32 493.226 312.533 492.621 312.907C491.346 313.745 490.266 314.848 489.457 316.14C488.647 317.433 488.125 318.885 487.928 320.397L496.952 315.186C496.986 314.679 496.889 314.172 496.669 313.713C496.45 313.255 496.116 312.861 495.7 312.569C495.376 312.378 495.005 312.28 494.628 312.287Z" fill="#455A64"/>
<path d="M505.75 319.833C505.642 319.833 505.539 319.79 505.463 319.714C505.387 319.638 505.344 319.534 505.344 319.427V305.744C505.344 305.636 505.387 305.533 505.463 305.457C505.539 305.381 505.642 305.338 505.75 305.338C505.858 305.338 505.961 305.381 506.037 305.457C506.113 305.533 506.156 305.636 506.156 305.744V319.427C506.156 319.534 506.113 319.638 506.037 319.714C505.961 319.79 505.858 319.833 505.75 319.833Z" fill="#455A64"/>
<path d="M504.577 308.868C504.525 308.88 504.471 308.88 504.419 308.868C504.37 308.849 504.325 308.819 504.287 308.781C504.249 308.744 504.219 308.699 504.199 308.649C504.179 308.6 504.169 308.547 504.17 308.493C504.171 308.44 504.183 308.387 504.205 308.338L505.638 305.033L507.228 306.883C507.266 306.92 507.296 306.964 507.316 307.012C507.336 307.061 507.347 307.113 507.347 307.165C507.347 307.218 507.336 307.27 507.316 307.318C507.296 307.366 507.266 307.41 507.228 307.447C507.19 307.485 507.146 307.515 507.096 307.536C507.047 307.556 506.994 307.567 506.941 307.567C506.887 307.567 506.834 307.556 506.785 307.536C506.735 307.515 506.691 307.485 506.653 307.447L505.897 306.579L504.972 308.71C504.928 308.772 504.868 308.819 504.798 308.847C504.728 308.875 504.651 308.882 504.577 308.868Z" fill="#455A64"/>
<path d="M509.472 317.711C509.365 317.711 509.261 317.668 509.185 317.592C509.109 317.516 509.066 317.413 509.066 317.305V303.634C509.056 303.575 509.059 303.516 509.075 303.459C509.091 303.402 509.118 303.349 509.157 303.304C509.195 303.259 509.242 303.223 509.296 303.198C509.349 303.173 509.408 303.16 509.467 303.16C509.526 303.16 509.584 303.173 509.638 303.198C509.691 303.223 509.739 303.259 509.777 303.304C509.815 303.349 509.843 303.402 509.858 303.459C509.874 303.516 509.877 303.575 509.867 303.634V317.305C509.867 317.411 509.826 317.512 509.752 317.588C509.678 317.664 509.578 317.708 509.472 317.711Z" fill="#455A64"/>
<path d="M508.289 306.748C508.222 306.749 508.156 306.732 508.097 306.701C508.038 306.669 507.988 306.622 507.952 306.566C507.916 306.51 507.895 306.445 507.89 306.378C507.886 306.311 507.899 306.244 507.928 306.184L509.349 302.879L510.951 304.729C511.02 304.81 511.053 304.914 511.045 305.02C511.037 305.126 510.986 305.224 510.906 305.293C510.825 305.362 510.72 305.396 510.614 305.387C510.509 305.379 510.41 305.328 510.342 305.248L509.586 304.379L508.661 306.511C508.628 306.582 508.576 306.642 508.51 306.684C508.444 306.726 508.367 306.749 508.289 306.748Z" fill="#455A64"/>
<path d="M469.541 345.843L412.51 312.906V269.004L469.541 301.93V345.843Z" fill="#531D6F"/>
<g opacity="0.3">
<path d="M469.541 345.843L412.51 312.906V269.004L469.541 301.93V345.843Z" fill="white"/>
</g>
<path d="M436.288 282.721L496.862 247.719L506.359 253.212L445.775 288.214L436.288 282.721Z" fill="#455A64"/>
<path d="M436.288 282.721V293.696L437.608 292.929L439.379 295.49L440.484 294.553L442.413 297.249L443.665 296.257L445.775 299.189V288.214L436.288 282.721Z" fill="#37474F"/>
<path d="M121.903 240.478L80.8661 236.248L89.5743 308.44C89.5743 308.44 79.9976 317.69 74.4929 328.372C70.4998 336.144 57.0653 367.017 54.8093 371.913L50.5906 381.083C50.2748 382.662 52.3841 387.095 56.2306 388.415C60.0771 389.735 65.6833 390.874 66.2698 389.43C66.2698 389.43 67.4542 384.58 72.8009 377.88C78.1477 371.179 114.244 323.318 116.206 320.126C119.162 315.321 122.455 311.271 122.884 295.4C123.29 279.293 121.903 249.57 121.903 240.478Z" fill="#FFA8A7"/>
<path d="M77.6626 322.99C76.5346 324.727 75.4066 326.543 74.4929 328.393C73.5793 330.243 71.9888 333.176 70.3193 337.18C70.6126 342.674 71.1315 350.288 71.3909 351.844L74.3576 351.991C74.6283 358.612 76.9294 368.561 77.5949 371.675L88.8749 356.808C87.0589 344.93 79.8058 328.766 77.6626 322.99Z" fill="#F28F8F"/>
<path d="M122.4 245.52C122.4 245.52 122.896 253.855 123.9 274.78C124.904 295.704 126.032 304.379 119.388 316.775C112.744 329.172 102.051 342.776 98.6443 346.882C93.3099 345.967 88.2336 343.919 83.758 340.876C79.2825 337.832 75.5118 333.864 72.7003 329.24L82.1643 310.91L67.3311 249.343L122.4 245.52Z" fill="#455A64"/>
<path d="M115.88 250.811C115.88 250.811 118.587 257.748 112.496 265.339C109.952 268.619 106.786 271.363 103.178 273.416C103.178 273.416 107.228 308.722 107.984 315.704C108.886 324.006 107.397 335.456 107.397 335.456L99.0049 270.911L115.88 250.811Z" fill="#37474F"/>
<path d="M45.3573 388.279C44.6362 389.265 44.224 390.443 44.1729 391.663C44.4069 393.92 45.3782 396.037 46.9365 397.687C48.6867 399.824 49.8873 402.356 50.4333 405.064C51.0424 407.681 50.6927 412.836 53.3661 416.863C56.0394 420.89 63.8677 426.191 74.595 423.992C79.8628 422.92 80.7539 419.965 80.3027 418.51L45.3573 388.279Z" fill="#263238"/>
<path d="M68.075 385.888C67.3305 389.497 65.537 395.532 71.8199 405.289C74.9219 410.106 81.814 412.982 80.3025 418.498C77.2794 422.401 71.6846 423.269 65.3339 421.995C61.762 421.265 58.5192 419.407 56.0843 416.693C53.6027 414.088 53.8283 411.629 52.5988 406.733C51.9823 403.921 51.075 401.18 49.8916 398.555C48.6395 395.961 44.4659 393.366 45.3796 388.279C45.6278 386.858 47.7258 385.493 48.6395 383.056C49.8352 379.898 50.5684 378.443 51.7077 378.714L51.3354 379.514C52.3168 380.642 54.9902 382.052 55.5429 383.226C56.4566 385.166 55.8926 387.737 56.5919 387.805C57.2913 387.873 57.7199 384.241 59.0058 383.801C60.5587 383.244 62.2387 383.145 63.8463 383.515C65.4539 383.885 66.9215 384.708 68.075 385.888Z" fill="#37474F"/>
<path opacity="0.2" d="M73.9627 407.906C73.1617 407.108 72.4436 406.231 71.8195 405.289C65.5365 395.532 67.3075 389.497 68.0745 385.887C66.9192 384.704 65.4476 383.878 63.8354 383.507C62.2233 383.137 60.5387 383.239 58.9829 383.801C57.7421 384.24 57.2683 387.85 56.5689 387.805C56.129 395.836 61.1937 405.909 63.2241 408.808C66.5729 407.205 70.3932 406.883 73.9627 407.906Z" fill="black"/>
<path d="M56.7833 392.193C60.314 390.084 64.6793 390.839 67.2624 391.9C67.4283 392.378 67.4283 392.899 67.2624 393.377C65.7054 392.761 64.0388 392.469 62.3648 392.519C60.6909 392.57 59.0449 392.961 57.5278 393.671C56.569 393.908 55.9824 392.622 56.7833 392.193Z" fill="#E6E6E6"/>
<path d="M58.0122 397.946C61.5316 395.837 65.536 396.581 68.1642 397.642C68.4425 398.095 68.6195 398.603 68.6831 399.131C67.1048 398.503 65.4162 398.201 63.7183 398.242C62.0204 398.282 60.3482 398.665 58.8018 399.367C57.7979 399.661 57.2113 398.375 58.0122 397.946Z" fill="#E6E6E6"/>
<path d="M60.0654 403.18C61.5542 402.27 63.2336 401.718 64.9716 401.568C66.7097 401.417 68.459 401.671 70.0821 402.311C70.4166 402.762 70.6897 403.255 70.8942 403.777C69.259 403.244 67.5346 403.038 65.8197 403.172C64.1048 403.305 62.4331 403.775 60.9002 404.556C59.9301 404.951 59.2871 403.631 60.0654 403.18Z" fill="#E6E6E6"/>
<path d="M62.9421 408.257C64.5007 407.332 66.2454 406.765 68.0499 406.597C69.8544 406.43 71.6737 406.665 73.3761 407.287C73.8201 407.611 74.2022 408.012 74.5041 408.471C70.9036 407.518 67.0784 407.919 63.7543 409.599C62.8067 409.971 62.1638 408.708 62.9421 408.257Z" fill="#E6E6E6"/>
<path d="M107.928 410.084C107.522 401.849 104.544 353.447 104.668 329.104C102.931 300.792 96.7717 271.576 96.7717 271.576C101.678 269.077 106.011 265.586 109.496 261.323C118.768 250.449 119.535 240.602 119.535 240.602L114.876 239.823L63.8679 236.936C63.2024 245.35 61.736 257.104 61.8262 268.091C62.0067 290.651 79.7953 332.218 79.7953 332.218C79.2877 335.275 75.8022 348.123 77.8326 359.831C81.0248 378.297 89.3833 401.996 90.8384 411.967L92.0679 420.405C98.599 422.018 104.758 422.345 110.646 418.871C108.98 416.233 108.042 413.201 107.928 410.084Z" fill="#FFA8A7"/>
<path d="M62.932 234.432C61.2943 242.346 60.0594 250.339 59.2321 258.379C58.6794 265.305 59.7284 274.938 61.9732 284.797C64.2179 294.656 71.2115 318.637 72.1252 322.134C73.0388 325.63 73.772 348.078 73.772 348.078C73.772 348.078 93.23 354.349 107.398 346.95C107.398 346.95 107.646 324.57 106.969 318.817C106.292 313.065 99.0731 271.001 99.0731 271.001C99.0731 271.001 121.419 264.583 121.949 240.545L62.932 234.432Z" fill="#455A64"/>
<path d="M88.6608 425.322C88.6608 425.322 88.187 428.515 88.6608 429.406C89.1345 430.297 91.571 431.447 94.2331 432.699C96.3876 433.703 97.9329 434.076 100.223 438.272C102.067 441.805 104.785 444.807 108.119 446.991C112.631 449.766 118.722 450.014 124.385 448.897C130.871 447.6 132.529 446.134 132.574 442.806L88.6608 425.322Z" fill="#263238"/>
<path d="M107.047 411.99C107.546 412.009 108.027 412.184 108.42 412.492C108.813 412.8 109.098 413.224 109.236 413.704C110.364 417.585 113.567 422.965 118.045 427.568C123.076 432.734 127.284 432.689 131.48 437.201C132.075 437.998 132.48 438.92 132.664 439.898C132.848 440.875 132.805 441.882 132.54 442.841C131.491 445.446 125.671 447.353 121.587 447.533C114.819 447.883 111.616 446.71 108.424 444.736C101.78 440.63 101.656 435.091 97.5947 432.452C95.2711 430.929 89.8567 429.068 88.5707 426.654C87.4427 421.521 89.5972 420.134 89.507 416.502C89.3942 412.148 90.1274 411.685 90.7591 411.527L91.0862 413.783C92.8739 413.878 94.6 414.468 96.0719 415.487C97.6511 416.615 98.0685 420.258 98.734 419.999C99.2303 419.773 98.734 417.743 98.5987 416.084C98.5377 415.616 98.6114 415.141 98.8112 414.713C99.011 414.286 99.3286 413.924 99.7267 413.671C101.958 412.427 104.497 411.844 107.047 411.99Z" fill="#37474F"/>
<path opacity="0.2" d="M111.605 435.982C116.907 431.47 121.531 431.651 124.013 432.034C121.815 430.838 119.811 429.317 118.068 427.522C113.556 422.92 110.387 417.539 109.259 413.659C109.121 413.179 108.835 412.755 108.442 412.447C108.049 412.139 107.569 411.963 107.07 411.944C104.55 411.775 102.032 412.318 99.806 413.512C99.4079 413.766 99.0904 414.128 98.8906 414.555C98.6908 414.983 98.6171 415.458 98.678 415.926C98.8698 417.539 99.3097 419.615 98.8134 419.84C100.46 425.458 105.187 430.714 111.605 435.982Z" fill="black"/>
<path d="M99.6592 422.999C103.415 418.363 110.872 418.814 111.966 419.671C112.301 420.03 112.561 420.452 112.733 420.912C110.652 420.362 108.463 420.363 106.383 420.915C104.302 421.467 102.401 422.55 100.866 424.059C100.054 424.68 99.0614 423.676 99.6592 422.999Z" fill="#E6E6E6"/>
<path d="M102.705 427.015C106.461 422.379 113.59 422.807 114.684 423.631C115.037 424.022 115.358 424.44 115.643 424.883C113.584 424.334 111.416 424.336 109.357 424.889C107.298 425.441 105.421 426.524 103.912 428.03C103.1 428.696 102.107 427.692 102.705 427.015Z" fill="#E6E6E6"/>
<path d="M106.19 431.359C109.947 426.723 117.188 426.948 118.282 427.817C118.948 428.448 119.591 429.024 119.591 429.024C117.438 428.523 115.193 428.571 113.063 429.162C110.933 429.753 108.985 430.869 107.397 432.408C106.574 433.039 105.581 432.024 106.19 431.359Z" fill="#E6E6E6"/>
<path d="M110.916 435.407C114.672 430.782 122.399 430.895 123.493 431.73C124.212 432.062 124.909 432.438 125.58 432.858C122.816 431.944 115.676 432.734 112.123 436.456C111.299 437.11 110.307 436.106 110.916 435.407Z" fill="#E6E6E6"/>
<path d="M108.062 163.266C116.319 163.897 122.117 169.255 125.535 179.193C129.551 190.913 134.085 214.014 134.085 214.014C134.085 214.014 145.512 233.878 147.768 236.337C151.457 240.455 156.341 238.718 161.71 243.692C165.489 247.189 169.606 249.106 165.895 250.358C164.034 250.968 161.157 248.802 159.511 248.102C158.789 247.809 157.255 247.099 156.499 247.764C155.743 248.43 156.363 249.851 156.691 250.55C157.955 252.953 159.609 255.13 161.586 256.991C163.977 259.507 168.354 262.304 168.659 266.083C169.042 270.29 164.744 266.647 162.872 266.579C161 266.511 159.488 267.121 157.638 266.32C156.894 265.993 156.206 265.192 155.382 264.989C154.852 264.971 154.321 265.02 153.803 265.135C148.028 265.632 144.192 259.281 141.88 254.983C140.47 252.321 139.319 249.513 137.853 246.896C136.172 243.873 134.469 242.384 132.303 239.733C121.824 227.167 118.982 224.651 117.312 220.455C112.18 207.246 109.664 186.22 109.664 186.22L108.062 163.266Z" fill="#FFA8A7"/>
<path d="M118.44 186.378C117.166 179.046 116.184 167.642 108.029 163.266H92.9136C87.0081 163.892 81.1439 164.859 75.3506 166.165C68.0412 167.947 58.5547 172.662 58.5547 172.662L58.6562 212.537C58.6562 212.537 59.2766 232.773 59.051 250.291C72.7788 258.311 109.698 259.439 122.952 245.643C122.253 229.727 120.087 195.605 118.44 186.378Z" fill="#531D6F"/>
<path d="M69.834 118.654C67.7129 119.758 66.074 121.605 65.2318 123.843C63.7541 127.983 64.4535 133.048 66.5177 140.56C67.7348 145.311 69.5544 149.886 71.9321 154.175C72.6909 155.435 73.9008 156.358 75.3161 156.758L74.8875 147.768L74.4475 142.76C74.4475 142.76 80.8884 140.413 81.2155 130.949C81.4073 125.14 78.5422 122.377 78.5422 122.377L69.834 118.654Z" fill="#455A64"/>
<path d="M109.754 109.302C109.704 109.18 109.622 109.072 109.517 108.991C109.412 108.91 109.288 108.858 109.156 108.84C108.948 108.856 108.75 108.939 108.592 109.077C107.434 109.999 106.201 110.822 104.904 111.536C105.251 109.891 105.278 108.194 104.983 106.539C104.802 105.524 104.52 103.155 103.268 102.907C102.524 102.76 101.869 103.38 101.305 103.899C96.252 108.592 89.6871 106.392 83.6184 106.561C78.5537 106.708 72.4174 108.75 70.0824 113.668C69.6413 114.416 69.3847 115.258 69.3337 116.125C69.2827 116.992 69.4388 117.859 69.7892 118.653C70.7931 120.616 77.4821 122.511 78.5424 122.376C88.6944 121.011 102.704 121.947 107.295 125.354C109.545 122.323 110.78 118.66 110.826 114.886C110.898 112.98 110.511 111.084 109.698 109.359C109.698 109.359 109.765 109.325 109.754 109.302Z" fill="#37474F"/>
<path d="M67.2062 150.102C71.7182 152.144 73.4553 148.658 73.4553 148.658L73.7373 166.808C73.7373 166.808 75.1361 170.034 82.0169 172.899C90.522 176.452 102.118 173.734 95.4739 165.003L95.3724 160.175C97.1758 160.136 98.974 159.966 100.753 159.668C104.848 158.923 108.085 155.686 109.021 149.922C110.082 143.413 109.856 128.941 107.047 121.361C102.343 117.92 88.1081 116.025 78.5877 122.432C80.3474 124.824 81.0017 130.655 76.9634 135.686C76.5799 142.962 72.9026 142.984 72.6657 140.57C72.3589 139.148 71.5894 137.866 70.4774 136.927C69.1689 135.652 64.9841 133.96 63.0552 138.371C61.1263 142.781 64.0929 148.692 67.2062 150.102Z" fill="#FFA8A7"/>
<path d="M95.3722 160.175C90.488 160.005 83.6749 158.28 80.9225 155.843C78.6264 153.735 76.8602 151.115 75.7676 148.195C76.1962 152.279 76.3654 155.302 79.5013 158.054C82.6371 160.806 90.3752 162.566 95.4625 162.927L95.3722 160.175Z" fill="#F28F8F"/>
<path d="M93.6236 150.598C94.0839 150.683 94.5566 150.675 95.0134 150.573C95.4703 150.471 95.9018 150.278 96.2821 150.005C96.6624 149.732 96.9837 149.385 97.2266 148.985C97.4695 148.585 97.6291 148.14 97.6957 147.676L90.7472 146.334C90.583 147.279 90.7908 148.25 91.327 149.045C91.8632 149.84 92.6862 150.396 93.6236 150.598Z" fill="#B16668"/>
<path d="M95.1015 150.564C94.8641 149.597 94.3093 148.739 93.5261 148.125C92.7428 147.512 91.7762 147.179 90.7812 147.18C90.8171 147.982 91.1143 148.75 91.6276 149.367C92.1408 149.984 92.8419 150.416 93.6238 150.598C94.113 150.693 94.6171 150.682 95.1015 150.564Z" fill="#F28F8F"/>
<path d="M88.9985 132.934C88.5987 132.961 88.2162 133.107 87.9002 133.354C87.5841 133.6 87.3491 133.935 87.2252 134.316C87.1014 134.698 87.0944 135.107 87.2052 135.492C87.316 135.877 87.5395 136.22 87.847 136.477C88.1544 136.734 88.5318 136.894 88.9304 136.934C89.3291 136.975 89.7308 136.896 90.084 136.706C90.4371 136.517 90.7255 136.226 90.9119 135.871C91.0984 135.517 91.1745 135.114 91.1304 134.716C91.1078 134.459 91.0346 134.209 90.9151 133.98C90.7956 133.751 90.6322 133.548 90.4342 133.383C90.2361 133.217 90.0074 133.092 89.761 133.015C89.5147 132.938 89.2556 132.911 88.9985 132.934Z" fill="#263238"/>
<path d="M86.6189 127.757C86.3271 127.91 86.0698 128.121 85.8629 128.377C85.656 128.633 85.5039 128.929 85.4161 129.246C85.3283 129.563 85.3067 129.895 85.3525 130.221C85.3984 130.547 85.5108 130.861 85.6827 131.141L90.1157 128.772C89.7767 128.185 89.2234 127.75 88.5716 127.561C87.9198 127.372 87.2201 127.442 86.6189 127.757Z" fill="#263238"/>
<path d="M104.836 126.256C105.127 126.408 105.385 126.619 105.592 126.875C105.799 127.131 105.951 127.427 106.039 127.744C106.126 128.062 106.148 128.394 106.102 128.72C106.056 129.046 105.944 129.359 105.772 129.64L101.339 127.271C101.68 126.685 102.233 126.253 102.884 126.064C103.535 125.875 104.234 125.943 104.836 126.256Z" fill="#263238"/>
<path d="M103.053 131.614C102.652 131.644 102.269 131.792 101.952 132.041C101.636 132.29 101.401 132.628 101.278 133.011C101.155 133.394 101.15 133.806 101.262 134.192C101.374 134.578 101.6 134.922 101.909 135.18C102.218 135.437 102.597 135.597 102.998 135.637C103.398 135.678 103.802 135.597 104.156 135.407C104.511 135.216 104.8 134.924 104.988 134.568C105.175 134.212 105.252 133.808 105.208 133.408C105.185 133.148 105.111 132.896 104.991 132.665C104.87 132.434 104.705 132.229 104.504 132.062C104.304 131.896 104.073 131.77 103.824 131.693C103.575 131.616 103.313 131.59 103.053 131.614Z" fill="#263238"/>
<path d="M97.3124 143.255L103.776 140.819C101.551 137.234 98.5955 134.159 95.1016 131.795L97.3124 143.255Z" fill="#F28F8F"/>
<path d="M276.519 435.914C277.038 435.915 277.538 435.719 277.917 435.365C278.296 435.011 278.526 434.526 278.561 434.008L281.573 391.245C281.73 388.989 282.904 386.925 283.896 386.35L358.502 342.516C358.656 342.853 358.744 343.217 358.762 343.587L361.762 382.864C361.802 383.407 362.057 383.912 362.469 384.267C362.882 384.623 363.419 384.8 363.962 384.759C364.505 384.719 365.009 384.464 365.365 384.052C365.72 383.639 365.897 383.103 365.857 382.56L362.845 343.271C362.86 342.37 362.64 341.48 362.207 340.689C361.774 339.898 361.142 339.233 360.375 338.759C359.755 338.451 359.066 338.308 358.374 338.343C357.682 338.379 357.012 338.592 356.427 338.963L281.821 382.785C279.497 384.128 277.703 387.489 277.455 390.952L274.455 433.703C274.435 433.972 274.468 434.241 274.553 434.496C274.637 434.752 274.771 434.988 274.948 435.191C275.124 435.395 275.338 435.561 275.579 435.681C275.819 435.802 276.082 435.873 276.35 435.892L276.519 435.914Z" fill="#263238"/>
<path d="M85.7282 325.754C86.2462 325.753 86.7445 325.555 87.1232 325.202C87.5019 324.848 87.7328 324.365 87.7698 323.848L90.7816 281.085C90.9395 278.829 92.1127 276.765 93.1053 276.19L167.666 232.198C167.821 232.554 167.905 232.937 167.914 233.326L170.926 272.603C170.926 272.885 170.985 273.164 171.098 273.423C171.211 273.682 171.376 273.915 171.583 274.107C171.79 274.299 172.034 274.446 172.301 274.539C172.567 274.633 172.85 274.67 173.132 274.649C173.413 274.628 173.687 274.549 173.937 274.417C174.187 274.285 174.407 274.104 174.583 273.883C174.759 273.662 174.888 273.408 174.961 273.135C175.035 272.862 175.051 272.577 175.009 272.298L172.009 233.01C172.019 232.108 171.796 231.218 171.361 230.428C170.927 229.637 170.295 228.972 169.527 228.498C168.909 228.189 168.222 228.046 167.532 228.081C166.842 228.117 166.174 228.33 165.591 228.701L91.0072 272.637C88.6835 273.979 86.89 277.34 86.6418 280.803L83.6414 323.554C83.6214 323.823 83.6547 324.092 83.7392 324.348C83.8237 324.603 83.9579 324.839 84.134 325.043C84.3101 325.246 84.5247 325.412 84.7653 325.533C85.006 325.653 85.2681 325.724 85.5364 325.743L85.7282 325.754Z" fill="#263238"/>
<path d="M272.198 390.93C269.712 390.965 267.26 390.355 265.08 389.159L86.2357 285.947C85.1883 285.512 84.2933 284.776 83.6638 283.833C83.0342 282.889 82.6982 281.78 82.6982 280.646C82.6982 279.512 83.0342 278.403 83.6638 277.459C84.2933 276.516 85.1883 275.78 86.2357 275.344L168.207 227.122C170.402 225.993 172.834 225.404 175.303 225.404C177.771 225.404 180.203 225.993 182.398 227.122L361.265 330.379C362.315 330.813 363.214 331.549 363.846 332.494C364.478 333.439 364.816 334.55 364.816 335.687C364.816 336.823 364.478 337.935 363.846 338.879C363.214 339.824 362.315 340.56 361.265 340.994L279.293 389.159C277.119 390.349 274.676 390.959 272.198 390.93ZM175.303 229.626C173.568 229.575 171.849 229.963 170.305 230.754L88.3337 278.976C87.4313 279.495 86.8786 280.104 86.8786 280.646C86.8786 281.187 87.4313 281.774 88.3337 282.327L267.201 385.584C268.755 386.352 270.464 386.751 272.198 386.751C273.931 386.751 275.641 386.352 277.195 385.584L359.167 337.362C360.069 336.843 360.622 336.234 360.622 335.692C360.622 335.151 360.069 334.564 359.167 334.012L180.3 230.754C178.759 229.949 177.04 229.545 175.303 229.581V229.626Z" fill="#37474F"/>
<path d="M122.558 251.882C122.177 251.883 121.807 251.754 121.509 251.516C121.212 251.278 121.005 250.946 120.922 250.574L114.154 219.429C114.108 219.215 114.104 218.993 114.143 218.776C114.182 218.56 114.263 218.354 114.382 218.169C114.501 217.984 114.655 217.824 114.836 217.699C115.016 217.574 115.22 217.485 115.435 217.439C115.649 217.392 115.871 217.388 116.088 217.427C116.304 217.466 116.51 217.547 116.695 217.666C116.88 217.785 117.04 217.939 117.165 218.12C117.29 218.301 117.379 218.504 117.426 218.719L124.194 249.852C124.242 250.066 124.247 250.289 124.209 250.506C124.171 250.722 124.09 250.93 123.972 251.115C123.853 251.301 123.699 251.461 123.519 251.587C123.338 251.713 123.134 251.801 122.919 251.848L122.558 251.882Z" fill="#37474F"/>
<path d="M140.053 241.785C139.672 241.783 139.304 241.651 139.008 241.411C138.713 241.171 138.508 240.837 138.428 240.465L131.66 209.321C131.586 208.894 131.68 208.455 131.923 208.095C132.165 207.735 132.537 207.483 132.961 207.392C133.385 207.3 133.828 207.375 134.197 207.603C134.566 207.83 134.834 208.191 134.943 208.611L141.711 239.743C141.805 240.179 141.722 240.633 141.481 241.008C141.24 241.382 140.86 241.645 140.425 241.74C140.304 241.773 140.178 241.789 140.053 241.785Z" fill="#37474F"/>
<path d="M160.728 200.489C160.701 200.19 160.594 199.905 160.42 199.661C160.245 199.417 160.009 199.224 159.736 199.101L150.96 194.014C150.211 193.63 149.382 193.43 148.54 193.43C147.699 193.43 146.869 193.63 146.121 194.014L86.2578 228.598C85.9829 228.721 85.7452 228.913 85.5688 229.157C85.3925 229.401 85.2838 229.687 85.2539 229.986V232.614C85.2838 232.913 85.3925 233.2 85.5688 233.443C85.7452 233.687 85.9829 233.88 86.2578 234.002L95.0224 239.066C95.7711 239.45 96.6005 239.651 97.4419 239.651C98.2834 239.651 99.1128 239.45 99.8615 239.066L159.736 204.504C160.011 204.381 160.248 204.186 160.422 203.94C160.597 203.694 160.703 203.406 160.728 203.106V200.489Z" fill="#37474F"/>
<path d="M159.736 199.101L150.961 194.014C150.212 193.63 149.382 193.43 148.541 193.43C147.7 193.43 146.87 193.63 146.121 194.014L97.4482 222.135V239.642C98.2886 239.657 99.1192 239.459 99.8622 239.066L159.736 204.504C160.011 204.381 160.249 204.186 160.423 203.94C160.598 203.694 160.703 203.406 160.729 203.106V200.489C160.701 200.19 160.595 199.905 160.42 199.661C160.246 199.417 160.01 199.224 159.736 199.101Z" fill="#263238"/>
<path d="M146.121 194.014L86.2585 228.598C85.9651 228.695 85.7097 228.882 85.5286 229.132C85.3475 229.382 85.25 229.683 85.25 229.992C85.25 230.3 85.3475 230.601 85.5286 230.851C85.7097 231.102 85.9651 231.288 86.2585 231.385L95.0231 236.449C95.7736 236.827 96.6023 237.024 97.4426 237.024C98.283 237.024 99.1116 236.827 99.8622 236.449L159.736 201.91C160.024 201.808 160.274 201.619 160.45 201.37C160.627 201.12 160.721 200.822 160.721 200.517C160.721 200.211 160.627 199.913 160.45 199.664C160.274 199.414 160.024 199.226 159.736 199.124L150.961 194.014C150.212 193.63 149.382 193.43 148.541 193.43C147.7 193.43 146.87 193.63 146.121 194.014Z" fill="#455A64"/>
<path d="M355.885 318.647L173.713 213.45C173.368 213.292 172.989 213.229 172.612 213.266C172.235 213.304 171.875 213.441 171.569 213.664L91.8535 260.566C90.9729 261.139 90.2401 261.912 89.7148 262.821C89.1894 263.731 88.8864 264.751 88.8305 265.8V278.445C88.7921 278.819 88.8532 279.197 89.0077 279.539C89.1623 279.882 89.4047 280.178 89.7103 280.397L271.916 385.594C272.258 385.752 272.636 385.815 273.011 385.778C273.386 385.74 273.744 385.602 274.048 385.38L353.753 338.466C354.632 337.892 355.364 337.119 355.889 336.21C356.414 335.301 356.718 334.281 356.776 333.232V320.61C356.816 320.233 356.755 319.852 356.598 319.507C356.441 319.162 356.195 318.865 355.885 318.647Z" fill="#531D6F"/>
<g opacity="0.7">
<path d="M355.885 318.647L173.713 213.45C173.368 213.292 172.989 213.229 172.612 213.266C172.235 213.304 171.875 213.441 171.569 213.664L91.8535 260.566C90.9729 261.139 90.2401 261.912 89.7148 262.821C89.1894 263.731 88.8864 264.751 88.8305 265.8V278.445C88.7921 278.819 88.8532 279.197 89.0077 279.539C89.1623 279.882 89.4047 280.178 89.7103 280.397L271.916 385.594C272.258 385.752 272.636 385.815 273.011 385.778C273.386 385.74 273.744 385.602 274.048 385.38L353.753 338.466C354.632 337.892 355.364 337.119 355.889 336.21C356.414 335.301 356.718 334.281 356.776 333.232V320.61C356.816 320.233 356.755 319.852 356.598 319.507C356.441 319.162 356.195 318.865 355.885 318.647Z" fill="white"/>
</g>
<path d="M271.916 385.606L89.7213 280.42C89.4106 280.205 89.1631 279.91 89.0044 279.567C88.8458 279.224 88.7817 278.845 88.8189 278.468V265.824C88.867 264.69 89.2217 263.591 89.8454 262.643L272.04 367.829C271.424 368.779 271.077 369.878 271.036 371.01V383.654C270.992 384.029 271.05 384.409 271.205 384.752C271.36 385.096 271.606 385.391 271.916 385.606Z" fill="#531D6F"/>
<g opacity="0.5">
<path d="M271.916 385.606L89.7213 280.42C89.4106 280.205 89.1631 279.91 89.0044 279.567C88.8458 279.224 88.7817 278.845 88.8189 278.468V265.824C88.867 264.69 89.2217 263.591 89.8454 262.643L272.04 367.829C271.424 368.779 271.077 369.878 271.036 371.01V383.654C270.992 384.029 271.05 384.409 271.205 384.752C271.36 385.096 271.606 385.391 271.916 385.606Z" fill="white"/>
</g>
<g opacity="0.5">
<path d="M271.025 383.655V371.01C271.084 369.962 271.388 368.942 271.913 368.033C272.438 367.123 273.17 366.35 274.048 365.776L353.753 318.862C354.042 318.605 354.404 318.445 354.789 318.406C355.174 318.367 355.562 318.45 355.897 318.644C356.232 318.837 356.497 319.132 356.655 319.485C356.813 319.838 356.855 320.232 356.776 320.611V333.256C356.718 334.304 356.414 335.324 355.889 336.234C355.364 337.143 354.632 337.916 353.753 338.49L274.105 385.403C273.816 385.661 273.453 385.82 273.068 385.86C272.684 385.899 272.296 385.816 271.961 385.622C271.626 385.428 271.361 385.134 271.203 384.781C271.045 384.427 271.003 384.033 271.082 383.655H271.025Z" fill="#531D6F"/>
</g>
<path d="M363.397 237.86L192.528 139.228C192.216 139.105 191.877 139.066 191.545 139.113C191.212 139.161 190.898 139.293 190.633 139.499L179.669 145.827C177.839 147.024 176.546 148.884 176.059 151.015L163.832 221.594C163.651 222.587 163.832 223.264 164.362 223.557L335.22 322.189C335.533 322.309 335.871 322.347 336.202 322.299C336.534 322.252 336.848 322.121 337.115 321.919L348.079 315.591C349.909 314.392 351.206 312.533 351.7 310.402L363.927 239.823C364.097 238.83 363.882 238.142 363.397 237.86Z" fill="#531D6F"/>
<g opacity="0.7">
<path d="M363.397 237.86L192.528 139.228C192.216 139.105 191.877 139.066 191.545 139.113C191.212 139.161 190.898 139.293 190.633 139.499L179.669 145.827C177.839 147.024 176.546 148.884 176.059 151.015L163.832 221.594C163.651 222.587 163.832 223.264 164.362 223.557L335.22 322.189C335.533 322.309 335.871 322.347 336.202 322.299C336.534 322.252 336.848 322.121 337.115 321.919L348.079 315.591C349.909 314.392 351.206 312.533 351.7 310.402L363.927 239.823C364.097 238.83 363.882 238.142 363.397 237.86Z" fill="white"/>
</g>
<path d="M334.69 320.227C334.52 321.231 334.69 321.897 335.22 322.19L164.35 223.546C163.865 223.264 163.662 222.588 163.82 221.595L176.059 151.016C176.283 149.928 176.745 148.903 177.413 148.016L348.271 246.637C347.609 247.528 347.147 248.551 346.917 249.637L334.69 320.227Z" fill="#531D6F"/>
<g opacity="0.5">
<path d="M334.69 320.227C334.52 321.231 334.69 321.897 335.22 322.19L164.35 223.546C163.865 223.264 163.662 222.588 163.82 221.595L176.059 151.016C176.283 149.928 176.745 148.903 177.413 148.016L348.271 246.637C347.609 247.528 347.147 248.551 346.917 249.637L334.69 320.227Z" fill="white"/>
</g>
<g opacity="0.5">
<path d="M337.114 321.918L348.078 315.59C349.909 314.391 351.206 312.533 351.699 310.401L363.927 239.822C364.096 238.83 363.927 238.142 363.397 237.86C363.085 237.734 362.746 237.692 362.413 237.74C362.08 237.787 361.766 237.922 361.502 238.13L350.537 244.458C348.705 245.655 347.407 247.514 346.917 249.647L334.689 320.226C334.52 321.219 334.689 321.907 335.219 322.189C335.532 322.308 335.87 322.346 336.202 322.299C336.533 322.251 336.847 322.12 337.114 321.918Z" fill="#531D6F"/>
</g>
<path d="M317.714 364.422C317.553 364.422 317.394 364.399 317.24 364.354C317.029 364.292 316.833 364.189 316.663 364.051C316.492 363.913 316.35 363.743 316.246 363.55C316.141 363.358 316.075 363.146 316.052 362.928C316.029 362.71 316.049 362.489 316.112 362.279L322.88 338.986C323.03 338.59 323.325 338.265 323.704 338.077C324.083 337.889 324.52 337.851 324.926 337.971C325.332 338.091 325.678 338.359 325.895 338.723C326.111 339.087 326.183 339.519 326.095 339.933L319.327 363.215C319.224 363.563 319.012 363.869 318.721 364.087C318.43 364.305 318.077 364.422 317.714 364.422Z" fill="#37474F"/>
<path d="M335.219 354.315C335.059 354.314 334.9 354.292 334.746 354.247C334.535 354.185 334.339 354.082 334.169 353.944C333.998 353.806 333.856 353.636 333.751 353.443C333.647 353.25 333.581 353.039 333.558 352.821C333.535 352.602 333.555 352.382 333.618 352.172L340.386 328.89C340.51 328.463 340.798 328.104 341.187 327.89C341.577 327.677 342.035 327.626 342.461 327.75C342.887 327.875 343.247 328.163 343.461 328.552C343.674 328.941 343.725 329.4 343.6 329.826L336.832 353.108C336.732 353.457 336.52 353.764 336.228 353.982C335.937 354.2 335.583 354.317 335.219 354.315Z" fill="#37474F"/>
<path d="M362.483 316.831C362.456 316.533 362.349 316.247 362.175 316.003C362 315.76 361.764 315.567 361.491 315.444L352.715 310.379C351.966 309.995 351.137 309.795 350.295 309.795C349.454 309.795 348.624 309.995 347.876 310.379L288.013 344.941C287.738 345.063 287.5 345.256 287.324 345.5C287.147 345.743 287.039 346.029 287.009 346.329V348.957C287.039 349.256 287.147 349.542 287.324 349.786C287.5 350.03 287.738 350.222 288.013 350.344L296.777 355.409C297.526 355.793 298.355 355.993 299.197 355.993C300.038 355.993 300.868 355.793 301.616 355.409L361.491 320.847C361.764 320.724 362 320.531 362.175 320.288C362.349 320.044 362.456 319.758 362.483 319.46V316.831Z" fill="#37474F"/>
<path d="M361.49 315.444L352.714 310.379C351.966 309.995 351.136 309.795 350.295 309.795C349.453 309.795 348.624 309.995 347.875 310.379L299.202 338.478V355.996C300.044 356.008 300.874 355.806 301.616 355.409L361.49 320.847C361.764 320.724 362 320.531 362.174 320.288C362.349 320.044 362.455 319.758 362.483 319.46V316.831C362.455 316.533 362.349 316.247 362.174 316.003C362 315.76 361.764 315.567 361.49 315.444Z" fill="#263238"/>
<path d="M347.875 310.379L288.012 344.941C287.719 345.038 287.464 345.224 287.282 345.474C287.101 345.725 287.004 346.025 287.004 346.334C287.004 346.643 287.101 346.944 287.282 347.194C287.464 347.444 287.719 347.631 288.012 347.727L296.777 352.792C297.528 353.17 298.356 353.367 299.197 353.367C300.037 353.367 300.866 353.17 301.616 352.792L361.49 318.23C361.778 318.128 362.028 317.94 362.204 317.69C362.38 317.441 362.475 317.143 362.475 316.837C362.475 316.532 362.38 316.233 362.204 315.984C362.028 315.735 361.778 315.546 361.49 315.444L352.715 310.379C351.966 309.995 351.136 309.795 350.295 309.795C349.453 309.795 348.624 309.995 347.875 310.379Z" fill="#455A64"/>
<path d="M88.729 262.958C91.3008 266.794 94.3013 266.715 97.3017 271.858C101.058 278.288 101.475 279.078 103.483 281.458C105.739 284.086 103.167 284.65 102.479 284.571C99.7382 284.21 97.8545 283.229 95.1924 280.059C92.8687 277.262 91.5602 277.871 93.0266 281.638C94.493 285.406 95.4744 290.775 97.0085 292.151L101.024 295.028C100.614 295.559 100.077 295.979 99.4616 296.247C98.8463 296.515 98.1732 296.623 97.5048 296.562C96.0323 296.38 94.5973 295.969 93.2522 295.343C92.0177 295.549 90.7505 295.415 89.5862 294.956C88.4219 294.497 87.4043 293.73 86.6421 292.738C86.0217 292.343 85.5141 291.948 84.8599 291.61C81.4759 289.466 78.8025 286.24 78.1821 283.319C76.7609 276.551 76.9752 271.779 72.3617 266.715C63.1685 256.642 59.7845 253.483 54.5393 246.749C50.9861 242.237 49.4294 239.699 48.7413 234.612C47.0493 222.125 44.1278 196.17 45.6845 186.412C46.6207 180.513 50.9973 174.986 58.5549 172.662C66.6991 177.591 67.1503 195.685 67.8722 209.886C68.267 217.782 69.5642 233.439 69.5642 233.439C69.5642 233.439 86.1684 259.135 88.729 262.958Z" fill="#FFA8A7"/>
<path d="M93.2077 295.31C92.3634 294.687 91.6048 293.955 90.9517 293.133C90.3198 292.314 89.7789 291.429 89.3386 290.494C88.3685 288.644 87.4774 286.726 86.3945 284.854C87.0185 286.879 87.8109 288.848 88.7633 290.742C89.2141 291.727 89.8196 292.633 90.5569 293.426C91.2954 294.237 92.1994 294.879 93.2077 295.31Z" fill="#F28F8F"/>
<path d="M85.4583 290.753C85.7941 291.426 86.1708 292.078 86.5863 292.705L85.3116 291.87C85.1537 291.599 85.0071 291.328 84.8717 291.046C83.9193 289.153 83.1269 287.184 82.5029 285.158C83.5858 286.986 84.4882 288.903 85.4583 290.753Z" fill="#F28F8F"/>
<path d="M80.4835 287.719C80.0548 286.681 79.6826 285.632 79.3555 284.561C80.224 286.038 80.9798 287.572 81.7468 289.073C81.302 288.644 80.8803 288.192 80.4835 287.719Z" fill="#F28F8F"/>
<path d="M353.426 474.379C352.388 470.781 350.629 467.882 349.895 465.254C348.927 462.191 348.642 458.953 349.061 455.767C349.549 451.367 350.689 447.063 352.445 442.999C354.994 437.246 357.803 433.828 373.64 415.554L349.681 408.414C346.692 415.814 340.431 427.376 339.382 428.357L339.134 428.594C337.262 430.218 334.791 432.565 332.141 435.148C331.34 435.969 330.798 437.008 330.581 438.135C330.364 439.261 330.483 440.427 330.922 441.487C331.046 441.78 331.159 442.085 331.272 442.423C332.113 444.507 332.715 446.679 333.066 448.898C333.393 451.662 332.107 455 331.137 458.655C330.167 462.31 330.437 464.453 332.366 467.555C333.866 469.969 339.574 475.868 344.413 477.572C352.039 480.313 354.452 477.978 353.426 474.379Z" fill="#C8856A"/>
<path d="M330.504 436.455C329.239 437.126 328.249 438.22 327.707 439.546C327.751 442.029 328.288 444.479 329.286 446.754C330.606 449.957 331.08 451.266 330.347 453.792C329.168 457.039 328.74 460.509 329.094 463.944C329.658 468.456 331.948 474.311 338.874 479.015C344.514 482.872 349.342 482.466 351.158 482.049C352.974 481.631 353.256 479.082 353.256 479.082L330.504 436.455Z" fill="#263238"/>
<path d="M339.45 428.244C338.335 429.252 337.595 430.608 337.352 432.091C337.081 435.757 341.695 441.645 342.823 442.829C343.187 442.451 343.629 442.155 344.117 441.96C344.605 441.766 345.129 441.677 345.654 441.701C348.034 441.588 352.174 441.769 352.625 442.829C353.076 443.889 349.884 451.492 349.568 457.065C349.307 461.523 350.299 465.966 352.433 469.89C353.979 472.676 356.584 476.455 352.704 480.121C350.38 480.91 340.578 480.064 334.487 472.078C329.072 464.983 331.035 457.335 332.152 453.41C333.269 449.484 332.039 447.217 330.697 442.513C330.121 440.46 329.569 438.926 330.471 436.501C333.023 433.305 336.051 430.52 339.45 428.244Z" fill="#37474F"/>
<path d="M334.486 472.033C335.141 469.777 338.536 466.574 343.014 465.468C348.519 464.103 350.493 465.164 351.812 466.968C352.94 468.48 358.84 477.12 352.94 480.211C351.057 481.497 341.581 481.892 334.486 472.033Z" fill="#FAFAFA"/>
<path d="M342.823 442.828C343.202 443.121 343.463 443.542 343.556 444.013C343.601 444.482 343.559 444.957 343.432 445.411C343.229 446.302 343.048 447.182 342.879 448.073C342.507 449.844 342.169 451.615 341.898 453.386C341.626 455.161 341.449 456.95 341.368 458.744C341.289 460.55 341.414 462.358 341.74 464.136C341.104 462.412 340.761 460.593 340.725 458.756C340.67 456.918 340.779 455.08 341.052 453.262C341.326 451.456 341.702 449.667 342.18 447.904C342.428 447.036 342.71 446.144 342.992 445.298C343.155 444.89 343.261 444.461 343.308 444.024C343.274 443.585 343.105 443.167 342.823 442.828Z" fill="#263238"/>
<path d="M340.589 462.794C342.732 461.791 348.665 461.249 349.974 463.054L350.12 463.686C350.293 463.041 350.241 462.357 349.974 461.745C349.534 460.617 345.462 459.489 340.453 461.418C339.946 461.948 339.923 463.031 340.589 462.794Z" fill="#FAFAFA"/>
<path d="M340.656 458.124C342.743 456.996 348.18 456.353 349.59 458.124V458.654C349.752 458.387 349.838 458.081 349.838 457.768C349.838 457.456 349.752 457.15 349.59 456.883C349.083 455.755 345.27 454.627 340.419 456.792C339.912 457.311 339.957 458.406 340.656 458.124Z" fill="#FAFAFA"/>
<path d="M341.051 453.376C343.194 452.439 348.733 451.999 349.985 453.872L349.872 454.492C350.048 454.251 350.17 453.976 350.233 453.685C350.295 453.393 350.295 453.092 350.233 452.8C349.917 451.582 345.913 450.262 340.938 451.988C340.419 452.496 340.385 453.59 341.051 453.376Z" fill="#FAFAFA"/>
<path d="M341.627 449.337C343.782 448.401 349.67 447.882 350.911 449.743L350.786 450.375C351.141 449.849 351.278 449.206 351.17 448.581C350.843 447.363 346.511 446.224 341.537 447.938C341.018 448.457 340.962 449.551 341.627 449.337Z" fill="#FAFAFA"/>
<path d="M417.022 504.88C415.093 503.752 413.3 502.432 411.382 501.304C409.42 500.219 407.589 498.913 405.923 497.413C402.979 494.627 401.884 491.4 400.204 487.712C399.493 486.155 397.767 483.414 397.553 467.284C397.451 459.388 397.237 449.721 397.045 441.791L375.613 454.752C377.317 460.493 379.99 475.608 379.855 478.835C379.584 485.343 376.189 493.905 382.37 498.146C383.6 498.981 384.987 499.545 386.273 500.278C390.446 502.68 393.289 506.832 397.079 509.798C399.913 511.988 403.176 513.556 406.656 514.4C408.057 514.897 409.525 515.182 411.01 515.246C412.908 515.124 414.793 514.856 416.65 514.446C417.814 514.27 418.937 513.888 419.966 513.318C420.476 513.021 420.913 512.613 421.245 512.125C421.577 511.637 421.795 511.081 421.884 510.497C421.907 509.885 421.795 509.276 421.555 508.712C421.316 508.148 420.954 507.645 420.496 507.238C419.571 506.429 418.548 505.739 417.451 505.185C417.361 505.061 417.169 504.97 417.022 504.88Z" fill="#C8856A"/>
<path d="M377.361 494.537C376.966 495.969 377.033 497.489 377.553 498.88C378.411 500.008 379.742 500.854 382.979 502.557C385.466 503.814 387.486 505.834 388.743 508.321C390.109 510.51 391.798 512.479 393.751 514.164C397.406 517.334 402.775 519.06 411.619 518.541C417.135 518.225 421.647 515.992 422.831 514.424C423.181 513.97 423.429 513.445 423.557 512.886C423.686 512.328 423.692 511.748 423.576 511.186L377.361 494.537Z" fill="#263238"/>
<path d="M378.76 479.929C378.76 479.094 379.527 478.203 379.888 478.497C379.967 479.388 379.888 481.79 380.474 482.659C382.564 485.27 385.508 487.059 388.788 487.712C388.788 487.712 388.483 486.787 390.525 486.02C392.567 485.253 397.755 483.302 398.827 483.821C399.899 484.34 401.083 489.754 404.591 494.48C407.73 498.481 411.859 501.591 416.57 503.504C419.717 504.711 423.338 507.249 423.338 511.333C420.124 515.845 411.449 516.397 406.17 516.014C396.797 515.326 392.555 509.607 389.938 506.189C387.321 502.771 386.442 502.23 382.155 499.331C380.294 498.067 378.342 497.176 377.463 494.571C376.425 488.163 378.828 487.103 378.76 479.929Z" fill="#37474F"/>
<path d="M400.972 514.987C400.453 511.603 402.043 507.294 407.379 504.542C412.714 501.79 415.004 502.376 416.854 503.042C418.704 503.707 425.111 506.787 423.487 511.468C422.821 513.803 411.631 518.766 400.972 514.987Z" fill="#FAFAFA"/>
<path d="M388.731 487.711C389.237 487.688 389.734 487.848 390.13 488.162C390.479 488.52 390.769 488.931 390.987 489.381L392.341 491.907C393.243 493.599 394.168 495.291 395.161 496.882C396.145 498.504 397.219 500.071 398.376 501.574C399.538 503.086 400.862 504.467 402.324 505.692C400.628 504.727 399.103 503.488 397.812 502.026C396.517 500.578 395.358 499.015 394.349 497.356C393.34 495.707 392.428 494.001 391.619 492.246C391.213 491.388 390.83 490.486 390.491 489.584C390.349 489.148 390.148 488.735 389.893 488.354C389.582 488.024 389.176 487.799 388.731 487.711Z" fill="#263238"/>
<path d="M399.719 505.016C401.377 503.29 408.743 499.94 411.235 500.685L411.822 501.057C411.533 500.46 411.041 499.984 410.435 499.714C409.307 499.072 402.854 500.369 398.748 504.046C398.523 504.666 399.166 505.49 399.719 505.016Z" fill="#FAFAFA"/>
<path d="M396.639 501.395C398.297 499.669 404.738 496.793 407.208 497.549L407.705 497.988C407.705 497.988 407.58 497.221 406.419 496.567C405.257 495.913 399.775 496.759 395.669 500.425C395.454 501.057 396.086 501.869 396.639 501.395Z" fill="#FAFAFA"/>
<path d="M394.519 497.571C396.222 495.89 401.885 493.375 404.344 494.187L404.705 494.694C404.57 494.134 404.232 493.644 403.757 493.318C402.629 492.551 397.779 493.014 393.605 496.567C393.335 497.199 393.944 498.033 394.519 497.571Z" fill="#FAFAFA"/>
<path d="M392.466 494.266C394.169 492.585 399.832 490.07 402.291 490.882L402.595 491.446C402.552 491.161 402.451 490.887 402.3 490.641C402.149 490.395 401.95 490.182 401.715 490.013C400.587 489.246 395.726 489.709 391.563 493.262C391.281 493.894 391.902 494.74 392.466 494.266Z" fill="#FAFAFA"/>
<path d="M359.55 321.039L384.998 320.78C384.998 320.78 395.376 308.372 401.185 297.498C404.425 305.719 406.696 314.289 407.953 323.036C409.78 335.388 411.72 349.691 412.713 360.519C414.495 379.91 412.984 382.357 398.241 396.796C390.345 404.466 363.013 428.38 363.013 428.38C353.989 426.992 347.097 419.852 346.161 414.697C346.161 414.697 351.801 400.981 355.388 393.322C360.96 381.41 366.6 375.071 375.624 368.923C369.781 351.507 359.55 321.039 359.55 321.039Z" fill="#37474F"/>
<path d="M351.936 420.415L351.124 420.122L351.406 419.366C358.174 400.63 366.499 377.303 388.517 367.061L388.878 367.839C367.175 377.934 358.885 401.07 352.207 419.648L351.936 420.415Z" fill="#263238"/>
<path d="M399.313 321.299C394.338 326.939 386.431 336.673 386.431 336.673L371.936 336.572L364.807 336.673C368.191 346.758 372.534 359.673 375.647 368.923C367.681 374.056 361.278 381.279 357.137 389.802L364.153 405.121C362.551 409.012 363.307 419.254 364.942 426.688C371.293 421.138 391.665 403.248 398.264 396.796L399.392 395.668C398.264 378.218 395.026 359.064 390.886 339.268C398.185 332.647 399.098 326.803 399.313 321.299Z" fill="#263238"/>
<path d="M352.5 367.726C347.717 354.89 346.161 350.446 343.814 341.579C341.355 332.285 344.717 318.805 346.161 314.598C350.673 301.569 352.76 297.463 354.316 292.805C354.316 292.805 358.433 302.596 376.797 302.483C394.011 302.381 401.185 297.463 401.185 297.463C400.621 305.179 401.974 313.853 399.662 320.328C395.026 333.322 386.43 336.639 386.43 336.639L392.882 372.611C395.42 391.493 396.492 395.351 397.09 425.514C397.417 441.836 397.801 467.735 397.801 467.735C395.308 469.348 383.317 471.311 378.839 469.495C378.839 469.495 374.158 452.789 371.383 441.667C366.081 420.359 365.337 414.866 366.735 404.612C366.735 404.646 357.971 382.458 352.5 367.726Z" fill="#37474F"/>
<path d="M382.687 470.217C380.431 460.257 376.043 440.02 374.103 429.315C372.797 422.879 372.376 416.295 372.851 409.745C373.009 407.869 373.043 405.985 372.952 404.105C372.546 397.878 367.775 384.297 362.732 369.915C358.22 357.214 353.708 344.095 352.276 336.391H352.716C354.451 336.359 356.123 335.734 357.453 334.62C361.706 331.179 364.526 322.911 365.834 310.018L364.977 309.928C363.714 322.404 360.928 330.706 356.912 333.954C355.577 335.068 353.864 335.626 352.129 335.511C350.178 323.261 353.257 314.406 355.908 306.6C356.664 304.435 357.363 302.393 357.95 300.317L357.126 300.092C356.54 302.133 355.84 304.164 355.096 306.318C352.355 314.305 349.23 323.34 351.34 335.985C352.614 343.678 357.341 357.146 361.92 370.174C366.726 383.868 371.7 398.036 372.072 404.139C372.161 405.97 372.127 407.805 371.971 409.632C371.49 416.254 371.915 422.91 373.234 429.417C375.163 440.043 379.54 460.042 381.762 470.093C382.078 470.183 382.394 470.205 382.687 470.217Z" fill="#263238"/>
<path d="M378.377 470.374C378.377 470.374 381.964 472.066 389.296 471.129C396.628 470.193 397.936 467.847 397.936 467.847L397.789 457.131C397.789 457.131 395.161 459.658 387.637 460.594C379.741 461.564 376.03 460.098 376.03 460.098L378.377 470.374Z" fill="#455A64"/>
<path d="M343.792 419.75C344.264 421.813 345.177 423.749 346.468 425.425C347.759 427.102 349.397 428.479 351.271 429.462C357.757 432.982 361.05 431.278 361.05 431.278L366.769 425.187C366.769 425.187 361.276 424.962 355.016 420.122C348.755 415.283 347.706 411.02 347.706 411.02L343.792 419.75Z" fill="#455A64"/>
<path d="M365.473 188.6C370.707 193.857 366.455 201.663 367.662 208.013C368.44 211.059 370.944 213.349 372.174 216.259C372.773 217.738 373.026 219.334 372.912 220.926C372.799 222.518 372.322 224.062 371.519 225.441C367.007 231.442 366.297 232.389 369.985 239.293C372.32 244.391 372.388 254.329 364.864 254.363C363.955 254.365 363.047 254.305 362.146 254.182C359.359 253.945 357.205 255.807 355.084 257.318C348.937 261.447 338.322 259.067 336.145 251.532C335.435 247.708 338.909 243.918 337.397 240.06C336.36 237.093 333.201 235.424 332.49 232.299C331.532 227.945 336.089 224.245 336.619 219.812C336.957 212.243 328.982 206.491 337.589 199.779C340.353 197.805 344.154 196.846 345.654 193.8C346.365 192.345 346.929 185.532 355.998 184.776C357.767 184.623 359.547 184.89 361.193 185.554C362.84 186.219 364.306 187.262 365.473 188.6Z" fill="#263238"/>
<path d="M366.859 187.765C366.859 184.765 360.858 184.697 356.47 188.329C353.086 191.116 351.338 196.101 354.846 197.895C358.354 199.688 366.859 187.765 366.859 187.765Z" fill="#531D6F"/>
<path d="M431.144 296.111C436.073 294.34 459.919 282.259 461.081 281.943C464.397 281.075 467.105 281.447 469.767 280.714C472.778 280.064 475.626 278.81 478.136 277.025C478.558 276.776 478.921 276.438 479.2 276.035C479.478 275.632 479.666 275.173 479.749 274.69C479.749 274.194 479.614 273.697 479.648 273.201C479.831 272.395 479.959 271.577 480.031 270.753C479.919 269.682 478.644 268.791 478.599 267.73C478.599 267.257 479.163 265.925 478.982 265.474C478.599 264.561 478.136 264.346 477.663 263.669C477.415 263.309 476.704 262.677 477.099 262.203C477.493 261.729 478.96 260.917 481.893 258.447C484.825 255.977 487.533 253.935 486.754 252.344C485.717 249.987 480.765 253.032 476.32 255.728C472.226 258.221 467.296 261.481 466.281 261.053C464.916 260.443 467.353 256.281 466.631 253.405C465.909 250.528 463.766 250.359 462.999 252.717C462.333 254.758 460.1 257.398 459.107 260.895C458.6 262.666 457.979 266.422 455.723 267.663C453.862 268.633 426.102 276.619 426.102 276.619C426.102 276.619 410.829 255.39 404.67 248.52C398.917 242.068 389.904 242.598 389.904 242.598L391.506 267.031C391.506 267.031 405.877 283.782 414.145 291.633C422.605 299.641 424.026 298.66 431.144 296.111Z" fill="#C8856A"/>
<path d="M472.891 263.037C470.466 264.977 467.251 266.421 467.251 268.237C467.271 268.591 467.367 268.936 467.533 269.249C467.699 269.563 467.932 269.836 468.214 270.05C468.496 270.265 468.821 270.415 469.167 270.492C469.513 270.568 469.872 270.569 470.218 270.493C469.927 270.803 469.723 271.184 469.626 271.598C469.529 272.012 469.543 272.444 469.665 272.851C469.809 273.238 470.056 273.579 470.381 273.836C470.705 274.093 471.093 274.255 471.504 274.306C471.379 274.599 471.316 274.914 471.318 275.233C471.319 275.551 471.386 275.866 471.514 276.157C471.642 276.449 471.828 276.711 472.061 276.928C472.294 277.145 472.569 277.312 472.869 277.419C471.899 277.566 469.958 277.148 470.398 275.242C470.398 275.242 467.883 274.114 468.65 271.858C468.65 271.858 467.917 274.351 464.07 275.31C465.748 274.293 467.032 272.739 467.714 270.899C467.187 270.521 466.774 270.005 466.52 269.409C466.265 268.812 466.179 268.157 466.27 267.515C466.721 265.541 472.891 263.037 472.891 263.037Z" fill="#AF6152"/>
<path d="M347.131 249.466C344.717 250.876 342.743 256.731 344.581 268.981C345.292 273.673 349.014 286.002 349.522 294.248C347.469 304.84 343.487 317.688 343.487 317.688C351.271 324.106 372.646 325.945 388.077 322.753C398.861 320.497 404.557 316.346 406.881 313.458C406.881 313.458 402.978 299.166 402.606 292.838C402.369 288.935 402.82 283.758 402.696 280.983C402.696 280.983 407.208 276.313 407.727 271.192C408.438 263.634 406.261 258.784 399.673 251.745C396.018 247.842 393.052 245.721 389.904 242.574C389.904 242.574 387.648 242.371 384.704 242.326C376.808 242.529 364.592 243.319 356.177 246.082C353.103 247.046 350.083 248.176 347.131 249.466Z" fill="#455A64"/>
<path d="M362.189 233.189C360.621 231.012 352.376 223.601 349.307 218.796C345.867 213.393 346.16 202.474 353.819 199.699C354.88 188.588 366.092 185.227 378.793 186.975C390.073 188.521 400.451 196.27 394.145 212.829C389.475 225.192 362.189 233.189 362.189 233.189Z" fill="#37474F"/>
<path d="M362.799 239.507C362.653 237.127 361.784 229.456 361.784 229.456C361.784 230.223 358.141 232.457 354.666 228.701C351.192 224.944 350.775 220.805 352.636 218.041C354.689 215.018 359.551 214.95 361.66 219.654C364.864 220.252 366.093 215.334 363.465 210.81C363.408 204.888 369.5 204.922 372.207 197.15C380.001 200.828 386.95 197.342 392.06 202.881C393.188 205.712 394.146 210.179 394.519 218.199C395.139 231.306 392.725 234.532 389.24 236.247C387.153 237.285 384.558 237.668 380.509 237.51L380.847 240.894C381.028 241.921 381.659 242.112 382.923 242.214C384.186 242.316 384.66 242.293 384.66 242.293C384.66 242.293 392.691 251.565 382.257 253.46C377.626 254.245 372.877 253.988 368.358 252.706C363.839 251.424 359.662 249.15 356.133 246.049L360.532 244.211C363.476 243.026 362.923 241.526 362.799 239.507Z" fill="#C8856A"/>
<path d="M376.008 225.498L381.75 227.043C381.665 227.427 381.504 227.79 381.276 228.11C381.049 228.43 380.759 228.7 380.424 228.906C380.089 229.111 379.716 229.247 379.328 229.305C378.939 229.363 378.543 229.342 378.163 229.243C377.387 229.021 376.729 228.506 376.326 227.807C375.924 227.108 375.81 226.28 376.008 225.498Z" fill="#AF6152"/>
<path d="M376.425 226.783C377.18 226.731 377.93 226.941 378.547 227.379C379.164 227.817 379.61 228.456 379.809 229.186C379.273 229.35 378.699 229.35 378.162 229.186C377.614 229.03 377.12 228.725 376.736 228.305C376.351 227.885 376.091 227.366 375.985 226.806C376.131 226.787 376.278 226.779 376.425 226.783Z" fill="#FFA8A7"/>
<path d="M391.766 207.719L387.197 207.437C387.209 207.141 387.279 206.85 387.403 206.58C387.527 206.311 387.703 206.069 387.921 205.868C388.139 205.667 388.395 205.51 388.673 205.408C388.951 205.306 389.247 205.259 389.543 205.271C390.156 205.32 390.727 205.6 391.139 206.055C391.552 206.51 391.776 207.105 391.766 207.719Z" fill="#263238"/>
<path d="M370.244 208.984L374.756 207.856C374.694 207.562 374.575 207.283 374.404 207.036C374.234 206.788 374.015 206.577 373.762 206.416C373.509 206.254 373.226 206.144 372.93 206.093C372.633 206.042 372.33 206.051 372.037 206.119C371.423 206.267 370.891 206.649 370.555 207.185C370.22 207.721 370.108 208.367 370.244 208.984Z" fill="#263238"/>
<path d="M386.905 213.676C386.892 214.185 387.079 214.678 387.424 215.05C387.77 215.423 388.247 215.647 388.755 215.673C389.001 215.69 389.248 215.657 389.481 215.576C389.714 215.496 389.929 215.369 390.112 215.204C390.295 215.038 390.443 214.838 390.547 214.614C390.651 214.391 390.709 214.149 390.718 213.902C390.73 213.394 390.544 212.901 390.198 212.528C389.853 212.155 389.375 211.932 388.868 211.905C388.621 211.887 388.374 211.919 388.14 211.999C387.906 212.079 387.691 212.205 387.507 212.371C387.324 212.537 387.176 212.738 387.072 212.962C386.969 213.186 386.912 213.429 386.905 213.676Z" fill="#263238"/>
<path d="M373.097 214.646C373.085 215.154 373.271 215.647 373.617 216.02C373.962 216.393 374.44 216.617 374.947 216.643C375.193 216.66 375.44 216.627 375.673 216.546C375.906 216.466 376.121 216.339 376.304 216.174C376.487 216.008 376.635 215.808 376.739 215.584C376.843 215.361 376.901 215.118 376.91 214.872C376.922 214.364 376.736 213.871 376.39 213.498C376.045 213.125 375.568 212.902 375.06 212.875C374.814 212.859 374.567 212.891 374.334 212.972C374.101 213.053 373.886 213.179 373.703 213.345C373.52 213.51 373.372 213.71 373.268 213.934C373.164 214.158 373.106 214.4 373.097 214.646Z" fill="#263238"/>
<path d="M367.457 210.303L356.471 215.943C357.709 215.926 358.911 216.359 359.855 217.161L367.92 212.897L367.457 210.303Z" fill="#263238"/>
<path d="M396.854 208.487C394 208.273 390.142 208.318 387.83 209.164C385.224 210.123 384.31 211.082 382.855 211.172C381.4 211.262 380.306 210.394 377.497 209.739C374.576 209.332 371.608 209.404 368.71 209.954C367.729 210.021 366.849 210.349 366.872 211.646C366.894 212.943 367.819 213.022 368 214.003C368.575 217.387 369.353 221.73 373.82 221.741C383.024 221.899 379.765 213.078 383.16 213.383C384.389 213.608 384.288 215.966 385.089 217.613C385.4 218.263 385.811 218.861 386.307 219.384C389.409 222.429 395.038 220.433 395.793 217.252C396.493 215.661 396.278 213.157 397.023 211.77C397.745 211.116 398.275 208.781 396.854 208.487ZM379.663 216.203C379.494 217.156 379.082 218.049 378.467 218.797C377.993 219.317 377.414 219.732 376.769 220.013C376.124 220.295 375.426 220.438 374.722 220.433C372.737 220.512 370.718 219.666 370.143 217.759C370.064 217.579 369.996 217.41 369.94 217.241C369.488 215.831 368.812 212.819 369.59 211.916C370.91 210.405 377.486 210.236 379.528 212.39C380.137 213.191 379.945 214.782 379.663 216.203ZM395.32 214.804C395.247 215.641 394.989 216.451 394.563 217.175C394.138 217.899 393.556 218.518 392.861 218.989C390.402 220.354 386.86 219.203 386.251 216.789C384.559 211.736 386.499 210.461 391.575 209.751C395.76 209.581 396.042 210.653 395.32 214.804Z" fill="#37474F"/>
<path d="M388.744 220.963L382.686 223.783L381.75 214.241C381.837 214.025 381.977 213.835 382.156 213.688C382.335 213.54 382.549 213.439 382.776 213.395L384.457 215.526L388.495 220.648L388.744 220.963Z" fill="#AF6152"/>
<path d="M380.554 237.544C373.267 237.149 366.228 235.097 364.457 231.904C364.521 232.961 364.841 233.987 365.389 234.893C365.937 235.799 366.697 236.558 367.604 237.104C371.845 239.36 380.813 240.15 380.813 240.15L380.554 237.544Z" fill="#AF6152"/>
<path d="M337.035 342.686C336.561 345.494 337.96 347.423 338.423 349.386C338.885 351.349 337.295 355.951 336.889 356.966C336.482 357.981 334.249 359.03 334.249 359.03L337.035 342.686Z" fill="#AF6152"/>
<path d="M338.457 339.707C337.622 347.975 336.54 351.37 335.355 357.755C334.836 360.507 332.389 363.587 329.275 365.651L327.64 366.779C326.945 367.726 326.006 368.466 324.923 368.921C323.841 369.376 322.655 369.528 321.492 369.362C320.246 369.97 318.915 370.384 317.544 370.592C316.416 370.592 313.855 368.843 313.855 368.843L317.916 366.452C319.27 365.166 320.048 360.338 320.172 356.548C320.454 349.34 324.944 346.565 324.628 340.609C323.883 326.114 323.365 317.621 323.094 312.714C322.564 303.261 323.996 299.02 325.293 293.538C328.79 278.874 331.306 269.85 334.464 260.296C336.776 253.246 340.104 251.046 350.256 248.113C353.211 251.655 357.159 259.664 351.531 276.2L341.695 304.006C341.695 304.006 340.194 322.381 338.457 339.707Z" fill="#C8856A"/>
<path d="M321.48 369.396C322.252 368.792 322.939 368.086 323.522 367.298C324.092 366.519 324.579 365.684 324.977 364.805C325.846 363.045 326.647 361.241 327.606 359.492C327.07 361.406 326.372 363.27 325.519 365.065C325.117 365.996 324.568 366.856 323.894 367.614C323.224 368.371 322.402 368.978 321.48 369.396Z" fill="#AF6152"/>
<path d="M328.654 364.964C328.357 365.604 328.014 366.223 327.628 366.814L328.812 366.001C328.948 365.742 329.083 365.483 329.207 365.223C330.058 363.432 330.757 361.571 331.294 359.662C330.324 361.399 329.534 363.215 328.654 364.964Z" fill="#AF6152"/>
<path d="M333.256 362.018C333.628 361.037 333.955 360.044 334.249 359.029C333.47 360.439 332.794 361.883 332.105 363.316C332.512 362.887 332.906 362.458 333.256 362.018Z" fill="#C8856A"/>
<path d="M372.24 169.369L365.664 165.568C365.529 165.52 365.416 165.424 365.348 165.297L363.532 161.135L368.044 158.529L372.24 169.369Z" fill="#531D6F"/>
<path opacity="0.1" d="M372.24 169.369L365.664 165.568C365.529 165.52 365.416 165.424 365.348 165.297L363.532 161.135L368.044 158.529L372.24 169.369Z" fill="black"/>
<path d="M367.4 158.869L371.912 169.134C371.977 169.247 372.072 169.34 372.188 169.4C372.303 169.461 372.434 169.487 372.564 169.475C372.694 169.463 372.817 169.414 372.92 169.333C373.022 169.253 373.1 169.144 373.142 169.021L377.947 152.732L367.4 158.869Z" fill="#531D6F"/>
<path opacity="0.2" d="M367.4 158.869L371.912 169.134C371.977 169.247 372.072 169.34 372.188 169.4C372.303 169.461 372.434 169.487 372.564 169.475C372.694 169.463 372.817 169.414 372.92 169.333C373.022 169.253 373.1 169.144 373.142 169.021L377.947 152.732L367.4 158.869Z" fill="white"/>
<path d="M397.406 94.7535C397.346 93.6505 397.027 92.5773 396.474 91.6208C395.921 90.6644 395.151 89.8518 394.225 89.2488L393.526 88.8315C392.54 88.3311 391.45 88.0703 390.345 88.0703C389.24 88.0703 388.15 88.3311 387.164 88.8315L343.871 113.862C342.945 114.464 342.174 115.277 341.622 116.233C341.069 117.19 340.75 118.263 340.69 119.366V162.433C340.748 163.537 341.066 164.611 341.619 165.568C342.172 166.525 342.944 167.337 343.871 167.938L344.571 168.367C345.556 168.867 346.646 169.128 347.752 169.128C348.857 169.128 349.947 168.867 350.933 168.367L394.519 143.122C397.384 141.486 397.406 139.851 397.406 137.82V94.7535Z" fill="#531D6F"/>
<path opacity="0.2" d="M397.406 94.7535C397.346 93.6505 397.027 92.5773 396.474 91.6208C395.921 90.6644 395.151 89.8518 394.225 89.2488L393.526 88.8315C392.54 88.3311 391.45 88.0703 390.345 88.0703C389.24 88.0703 388.15 88.3311 387.164 88.8315L343.871 113.862C342.945 114.464 342.174 115.277 341.622 116.233C341.069 117.19 340.75 118.263 340.69 119.366V162.433C340.748 163.537 341.066 164.611 341.619 165.568C342.172 166.525 342.944 167.337 343.871 167.938L344.571 168.367C345.556 168.867 346.646 169.128 347.752 169.128C348.857 169.128 349.947 168.867 350.933 168.367L394.519 143.122C397.384 141.486 397.406 139.851 397.406 137.82V94.7535Z" fill="white"/>
<path d="M340.656 162.434C340.714 163.537 341.032 164.611 341.585 165.568C342.138 166.525 342.91 167.337 343.837 167.938L344.537 168.367C345.431 168.819 346.412 169.075 347.413 169.12C348.415 169.165 349.414 168.997 350.346 168.626C348.857 169.19 347.718 168.344 347.718 166.528V123.427C347.753 122.32 348.071 121.241 348.642 120.291L341.626 116.186C341.053 117.134 340.731 118.214 340.69 119.321L340.656 162.434Z" fill="#531D6F"/>
<path opacity="0.4" d="M397.305 93.8167C396.932 92.4743 395.703 92.0457 394.225 92.8804L350.921 117.922C349.976 118.502 349.199 119.319 348.665 120.291L341.638 116.185C342.171 115.21 342.948 114.389 343.894 113.805L387.186 88.7745C388.174 88.2793 389.263 88.0215 390.367 88.0215C391.472 88.0215 392.561 88.2793 393.548 88.7745L394.248 89.2032C395.043 89.7247 395.725 90.4027 396.25 91.1958C396.776 91.9889 397.134 92.8806 397.305 93.8167Z" fill="white"/>
<path d="M384.648 122.952L382.99 123.911V137.278C382.984 137.603 382.902 137.921 382.751 138.209C382.6 138.497 382.385 138.746 382.122 138.936L376.843 141.982V130.984L368.417 135.857V146.843L363.137 149.889C362.664 150.171 362.28 149.889 362.28 149.235V135.913L360.611 136.872C359.832 137.323 359.483 136.263 360.024 135.225L372.026 113.048C372.376 112.439 372.895 112.146 373.233 112.349L385.179 120.696C385.776 121.069 385.37 122.546 384.648 122.952Z" fill="#FAFAFA"/>
</svg>
