<svg width="108" height="39" viewBox="0 0 108 39" fill="none" xmlns="http://www.w3.org/2000/svg">
<path d="M34.4604 16.8746C34.49 15.6164 33.5278 13.0644 29.4423 12.9223C24.3354 12.7447 22.2926 19.6278 29.4423 21.1378C38.1906 22.9854 35.6594 30.7743 30.1084 30.5523C25.6676 30.3746 24.3206 27.5769 24.2021 26.2003" stroke="#8125E1" stroke-width="2.75329"/>
<path d="M64.9242 13.189C61.0943 13.2878 58.041 16.4209 58.041 20.2521V31.1742" stroke="#8125E1" stroke-width="2.75329"/>
<rect y="4.44092" width="2.57566" height="26.8224" fill="#8125E1"/>
<path d="M5.8623 31.1745V20.1614C5.8623 16.1882 9.0832 12.9673 13.0564 12.9673C17.0296 12.9673 20.2505 16.1882 20.2505 20.1614V31.1745" stroke="#8125E1" stroke-width="2.75329"/>
<path d="M39.168 12.1678V23.1809C39.168 27.1541 42.3889 30.375 46.362 30.375C50.3352 30.375 53.5561 27.1541 53.5561 23.1809V12.1678" stroke="#8125E1" stroke-width="2.75329"/>
<rect x="66.0791" width="41.9211" height="38.9013" rx="9.76974" fill="#8125E1"/>
<path d="M97.2979 12.4341C100.913 12.4341 104.09 14.3062 105.917 17.1323L91.792 27.8433C92.769 29.1607 95.6911 31.4589 99.5635 30.1089C104.404 28.4214 105.025 24.424 104.937 22.9585L107.445 21.1851C107.518 21.6769 107.557 22.1799 107.557 22.6919C107.557 28.3574 102.963 32.9507 97.2979 32.9507C91.6326 32.9505 87.04 28.3572 87.04 22.6919C87.0403 17.0268 91.6327 12.4343 97.2979 12.4341ZM102.225 17.2388C99.7985 14.5814 95.7321 14.2492 92.9072 16.478L92.1973 17.0376C89.4414 19.2121 88.7035 23.082 90.4648 26.1187L102.225 17.2388Z" fill="white"/>
<path d="M78.8691 18.562C82.0573 18.5622 84.6416 21.1472 84.6416 24.3354V25.1343C84.6416 28.3225 82.0573 30.9075 78.8691 30.9077H69.3652V18.562H78.8691Z" stroke="white" stroke-width="2.66447"/>
<path d="M77.0928 6.03955C80.1829 6.03974 82.6875 8.54512 82.6875 11.6353C82.6874 14.7253 80.1828 17.2308 77.0928 17.231H69.3652V6.03955H77.0928Z" stroke="white" stroke-width="2.66447"/>
</svg>
