<svg width="184" height="67" viewBox="0 0 184 67" fill="none" xmlns="http://www.w3.org/2000/svg">
<path d="M58.7104 28.7497C58.7608 26.6061 57.1216 22.2583 50.161 22.0162C41.4604 21.7136 37.9802 33.4403 50.161 36.0129C65.0656 39.1607 60.7531 52.4307 51.2959 52.0524C43.7301 51.7498 41.4352 46.9833 41.2334 44.6379" stroke="white" stroke-width="4.69079"/>
<path d="M110.612 22.4704C104.087 22.6388 98.8848 27.9767 98.8848 34.5039V53.1118" stroke="white" stroke-width="4.69079"/>
<rect y="7.5658" width="4.38816" height="45.6974" fill="white"/>
<path d="M9.9873 53.112V34.3489C9.9873 27.5798 15.4748 22.0923 22.2439 22.0923C29.013 22.0923 34.5005 27.5797 34.5005 34.3489V53.112" stroke="white" stroke-width="4.69079"/>
<path d="M66.7305 20.7303V39.4934C66.7305 46.2625 72.2179 51.75 78.987 51.75C85.7562 51.75 91.2436 46.2625 91.2436 39.4934V20.7303" stroke="white" stroke-width="4.69079"/>
<rect x="112.579" width="71.4211" height="66.2763" rx="16.6447" fill="white"/>
<mask id="path-7-inside-1_349_1693" fill="white">
<path d="M165.767 21.184C171.926 21.184 177.342 24.3712 180.454 29.186L156.386 47.437C158.05 49.6815 163.029 53.5963 169.626 51.2963C177.873 48.4213 178.932 41.6114 178.78 39.1147L183.056 36.0942C183.179 36.9318 183.244 37.7887 183.244 38.6606C183.244 48.3128 175.419 56.1381 165.767 56.1381C156.115 56.1379 148.29 48.3127 148.29 38.6606C148.29 29.0086 156.115 21.1842 165.767 21.184ZM174.162 29.3686C170.029 24.8414 163.1 24.2764 158.287 28.0737L157.078 29.0278C152.383 32.7325 151.125 39.3249 154.126 44.4985L174.162 29.3686Z"/>
</mask>
<path d="M165.767 21.184C171.926 21.184 177.342 24.3712 180.454 29.186L156.386 47.437C158.05 49.6815 163.029 53.5963 169.626 51.2963C177.873 48.4213 178.932 41.6114 178.78 39.1147L183.056 36.0942C183.179 36.9318 183.244 37.7887 183.244 38.6606C183.244 48.3128 175.419 56.1381 165.767 56.1381C156.115 56.1379 148.29 48.3127 148.29 38.6606C148.29 29.0086 156.115 21.1842 165.767 21.184ZM174.162 29.3686C170.029 24.8414 163.1 24.2764 158.287 28.0737L157.078 29.0278C152.383 32.7325 151.125 39.3249 154.126 44.4985L174.162 29.3686Z" fill="#8224E3"/>
<path d="M165.767 21.184V21.0327H165.767L165.767 21.184ZM180.454 29.186L180.546 29.3065L180.657 29.2217L180.581 29.1038L180.454 29.186ZM156.386 47.437L156.294 47.3164L156.175 47.4068L156.264 47.5271L156.386 47.437ZM169.626 51.2963L169.676 51.4392V51.4392L169.626 51.2963ZM178.78 39.1147L178.693 38.9911L178.624 39.0397L178.629 39.1238L178.78 39.1147ZM183.056 36.0942L183.205 36.0721L183.17 35.8285L182.968 35.9706L183.056 36.0942ZM183.244 38.6606H183.395V38.6606L183.244 38.6606ZM165.767 56.1381L165.767 56.2894H165.767V56.1381ZM148.29 38.6606L148.139 38.6606V38.6606H148.29ZM174.162 29.3686L174.253 29.4893L174.386 29.3892L174.274 29.2666L174.162 29.3686ZM158.287 28.0737L158.193 27.9549L158.193 27.9549L158.287 28.0737ZM157.078 29.0278L157.172 29.1466L157.172 29.1466L157.078 29.0278ZM154.126 44.4985L153.995 44.5744L154.081 44.7222L154.217 44.6192L154.126 44.4985ZM165.767 21.184V21.3353C171.873 21.3353 177.241 24.4947 180.327 29.2681L180.454 29.186L180.581 29.1038C177.442 24.2478 171.98 21.0327 165.767 21.0327V21.184ZM180.454 29.186L180.363 29.0654L156.294 47.3164L156.386 47.437L156.477 47.5575L180.546 29.3065L180.454 29.186ZM156.386 47.437L156.264 47.5271C157.951 49.8022 162.993 53.769 169.676 51.4392L169.626 51.2963L169.576 51.1534C163.064 53.4236 158.149 49.5607 156.507 47.3468L156.386 47.437ZM169.626 51.2963L169.676 51.4392C178.008 48.5346 179.085 41.6447 178.931 39.1055L178.78 39.1147L178.629 39.1238C178.778 41.5781 177.738 48.3081 169.576 51.1534L169.626 51.2963ZM178.78 39.1147L178.868 39.2383L183.143 36.2178L183.056 36.0942L182.968 35.9706L178.693 38.9911L178.78 39.1147ZM183.056 36.0942L182.906 36.1162C183.028 36.9468 183.093 37.7962 183.093 38.6606L183.244 38.6606L183.395 38.6606C183.395 37.7811 183.33 36.9169 183.205 36.0721L183.056 36.0942ZM183.244 38.6606H183.093C183.093 48.2293 175.335 55.9868 165.767 55.9868V56.1381V56.2894C175.502 56.2894 183.395 48.3964 183.395 38.6606H183.244ZM165.767 56.1381L165.767 55.9868C156.198 55.9866 148.441 48.2292 148.441 38.6606H148.29H148.139C148.139 48.3963 156.031 56.2892 165.767 56.2894L165.767 56.1381ZM148.29 38.6606L148.441 38.6606C148.442 29.0922 156.198 21.3356 165.767 21.3353L165.767 21.184L165.767 21.0327C156.031 21.0329 148.139 28.9251 148.139 38.6606L148.29 38.6606ZM174.162 29.3686L174.274 29.2666C170.087 24.6807 163.068 24.1084 158.193 27.9549L158.287 28.0737L158.381 28.1925C163.131 24.4443 169.97 25.002 174.05 29.4706L174.162 29.3686ZM158.287 28.0737L158.193 27.9549L156.984 28.909L157.078 29.0278L157.172 29.1466L158.381 28.1925L158.287 28.0737ZM157.078 29.0278L156.984 28.909C152.23 32.6604 150.956 39.3358 153.995 44.5744L154.126 44.4985L154.257 44.4226C151.294 39.3141 152.536 32.8047 157.172 29.1466L157.078 29.0278ZM154.126 44.4985L154.217 44.6192L174.253 29.4893L174.162 29.3686L174.071 29.2478L154.035 44.3777L154.126 44.4985Z" fill="#8224E3" mask="url(#path-7-inside-1_349_1693)"/>
<path d="M134.369 31.6252C139.801 31.6254 144.204 36.0292 144.204 41.4611V42.8224C144.204 48.2543 139.801 52.6582 134.369 52.6584H118.178V31.6252H134.369Z" stroke="#8224E3" stroke-width="4.53947"/>
<path d="M131.343 10.2889C136.607 10.2891 140.875 14.5574 140.875 19.8221C140.875 25.0868 136.607 29.3552 131.343 29.3553H118.178V10.2889H131.343Z" stroke="#8224E3" stroke-width="4.53947"/>
</svg>
