<svg width="184" height="67" viewBox="0 0 184 67" fill="none" xmlns="http://www.w3.org/2000/svg">
<path d="M58.7104 28.9446C58.7608 26.801 57.1216 22.4532 50.161 22.2111C41.4604 21.9084 37.9802 33.6352 50.161 36.2078C65.0656 39.3556 60.7531 52.6256 51.2959 52.2473C43.7301 51.9446 41.4352 47.1782 41.2334 44.8328" stroke="white" stroke-width="4.69079"/>
<path d="M110.612 22.6653V22.6653C104.087 22.8337 98.8848 28.1716 98.8848 34.6988V53.3067" stroke="white" stroke-width="4.69079"/>
<rect y="7.7605" width="4.38816" height="45.6974" fill="white"/>
<path d="M9.9873 53.3068V34.5437C9.9873 27.7746 15.4748 22.2871 22.2439 22.2871V22.2871C29.013 22.2871 34.5005 27.7746 34.5005 34.5437V53.3068" stroke="white" stroke-width="4.69079"/>
<path d="M66.7305 20.9251V39.6882C66.7305 46.4574 72.2179 51.9448 78.987 51.9448V51.9448C85.7562 51.9448 91.2436 46.4574 91.2436 39.6882V20.9251" stroke="white" stroke-width="4.69079"/>
<rect x="112.579" y="0.194824" width="71.4211" height="66.2763" rx="16.6447" fill="white"/>
<mask id="path-7-inside-1_50_712" fill="white">
<path d="M165.767 21.3789C171.926 21.3789 177.342 24.5661 180.454 29.3809L156.386 47.6318C158.05 49.8763 163.029 53.7912 169.626 51.4912C177.873 48.6162 178.932 41.8063 178.78 39.3096L183.056 36.2891C183.179 37.1267 183.244 37.9836 183.244 38.8555C183.244 48.5077 175.419 56.333 165.767 56.333C156.115 56.3328 148.29 48.5076 148.29 38.8555C148.29 29.2035 156.115 21.3791 165.767 21.3789ZM174.162 29.5635C170.029 25.0362 163.1 24.4712 158.287 28.2686L157.078 29.2227C152.383 32.9274 151.125 39.5198 154.126 44.6934L174.162 29.5635Z"/>
</mask>
<path d="M165.767 21.3789C171.926 21.3789 177.342 24.5661 180.454 29.3809L156.386 47.6318C158.05 49.8763 163.029 53.7912 169.626 51.4912C177.873 48.6162 178.932 41.8063 178.78 39.3096L183.056 36.2891C183.179 37.1267 183.244 37.9836 183.244 38.8555C183.244 48.5077 175.419 56.333 165.767 56.333C156.115 56.3328 148.29 48.5076 148.29 38.8555C148.29 29.2035 156.115 21.3791 165.767 21.3789ZM174.162 29.5635C170.029 25.0362 163.1 24.4712 158.287 28.2686L157.078 29.2227C152.383 32.9274 151.125 39.5198 154.126 44.6934L174.162 29.5635Z" fill="#8224E3"/>
<path d="M165.767 21.3789V21.2276H165.767L165.767 21.3789ZM180.454 29.3809L180.546 29.5014L180.657 29.4166L180.581 29.2987L180.454 29.3809ZM156.386 47.6318L156.294 47.5113L156.175 47.6017L156.264 47.722L156.386 47.6318ZM169.626 51.4912L169.676 51.6341L169.626 51.4912ZM178.78 39.3096L178.693 39.186L178.624 39.2346L178.629 39.3187L178.78 39.3096ZM183.056 36.2891L183.205 36.267L183.17 36.0234L182.968 36.1655L183.056 36.2891ZM183.244 38.8555H183.395V38.8555L183.244 38.8555ZM165.767 56.333L165.767 56.4843H165.767V56.333ZM148.29 38.8555L148.139 38.8555V38.8555H148.29ZM174.162 29.5635L174.253 29.6842L174.386 29.5841L174.274 29.4615L174.162 29.5635ZM158.287 28.2686L158.193 28.1498L158.193 28.1498L158.287 28.2686ZM157.078 29.2227L157.172 29.3414L157.172 29.3414L157.078 29.2227ZM154.126 44.6934L153.995 44.7693L154.081 44.9171L154.217 44.8141L154.126 44.6934ZM165.767 21.3789V21.5302C171.873 21.5302 177.241 24.6895 180.327 29.463L180.454 29.3809L180.581 29.2987C177.442 24.4427 171.98 21.2276 165.767 21.2276V21.3789ZM180.454 29.3809L180.363 29.2603L156.294 47.5113L156.386 47.6318L156.477 47.7524L180.546 29.5014L180.454 29.3809ZM156.386 47.6318L156.264 47.722C157.951 49.9971 162.993 53.9639 169.676 51.6341L169.626 51.4912L169.576 51.3483C163.064 53.6185 158.149 49.7556 156.507 47.5417L156.386 47.6318ZM169.626 51.4912L169.676 51.6341C178.008 48.7295 179.085 41.8396 178.931 39.3004L178.78 39.3096L178.629 39.3187C178.778 41.773 177.738 48.503 169.576 51.3483L169.626 51.4912ZM178.78 39.3096L178.868 39.4332L183.143 36.4126L183.056 36.2891L182.968 36.1655L178.693 39.186L178.78 39.3096ZM183.056 36.2891L182.906 36.3111C183.028 37.1416 183.093 37.9911 183.093 38.8555L183.244 38.8555L183.395 38.8555C183.395 37.976 183.33 37.1118 183.205 36.267L183.056 36.2891ZM183.244 38.8555H183.093C183.093 48.4242 175.335 56.1817 165.767 56.1817V56.333V56.4843C175.502 56.4843 183.395 48.5913 183.395 38.8555H183.244ZM165.767 56.333L165.767 56.1817C156.198 56.1815 148.441 48.424 148.441 38.8555H148.29H148.139C148.139 48.5912 156.031 56.4841 165.767 56.4843L165.767 56.333ZM148.29 38.8555L148.441 38.8555C148.442 29.2871 156.198 21.5304 165.767 21.5302L165.767 21.3789L165.767 21.2276C156.031 21.2278 148.139 29.12 148.139 38.8555L148.29 38.8555ZM174.162 29.5635L174.274 29.4615C170.087 24.8756 163.068 24.3033 158.193 28.1498L158.287 28.2686L158.381 28.3873C163.131 24.6392 169.97 25.1969 174.05 29.6655L174.162 29.5635ZM158.287 28.2686L158.193 28.1498L156.984 29.1039L157.078 29.2227L157.172 29.3414L158.381 28.3873L158.287 28.2686ZM157.078 29.2227L156.984 29.1039C152.23 32.8553 150.956 39.5306 153.995 44.7693L154.126 44.6934L154.257 44.6174C151.294 39.509 152.536 32.9996 157.172 29.3414L157.078 29.2227ZM154.126 44.6934L154.217 44.8141L174.253 29.6842L174.162 29.5635L174.071 29.4427L154.035 44.5726L154.126 44.6934Z" fill="#8224E3" mask="url(#path-7-inside-1_50_712)"/>
<path d="M134.369 31.8201C139.801 31.8203 144.204 36.2241 144.204 41.656V43.0173C144.204 48.4492 139.801 52.8531 134.369 52.8533H118.178V31.8201H134.369Z" stroke="#8224E3" stroke-width="4.53947"/>
<path d="M131.343 10.4839C136.607 10.4841 140.875 14.7523 140.875 20.0171C140.875 25.2818 136.607 29.5501 131.343 29.5503H118.178V10.4839H131.343Z" stroke="#8224E3" stroke-width="4.53947"/>
</svg>
