<svg width="108" height="40" viewBox="0 0 108 40" fill="none" xmlns="http://www.w3.org/2000/svg">
<path d="M34.4604 17.4242C34.49 16.166 33.5278 13.614 29.4423 13.4719C24.3354 13.2943 22.2926 20.1774 29.4423 21.6873C38.1906 23.535 35.6594 31.3239 30.1084 31.1018C25.6676 30.9242 24.3206 28.1265 24.2021 26.7499" stroke="#531D6F" stroke-width="2.75329"/>
<path d="M64.9242 13.7385V13.7385C61.0943 13.8373 58.041 16.9705 58.041 20.8016V31.7237" stroke="#531D6F" stroke-width="2.75329"/>
<rect y="4.99013" width="2.57566" height="26.8224" fill="#531D6F"/>
<path d="M5.8623 31.7236V20.7105C5.8623 16.7373 9.0832 13.5164 13.0564 13.5164V13.5164C17.0296 13.5164 20.2505 16.7373 20.2505 20.7105V31.7236" stroke="#531D6F" stroke-width="2.75329"/>
<path d="M39.168 12.7171V23.7303C39.168 27.7034 42.3889 30.9243 46.362 30.9243V30.9243C50.3352 30.9243 53.5561 27.7034 53.5561 23.7303V12.7171" stroke="#531D6F" stroke-width="2.75329"/>
<rect x="66.0791" y="0.549341" width="41.9211" height="38.9013" rx="9.76974" fill="#531D6F"/>
<path d="M97.2979 12.9835C100.913 12.9835 104.09 14.8556 105.917 17.6817L91.792 28.3926C92.769 29.7101 95.6911 32.0082 99.5635 30.6583C104.404 28.9708 105.025 24.9733 104.937 23.5079L107.445 21.7344C107.518 22.2263 107.557 22.7293 107.557 23.2413C107.557 28.9067 102.963 33.5001 97.2979 33.5001C91.6326 33.4998 87.04 28.9066 87.04 23.2413C87.0403 17.5761 91.6327 12.9837 97.2979 12.9835ZM102.225 17.7882C99.7985 15.1308 95.7321 14.7985 92.9072 17.0274L92.1973 17.587C89.4414 19.7615 88.7035 23.6314 90.4648 26.668L102.225 17.7882Z" fill="white"/>
<path d="M78.8691 19.1116C82.0573 19.1118 84.6416 21.6968 84.6416 24.885V25.6839C84.6416 28.8721 82.0573 31.4571 78.8691 31.4573H69.3652V19.1116H78.8691Z" stroke="white" stroke-width="2.66447"/>
<path d="M77.0928 6.58865C80.1829 6.58884 82.6875 9.09422 82.6875 12.1844C82.6874 15.2744 80.1828 17.7799 77.0928 17.7801H69.3652V6.58865H77.0928Z" stroke="white" stroke-width="2.66447"/>
</svg>
