<svg width="310" height="198" viewBox="0 0 310 198" fill="none" xmlns="http://www.w3.org/2000/svg">
<rect width="310" height="198" rx="24" fill="white"/>
<path d="M36.654 141.67L39.93 132.4H41.64L36.69 145.63L32.91 135.838L29.13 145.63L24.18 132.4H25.89L29.238 141.67L32.91 131.77L36.654 141.67ZM44.9368 145.18C44.1688 145.18 43.4848 145 42.8848 144.64C42.2968 144.268 41.8348 143.758 41.4988 143.11C41.1748 142.462 41.0128 141.712 41.0128 140.86C41.0128 139.996 41.1808 139.24 41.5168 138.592C41.8648 137.944 42.3448 137.44 42.9568 137.08C43.5808 136.72 44.3008 136.54 45.1168 136.54C45.9328 136.54 46.6288 136.714 47.2048 137.062C47.7928 137.398 48.2428 137.884 48.5548 138.52C48.8668 139.156 49.0228 139.912 49.0228 140.788C49.0228 140.872 49.0168 140.962 49.0048 141.058C49.0048 141.142 49.0048 141.196 49.0048 141.22H41.9308V139.996H47.8708L47.2948 140.824C47.3308 140.764 47.3668 140.674 47.4028 140.554C47.4388 140.422 47.4568 140.314 47.4568 140.23C47.4568 139.738 47.3548 139.312 47.1508 138.952C46.9588 138.592 46.6888 138.31 46.3408 138.106C45.9928 137.902 45.5848 137.8 45.1168 137.8C44.5648 137.8 44.0908 137.92 43.6948 138.16C43.3108 138.388 43.0108 138.724 42.7948 139.168C42.5908 139.6 42.4828 140.134 42.4708 140.77C42.4708 141.418 42.5728 141.97 42.7768 142.426C42.9808 142.882 43.2808 143.23 43.6768 143.47C44.0728 143.71 44.5528 143.83 45.1168 143.83C45.6808 143.83 46.1788 143.71 46.6108 143.47C47.0428 143.218 47.4088 142.84 47.7088 142.336L48.8788 143.074C48.4468 143.77 47.9008 144.298 47.2408 144.658C46.5928 145.006 45.8248 145.18 44.9368 145.18ZM57.041 142.444C57.041 142.756 57.113 143.026 57.257 143.254C57.413 143.482 57.623 143.656 57.887 143.776C58.163 143.884 58.475 143.938 58.823 143.938C59.267 143.938 59.663 143.848 60.011 143.668C60.371 143.488 60.653 143.236 60.857 142.912C61.073 142.576 61.181 142.192 61.181 141.76L61.469 142.84C61.469 143.368 61.307 143.806 60.983 144.154C60.671 144.502 60.281 144.76 59.813 144.928C59.357 145.096 58.901 145.18 58.445 145.18C57.941 145.18 57.467 145.078 57.023 144.874C56.591 144.658 56.243 144.352 55.979 143.956C55.715 143.56 55.583 143.08 55.583 142.516C55.583 141.712 55.865 141.07 56.429 140.59C57.005 140.098 57.803 139.852 58.823 139.852C59.423 139.852 59.921 139.924 60.317 140.068C60.725 140.2 61.049 140.356 61.289 140.536C61.529 140.704 61.691 140.842 61.775 140.95V141.796C61.355 141.508 60.923 141.304 60.479 141.184C60.035 141.052 59.561 140.986 59.057 140.986C58.589 140.986 58.205 141.046 57.905 141.166C57.617 141.286 57.401 141.454 57.257 141.67C57.113 141.886 57.041 142.144 57.041 142.444ZM56.825 138.628L56.123 137.566C56.435 137.338 56.861 137.11 57.401 136.882C57.953 136.654 58.613 136.54 59.381 136.54C60.029 136.54 60.593 136.642 61.073 136.846C61.565 137.038 61.943 137.32 62.207 137.692C62.483 138.064 62.621 138.52 62.621 139.06V145H61.181V139.258C61.181 138.97 61.133 138.736 61.037 138.556C60.941 138.364 60.803 138.214 60.623 138.106C60.455 137.998 60.257 137.92 60.029 137.872C59.801 137.824 59.561 137.8 59.309 137.8C58.901 137.8 58.529 137.848 58.193 137.944C57.869 138.04 57.593 138.154 57.365 138.286C57.137 138.418 56.957 138.532 56.825 138.628ZM66.499 136.72V145H65.059V136.72H66.499ZM69.001 138.304C68.809 138.16 68.635 138.058 68.479 137.998C68.323 137.926 68.125 137.89 67.885 137.89C67.525 137.89 67.243 137.98 67.039 138.16C66.835 138.34 66.691 138.586 66.607 138.898C66.535 139.21 66.499 139.564 66.499 139.96H65.851C65.851 139.3 65.965 138.718 66.193 138.214C66.433 137.698 66.739 137.29 67.111 136.99C67.483 136.69 67.861 136.54 68.245 136.54C68.545 136.54 68.821 136.582 69.073 136.666C69.337 136.738 69.577 136.888 69.793 137.116L69.001 138.304ZM74.1692 145.18C73.4012 145.18 72.7172 145 72.1172 144.64C71.5292 144.268 71.0672 143.758 70.7312 143.11C70.4072 142.462 70.2452 141.712 70.2452 140.86C70.2452 139.996 70.4132 139.24 70.7492 138.592C71.0972 137.944 71.5772 137.44 72.1892 137.08C72.8132 136.72 73.5332 136.54 74.3492 136.54C75.1652 136.54 75.8612 136.714 76.4372 137.062C77.0252 137.398 77.4752 137.884 77.7872 138.52C78.0992 139.156 78.2552 139.912 78.2552 140.788C78.2552 140.872 78.2492 140.962 78.2372 141.058C78.2372 141.142 78.2372 141.196 78.2372 141.22H71.1632V139.996H77.1032L76.5272 140.824C76.5632 140.764 76.5992 140.674 76.6352 140.554C76.6712 140.422 76.6892 140.314 76.6892 140.23C76.6892 139.738 76.5872 139.312 76.3832 138.952C76.1912 138.592 75.9212 138.31 75.5732 138.106C75.2252 137.902 74.8172 137.8 74.3492 137.8C73.7972 137.8 73.3232 137.92 72.9272 138.16C72.5432 138.388 72.2432 138.724 72.0272 139.168C71.8232 139.6 71.7152 140.134 71.7032 140.77C71.7032 141.418 71.8052 141.97 72.0092 142.426C72.2132 142.882 72.5132 143.23 72.9092 143.47C73.3052 143.71 73.7852 143.83 74.3492 143.83C74.9132 143.83 75.4112 143.71 75.8432 143.47C76.2752 143.218 76.6412 142.84 76.9412 142.336L78.1112 143.074C77.6792 143.77 77.1332 144.298 76.4732 144.658C75.8252 145.006 75.0572 145.18 74.1692 145.18ZM84.3654 136.72H88.5054V138.07H84.3654V136.72ZM85.7154 133.84H87.1554V145H85.7154V133.84ZM91.3896 136.72V145H89.9496V136.72H91.3896ZM93.8916 138.304C93.6996 138.16 93.5256 138.058 93.3696 137.998C93.2136 137.926 93.0156 137.89 92.7756 137.89C92.4156 137.89 92.1336 137.98 91.9296 138.16C91.7256 138.34 91.5816 138.586 91.4976 138.898C91.4256 139.21 91.3896 139.564 91.3896 139.96H90.7416C90.7416 139.3 90.8556 138.718 91.0836 138.214C91.3236 137.698 91.6296 137.29 92.0016 136.99C92.3736 136.69 92.7516 136.54 93.1356 136.54C93.4356 136.54 93.7116 136.582 93.9636 136.666C94.2276 136.738 94.4676 136.888 94.6836 137.116L93.8916 138.304ZM97.5595 141.76C97.5595 142.42 97.7095 142.93 98.0095 143.29C98.3095 143.65 98.7475 143.83 99.3235 143.83C99.7435 143.83 100.11 143.746 100.422 143.578C100.746 143.398 100.992 143.152 101.16 142.84C101.34 142.528 101.43 142.168 101.43 141.76V136.72H102.87V145H101.43V143.704C101.154 144.196 100.812 144.568 100.404 144.82C99.9955 145.06 99.5155 145.18 98.9635 145.18C98.0995 145.18 97.4095 144.886 96.8935 144.298C96.3775 143.71 96.1195 142.924 96.1195 141.94V136.72H97.5595V141.76ZM105.919 142.462C106.087 142.714 106.279 142.948 106.495 143.164C106.711 143.38 106.957 143.554 107.233 143.686C107.521 143.806 107.833 143.866 108.169 143.866C108.577 143.866 108.895 143.776 109.123 143.596C109.363 143.404 109.483 143.146 109.483 142.822C109.483 142.534 109.387 142.294 109.195 142.102C109.015 141.898 108.781 141.73 108.493 141.598C108.205 141.454 107.899 141.322 107.575 141.202C107.215 141.058 106.849 140.89 106.477 140.698C106.117 140.494 105.811 140.236 105.559 139.924C105.319 139.6 105.199 139.198 105.199 138.718C105.199 138.226 105.325 137.818 105.577 137.494C105.841 137.17 106.177 136.93 106.585 136.774C107.005 136.618 107.437 136.54 107.881 136.54C108.325 136.54 108.739 136.612 109.123 136.756C109.519 136.9 109.867 137.092 110.167 137.332C110.467 137.572 110.701 137.848 110.869 138.16L109.717 138.898C109.489 138.586 109.201 138.328 108.853 138.124C108.517 137.92 108.133 137.818 107.701 137.818C107.401 137.818 107.143 137.884 106.927 138.016C106.711 138.148 106.603 138.352 106.603 138.628C106.603 138.844 106.687 139.036 106.855 139.204C107.023 139.372 107.239 139.522 107.503 139.654C107.767 139.786 108.043 139.912 108.331 140.032C108.811 140.224 109.249 140.434 109.645 140.662C110.041 140.878 110.353 141.142 110.581 141.454C110.821 141.766 110.941 142.168 110.941 142.66C110.941 143.38 110.677 143.98 110.149 144.46C109.633 144.94 108.949 145.18 108.097 145.18C107.545 145.18 107.047 145.084 106.603 144.892C106.159 144.688 105.781 144.43 105.469 144.118C105.169 143.806 104.941 143.488 104.785 143.164L105.919 142.462ZM111.576 136.72H115.716V138.07H111.576V136.72ZM112.926 133.84H114.366V145H112.926V133.84ZM120.365 145.18C119.597 145.18 118.913 145 118.313 144.64C117.725 144.268 117.263 143.758 116.927 143.11C116.603 142.462 116.441 141.712 116.441 140.86C116.441 139.996 116.609 139.24 116.945 138.592C117.293 137.944 117.773 137.44 118.385 137.08C119.009 136.72 119.729 136.54 120.545 136.54C121.361 136.54 122.057 136.714 122.633 137.062C123.221 137.398 123.671 137.884 123.983 138.52C124.295 139.156 124.451 139.912 124.451 140.788C124.451 140.872 124.445 140.962 124.433 141.058C124.433 141.142 124.433 141.196 124.433 141.22H117.359V139.996H123.299L122.723 140.824C122.759 140.764 122.795 140.674 122.831 140.554C122.867 140.422 122.885 140.314 122.885 140.23C122.885 139.738 122.783 139.312 122.579 138.952C122.387 138.592 122.117 138.31 121.769 138.106C121.421 137.902 121.013 137.8 120.545 137.8C119.993 137.8 119.519 137.92 119.123 138.16C118.739 138.388 118.439 138.724 118.223 139.168C118.019 139.6 117.911 140.134 117.899 140.77C117.899 141.418 118.001 141.97 118.205 142.426C118.409 142.882 118.709 143.23 119.105 143.47C119.501 143.71 119.981 143.83 120.545 143.83C121.109 143.83 121.607 143.71 122.039 143.47C122.471 143.218 122.837 142.84 123.137 142.336L124.307 143.074C123.875 143.77 123.329 144.298 122.669 144.658C122.021 145.006 121.253 145.18 120.365 145.18ZM132.634 130.96H134.074V145H132.634V130.96ZM125.704 140.86C125.704 139.96 125.89 139.192 126.262 138.556C126.634 137.908 127.132 137.41 127.756 137.062C128.38 136.714 129.064 136.54 129.808 136.54C130.504 136.54 131.11 136.714 131.626 137.062C132.142 137.41 132.544 137.908 132.832 138.556C133.132 139.192 133.282 139.96 133.282 140.86C133.282 141.748 133.132 142.516 132.832 143.164C132.544 143.812 132.142 144.31 131.626 144.658C131.11 145.006 130.504 145.18 129.808 145.18C129.064 145.18 128.38 145.006 127.756 144.658C127.132 144.31 126.634 143.812 126.262 143.164C125.89 142.516 125.704 141.748 125.704 140.86ZM127.162 140.86C127.162 141.496 127.288 142.036 127.54 142.48C127.804 142.924 128.152 143.26 128.584 143.488C129.016 143.716 129.484 143.83 129.988 143.83C130.408 143.83 130.822 143.716 131.23 143.488C131.638 143.26 131.974 142.924 132.238 142.48C132.502 142.036 132.634 141.496 132.634 140.86C132.634 140.224 132.502 139.684 132.238 139.24C131.974 138.796 131.638 138.46 131.23 138.232C130.822 138.004 130.408 137.89 129.988 137.89C129.484 137.89 129.016 138.004 128.584 138.232C128.152 138.46 127.804 138.796 127.54 139.24C127.288 139.684 127.162 140.224 127.162 140.86ZM143.436 130.96V145H141.996V130.96H143.436ZM150.366 140.86C150.366 141.748 150.18 142.516 149.808 143.164C149.436 143.812 148.938 144.31 148.314 144.658C147.702 145.006 147.018 145.18 146.262 145.18C145.578 145.18 144.972 145.006 144.444 144.658C143.928 144.31 143.52 143.812 143.22 143.164C142.932 142.516 142.788 141.748 142.788 140.86C142.788 139.96 142.932 139.192 143.22 138.556C143.52 137.908 143.928 137.41 144.444 137.062C144.972 136.714 145.578 136.54 146.262 136.54C147.018 136.54 147.702 136.714 148.314 137.062C148.938 137.41 149.436 137.908 149.808 138.556C150.18 139.192 150.366 139.96 150.366 140.86ZM148.908 140.86C148.908 140.224 148.776 139.684 148.512 139.24C148.26 138.796 147.918 138.46 147.486 138.232C147.066 138.004 146.598 137.89 146.082 137.89C145.662 137.89 145.248 138.004 144.84 138.232C144.432 138.46 144.096 138.796 143.832 139.24C143.568 139.684 143.436 140.224 143.436 140.86C143.436 141.496 143.568 142.036 143.832 142.48C144.096 142.924 144.432 143.26 144.84 143.488C145.248 143.716 145.662 143.83 146.082 143.83C146.598 143.83 147.066 143.716 147.486 143.488C147.918 143.26 148.26 142.924 148.512 142.48C148.776 142.036 148.908 141.496 148.908 140.86ZM158.658 136.72L153.258 148.96H151.638L153.906 143.83L150.738 136.72H152.448L155.076 143.2L154.482 143.128L157.038 136.72H158.658ZM165.503 132.4H167.033V145H165.503V132.4ZM166.349 133.84V132.4H168.923C169.739 132.4 170.465 132.556 171.101 132.868C171.749 133.168 172.259 133.6 172.631 134.164C173.015 134.728 173.207 135.4 173.207 136.18C173.207 136.948 173.015 137.62 172.631 138.196C172.259 138.76 171.749 139.198 171.101 139.51C170.465 139.81 169.739 139.96 168.923 139.96H166.349V138.52H168.923C169.739 138.52 170.399 138.322 170.903 137.926C171.419 137.53 171.677 136.948 171.677 136.18C171.677 135.4 171.419 134.818 170.903 134.434C170.399 134.038 169.739 133.84 168.923 133.84H166.349ZM176.362 136.72V145H174.922V136.72H176.362ZM178.864 138.304C178.672 138.16 178.498 138.058 178.342 137.998C178.186 137.926 177.988 137.89 177.748 137.89C177.388 137.89 177.106 137.98 176.902 138.16C176.698 138.34 176.554 138.586 176.47 138.898C176.398 139.21 176.362 139.564 176.362 139.96H175.714C175.714 139.3 175.828 138.718 176.056 138.214C176.296 137.698 176.602 137.29 176.974 136.99C177.346 136.69 177.724 136.54 178.108 136.54C178.408 136.54 178.684 136.582 178.936 136.666C179.2 136.738 179.44 136.888 179.656 137.116L178.864 138.304ZM180.109 140.86C180.109 140.02 180.295 139.276 180.667 138.628C181.051 137.98 181.567 137.47 182.215 137.098C182.863 136.726 183.589 136.54 184.393 136.54C185.209 136.54 185.935 136.726 186.571 137.098C187.219 137.47 187.729 137.98 188.101 138.628C188.485 139.276 188.677 140.02 188.677 140.86C188.677 141.688 188.485 142.432 188.101 143.092C187.729 143.74 187.219 144.25 186.571 144.622C185.935 144.994 185.209 145.18 184.393 145.18C183.589 145.18 182.863 144.994 182.215 144.622C181.567 144.25 181.051 143.74 180.667 143.092C180.295 142.432 180.109 141.688 180.109 140.86ZM181.567 140.86C181.567 141.436 181.687 141.946 181.927 142.39C182.179 142.834 182.515 143.188 182.935 143.452C183.367 143.704 183.853 143.83 184.393 143.83C184.933 143.83 185.413 143.704 185.833 143.452C186.265 143.188 186.601 142.834 186.841 142.39C187.093 141.946 187.219 141.436 187.219 140.86C187.219 140.284 187.093 139.774 186.841 139.33C186.601 138.874 186.265 138.52 185.833 138.268C185.413 138.016 184.933 137.89 184.393 137.89C183.853 137.89 183.367 138.016 182.935 138.268C182.515 138.52 182.179 138.874 181.927 139.33C181.687 139.774 181.567 140.284 181.567 140.86ZM190.025 136.72H194.165V138.07H190.025V136.72ZM194.021 132.688C193.901 132.484 193.757 132.358 193.589 132.31C193.433 132.25 193.283 132.22 193.139 132.22C192.959 132.22 192.803 132.274 192.671 132.382C192.551 132.478 192.455 132.646 192.383 132.886C192.311 133.126 192.275 133.444 192.275 133.84V145H190.835V133.66C190.835 133 190.931 132.46 191.123 132.04C191.315 131.62 191.585 131.308 191.933 131.104C192.293 130.888 192.725 130.78 193.229 130.78C193.493 130.78 193.727 130.816 193.931 130.888C194.135 130.96 194.309 131.05 194.453 131.158C194.609 131.266 194.729 131.38 194.813 131.5L194.021 132.688ZM199.009 145.18C198.241 145.18 197.557 145 196.957 144.64C196.369 144.268 195.907 143.758 195.571 143.11C195.247 142.462 195.085 141.712 195.085 140.86C195.085 139.996 195.253 139.24 195.589 138.592C195.937 137.944 196.417 137.44 197.029 137.08C197.653 136.72 198.373 136.54 199.189 136.54C200.005 136.54 200.701 136.714 201.277 137.062C201.865 137.398 202.315 137.884 202.627 138.52C202.939 139.156 203.095 139.912 203.095 140.788C203.095 140.872 203.089 140.962 203.077 141.058C203.077 141.142 203.077 141.196 203.077 141.22H196.003V139.996H201.943L201.367 140.824C201.403 140.764 201.439 140.674 201.475 140.554C201.511 140.422 201.529 140.314 201.529 140.23C201.529 139.738 201.427 139.312 201.223 138.952C201.031 138.592 200.761 138.31 200.413 138.106C200.065 137.902 199.657 137.8 199.189 137.8C198.637 137.8 198.163 137.92 197.767 138.16C197.383 138.388 197.083 138.724 196.867 139.168C196.663 139.6 196.555 140.134 196.543 140.77C196.543 141.418 196.645 141.97 196.849 142.426C197.053 142.882 197.353 143.23 197.749 143.47C198.145 143.71 198.625 143.83 199.189 143.83C199.753 143.83 200.251 143.71 200.683 143.47C201.115 143.218 201.481 142.84 201.781 142.336L202.951 143.074C202.519 143.77 201.973 144.298 201.313 144.658C200.665 145.006 199.897 145.18 199.009 145.18ZM205.411 142.462C205.579 142.714 205.771 142.948 205.987 143.164C206.203 143.38 206.449 143.554 206.725 143.686C207.013 143.806 207.325 143.866 207.661 143.866C208.069 143.866 208.387 143.776 208.615 143.596C208.855 143.404 208.975 143.146 208.975 142.822C208.975 142.534 208.879 142.294 208.687 142.102C208.507 141.898 208.273 141.73 207.985 141.598C207.697 141.454 207.391 141.322 207.067 141.202C206.707 141.058 206.341 140.89 205.969 140.698C205.609 140.494 205.303 140.236 205.051 139.924C204.811 139.6 204.691 139.198 204.691 138.718C204.691 138.226 204.817 137.818 205.069 137.494C205.333 137.17 205.669 136.93 206.077 136.774C206.497 136.618 206.929 136.54 207.373 136.54C207.817 136.54 208.231 136.612 208.615 136.756C209.011 136.9 209.359 137.092 209.659 137.332C209.959 137.572 210.193 137.848 210.361 138.16L209.209 138.898C208.981 138.586 208.693 138.328 208.345 138.124C208.009 137.92 207.625 137.818 207.193 137.818C206.893 137.818 206.635 137.884 206.419 138.016C206.203 138.148 206.095 138.352 206.095 138.628C206.095 138.844 206.179 139.036 206.347 139.204C206.515 139.372 206.731 139.522 206.995 139.654C207.259 139.786 207.535 139.912 207.823 140.032C208.303 140.224 208.741 140.434 209.137 140.662C209.533 140.878 209.845 141.142 210.073 141.454C210.313 141.766 210.433 142.168 210.433 142.66C210.433 143.38 210.169 143.98 209.641 144.46C209.125 144.94 208.441 145.18 207.589 145.18C207.037 145.18 206.539 145.084 206.095 144.892C205.651 144.688 205.273 144.43 204.961 144.118C204.661 143.806 204.433 143.488 204.277 143.164L205.411 142.462ZM212.671 142.462C212.839 142.714 213.031 142.948 213.247 143.164C213.463 143.38 213.709 143.554 213.985 143.686C214.273 143.806 214.585 143.866 214.921 143.866C215.329 143.866 215.647 143.776 215.875 143.596C216.115 143.404 216.235 143.146 216.235 142.822C216.235 142.534 216.139 142.294 215.947 142.102C215.767 141.898 215.533 141.73 215.245 141.598C214.957 141.454 214.651 141.322 214.327 141.202C213.967 141.058 213.601 140.89 213.229 140.698C212.869 140.494 212.563 140.236 212.311 139.924C212.071 139.6 211.951 139.198 211.951 138.718C211.951 138.226 212.077 137.818 212.329 137.494C212.593 137.17 212.929 136.93 213.337 136.774C213.757 136.618 214.189 136.54 214.633 136.54C215.077 136.54 215.491 136.612 215.875 136.756C216.271 136.9 216.619 137.092 216.919 137.332C217.219 137.572 217.453 137.848 217.621 138.16L216.469 138.898C216.241 138.586 215.953 138.328 215.605 138.124C215.269 137.92 214.885 137.818 214.453 137.818C214.153 137.818 213.895 137.884 213.679 138.016C213.463 138.148 213.355 138.352 213.355 138.628C213.355 138.844 213.439 139.036 213.607 139.204C213.775 139.372 213.991 139.522 214.255 139.654C214.519 139.786 214.795 139.912 215.083 140.032C215.563 140.224 216.001 140.434 216.397 140.662C216.793 140.878 217.105 141.142 217.333 141.454C217.573 141.766 217.693 142.168 217.693 142.66C217.693 143.38 217.429 143.98 216.901 144.46C216.385 144.94 215.701 145.18 214.849 145.18C214.297 145.18 213.799 145.084 213.355 144.892C212.911 144.688 212.533 144.43 212.221 144.118C211.921 143.806 211.693 143.488 211.537 143.164L212.671 142.462ZM219.588 133.3C219.588 133.024 219.684 132.79 219.876 132.598C220.08 132.406 220.314 132.31 220.578 132.31C220.854 132.31 221.088 132.406 221.28 132.598C221.472 132.79 221.568 133.024 221.568 133.3C221.568 133.564 221.472 133.798 221.28 134.002C221.088 134.194 220.854 134.29 220.578 134.29C220.314 134.29 220.08 134.194 219.876 134.002C219.684 133.798 219.588 133.564 219.588 133.3ZM219.858 136.72H221.298V145H219.858V136.72ZM223.544 140.86C223.544 140.02 223.73 139.276 224.102 138.628C224.486 137.98 225.002 137.47 225.65 137.098C226.298 136.726 227.024 136.54 227.828 136.54C228.644 136.54 229.37 136.726 230.006 137.098C230.654 137.47 231.164 137.98 231.536 138.628C231.92 139.276 232.112 140.02 232.112 140.86C232.112 141.688 231.92 142.432 231.536 143.092C231.164 143.74 230.654 144.25 230.006 144.622C229.37 144.994 228.644 145.18 227.828 145.18C227.024 145.18 226.298 144.994 225.65 144.622C225.002 144.25 224.486 143.74 224.102 143.092C223.73 142.432 223.544 141.688 223.544 140.86ZM225.002 140.86C225.002 141.436 225.122 141.946 225.362 142.39C225.614 142.834 225.95 143.188 226.37 143.452C226.802 143.704 227.288 143.83 227.828 143.83C228.368 143.83 228.848 143.704 229.268 143.452C229.7 143.188 230.036 142.834 230.276 142.39C230.528 141.946 230.654 141.436 230.654 140.86C230.654 140.284 230.528 139.774 230.276 139.33C230.036 138.874 229.7 138.52 229.268 138.268C228.848 138.016 228.368 137.89 227.828 137.89C227.288 137.89 226.802 138.016 226.37 138.268C225.95 138.52 225.614 138.874 225.362 139.33C225.122 139.774 225.002 140.284 225.002 140.86ZM239.4 139.96C239.4 139.276 239.25 138.76 238.95 138.412C238.65 138.064 238.212 137.89 237.636 137.89C237.216 137.89 236.844 137.98 236.52 138.16C236.208 138.328 235.962 138.568 235.782 138.88C235.614 139.192 235.53 139.552 235.53 139.96V145H234.09V136.72H235.53V138.016C235.806 137.512 236.148 137.14 236.556 136.9C236.976 136.66 237.456 136.54 237.996 136.54C238.872 136.54 239.562 136.834 240.066 137.422C240.582 137.998 240.84 138.784 240.84 139.78V145H239.4V139.96ZM244.195 142.444C244.195 142.756 244.267 143.026 244.411 143.254C244.567 143.482 244.777 143.656 245.041 143.776C245.317 143.884 245.629 143.938 245.977 143.938C246.421 143.938 246.817 143.848 247.165 143.668C247.525 143.488 247.807 143.236 248.011 142.912C248.227 142.576 248.335 142.192 248.335 141.76L248.623 142.84C248.623 143.368 248.461 143.806 248.137 144.154C247.825 144.502 247.435 144.76 246.967 144.928C246.511 145.096 246.055 145.18 245.599 145.18C245.095 145.18 244.621 145.078 244.177 144.874C243.745 144.658 243.397 144.352 243.133 143.956C242.869 143.56 242.737 143.08 242.737 142.516C242.737 141.712 243.019 141.07 243.583 140.59C244.159 140.098 244.957 139.852 245.977 139.852C246.577 139.852 247.075 139.924 247.471 140.068C247.879 140.2 248.203 140.356 248.443 140.536C248.683 140.704 248.845 140.842 248.929 140.95V141.796C248.509 141.508 248.077 141.304 247.633 141.184C247.189 141.052 246.715 140.986 246.211 140.986C245.743 140.986 245.359 141.046 245.059 141.166C244.771 141.286 244.555 141.454 244.411 141.67C244.267 141.886 244.195 142.144 244.195 142.444ZM243.979 138.628L243.277 137.566C243.589 137.338 244.015 137.11 244.555 136.882C245.107 136.654 245.767 136.54 246.535 136.54C247.183 136.54 247.747 136.642 248.227 136.846C248.719 137.038 249.097 137.32 249.361 137.692C249.637 138.064 249.775 138.52 249.775 139.06V145H248.335V139.258C248.335 138.97 248.287 138.736 248.191 138.556C248.095 138.364 247.957 138.214 247.777 138.106C247.609 137.998 247.411 137.92 247.183 137.872C246.955 137.824 246.715 137.8 246.463 137.8C246.055 137.8 245.683 137.848 245.347 137.944C245.023 138.04 244.747 138.154 244.519 138.286C244.291 138.418 244.111 138.532 243.979 138.628ZM252.213 130.96H253.653V145H252.213V130.96ZM256.704 142.462C256.872 142.714 257.064 142.948 257.28 143.164C257.496 143.38 257.742 143.554 258.018 143.686C258.306 143.806 258.618 143.866 258.954 143.866C259.362 143.866 259.68 143.776 259.908 143.596C260.148 143.404 260.268 143.146 260.268 142.822C260.268 142.534 260.172 142.294 259.98 142.102C259.8 141.898 259.566 141.73 259.278 141.598C258.99 141.454 258.684 141.322 258.36 141.202C258 141.058 257.634 140.89 257.262 140.698C256.902 140.494 256.596 140.236 256.344 139.924C256.104 139.6 255.984 139.198 255.984 138.718C255.984 138.226 256.11 137.818 256.362 137.494C256.626 137.17 256.962 136.93 257.37 136.774C257.79 136.618 258.222 136.54 258.666 136.54C259.11 136.54 259.524 136.612 259.908 136.756C260.304 136.9 260.652 137.092 260.952 137.332C261.252 137.572 261.486 137.848 261.654 138.16L260.502 138.898C260.274 138.586 259.986 138.328 259.638 138.124C259.302 137.92 258.918 137.818 258.486 137.818C258.186 137.818 257.928 137.884 257.712 138.016C257.496 138.148 257.388 138.352 257.388 138.628C257.388 138.844 257.472 139.036 257.64 139.204C257.808 139.372 258.024 139.522 258.288 139.654C258.552 139.786 258.828 139.912 259.116 140.032C259.596 140.224 260.034 140.434 260.43 140.662C260.826 140.878 261.138 141.142 261.366 141.454C261.606 141.766 261.726 142.168 261.726 142.66C261.726 143.38 261.462 143.98 260.934 144.46C260.418 144.94 259.734 145.18 258.882 145.18C258.33 145.18 257.832 145.084 257.388 144.892C256.944 144.688 256.566 144.43 256.254 144.118C255.954 143.806 255.726 143.488 255.57 143.164L256.704 142.462ZM25.998 168.444C25.998 168.756 26.07 169.026 26.214 169.254C26.37 169.482 26.58 169.656 26.844 169.776C27.12 169.884 27.432 169.938 27.78 169.938C28.224 169.938 28.62 169.848 28.968 169.668C29.328 169.488 29.61 169.236 29.814 168.912C30.03 168.576 30.138 168.192 30.138 167.76L30.426 168.84C30.426 169.368 30.264 169.806 29.94 170.154C29.628 170.502 29.238 170.76 28.77 170.928C28.314 171.096 27.858 171.18 27.402 171.18C26.898 171.18 26.424 171.078 25.98 170.874C25.548 170.658 25.2 170.352 24.936 169.956C24.672 169.56 24.54 169.08 24.54 168.516C24.54 167.712 24.822 167.07 25.386 166.59C25.962 166.098 26.76 165.852 27.78 165.852C28.38 165.852 28.878 165.924 29.274 166.068C29.682 166.2 30.006 166.356 30.246 166.536C30.486 166.704 30.648 166.842 30.732 166.95V167.796C30.312 167.508 29.88 167.304 29.436 167.184C28.992 167.052 28.518 166.986 28.014 166.986C27.546 166.986 27.162 167.046 26.862 167.166C26.574 167.286 26.358 167.454 26.214 167.67C26.07 167.886 25.998 168.144 25.998 168.444ZM25.782 164.628L25.08 163.566C25.392 163.338 25.818 163.11 26.358 162.882C26.91 162.654 27.57 162.54 28.338 162.54C28.986 162.54 29.55 162.642 30.03 162.846C30.522 163.038 30.9 163.32 31.164 163.692C31.44 164.064 31.578 164.52 31.578 165.06V171H30.138V165.258C30.138 164.97 30.09 164.736 29.994 164.556C29.898 164.364 29.76 164.214 29.58 164.106C29.412 163.998 29.214 163.92 28.986 163.872C28.758 163.824 28.518 163.8 28.266 163.8C27.858 163.8 27.486 163.848 27.15 163.944C26.826 164.04 26.55 164.154 26.322 164.286C26.094 164.418 25.914 164.532 25.782 164.628ZM34.016 156.96H35.456V171H34.016V156.96ZM38.1645 156.96H39.6045V171H38.1645V156.96ZM46.9894 166.86C46.9894 166.02 47.1754 165.276 47.5474 164.628C47.9314 163.98 48.4474 163.47 49.0954 163.098C49.7434 162.726 50.4694 162.54 51.2734 162.54C52.0894 162.54 52.8154 162.726 53.4514 163.098C54.0994 163.47 54.6094 163.98 54.9814 164.628C55.3654 165.276 55.5574 166.02 55.5574 166.86C55.5574 167.688 55.3654 168.432 54.9814 169.092C54.6094 169.74 54.0994 170.25 53.4514 170.622C52.8154 170.994 52.0894 171.18 51.2734 171.18C50.4694 171.18 49.7434 170.994 49.0954 170.622C48.4474 170.25 47.9314 169.74 47.5474 169.092C47.1754 168.432 46.9894 167.688 46.9894 166.86ZM48.4474 166.86C48.4474 167.436 48.5674 167.946 48.8074 168.39C49.0594 168.834 49.3954 169.188 49.8154 169.452C50.2474 169.704 50.7334 169.83 51.2734 169.83C51.8134 169.83 52.2934 169.704 52.7134 169.452C53.1454 169.188 53.4814 168.834 53.7214 168.39C53.9734 167.946 54.0994 167.436 54.0994 166.86C54.0994 166.284 53.9734 165.774 53.7214 165.33C53.4814 164.874 53.1454 164.52 52.7134 164.268C52.2934 164.016 51.8134 163.89 51.2734 163.89C50.7334 163.89 50.2474 164.016 49.8154 164.268C49.3954 164.52 49.0594 164.874 48.8074 165.33C48.5674 165.774 48.4474 166.284 48.4474 166.86ZM55.9219 162.72H57.5419L59.8819 168.57L62.2219 162.72H63.8419L59.8819 171.63L55.9219 162.72ZM68.1399 171.18C67.3719 171.18 66.6879 171 66.0879 170.64C65.4999 170.268 65.0379 169.758 64.7019 169.11C64.3779 168.462 64.2159 167.712 64.2159 166.86C64.2159 165.996 64.3839 165.24 64.7199 164.592C65.0679 163.944 65.5479 163.44 66.1599 163.08C66.7839 162.72 67.5039 162.54 68.3199 162.54C69.1359 162.54 69.8319 162.714 70.4079 163.062C70.9959 163.398 71.4459 163.884 71.7579 164.52C72.0699 165.156 72.2259 165.912 72.2259 166.788C72.2259 166.872 72.2199 166.962 72.2079 167.058C72.2079 167.142 72.2079 167.196 72.2079 167.22H65.1339V165.996H71.0739L70.4979 166.824C70.5339 166.764 70.5699 166.674 70.6059 166.554C70.6419 166.422 70.6599 166.314 70.6599 166.23C70.6599 165.738 70.5579 165.312 70.3539 164.952C70.1619 164.592 69.8919 164.31 69.5439 164.106C69.1959 163.902 68.7879 163.8 68.3199 163.8C67.7679 163.8 67.2939 163.92 66.8979 164.16C66.5139 164.388 66.2139 164.724 65.9979 165.168C65.7939 165.6 65.6859 166.134 65.6739 166.77C65.6739 167.418 65.7759 167.97 65.9799 168.426C66.1839 168.882 66.4839 169.23 66.8799 169.47C67.2759 169.71 67.7559 169.83 68.3199 169.83C68.8839 169.83 69.3819 169.71 69.8139 169.47C70.2459 169.218 70.6119 168.84 70.9119 168.336L72.0819 169.074C71.6499 169.77 71.1039 170.298 70.4439 170.658C69.7959 171.006 69.0279 171.18 68.1399 171.18ZM75.6396 162.72V171H74.1996V162.72H75.6396ZM78.1416 164.304C77.9496 164.16 77.7756 164.058 77.6196 163.998C77.4636 163.926 77.2656 163.89 77.0256 163.89C76.6656 163.89 76.3836 163.98 76.1796 164.16C75.9756 164.34 75.8316 164.586 75.7476 164.898C75.6756 165.21 75.6396 165.564 75.6396 165.96H74.9916C74.9916 165.3 75.1056 164.718 75.3336 164.214C75.5736 163.698 75.8796 163.29 76.2516 162.99C76.6236 162.69 77.0016 162.54 77.3856 162.54C77.6856 162.54 77.9616 162.582 78.2136 162.666C78.4776 162.738 78.7176 162.888 78.9336 163.116L78.1416 164.304ZM84.506 162.72H88.646V164.07H84.506V162.72ZM85.856 159.84H87.296V171H85.856V159.84ZM91.5302 156.96V171H90.0902V156.96H91.5302ZM95.4002 165.96C95.4002 165.276 95.2502 164.76 94.9502 164.412C94.6622 164.064 94.2242 163.89 93.6362 163.89C93.2162 163.89 92.8442 163.98 92.5202 164.16C92.2082 164.34 91.9622 164.586 91.7822 164.898C91.6142 165.21 91.5302 165.564 91.5302 165.96H91.0622C91.0622 165.3 91.1882 164.718 91.4402 164.214C91.6922 163.698 92.0342 163.29 92.4662 162.99C92.9102 162.69 93.4202 162.54 93.9962 162.54C94.5722 162.54 95.0702 162.66 95.4902 162.9C95.9222 163.14 96.2522 163.5 96.4802 163.98C96.7202 164.46 96.8402 165.06 96.8402 165.78V171H95.4002V165.96ZM102.751 171.18C101.983 171.18 101.299 171 100.699 170.64C100.111 170.268 99.6493 169.758 99.3133 169.11C98.9893 168.462 98.8273 167.712 98.8273 166.86C98.8273 165.996 98.9953 165.24 99.3313 164.592C99.6793 163.944 100.159 163.44 100.771 163.08C101.395 162.72 102.115 162.54 102.931 162.54C103.747 162.54 104.443 162.714 105.019 163.062C105.607 163.398 106.057 163.884 106.369 164.52C106.681 165.156 106.837 165.912 106.837 166.788C106.837 166.872 106.831 166.962 106.819 167.058C106.819 167.142 106.819 167.196 106.819 167.22H99.7453V165.996H105.685L105.109 166.824C105.145 166.764 105.181 166.674 105.217 166.554C105.253 166.422 105.271 166.314 105.271 166.23C105.271 165.738 105.169 165.312 104.965 164.952C104.773 164.592 104.503 164.31 104.155 164.106C103.807 163.902 103.399 163.8 102.931 163.8C102.379 163.8 101.905 163.92 101.509 164.16C101.125 164.388 100.825 164.724 100.609 165.168C100.405 165.6 100.297 166.134 100.285 166.77C100.285 167.418 100.387 167.97 100.591 168.426C100.795 168.882 101.095 169.23 101.491 169.47C101.887 169.71 102.367 169.83 102.931 169.83C103.495 169.83 103.993 169.71 104.425 169.47C104.857 169.218 105.223 168.84 105.523 168.336L106.693 169.074C106.261 169.77 105.715 170.298 105.055 170.658C104.407 171.006 103.639 171.18 102.751 171.18ZM112.947 162.72H114.567L116.637 168.102L118.887 162.09L121.299 168.138L123.387 162.72H125.007L121.407 171.63L118.905 165.6L116.547 171.63L112.947 162.72ZM125.458 166.86C125.458 166.02 125.644 165.276 126.016 164.628C126.4 163.98 126.916 163.47 127.564 163.098C128.212 162.726 128.938 162.54 129.742 162.54C130.558 162.54 131.284 162.726 131.92 163.098C132.568 163.47 133.078 163.98 133.45 164.628C133.834 165.276 134.026 166.02 134.026 166.86C134.026 167.688 133.834 168.432 133.45 169.092C133.078 169.74 132.568 170.25 131.92 170.622C131.284 170.994 130.558 171.18 129.742 171.18C128.938 171.18 128.212 170.994 127.564 170.622C126.916 170.25 126.4 169.74 126.016 169.092C125.644 168.432 125.458 167.688 125.458 166.86ZM126.916 166.86C126.916 167.436 127.036 167.946 127.276 168.39C127.528 168.834 127.864 169.188 128.284 169.452C128.716 169.704 129.202 169.83 129.742 169.83C130.282 169.83 130.762 169.704 131.182 169.452C131.614 169.188 131.95 168.834 132.19 168.39C132.442 167.946 132.568 167.436 132.568 166.86C132.568 166.284 132.442 165.774 132.19 165.33C131.95 164.874 131.614 164.52 131.182 164.268C130.762 164.016 130.282 163.89 129.742 163.89C129.202 163.89 128.716 164.016 128.284 164.268C127.864 164.52 127.528 164.874 127.276 165.33C127.036 165.774 126.916 166.284 126.916 166.86ZM137.444 162.72V171H136.004V162.72H137.444ZM139.946 164.304C139.754 164.16 139.58 164.058 139.424 163.998C139.268 163.926 139.07 163.89 138.83 163.89C138.47 163.89 138.188 163.98 137.984 164.16C137.78 164.34 137.636 164.586 137.552 164.898C137.48 165.21 137.444 165.564 137.444 165.96H136.796C136.796 165.3 136.91 164.718 137.138 164.214C137.378 163.698 137.684 163.29 138.056 162.99C138.428 162.69 138.806 162.54 139.19 162.54C139.49 162.54 139.766 162.582 140.018 162.666C140.282 162.738 140.522 162.888 140.738 163.116L139.946 164.304ZM142.174 156.96H143.614V171H142.174V156.96ZM152.533 156.96H153.973V171H152.533V156.96ZM145.603 166.86C145.603 165.96 145.789 165.192 146.161 164.556C146.533 163.908 147.031 163.41 147.655 163.062C148.279 162.714 148.963 162.54 149.707 162.54C150.403 162.54 151.009 162.714 151.525 163.062C152.041 163.41 152.443 163.908 152.731 164.556C153.031 165.192 153.181 165.96 153.181 166.86C153.181 167.748 153.031 168.516 152.731 169.164C152.443 169.812 152.041 170.31 151.525 170.658C151.009 171.006 150.403 171.18 149.707 171.18C148.963 171.18 148.279 171.006 147.655 170.658C147.031 170.31 146.533 169.812 146.161 169.164C145.789 168.516 145.603 167.748 145.603 166.86ZM147.061 166.86C147.061 167.496 147.187 168.036 147.439 168.48C147.703 168.924 148.051 169.26 148.483 169.488C148.915 169.716 149.383 169.83 149.887 169.83C150.307 169.83 150.721 169.716 151.129 169.488C151.537 169.26 151.873 168.924 152.137 168.48C152.401 168.036 152.533 167.496 152.533 166.86C152.533 166.224 152.401 165.684 152.137 165.24C151.873 164.796 151.537 164.46 151.129 164.232C150.721 164.004 150.307 163.89 149.887 163.89C149.383 163.89 148.915 164.004 148.483 164.232C148.051 164.46 147.703 164.796 147.439 165.24C147.187 165.684 147.061 166.224 147.061 166.86Z" fill="#141219"/>
<path d="M48.36 60.44H44.8V66H39.96V60.44H25.12V55.96L38.36 36.76H44.8V55.96H48.36V60.44ZM30.56 55.96H39.96V42.28L30.56 55.96ZM55.0344 66.48C53.2744 66.48 51.7944 65.04 51.7944 63.32C51.7944 61.56 53.2744 60.12 55.0344 60.12C56.7944 60.12 58.2744 61.56 58.2744 63.32C58.2744 65.04 56.7944 66.48 55.0344 66.48ZM72.05 66.48C65.93 66.48 61.89 62.56 61.89 56.64H66.97C66.97 59.96 68.93 61.92 72.17 61.92C75.61 61.92 77.81 59.68 77.81 56.12C77.81 52.72 75.77 50.4 72.25 50.4C70.01 50.4 67.97 51.52 66.93 53.04L62.41 52.08L66.01 36.76H81.25V41.48H69.69L68.13 47.56C69.53 46.64 71.29 46.12 73.29 46.12C79.13 46.12 83.01 50.08 83.01 55.84C83.01 62.16 78.57 66.48 72.05 66.48Z" fill="#141219"/>
<path d="M36.1554 89.0449L39.0761 94.9627L45.6068 95.9117L40.8811 100.518L41.9967 107.022L36.1554 103.951L30.3142 107.022L31.4298 100.518L26.7041 95.9117L33.2348 94.9627L36.1554 89.0449Z" fill="#FFD700"/>
<path d="M35.5884 89.3766C36.0355 90.2826 36.4826 91.1885 36.9297 92.0944C37.4478 93.1443 37.966 94.194 38.4841 95.2439C38.6756 95.6319 39.0674 95.6202 39.4309 95.673C40.0563 95.7639 40.6818 95.8548 41.3072 95.9456C42.6013 96.1337 43.8953 96.3217 45.1894 96.5098C45.2702 96.5215 45.3511 96.5333 45.432 96.545C45.3355 96.1794 45.2389 95.8138 45.1424 95.4482C44.419 96.1533 43.6955 96.8585 42.9721 97.5637C42.1337 98.3808 41.2954 99.198 40.4571 100.015C40.3623 100.108 40.2845 100.211 40.2479 100.344C40.2099 100.482 40.2343 100.614 40.2575 100.749C40.2837 100.902 40.3099 101.054 40.3361 101.207C40.4424 101.827 40.5487 102.447 40.6551 103.067C40.8768 104.36 41.0986 105.653 41.3204 106.946C41.3347 107.03 41.3491 107.114 41.3635 107.197C41.6848 106.95 42.0062 106.703 42.3275 106.456C41.4333 105.986 40.5391 105.516 39.6449 105.046C38.6086 104.501 37.5724 103.956 36.5362 103.412C36.4166 103.349 36.2963 103.296 36.155 103.296C36.0137 103.296 35.8934 103.349 35.7738 103.412C35.6366 103.484 35.4992 103.556 35.3619 103.628C34.8052 103.921 34.2485 104.214 33.6918 104.506C32.5306 105.117 31.3694 105.727 30.2081 106.338C30.1329 106.377 30.0577 106.417 29.9826 106.456C30.3039 106.703 30.6252 106.95 30.9466 107.197C31.1174 106.202 31.2881 105.206 31.4589 104.21C31.6568 103.056 31.8547 101.903 32.0526 100.749C32.0758 100.614 32.1002 100.482 32.0622 100.344C32.0256 100.211 31.9478 100.108 31.853 100.015C31.7419 99.9069 31.6308 99.7987 31.5198 99.6904C31.0694 99.2514 30.619 98.8123 30.1686 98.3733C29.2292 97.4576 28.2897 96.5418 27.3502 95.6261C27.2894 95.5668 27.2286 95.5075 27.1677 95.4482C27.0712 95.8138 26.9747 96.1794 26.8782 96.5451C27.8779 96.3998 28.8777 96.2545 29.8775 96.1092C31.036 95.9409 32.1945 95.7726 33.3531 95.6042C33.7534 95.5461 33.884 95.1266 34.0379 94.8146C34.3177 94.2478 34.5974 93.681 34.8771 93.1143C35.4558 91.9417 36.0345 90.7691 36.6132 89.5965C36.6493 89.5233 36.6855 89.45 36.7217 89.3767C36.88 89.0559 36.8108 88.6689 36.4862 88.4788C36.1942 88.3078 35.7466 88.3937 35.5884 88.7143C35.1412 89.6202 34.6942 90.5261 34.2471 91.4321C33.7289 92.4819 33.2109 93.5317 32.6928 94.5815C32.6844 94.5984 32.6761 94.6152 32.6678 94.6321C32.7985 94.5315 32.9293 94.431 33.06 94.3305C32.0602 94.4758 31.0605 94.621 30.0607 94.7663C28.9022 94.9346 27.7436 95.103 26.5851 95.2713C26.5665 95.274 26.5479 95.2767 26.5293 95.2794C26.3112 95.3111 26.1258 95.5384 26.0709 95.7378C26.0094 95.9614 26.0727 96.2135 26.2397 96.3763C26.9631 97.0815 27.6866 97.7866 28.41 98.4918C29.2483 99.309 30.0866 100.126 30.925 100.943C30.9384 100.956 30.9519 100.97 30.9654 100.983C30.9091 100.77 30.8528 100.557 30.7966 100.344C30.6258 101.34 30.455 102.336 30.2842 103.331C30.0863 104.485 29.8884 105.639 29.6906 106.793C29.6874 106.811 29.6842 106.83 29.681 106.849C29.6403 107.086 29.6718 107.309 29.8498 107.487C30.0653 107.703 30.3823 107.728 30.645 107.59C31.5393 107.119 32.4335 106.649 33.3277 106.179C34.3639 105.634 35.4001 105.09 36.4363 104.545C36.453 104.536 36.4696 104.527 36.4863 104.519C36.2654 104.519 36.0446 104.519 35.8238 104.519C36.7181 104.989 37.6123 105.459 38.5065 105.929C39.5427 106.474 40.5789 107.019 41.6152 107.563C41.6318 107.572 41.6484 107.581 41.6651 107.59C41.8754 107.7 42.1181 107.712 42.3275 107.59C42.6001 107.43 42.6796 107.143 42.6291 106.849C42.4583 105.853 42.2876 104.857 42.1168 103.861C41.9189 102.708 41.721 101.554 41.5231 100.4C41.5199 100.381 41.5167 100.363 41.5136 100.344C41.4573 100.557 41.4011 100.77 41.3448 100.983C42.0682 100.278 42.7917 99.5723 43.5151 98.8672C44.3535 98.05 45.1918 97.2329 46.0301 96.4157C46.0436 96.4026 46.057 96.3895 46.0705 96.3763C46.2375 96.2136 46.3008 95.9614 46.2393 95.7378C46.1844 95.5385 45.999 95.3112 45.7809 95.2795C44.7812 95.1342 43.7814 94.9889 42.7816 94.8437C41.6231 94.6753 40.4645 94.507 39.306 94.3386C39.2874 94.3359 39.2688 94.3332 39.2502 94.3305C39.3809 94.431 39.5116 94.5316 39.6423 94.6321C39.1953 93.7262 38.7481 92.8202 38.301 91.9143C37.7829 90.8645 37.2648 89.8147 36.7467 88.7649C36.7384 88.748 36.7301 88.7311 36.7217 88.7143C36.5635 88.3937 36.1159 88.3078 35.8239 88.4788C35.4993 88.6689 35.4301 89.0558 35.5884 89.3766Z" fill="#FFD700"/>
<path d="M62.1554 89.0449L65.0761 94.9627L71.6068 95.9117L66.8811 100.518L67.9967 107.022L62.1554 103.951L56.3142 107.022L57.4298 100.518L52.7041 95.9117L59.2348 94.9627L62.1554 89.0449Z" fill="#FFD700"/>
<path d="M61.5884 89.3766C62.0355 90.2826 62.4826 91.1885 62.9297 92.0944C63.4478 93.1443 63.966 94.194 64.4841 95.2439C64.6756 95.6319 65.0674 95.6202 65.4309 95.673C66.0563 95.7639 66.6818 95.8548 67.3072 95.9456C68.6013 96.1337 69.8953 96.3217 71.1894 96.5098C71.2702 96.5215 71.3511 96.5333 71.432 96.545C71.3355 96.1794 71.2389 95.8138 71.1424 95.4482C70.419 96.1533 69.6955 96.8585 68.9721 97.5637C68.1337 98.3808 67.2954 99.198 66.4571 100.015C66.3623 100.108 66.2845 100.211 66.2479 100.344C66.2099 100.482 66.2343 100.614 66.2575 100.749C66.2837 100.902 66.3099 101.054 66.3361 101.207C66.4424 101.827 66.5487 102.447 66.6551 103.067C66.8768 104.36 67.0986 105.653 67.3204 106.946C67.3347 107.03 67.3491 107.114 67.3635 107.197C67.6848 106.95 68.0062 106.703 68.3275 106.456C67.4333 105.986 66.5391 105.516 65.6449 105.046C64.6086 104.501 63.5724 103.956 62.5362 103.412C62.4166 103.349 62.2963 103.296 62.155 103.296C62.0137 103.296 61.8934 103.349 61.7738 103.412C61.6366 103.484 61.4992 103.556 61.3619 103.628C60.8052 103.921 60.2485 104.214 59.6918 104.506C58.5306 105.117 57.3694 105.727 56.2081 106.338C56.1329 106.377 56.0577 106.417 55.9826 106.456C56.3039 106.703 56.6252 106.95 56.9466 107.197C57.1174 106.202 57.2881 105.206 57.4589 104.21C57.6568 103.056 57.8547 101.903 58.0526 100.749C58.0758 100.614 58.1002 100.482 58.0622 100.344C58.0256 100.211 57.9478 100.108 57.853 100.015C57.7419 99.9069 57.6308 99.7987 57.5198 99.6904C57.0694 99.2514 56.619 98.8123 56.1686 98.3733C55.2292 97.4576 54.2897 96.5418 53.3502 95.6261C53.2894 95.5668 53.2286 95.5075 53.1677 95.4482C53.0712 95.8138 52.9747 96.1794 52.8782 96.5451C53.8779 96.3998 54.8777 96.2545 55.8775 96.1092C57.036 95.9409 58.1945 95.7726 59.3531 95.6042C59.7534 95.5461 59.884 95.1266 60.0379 94.8146C60.3177 94.2478 60.5974 93.681 60.8771 93.1143C61.4558 91.9417 62.0345 90.7691 62.6132 89.5965C62.6493 89.5233 62.6855 89.45 62.7217 89.3767C62.88 89.0559 62.8108 88.6689 62.4862 88.4788C62.1942 88.3078 61.7466 88.3937 61.5884 88.7143C61.1412 89.6202 60.6942 90.5261 60.2471 91.4321C59.7289 92.4819 59.2109 93.5317 58.6928 94.5815C58.6844 94.5984 58.6761 94.6152 58.6678 94.6321C58.7985 94.5315 58.9293 94.431 59.06 94.3305C58.0602 94.4758 57.0605 94.621 56.0607 94.7663C54.9022 94.9346 53.7436 95.103 52.5851 95.2713C52.5665 95.274 52.5479 95.2767 52.5293 95.2794C52.3112 95.3111 52.1258 95.5384 52.0709 95.7378C52.0094 95.9614 52.0727 96.2135 52.2397 96.3763C52.9631 97.0815 53.6866 97.7866 54.41 98.4918C55.2483 99.309 56.0866 100.126 56.925 100.943C56.9384 100.956 56.9519 100.97 56.9654 100.983C56.9091 100.77 56.8528 100.557 56.7966 100.344C56.6258 101.34 56.455 102.336 56.2842 103.331C56.0863 104.485 55.8884 105.639 55.6906 106.793C55.6874 106.811 55.6842 106.83 55.681 106.849C55.6403 107.086 55.6718 107.309 55.8498 107.487C56.0653 107.703 56.3823 107.728 56.645 107.59C57.5393 107.119 58.4335 106.649 59.3277 106.179C60.3639 105.634 61.4001 105.09 62.4363 104.545C62.453 104.536 62.4696 104.527 62.4863 104.519C62.2654 104.519 62.0446 104.519 61.8238 104.519C62.7181 104.989 63.6123 105.459 64.5065 105.929C65.5427 106.474 66.5789 107.019 67.6152 107.563C67.6318 107.572 67.6484 107.581 67.6651 107.59C67.8754 107.7 68.1181 107.712 68.3275 107.59C68.6001 107.43 68.6796 107.143 68.6291 106.849C68.4583 105.853 68.2876 104.857 68.1168 103.861C67.9189 102.708 67.721 101.554 67.5231 100.4C67.5199 100.381 67.5167 100.363 67.5136 100.344C67.4573 100.557 67.4011 100.77 67.3448 100.983C68.0682 100.278 68.7917 99.5723 69.5151 98.8672C70.3535 98.05 71.1918 97.2329 72.0301 96.4157C72.0436 96.4026 72.057 96.3895 72.0705 96.3763C72.2375 96.2136 72.3008 95.9614 72.2393 95.7378C72.1844 95.5385 71.999 95.3112 71.7809 95.2795C70.7812 95.1342 69.7814 94.9889 68.7816 94.8437C67.6231 94.6753 66.4645 94.507 65.306 94.3386C65.2874 94.3359 65.2688 94.3332 65.2502 94.3305C65.3809 94.431 65.5116 94.5316 65.6423 94.6321C65.1953 93.7262 64.7481 92.8202 64.301 91.9143C63.7829 90.8645 63.2648 89.8147 62.7467 88.7649C62.7384 88.748 62.7301 88.7311 62.7217 88.7143C62.5635 88.3937 62.1159 88.3078 61.8239 88.4788C61.4993 88.6689 61.4301 89.0558 61.5884 89.3766Z" fill="#FFD700"/>
<path d="M88.1554 89.0449L91.0761 94.9627L97.6068 95.9117L92.8811 100.518L93.9967 107.022L88.1554 103.951L82.3142 107.022L83.4298 100.518L78.7041 95.9117L85.2348 94.9627L88.1554 89.0449Z" fill="#FFD700"/>
<path d="M87.5884 89.3766C88.0355 90.2826 88.4826 91.1885 88.9297 92.0944C89.4478 93.1443 89.966 94.194 90.4841 95.2439C90.6756 95.6319 91.0674 95.6202 91.4309 95.673C92.0563 95.7639 92.6818 95.8548 93.3072 95.9456C94.6013 96.1337 95.8953 96.3217 97.1894 96.5098C97.2702 96.5215 97.3511 96.5333 97.432 96.545C97.3355 96.1794 97.2389 95.8138 97.1424 95.4482C96.419 96.1533 95.6955 96.8585 94.9721 97.5637C94.1337 98.3808 93.2954 99.198 92.4571 100.015C92.3623 100.108 92.2845 100.211 92.2479 100.344C92.2099 100.482 92.2343 100.614 92.2575 100.749C92.2837 100.902 92.3099 101.054 92.3361 101.207C92.4424 101.827 92.5487 102.447 92.6551 103.067C92.8768 104.36 93.0986 105.653 93.3204 106.946C93.3347 107.03 93.3491 107.114 93.3635 107.197C93.6848 106.95 94.0062 106.703 94.3275 106.456C93.4333 105.986 92.5391 105.516 91.6449 105.046C90.6086 104.501 89.5724 103.956 88.5362 103.412C88.4166 103.349 88.2963 103.296 88.155 103.296C88.0137 103.296 87.8934 103.349 87.7738 103.412C87.6366 103.484 87.4992 103.556 87.3619 103.628C86.8052 103.921 86.2485 104.214 85.6918 104.506C84.5306 105.117 83.3694 105.727 82.2081 106.338C82.1329 106.377 82.0577 106.417 81.9826 106.456C82.3039 106.703 82.6252 106.95 82.9466 107.197C83.1174 106.202 83.2881 105.206 83.4589 104.21C83.6568 103.056 83.8547 101.903 84.0526 100.749C84.0758 100.614 84.1002 100.482 84.0622 100.344C84.0256 100.211 83.9478 100.108 83.853 100.015C83.7419 99.9069 83.6308 99.7987 83.5198 99.6904C83.0694 99.2514 82.619 98.8123 82.1686 98.3733C81.2292 97.4576 80.2897 96.5418 79.3502 95.6261C79.2894 95.5668 79.2286 95.5075 79.1677 95.4482C79.0712 95.8138 78.9747 96.1794 78.8782 96.5451C79.8779 96.3998 80.8777 96.2545 81.8775 96.1092C83.036 95.9409 84.1945 95.7726 85.3531 95.6042C85.7534 95.5461 85.884 95.1266 86.0379 94.8146C86.3177 94.2478 86.5974 93.681 86.8771 93.1143C87.4558 91.9417 88.0345 90.7691 88.6132 89.5965C88.6493 89.5233 88.6855 89.45 88.7217 89.3767C88.88 89.0559 88.8108 88.6689 88.4862 88.4788C88.1942 88.3078 87.7466 88.3937 87.5884 88.7143C87.1412 89.6202 86.6942 90.5261 86.2471 91.4321C85.7289 92.4819 85.2109 93.5317 84.6928 94.5815C84.6844 94.5984 84.6761 94.6152 84.6678 94.6321C84.7985 94.5315 84.9293 94.431 85.06 94.3305C84.0602 94.4758 83.0605 94.621 82.0607 94.7663C80.9022 94.9346 79.7436 95.103 78.5851 95.2713C78.5665 95.274 78.5479 95.2767 78.5293 95.2794C78.3112 95.3111 78.1258 95.5384 78.0709 95.7378C78.0094 95.9614 78.0727 96.2135 78.2397 96.3763C78.9631 97.0815 79.6866 97.7866 80.41 98.4918C81.2483 99.309 82.0866 100.126 82.925 100.943C82.9384 100.956 82.9519 100.97 82.9654 100.983C82.9091 100.77 82.8528 100.557 82.7966 100.344C82.6258 101.34 82.455 102.336 82.2842 103.331C82.0863 104.485 81.8884 105.639 81.6906 106.793C81.6874 106.811 81.6842 106.83 81.681 106.849C81.6403 107.086 81.6718 107.309 81.8498 107.487C82.0653 107.703 82.3823 107.728 82.645 107.59C83.5393 107.119 84.4335 106.649 85.3277 106.179C86.3639 105.634 87.4001 105.09 88.4363 104.545C88.453 104.536 88.4696 104.527 88.4863 104.519C88.2654 104.519 88.0446 104.519 87.8238 104.519C88.7181 104.989 89.6123 105.459 90.5065 105.929C91.5427 106.474 92.5789 107.019 93.6152 107.563C93.6318 107.572 93.6484 107.581 93.6651 107.59C93.8754 107.7 94.1181 107.712 94.3275 107.59C94.6001 107.43 94.6796 107.143 94.6291 106.849C94.4583 105.853 94.2876 104.857 94.1168 103.861C93.9189 102.708 93.721 101.554 93.5231 100.4C93.5199 100.381 93.5167 100.363 93.5136 100.344C93.4573 100.557 93.4011 100.77 93.3448 100.983C94.0682 100.278 94.7917 99.5723 95.5151 98.8672C96.3535 98.05 97.1918 97.2329 98.0301 96.4157C98.0436 96.4026 98.057 96.3895 98.0705 96.3763C98.2375 96.2136 98.3008 95.9614 98.2393 95.7378C98.1844 95.5385 97.999 95.3112 97.7809 95.2795C96.7812 95.1342 95.7814 94.9889 94.7816 94.8437C93.6231 94.6753 92.4645 94.507 91.306 94.3386C91.2874 94.3359 91.2688 94.3332 91.2502 94.3305C91.3809 94.431 91.5116 94.5316 91.6423 94.6321C91.1953 93.7262 90.7481 92.8202 90.301 91.9143C89.7829 90.8645 89.2648 89.8147 88.7467 88.7649C88.7384 88.748 88.7301 88.7311 88.7217 88.7143C88.5635 88.3937 88.1159 88.3078 87.8239 88.4788C87.4993 88.6689 87.4301 89.0558 87.5884 89.3766Z" fill="#FFD700"/>
<path d="M114.155 89.0449L117.076 94.9627L123.607 95.9117L118.881 100.518L119.997 107.022L114.155 103.951L108.314 107.022L109.43 100.518L104.704 95.9117L111.235 94.9627L114.155 89.0449Z" fill="#FFD700"/>
<path d="M113.588 89.3766C114.036 90.2826 114.483 91.1885 114.93 92.0944C115.448 93.1443 115.966 94.194 116.484 95.2439C116.676 95.6319 117.067 95.6202 117.431 95.673C118.056 95.7639 118.682 95.8548 119.307 95.9456C120.601 96.1337 121.895 96.3217 123.189 96.5098C123.27 96.5215 123.351 96.5333 123.432 96.545C123.335 96.1794 123.239 95.8138 123.142 95.4482C122.419 96.1533 121.696 96.8585 120.972 97.5637C120.134 98.3808 119.295 99.198 118.457 100.015C118.362 100.108 118.285 100.211 118.248 100.344C118.21 100.482 118.234 100.614 118.257 100.749C118.284 100.902 118.31 101.054 118.336 101.207C118.442 101.827 118.549 102.447 118.655 103.067C118.877 104.36 119.099 105.653 119.32 106.946C119.335 107.03 119.349 107.114 119.363 107.197C119.685 106.95 120.006 106.703 120.328 106.456C119.433 105.986 118.539 105.516 117.645 105.046C116.609 104.501 115.572 103.956 114.536 103.412C114.417 103.349 114.296 103.296 114.155 103.296C114.014 103.296 113.893 103.349 113.774 103.412C113.637 103.484 113.499 103.556 113.362 103.628C112.805 103.921 112.249 104.214 111.692 104.506C110.531 105.117 109.369 105.727 108.208 106.338C108.133 106.377 108.058 106.417 107.983 106.456C108.304 106.703 108.625 106.95 108.947 107.197C109.117 106.202 109.288 105.206 109.459 104.21C109.657 103.056 109.855 101.903 110.053 100.749C110.076 100.614 110.1 100.482 110.062 100.344C110.026 100.211 109.948 100.108 109.853 100.015C109.742 99.9069 109.631 99.7987 109.52 99.6904C109.069 99.2514 108.619 98.8123 108.169 98.3733C107.229 97.4576 106.29 96.5418 105.35 95.6261C105.289 95.5668 105.229 95.5075 105.168 95.4482C105.071 95.8138 104.975 96.1794 104.878 96.5451C105.878 96.3998 106.878 96.2545 107.877 96.1092C109.036 95.9409 110.195 95.7726 111.353 95.6042C111.753 95.5461 111.884 95.1266 112.038 94.8146C112.318 94.2478 112.597 93.681 112.877 93.1143C113.456 91.9417 114.034 90.7691 114.613 89.5965C114.649 89.5233 114.685 89.45 114.722 89.3767C114.88 89.0559 114.811 88.6689 114.486 88.4788C114.194 88.3078 113.747 88.3937 113.588 88.7143C113.141 89.6202 112.694 90.5261 112.247 91.4321C111.729 92.4819 111.211 93.5317 110.693 94.5815C110.684 94.5984 110.676 94.6152 110.668 94.6321C110.799 94.5315 110.929 94.431 111.06 94.3305C110.06 94.4758 109.06 94.621 108.061 94.7663C106.902 94.9346 105.744 95.103 104.585 95.2713C104.566 95.274 104.548 95.2767 104.529 95.2794C104.311 95.3111 104.126 95.5384 104.071 95.7378C104.009 95.9614 104.073 96.2135 104.24 96.3763C104.963 97.0815 105.687 97.7866 106.41 98.4918C107.248 99.309 108.087 100.126 108.925 100.943C108.938 100.956 108.952 100.97 108.965 100.983C108.909 100.77 108.853 100.557 108.797 100.344C108.626 101.34 108.455 102.336 108.284 103.331C108.086 104.485 107.888 105.639 107.691 106.793C107.687 106.811 107.684 106.83 107.681 106.849C107.64 107.086 107.672 107.309 107.85 107.487C108.065 107.703 108.382 107.728 108.645 107.59C109.539 107.119 110.433 106.649 111.328 106.179C112.364 105.634 113.4 105.09 114.436 104.545C114.453 104.536 114.47 104.527 114.486 104.519C114.265 104.519 114.045 104.519 113.824 104.519C114.718 104.989 115.612 105.459 116.506 105.929C117.543 106.474 118.579 107.019 119.615 107.563C119.632 107.572 119.648 107.581 119.665 107.59C119.875 107.7 120.118 107.712 120.328 107.59C120.6 107.43 120.68 107.143 120.629 106.849C120.458 105.853 120.288 104.857 120.117 103.861C119.919 102.708 119.721 101.554 119.523 100.4C119.52 100.381 119.517 100.363 119.514 100.344C119.457 100.557 119.401 100.77 119.345 100.983C120.068 100.278 120.792 99.5723 121.515 98.8672C122.353 98.05 123.192 97.2329 124.03 96.4157C124.044 96.4026 124.057 96.3895 124.071 96.3763C124.237 96.2136 124.301 95.9614 124.239 95.7378C124.184 95.5385 123.999 95.3112 123.781 95.2795C122.781 95.1342 121.781 94.9889 120.782 94.8437C119.623 94.6753 118.465 94.507 117.306 94.3386C117.287 94.3359 117.269 94.3332 117.25 94.3305C117.381 94.431 117.512 94.5316 117.642 94.6321C117.195 93.7262 116.748 92.8202 116.301 91.9143C115.783 90.8645 115.265 89.8147 114.747 88.7649C114.738 88.748 114.73 88.7311 114.722 88.7143C114.564 88.3937 114.116 88.3078 113.824 88.4788C113.499 88.6689 113.43 89.0558 113.588 89.3766Z" fill="#FFD700"/>
<path d="M140.155 89.0449L143.076 94.9627L149.607 95.9117L144.881 100.518L145.997 107.022L140.155 103.951L134.314 107.022L135.43 100.518L130.704 95.9117L137.235 94.9627L140.155 89.0449Z" fill="url(#paint0_linear_1221_8484)"/>
<path d="M139.588 89.3766C140.036 90.2826 140.483 91.1885 140.93 92.0944C141.448 93.1443 141.966 94.194 142.484 95.2439C142.676 95.6319 143.067 95.6202 143.431 95.673C144.056 95.7639 144.682 95.8548 145.307 95.9456C146.601 96.1337 147.895 96.3217 149.189 96.5098C149.27 96.5215 149.351 96.5333 149.432 96.545C149.335 96.1794 149.239 95.8138 149.142 95.4482C148.419 96.1533 147.696 96.8585 146.972 97.5637C146.134 98.3808 145.295 99.198 144.457 100.015C144.362 100.108 144.285 100.211 144.248 100.344C144.21 100.482 144.234 100.614 144.257 100.749C144.284 100.902 144.31 101.054 144.336 101.207C144.442 101.827 144.549 102.447 144.655 103.067C144.877 104.36 145.099 105.653 145.32 106.946C145.335 107.03 145.349 107.114 145.363 107.197C145.685 106.95 146.006 106.703 146.328 106.456C145.433 105.986 144.539 105.516 143.645 105.046C142.609 104.501 141.572 103.956 140.536 103.412C140.417 103.349 140.296 103.296 140.155 103.296C140.014 103.296 139.893 103.349 139.774 103.412C139.637 103.484 139.499 103.556 139.362 103.628C138.805 103.921 138.249 104.214 137.692 104.506C136.531 105.117 135.369 105.727 134.208 106.338C134.133 106.377 134.058 106.417 133.983 106.456C134.304 106.703 134.625 106.95 134.947 107.197C135.117 106.202 135.288 105.206 135.459 104.21C135.657 103.056 135.855 101.903 136.053 100.749C136.076 100.614 136.1 100.482 136.062 100.344C136.026 100.211 135.948 100.108 135.853 100.015C135.742 99.9069 135.631 99.7987 135.52 99.6904C135.069 99.2514 134.619 98.8123 134.169 98.3733C133.229 97.4576 132.29 96.5418 131.35 95.6261C131.289 95.5668 131.229 95.5075 131.168 95.4482C131.071 95.8138 130.975 96.1794 130.878 96.5451C131.878 96.3998 132.878 96.2545 133.877 96.1092C135.036 95.9409 136.195 95.7726 137.353 95.6042C137.753 95.5461 137.884 95.1266 138.038 94.8146C138.318 94.2478 138.597 93.681 138.877 93.1143C139.456 91.9417 140.034 90.7691 140.613 89.5965C140.649 89.5233 140.685 89.45 140.722 89.3767C140.88 89.0559 140.811 88.6689 140.486 88.4788C140.194 88.3078 139.747 88.3937 139.588 88.7143C139.141 89.6202 138.694 90.5261 138.247 91.4321C137.729 92.4819 137.211 93.5317 136.693 94.5815C136.684 94.5984 136.676 94.6152 136.668 94.6321C136.799 94.5315 136.929 94.431 137.06 94.3305C136.06 94.4758 135.06 94.621 134.061 94.7663C132.902 94.9346 131.744 95.103 130.585 95.2713C130.566 95.274 130.548 95.2767 130.529 95.2794C130.311 95.3111 130.126 95.5384 130.071 95.7378C130.009 95.9614 130.073 96.2135 130.24 96.3763C130.963 97.0815 131.687 97.7866 132.41 98.4918C133.248 99.309 134.087 100.126 134.925 100.943C134.938 100.956 134.952 100.97 134.965 100.983C134.909 100.77 134.853 100.557 134.797 100.344C134.626 101.34 134.455 102.336 134.284 103.331C134.086 104.485 133.888 105.639 133.691 106.793C133.687 106.811 133.684 106.83 133.681 106.849C133.64 107.086 133.672 107.309 133.85 107.487C134.065 107.703 134.382 107.728 134.645 107.59C135.539 107.119 136.433 106.649 137.328 106.179C138.364 105.634 139.4 105.09 140.436 104.545C140.453 104.536 140.47 104.527 140.486 104.519C140.265 104.519 140.045 104.519 139.824 104.519C140.718 104.989 141.612 105.459 142.506 105.929C143.543 106.474 144.579 107.019 145.615 107.563C145.632 107.572 145.648 107.581 145.665 107.59C145.875 107.7 146.118 107.712 146.328 107.59C146.6 107.43 146.68 107.143 146.629 106.849C146.458 105.853 146.288 104.857 146.117 103.861C145.919 102.708 145.721 101.554 145.523 100.4C145.52 100.381 145.517 100.363 145.514 100.344C145.457 100.557 145.401 100.77 145.345 100.983C146.068 100.278 146.792 99.5723 147.515 98.8672C148.353 98.05 149.192 97.2329 150.03 96.4157C150.044 96.4026 150.057 96.3895 150.071 96.3763C150.237 96.2136 150.301 95.9614 150.239 95.7378C150.184 95.5385 149.999 95.3112 149.781 95.2795C148.781 95.1342 147.781 94.9889 146.782 94.8437C145.623 94.6753 144.465 94.507 143.306 94.3386C143.287 94.3359 143.269 94.3332 143.25 94.3305C143.381 94.431 143.512 94.5316 143.642 94.6321C143.195 93.7262 142.748 92.8202 142.301 91.9143C141.783 90.8645 141.265 89.8147 140.747 88.7649C140.738 88.748 140.73 88.7311 140.722 88.7143C140.564 88.3937 140.116 88.3078 139.824 88.4788C139.499 88.6689 139.43 89.0558 139.588 89.3766Z" fill="#FFD700"/>
<defs>
<linearGradient id="paint0_linear_1221_8484" x1="149.607" y1="98.0337" x2="130.704" y2="98.0337" gradientUnits="userSpaceOnUse">
<stop offset="0.486107" stop-color="#FAFAFA"/>
<stop offset="0.514871" stop-color="#FFD700"/>
</linearGradient>
</defs>
</svg>
