<svg width="80" height="80" viewBox="0 0 80 80" fill="none" xmlns="http://www.w3.org/2000/svg">
<path d="M40 0L41.9398 27.7527L52.3607 1.95774L45.6295 28.9515L63.5114 7.63932L48.7681 31.2319L72.3607 16.4886L51.0485 34.3705L78.0423 27.6393L52.2473 38.0602L80 40L52.2473 41.9398L78.0423 52.3607L51.0485 45.6295L72.3607 63.5114L48.7681 48.7681L63.5114 72.3607L45.6295 51.0485L52.3607 78.0423L41.9398 52.2473L40 80L38.0602 52.2473L27.6393 78.0423L34.3705 51.0485L16.4886 72.3607L31.2319 48.7681L7.63932 63.5114L28.9515 45.6295L1.95774 52.3607L27.7527 41.9398L0 40L27.7527 38.0602L1.95774 27.6393L28.9515 34.3705L7.63932 16.4886L31.2319 31.2319L16.4886 7.63932L34.3705 28.9515L27.6393 1.95774L38.0602 27.7527L40 0Z" fill="white" fill-opacity="0.2"/>
</svg>
