<svg width="236" height="95" viewBox="0 0 236 95" fill="none" xmlns="http://www.w3.org/2000/svg">
<rect width="236" height="95" rx="8" fill="white"/>
<rect x="0.5" y="0.5" width="235" height="94" rx="7.5" stroke="#531D6F" stroke-opacity="0.2"/>
<path d="M81.3832 42.6235C81.4386 40.2656 79.6355 35.4832 71.9792 35.2169C62.4088 34.884 58.5807 47.783 71.9792 50.6127C88.3737 54.0752 83.6301 68.6716 73.2275 68.2555C64.9055 67.9226 62.3811 62.6797 62.1592 60.0999" stroke="#531D6F" stroke-width="5.15968"/>
<path d="M138.472 35.7166V35.7166C131.295 35.9018 125.573 41.7733 125.573 48.9529V69.4209" stroke="#531D6F" stroke-width="5.15968"/>
<rect x="16.8037" y="19.3221" width="4.8268" height="50.2653" fill="#531D6F"/>
<path d="M27.7896 69.4208V48.7821C27.7896 41.3363 33.8255 35.3003 41.2713 35.3003V35.3003C48.7171 35.3003 54.753 41.3363 54.753 48.7821V69.4208" stroke="#531D6F" stroke-width="5.15968"/>
<path d="M90.2041 33.8025V54.4412C90.2041 61.887 96.2401 67.923 103.686 67.923V67.923C111.132 67.923 117.168 61.887 117.168 54.4412V33.8025" stroke="#531D6F" stroke-width="5.15968"/>
<rect x="140.636" y="11" width="78.5603" height="72.9013" rx="18.3085" fill="#531D6F"/>
<path d="M199.141 34.3016C205.916 34.3016 211.872 37.8074 215.296 43.1034L188.822 63.1795C190.653 65.6484 196.129 69.9534 203.386 67.4237C212.457 64.2614 213.621 56.7717 213.455 54.0252L218.158 50.702C218.294 51.6235 218.365 52.5661 218.365 53.5252C218.365 64.1423 209.758 72.7498 199.141 72.7498C188.524 72.7497 179.917 64.1422 179.917 53.5252C179.917 42.9084 188.524 34.3018 199.141 34.3016ZM208.374 43.3045C203.827 38.3248 196.206 37.7028 190.912 41.8797L189.583 42.9295C184.418 47.0046 183.034 54.2564 186.335 59.9471L208.374 43.3045Z" fill="white"/>
<path d="M164.604 45.7866C170.579 45.7866 175.423 50.63 175.423 56.605V58.103C175.423 64.0779 170.579 68.9214 164.604 68.9214H146.795V45.7866H164.604Z" stroke="white" stroke-width="4.99324"/>
<path d="M161.275 22.3185C167.066 22.3185 171.761 27.0127 171.761 32.8039C171.761 38.595 167.066 43.2892 161.275 43.2892H146.795V22.3185H161.275Z" stroke="white" stroke-width="4.99324"/>
</svg>
