<svg width="131" height="130" viewBox="0 0 131 130" fill="none" xmlns="http://www.w3.org/2000/svg">
<g filter="url(#filter0_d_204_211)">
<rect x="25.5" y="10" width="80" height="80" rx="16" fill="white"/>
<path d="M62.4685 39.835H57.1338C56.649 39.835 56.2549 40.2291 56.2549 40.7139V49.4279C56.2549 49.9124 56.649 50.3069 57.1338 50.3069H62.4684C62.9532 50.3069 63.3473 49.9124 63.3473 49.4279V40.7139C63.3473 40.2291 62.9533 39.835 62.4685 39.835ZM59.2736 49.2522H57.3096V47.0956H59.2736V49.2522ZM59.2736 46.0409H57.3096V44.1007H59.2736V46.0409ZM59.2736 43.046H57.3096V40.8896H59.2736V43.046ZM62.2927 49.2522H60.3283V47.0956H62.2927V49.2522ZM62.2927 46.0409H60.3283V44.1007H62.2927V46.0409ZM62.2927 43.046H60.3283V40.8896H62.2927V43.046ZM69.5412 60.8886C69.4013 60.8886 69.2672 60.9441 69.1683 61.043C69.0694 61.1419 69.0138 61.2761 69.0138 61.4159V62.6821C69.0138 62.822 69.0694 62.9561 69.1683 63.055C69.2672 63.1539 69.4013 63.2094 69.5412 63.2094C69.681 63.2094 69.8152 63.1539 69.9141 63.055C70.013 62.9561 70.0685 62.822 70.0685 62.6821V61.4159C70.0685 61.2761 70.013 61.1419 69.9141 61.043C69.8152 60.9441 69.681 60.8886 69.5412 60.8886Z" fill="black"/>
<path d="M83.4951 55.563C83.4713 55.3789 83.3753 55.2119 83.2284 55.0985L72.0561 46.4543C71.8113 46.2638 71.5099 46.1607 71.1997 46.1615C70.8869 46.1615 70.5908 46.2628 70.3428 46.4545L68.6531 47.7619V46.2474C68.6531 45.956 68.4172 45.7201 68.1258 45.7201C67.8344 45.7201 67.5984 45.956 67.5984 46.2474V48.5779L59.1714 55.0982C59.0242 55.2125 58.9281 55.3803 58.9042 55.5651C58.8922 55.6564 58.8984 55.7492 58.9224 55.8381C58.9464 55.927 58.9877 56.0103 59.044 56.0832L59.899 57.1953C59.9644 57.2807 60.0486 57.3498 60.1452 57.3972C60.2417 57.4447 60.3479 57.4692 60.4554 57.4688C60.6098 57.4688 60.7622 57.4169 60.8847 57.3222L71.1997 49.3411L78.9964 55.3737V66.3612H74.7491V65.3724C74.7491 65.081 74.5132 64.8451 74.2218 64.8451C73.9304 64.8451 73.6945 65.081 73.6945 65.3724V66.3612H68.7042V58.2823H73.6945V62.8938C73.6945 63.1853 73.9303 63.4212 74.2218 63.4212C74.5132 63.4212 74.7491 63.1853 74.7491 62.8938V58.1066C74.7491 57.6221 74.3547 57.2277 73.8702 57.2277H68.5287C68.0439 57.2277 67.6495 57.6221 67.6495 58.1066V66.3612H63.6423V64.9228C63.6423 64.438 63.2482 64.0439 62.7633 64.0439H62.2585C62.3006 63.8341 62.3233 63.6174 62.3233 63.3954C62.3233 61.5704 60.8383 60.0856 59.0132 60.0856C58.0225 60.0856 57.0955 60.5401 56.4756 61.2774C56.2354 61.2013 55.9849 61.1627 55.733 61.1628C55.5429 61.1628 55.3561 61.1839 55.1745 61.2262C54.6002 60.2424 53.5285 59.6095 52.3701 59.6095C52.2467 59.6095 52.1247 59.6173 52.0044 59.6313V41.9789L59.8014 35.9458L67.5987 41.9789V43.7861C67.5987 44.0776 67.8346 44.3135 68.1261 44.3135C68.2659 44.3135 68.4001 44.2579 68.499 44.159C68.5979 44.0601 68.6534 43.926 68.6534 43.7861V42.7949L70.1168 43.927C70.2397 44.0219 70.3905 44.0735 70.5458 44.0737C70.6535 44.0741 70.7598 44.0496 70.8563 44.002C70.9529 43.9545 71.0372 43.8852 71.1025 43.7996L71.1083 43.7919L71.9273 42.6856L71.9325 42.679C71.9866 42.6112 72.1303 42.4313 72.0967 42.1678C72.0851 42.0766 72.0555 41.9887 72.0098 41.909C71.964 41.8293 71.9029 41.7594 71.8301 41.7034L60.6581 33.0592C60.4103 32.8677 60.1143 32.7664 59.8014 32.7664C59.4886 32.7664 59.1925 32.8677 58.9445 33.0595L55.8771 35.4328V34.7681C56.2918 34.6978 56.6088 34.3369 56.6088 33.9027V32.8483C56.6088 32.3635 56.2143 31.9694 55.7299 31.9694H51.4566C50.972 31.9694 50.5777 32.3635 50.5777 32.8483V33.9024C50.5777 34.3369 50.8946 34.6975 51.3093 34.7681V38.9671L47.774 41.7027C47.6265 41.8167 47.5302 41.9845 47.5061 42.1693C47.4939 42.2607 47.5 42.3535 47.524 42.4425C47.5479 42.5315 47.5893 42.6149 47.6456 42.6878L48.5006 43.8C48.566 43.8855 48.6502 43.9547 48.7468 44.0022C48.8433 44.0497 48.9496 44.0742 49.0572 44.0738C49.2115 44.0738 49.3637 44.0219 49.4867 43.9271L50.9498 42.795V59.9414C50.1126 60.3533 49.468 61.1168 49.2285 62.0482C48.4333 62.3548 47.8871 63.1271 47.8871 64.0038C47.8871 64.1005 47.894 64.1955 47.9066 64.2888C47.7393 64.449 47.635 64.6737 47.635 64.9228V66.5371C47.635 67.0217 48.0291 67.416 48.5139 67.416H81.5796C81.7195 67.416 81.8536 67.3605 81.9525 67.2616C82.0514 67.1627 82.107 67.0286 82.107 66.8887C82.107 66.5973 81.871 66.3614 81.5796 66.3614H80.0511V56.1898L81.5148 57.3222C81.6378 57.417 81.7885 57.4685 81.9438 57.4689C82.0515 57.4693 82.1578 57.4448 82.2544 57.3972C82.351 57.3496 82.4352 57.2802 82.5005 57.1945L82.5063 57.1871L83.3256 56.0805L83.3311 56.0736C83.3849 56.0061 83.5283 55.8261 83.4951 55.5631V55.563ZM59.0132 61.1402C60.2569 61.1402 61.2687 62.152 61.2687 63.3954C61.2687 63.6209 61.2346 63.8384 61.1728 64.0439H58.1648C58.1876 63.9099 58.2002 63.772 58.2002 63.6313C58.2002 62.9158 57.8939 62.2709 57.4064 61.8194C57.8233 61.3961 58.4001 61.1402 59.0132 61.1402ZM51.6323 33.024H55.5542V33.7266H51.6323V33.024ZM54.8224 34.7813V36.2488L52.3641 38.1511V34.7813H54.8224ZM49.1212 42.8766L48.6958 42.3231L59.5896 33.8936C59.652 33.8456 59.7231 33.8211 59.8014 33.8211C59.8796 33.8211 59.9508 33.8456 60.0129 33.8933L70.892 42.3113L70.4767 42.8724L60.1242 34.8621C60.0318 34.7906 59.9183 34.7519 59.8014 34.7519C59.6846 34.7519 59.5711 34.7906 59.4787 34.8621L49.1212 42.8766ZM62.5876 66.3614H48.6896V65.0985H53.5472C53.6871 65.0985 53.8212 65.043 53.9201 64.9441C54.019 64.8452 54.0746 64.7111 54.0746 64.5712C54.0746 64.4313 54.019 64.2972 53.9201 64.1983C53.8212 64.0994 53.6871 64.0439 53.5472 64.0439H48.9432C48.9426 64.0304 48.9418 64.0172 48.9418 64.0038C48.9418 63.5063 49.2952 63.0765 49.7827 62.982C49.8903 62.9612 49.9887 62.9073 50.0643 62.828C50.1398 62.7486 50.1888 62.6477 50.2044 62.5393C50.3581 61.4706 51.2893 60.6644 52.37 60.6644C53.2676 60.6644 54.0883 61.2278 54.4121 62.0661C54.4382 62.1337 54.478 62.1953 54.5289 62.2469C54.5798 62.2985 54.6409 62.339 54.7082 62.366C54.7755 62.3929 54.8477 62.4056 54.9202 62.4033C54.9927 62.401 55.064 62.3838 55.1295 62.3528C55.3181 62.2634 55.5243 62.2172 55.733 62.2176C56.5119 62.2176 57.1455 62.8519 57.1455 63.6316C57.1455 63.7753 57.123 63.9134 57.083 64.0439H56.0785C55.9386 64.0439 55.8045 64.0994 55.7056 64.1983C55.6067 64.2972 55.5511 64.4313 55.5511 64.5712C55.5511 64.8626 55.787 65.0985 56.0785 65.0985H62.5876L62.5876 66.3614ZM81.8752 56.2675L71.5224 48.2573C71.4301 48.1858 71.3165 48.1469 71.1997 48.1469C71.0829 48.1469 70.9693 48.1858 70.877 48.2573L60.5191 56.2715L60.0937 55.7182L70.9879 47.2889C71.0482 47.2413 71.1229 47.2156 71.1997 47.2162C71.2777 47.2162 71.3491 47.2406 71.4112 47.2887L82.2904 55.7064L81.8752 56.2675Z" fill="black"/>
</g>
<defs>
<filter id="filter0_d_204_211" x="0.5" y="0" width="130" height="130" filterUnits="userSpaceOnUse" color-interpolation-filters="sRGB">
<feFlood flood-opacity="0" result="BackgroundImageFix"/>
<feColorMatrix in="SourceAlpha" type="matrix" values="0 0 0 0 0 0 0 0 0 0 0 0 0 0 0 0 0 0 127 0" result="hardAlpha"/>
<feMorphology radius="5" operator="erode" in="SourceAlpha" result="effect1_dropShadow_204_211"/>
<feOffset dy="15"/>
<feGaussianBlur stdDeviation="15"/>
<feComposite in2="hardAlpha" operator="out"/>
<feColorMatrix type="matrix" values="0 0 0 0 0.121569 0 0 0 0 0.231373 0 0 0 0 0.282353 0 0 0 0.1 0"/>
<feBlend mode="normal" in2="BackgroundImageFix" result="effect1_dropShadow_204_211"/>
<feBlend mode="normal" in="SourceGraphic" in2="effect1_dropShadow_204_211" result="shape"/>
</filter>
</defs>
</svg>
