<svg width="41" height="40" viewBox="0 0 41 40" fill="none" xmlns="http://www.w3.org/2000/svg">
<path d="M17.4685 9.83496H12.1338C11.649 9.83496 11.2549 10.2291 11.2549 10.7139V19.4279C11.2549 19.9124 11.649 20.3069 12.1338 20.3069H17.4684C17.9532 20.3069 18.3473 19.9124 18.3473 19.4279V10.7139C18.3473 10.2291 17.9533 9.83496 17.4685 9.83496ZM14.2736 19.2522H12.3096V17.0956H14.2736V19.2522ZM14.2736 16.0409H12.3096V14.1007H14.2736V16.0409ZM14.2736 13.046H12.3096V10.8896H14.2736V13.046ZM17.2927 19.2522H15.3283V17.0956H17.2927V19.2522ZM17.2927 16.0409H15.3283V14.1007H17.2927V16.0409ZM17.2927 13.046H15.3283V10.8896H17.2927V13.046ZM24.5412 30.8886C24.4013 30.8886 24.2672 30.9441 24.1683 31.043C24.0694 31.1419 24.0138 31.2761 24.0138 31.4159V32.6821C24.0138 32.822 24.0694 32.9561 24.1683 33.055C24.2672 33.1539 24.4013 33.2094 24.5412 33.2094C24.681 33.2094 24.8152 33.1539 24.9141 33.055C25.013 32.9561 25.0685 32.822 25.0685 32.6821V31.4159C25.0685 31.2761 25.013 31.1419 24.9141 31.043C24.8152 30.9441 24.681 30.8886 24.5412 30.8886Z" fill="black"/>
<path d="M38.4951 25.563C38.4713 25.3789 38.3753 25.2119 38.2284 25.0985L27.0561 16.4543C26.8113 16.2638 26.5099 16.1607 26.1997 16.1615C25.8869 16.1615 25.5908 16.2628 25.3428 16.4545L23.6531 17.7619V16.2474C23.6531 15.956 23.4172 15.7201 23.1258 15.7201C22.8344 15.7201 22.5984 15.956 22.5984 16.2474V18.5779L14.1714 25.0982C14.0242 25.2125 13.9281 25.3803 13.9042 25.5651C13.8922 25.6564 13.8984 25.7492 13.9224 25.8381C13.9464 25.927 13.9877 26.0103 14.044 26.0832L14.899 27.1953C14.9644 27.2807 15.0486 27.3498 15.1452 27.3972C15.2417 27.4447 15.3479 27.4692 15.4554 27.4688C15.6098 27.4688 15.7622 27.4169 15.8847 27.3222L26.1997 19.3411L33.9964 25.3737V36.3612H29.7491V35.3724C29.7491 35.081 29.5132 34.8451 29.2218 34.8451C28.9304 34.8451 28.6945 35.081 28.6945 35.3724V36.3612H23.7042V28.2823H28.6945V32.8938C28.6945 33.1853 28.9303 33.4212 29.2218 33.4212C29.5132 33.4212 29.7491 33.1853 29.7491 32.8938V28.1066C29.7491 27.6221 29.3547 27.2277 28.8702 27.2277H23.5287C23.0439 27.2277 22.6495 27.6221 22.6495 28.1066V36.3612H18.6423V34.9228C18.6423 34.438 18.2482 34.0439 17.7633 34.0439H17.2585C17.3006 33.8341 17.3233 33.6174 17.3233 33.3954C17.3233 31.5704 15.8383 30.0856 14.0132 30.0856C13.0225 30.0856 12.0955 30.5401 11.4756 31.2774C11.2354 31.2013 10.9849 31.1627 10.733 31.1628C10.5429 31.1628 10.3561 31.1839 10.1745 31.2262C9.60023 30.2424 8.52853 29.6095 7.37006 29.6095C7.24674 29.6095 7.12474 29.6173 7.00444 29.6313V11.9789L14.8014 5.9458L22.5987 11.9789V13.7861C22.5987 14.0776 22.8346 14.3135 23.1261 14.3135C23.2659 14.3135 23.4001 14.2579 23.499 14.159C23.5979 14.0601 23.6534 13.926 23.6534 13.7861V12.7949L25.1168 13.927C25.2397 14.0219 25.3905 14.0735 25.5458 14.0737C25.6535 14.0741 25.7598 14.0496 25.8563 14.002C25.9529 13.9545 26.0372 13.8852 26.1025 13.7996L26.1083 13.7919L26.9273 12.6856L26.9325 12.679C26.9866 12.6112 27.1303 12.4313 27.0967 12.1678C27.0851 12.0766 27.0555 11.9887 27.0098 11.909C26.964 11.8293 26.9029 11.7594 26.8301 11.7034L15.6581 3.0592C15.4103 2.86774 15.1143 2.76642 14.8014 2.76642C14.4886 2.76642 14.1925 2.86774 13.9445 3.05948L10.8771 5.4328V4.76814C11.2918 4.69783 11.6088 4.33692 11.6088 3.90267V2.84826C11.6088 2.36346 11.2143 1.96936 10.7299 1.96936H6.45657C5.97204 1.96936 5.57766 2.36346 5.57766 2.84826V3.90239C5.57766 4.33692 5.89456 4.69755 6.30933 4.76814V8.96705L2.77396 11.7027C2.62649 11.8167 2.53017 11.9845 2.50607 12.1693C2.49394 12.2607 2.50003 12.3535 2.52398 12.4425C2.54794 12.5315 2.58929 12.6149 2.64564 12.6878L3.50064 13.8C3.56597 13.8855 3.65021 13.9547 3.74677 14.0022C3.84332 14.0497 3.94956 14.0742 4.05716 14.0738C4.21149 14.0738 4.36365 14.0219 4.4867 13.9271L5.94976 12.795V29.9414C5.11262 30.3533 4.46799 31.1168 4.22851 32.0482C3.43335 32.3548 2.88709 33.1271 2.88709 34.0038C2.88709 34.1005 2.89398 34.1955 2.90657 34.2888C2.7393 34.449 2.63495 34.6737 2.63495 34.9228V36.5371C2.63495 37.0217 3.02905 37.416 3.51386 37.416H36.5796C36.7195 37.416 36.8536 37.3605 36.9525 37.2616C37.0514 37.1627 37.107 37.0286 37.107 36.8887C37.107 36.5973 36.871 36.3614 36.5796 36.3614H35.0511V26.1898L36.5148 27.3222C36.6378 27.417 36.7885 27.4685 36.9438 27.4689C37.0515 27.4693 37.1578 27.4448 37.2544 27.3972C37.351 27.3496 37.4352 27.2802 37.5005 27.1945L37.5063 27.1871L38.3256 26.0805L38.3311 26.0736C38.3849 26.0061 38.5283 25.8261 38.4951 25.5631V25.563ZM14.0132 31.1402C15.2569 31.1402 16.2687 32.152 16.2687 33.3954C16.2687 33.6209 16.2346 33.8384 16.1728 34.0439H13.1648C13.1876 33.9099 13.2002 33.772 13.2002 33.6313C13.2002 32.9158 12.8939 32.2709 12.4064 31.8194C12.8233 31.3961 13.4001 31.1402 14.0132 31.1402ZM6.63235 3.02404H10.5542V3.72661H6.63235V3.02404ZM9.82242 4.78129V6.24878L7.36409 8.15108V4.78129H9.82242ZM4.12121 12.8766L3.69575 12.3231L14.5896 3.8936C14.652 3.84557 14.7231 3.82111 14.8014 3.82111C14.8796 3.82111 14.9508 3.84557 15.0129 3.89332L25.892 12.3113L25.4767 12.8724L15.1242 4.86208C15.0318 4.79063 14.9183 4.75186 14.8014 4.75186C14.6846 4.75186 14.5711 4.79063 14.4787 4.86208L4.12121 12.8766ZM17.5876 36.3614H3.68964V35.0985H8.54723C8.68709 35.0985 8.82122 35.043 8.92012 34.9441C9.01902 34.8452 9.07457 34.7111 9.07457 34.5712C9.07457 34.4313 9.01902 34.2972 8.92012 34.1983C8.82122 34.0994 8.68709 34.0439 8.54723 34.0439H3.94318C3.94262 34.0304 3.94178 34.0172 3.94178 34.0038C3.94178 33.5063 4.29524 33.0765 4.78271 32.982C4.89028 32.9612 4.98869 32.9073 5.06426 32.828C5.13983 32.7486 5.1888 32.6477 5.20437 32.5393C5.35815 31.4706 6.28929 30.6644 7.36999 30.6644C8.2676 30.6644 9.08829 31.2278 9.41214 32.0661C9.43822 32.1337 9.47796 32.1953 9.5289 32.2469C9.57983 32.2985 9.64085 32.339 9.70816 32.366C9.77554 32.3929 9.84773 32.4056 9.92023 32.4033C9.99273 32.401 10.064 32.3838 10.1295 32.3528C10.3181 32.2634 10.5243 32.2172 10.733 32.2176C11.5119 32.2176 12.1455 32.8519 12.1455 33.6316C12.1455 33.7753 12.123 33.9134 12.083 34.0439H11.0785C10.9386 34.0439 10.8045 34.0994 10.7056 34.1983C10.6067 34.2972 10.5511 34.4313 10.5511 34.5712C10.5511 34.8626 10.787 35.0985 11.0785 35.0985H17.5876L17.5876 36.3614ZM36.8752 26.2675L26.5224 18.2573C26.4301 18.1858 26.3165 18.1469 26.1997 18.1469C26.0829 18.1469 25.9693 18.1858 25.877 18.2573L15.5191 26.2715L15.0937 25.7182L25.9879 17.2889C26.0482 17.2413 26.1229 17.2156 26.1997 17.2162C26.2777 17.2162 26.3491 17.2406 26.4112 17.2887L37.2904 25.7064L36.8752 26.2675Z" fill="black"/>
</svg>
