<svg width="130" height="130" viewBox="0 0 130 130" fill="none" xmlns="http://www.w3.org/2000/svg">
<g filter="url(#filter0_d_204_220)">
<rect x="25" y="10" width="80" height="80" rx="16" fill="white"/>
<path d="M55.2811 44.2586C55.0069 43.9844 54.5611 43.9844 54.287 44.2586C54.0121 44.5336 54.0121 44.9786 54.287 45.2529C54.5612 45.5278 55.007 45.5278 55.2811 45.2529C55.556 44.9786 55.556 44.5336 55.2811 44.2586ZM64.8031 63.4802C65.1131 63.0603 65.2806 62.5544 65.2806 62.0225C65.2806 60.6656 64.1767 59.5616 62.8198 59.5616H50.8671C50.2094 59.5616 49.5914 59.8175 49.1269 60.2822C48.6621 60.7469 48.4062 61.3648 48.4062 62.0225C48.4057 62.5469 48.5737 63.0576 48.8854 63.4794C47.7658 64.068 47 65.2422 47 66.5926V67.2957C47 67.684 47.3149 67.9988 47.7031 67.9988H65.9837C66.372 67.9988 66.6868 67.684 66.6868 67.2957V66.5926C66.6868 65.2429 65.9218 64.0691 64.8031 63.4802ZM50.1212 61.2765C50.2189 61.1782 50.3352 61.1004 50.4632 61.0474C50.5912 60.9944 50.7285 60.9673 50.8671 60.9677H62.8198C63.4013 60.9677 63.8744 61.4409 63.8744 62.0223C63.8744 62.3043 63.7647 62.5692 63.5656 62.7683C63.4678 62.8665 63.3516 62.9444 63.2236 62.9974C63.0955 63.0504 62.9583 63.0774 62.8197 63.077H50.8671C50.2855 63.077 49.8124 62.6039 49.8124 62.0224C49.8124 61.7405 49.922 61.4756 50.1212 61.2765ZM48.4062 66.5926C48.4062 65.4295 49.3524 64.4833 50.5155 64.4833H63.1713C64.3344 64.4833 65.2806 65.4295 65.2806 66.5926H48.4062Z" fill="black"/>
<path d="M82.3456 61.5401C82.1068 61.17 81.8219 60.8428 81.4987 60.5674L78.2134 57.702C78.1873 57.6627 78.1574 57.6262 78.1241 57.5929C78.0686 57.5376 78.0042 57.492 77.9336 57.4581L75.9468 55.7252L66.7506 47.7032C67.127 47.3096 67.3343 46.795 67.3343 46.2478C67.3343 45.684 67.1149 45.1542 66.716 44.7554C66.5466 44.5862 66.3494 44.4473 66.133 44.345L66.9838 43.4942C67.2209 43.5574 67.4651 43.5895 67.7105 43.5897C68.4306 43.5897 69.1507 43.3156 69.6989 42.7674C70.2303 42.2361 70.5229 41.5298 70.5229 40.7786C70.5229 40.0275 70.2303 39.3212 69.6989 38.7899L63.733 32.8241C63.2017 32.2928 62.4953 32.0001 61.744 32.0001C60.993 32.0001 60.2868 32.2928 59.7555 32.8241C59.0212 33.5585 58.7795 34.6011 59.0288 35.5392L50.5403 44.0276C50.3028 43.9644 50.0581 43.9324 49.8124 43.9324C49.0608 43.9324 48.3548 44.2248 47.8239 44.7557C46.7273 45.8523 46.7273 47.6366 47.8239 48.7332L53.7897 54.6991C54.3381 55.2474 55.0583 55.5216 55.7785 55.5216C56.4988 55.5216 57.219 55.2474 57.7674 54.6991C58.5017 53.9647 58.7435 52.9221 58.4941 51.984L59.3432 51.1349C59.4467 51.3508 59.5861 51.5474 59.7556 51.7165C60.154 52.1149 60.6837 52.3343 61.2473 52.3343C61.794 52.3343 62.3084 52.1274 62.7025 51.7513L72.4974 63.0052C72.5244 63.0473 72.5559 63.0875 72.5928 63.1243C72.6054 63.1369 72.6187 63.1484 72.632 63.1598L75.5508 66.5133C75.6242 66.5998 75.7011 66.6834 75.7814 66.7636C76.583 67.565 77.6419 67.9999 78.7535 67.9999C78.9495 67.9999 79.1473 67.9864 79.3453 67.959C80.6692 67.7757 81.8134 66.9837 82.4844 65.7857C83.2193 64.4728 83.1646 62.8059 82.3456 61.5401ZM60.75 33.8185C60.8802 33.6875 61.0351 33.5836 61.2057 33.5129C61.3764 33.4421 61.5593 33.4059 61.744 33.4064C61.9289 33.4059 62.1119 33.442 62.2827 33.5128C62.4534 33.5835 62.6084 33.6874 62.7388 33.8185L68.7046 39.7843C68.8357 39.9146 68.9395 40.0695 69.0103 40.2402C69.081 40.4109 69.1171 40.594 69.1167 40.7787C69.1172 40.9635 69.081 41.1465 69.0102 41.3172C68.9395 41.4879 68.8356 41.6429 68.7046 41.7731C68.1565 42.3214 67.2645 42.3214 66.7164 41.7731L60.7503 35.8071L60.75 35.8067C60.2017 35.2585 60.2017 34.3666 60.75 33.8185ZM56.773 53.7048C56.2247 54.2531 55.3324 54.2531 54.7841 53.7048L48.8183 47.739C48.2699 47.1906 48.2699 46.2985 48.8183 45.75C49.0835 45.4847 49.4366 45.3386 49.8124 45.3386C50.188 45.3386 50.5409 45.4847 50.8061 45.7497L56.7729 51.7166C57.3212 52.2647 57.3212 53.1567 56.773 53.7048ZM59.7333 48.7562L57.7673 50.7222L51.8009 44.7558L59.7555 36.801L65.7219 42.7674L63.7523 44.7371C63.7459 44.7432 63.7397 44.7491 63.7329 44.7557L59.7576 48.7311C59.7493 48.7392 59.7414 48.7477 59.7333 48.7562ZM62.2439 50.223L62.2397 50.2271L61.7446 50.7222C61.6794 50.7877 61.6019 50.8397 61.5165 50.875C61.4312 50.9103 61.3396 50.9284 61.2472 50.9281C61.1548 50.9284 61.0633 50.9103 60.9779 50.875C60.8925 50.8396 60.815 50.7877 60.7499 50.7222C60.6843 50.657 60.6323 50.5794 60.5969 50.494C60.5616 50.4085 60.5435 50.3169 60.5437 50.2244C60.5437 50.0404 60.614 49.8672 60.7415 49.7365L64.7353 45.7427C65.009 45.4765 65.4516 45.4798 65.722 45.75C65.7876 45.8152 65.8396 45.8928 65.8749 45.9783C65.9103 46.0637 65.9284 46.1553 65.9281 46.2478C65.9284 46.3401 65.9104 46.4317 65.875 46.517C65.8396 46.6023 65.7876 46.6798 65.722 46.7448L65.2297 47.2371C65.2263 47.2404 65.223 47.2437 65.2197 47.2471L62.2439 50.223ZM63.6999 50.7556L65.7549 48.7006L74.4555 56.2898L71.2806 59.4648L63.6999 50.7556ZM72.206 60.528L75.5176 57.2163L76.5799 58.1428L73.1314 61.5914L72.206 60.528ZM81.2575 65.0988C80.8037 65.909 80.0365 66.4437 79.1526 66.5661C78.2707 66.6881 77.4043 66.3977 76.7755 65.7692C76.7219 65.7156 76.6705 65.6597 76.6215 65.6018L76.6147 65.5939L74.0567 62.6546L77.642 59.0693L80.5775 61.6298L80.5843 61.6357C80.804 61.8225 80.999 62.0469 81.1644 62.3032C81.6962 63.1248 81.7334 64.2484 81.2575 65.0988Z" fill="black"/>
<path d="M60.2528 39.287C59.9782 39.0124 59.5331 39.0124 59.2585 39.287L56.2753 42.2702C56.0007 42.5448 56.0007 42.99 56.2753 43.2645C56.3405 43.3299 56.418 43.3817 56.5033 43.4171C56.5886 43.4524 56.6801 43.4706 56.7724 43.4704C56.8648 43.4705 56.9563 43.4524 57.0416 43.4171C57.1269 43.3817 57.2044 43.3299 57.2696 43.2645L60.2528 40.2813C60.5274 40.0068 60.5274 39.5616 60.2528 39.287Z" fill="black"/>
</g>
<defs>
<filter id="filter0_d_204_220" x="0" y="0" width="130" height="130" filterUnits="userSpaceOnUse" color-interpolation-filters="sRGB">
<feFlood flood-opacity="0" result="BackgroundImageFix"/>
<feColorMatrix in="SourceAlpha" type="matrix" values="0 0 0 0 0 0 0 0 0 0 0 0 0 0 0 0 0 0 127 0" result="hardAlpha"/>
<feMorphology radius="5" operator="erode" in="SourceAlpha" result="effect1_dropShadow_204_220"/>
<feOffset dy="15"/>
<feGaussianBlur stdDeviation="15"/>
<feComposite in2="hardAlpha" operator="out"/>
<feColorMatrix type="matrix" values="0 0 0 0 0.121569 0 0 0 0 0.231373 0 0 0 0 0.282353 0 0 0 0.1 0"/>
<feBlend mode="normal" in2="BackgroundImageFix" result="effect1_dropShadow_204_220"/>
<feBlend mode="normal" in="SourceGraphic" in2="effect1_dropShadow_204_220" result="shape"/>
</filter>
</defs>
</svg>
