<svg width="40" height="40" viewBox="0 0 40 40" fill="none" xmlns="http://www.w3.org/2000/svg">
<path d="M10.2811 14.2586C10.0069 13.9844 9.56113 13.9844 9.28698 14.2586C9.01206 14.5336 9.01206 14.9786 9.28698 15.2529C9.5612 15.5278 10.007 15.5278 10.2811 15.2529C10.556 14.9786 10.556 14.5336 10.2811 14.2586ZM19.8031 33.4802C20.1131 33.0603 20.2806 32.5544 20.2806 32.0225C20.2806 30.6656 19.1767 29.5616 17.8198 29.5616H5.86705C5.20942 29.5616 4.59144 29.8175 4.12689 30.2822C3.66212 30.7469 3.40618 31.3648 3.40618 32.0225C3.40571 32.5469 3.57368 33.0576 3.88536 33.4794C2.76577 34.068 2 35.2422 2 36.5926V37.2957C2 37.684 2.31486 37.9988 2.70313 37.9988H20.9837C21.372 37.9988 21.6868 37.684 21.6868 37.2957V36.5926C21.6868 35.2429 20.9218 34.0691 19.8031 33.4802ZM5.12118 31.2765C5.21891 31.1782 5.33515 31.1004 5.46318 31.0474C5.59121 30.9944 5.72849 30.9673 5.86705 30.9677H17.8198C18.4013 30.9677 18.8744 31.4409 18.8744 32.0223C18.8744 32.3043 18.7647 32.5692 18.5656 32.7683C18.4678 32.8665 18.3516 32.9444 18.2236 32.9974C18.0955 33.0504 17.9583 33.0774 17.8197 33.077H5.86705C5.2855 33.077 4.81243 32.6039 4.81243 32.0224C4.81243 31.7405 4.92205 31.4756 5.12118 31.2765ZM3.40618 36.5926C3.40618 35.4295 4.35245 34.4833 5.51549 34.4833H18.1713C19.3344 34.4833 20.2806 35.4295 20.2806 36.5926H3.40618Z" fill="black"/>
<path d="M37.3456 31.5401C37.1068 31.17 36.8219 30.8428 36.4987 30.5674L33.2134 27.702C33.1873 27.6627 33.1574 27.6262 33.1241 27.5929C33.0686 27.5376 33.0042 27.492 32.9336 27.4581L30.9468 25.7252L21.7506 17.7032C22.127 17.3096 22.3343 16.795 22.3343 16.2478C22.3343 15.684 22.1149 15.1542 21.716 14.7554C21.5466 14.5862 21.3494 14.4473 21.133 14.345L21.9838 13.4942C22.2209 13.5574 22.4651 13.5895 22.7105 13.5897C23.4306 13.5897 24.1507 13.3156 24.6989 12.7674C25.2303 12.2361 25.5229 11.5298 25.5229 10.7786C25.5229 10.0275 25.2303 9.32121 24.6989 8.78986L18.733 2.82412C18.2017 2.29276 17.4953 2.00012 16.744 2.00012C15.993 2.00012 15.2868 2.29276 14.7555 2.82412C14.0212 3.55846 13.7795 4.60112 14.0288 5.53924L5.5403 14.0276C5.30281 13.9644 5.05811 13.9324 4.81235 13.9324C4.06085 13.9324 3.35484 14.2248 2.82391 14.7557C1.72732 15.8523 1.72732 17.6366 2.82391 18.7332L8.78972 24.6991C9.33809 25.2474 10.0583 25.5216 10.7785 25.5216C11.4988 25.5216 12.219 25.2474 12.7674 24.6991C13.5017 23.9647 13.7435 22.9221 13.4941 21.984L14.3432 21.1349C14.4467 21.3508 14.5861 21.5474 14.7556 21.7165C15.154 22.1149 15.6837 22.3343 16.2473 22.3343C16.794 22.3343 17.3084 22.1274 17.7025 21.7513L27.4974 33.0052C27.5244 33.0473 27.5559 33.0875 27.5928 33.1243C27.6054 33.1369 27.6187 33.1484 27.632 33.1598L30.5508 36.5133C30.6242 36.5998 30.7011 36.6834 30.7814 36.7636C31.583 37.565 32.6419 37.9999 33.7535 37.9999C33.9495 37.9999 34.1473 37.9864 34.3453 37.959C35.6692 37.7757 36.8134 36.9837 37.4844 35.7857C38.2193 34.4728 38.1646 32.8059 37.3456 31.5401ZM15.75 3.81848C15.8802 3.68748 16.0351 3.5836 16.2057 3.51286C16.3764 3.44213 16.5593 3.40593 16.744 3.40637C16.9289 3.40588 17.1119 3.44204 17.2827 3.51278C17.4534 3.58352 17.6084 3.68742 17.7388 3.81848L23.7046 9.78429C23.8357 9.91457 23.9395 10.0695 24.0103 10.2402C24.081 10.4109 24.1171 10.594 24.1167 10.7787C24.1172 10.9635 24.081 11.1465 24.0102 11.3172C23.9395 11.4879 23.8356 11.6429 23.7046 11.7731C23.1565 12.3214 22.2645 12.3214 21.7164 11.7731L15.7503 5.80706L15.75 5.8067C15.2017 5.25855 15.2017 4.36663 15.75 3.81848ZM11.773 23.7048C11.2247 24.2531 10.3324 24.2531 9.78408 23.7048L3.81827 17.739C3.2699 17.1906 3.2699 16.2985 3.81827 15.75C4.08349 15.4847 4.4366 15.3386 4.81235 15.3386C5.18803 15.3386 5.54093 15.4847 5.80608 15.7497L11.7729 21.7166C12.3212 22.2647 12.3212 23.1567 11.773 23.7048ZM14.7333 18.7562L12.7673 20.7222L6.80086 14.7558L14.7555 6.80099L20.7219 12.7674L18.7523 14.7371C18.7459 14.7432 18.7397 14.7491 18.7329 14.7557L14.7576 18.7311C14.7493 18.7392 14.7414 18.7477 14.7333 18.7562ZM17.2439 20.223L17.2397 20.2271L16.7446 20.7222C16.6794 20.7877 16.6019 20.8397 16.5165 20.875C16.4312 20.9103 16.3396 20.9284 16.2472 20.9281C16.1548 20.9284 16.0633 20.9103 15.9779 20.875C15.8925 20.8396 15.815 20.7877 15.7499 20.7222C15.6843 20.657 15.6323 20.5794 15.5969 20.494C15.5616 20.4085 15.5435 20.3169 15.5437 20.2244C15.5437 20.0404 15.614 19.8672 15.7415 19.7365L19.7353 15.7427C20.009 15.4765 20.4516 15.4798 20.722 15.75C20.7876 15.8152 20.8396 15.8928 20.8749 15.9783C20.9103 16.0637 20.9284 16.1553 20.9281 16.2478C20.9284 16.3401 20.9104 16.4317 20.875 16.517C20.8396 16.6023 20.7876 16.6798 20.722 16.7448L20.2297 17.2371C20.2263 17.2404 20.223 17.2437 20.2197 17.2471L17.2439 20.223ZM18.6999 20.7556L20.7549 18.7006L29.4555 26.2898L26.2806 29.4648L18.6999 20.7556ZM27.206 30.528L30.5176 27.2163L31.5799 28.1428L28.1314 31.5914L27.206 30.528ZM36.2575 35.0988C35.8037 35.909 35.0365 36.4437 34.1526 36.5661C33.2707 36.6881 32.4043 36.3977 31.7755 35.7692C31.7219 35.7156 31.6705 35.6597 31.6215 35.6018L31.6147 35.5939L29.0567 32.6546L32.642 29.0693L35.5775 31.6298L35.5843 31.6357C35.804 31.8225 35.999 32.0469 36.1644 32.3032C36.6962 33.1248 36.7334 34.2484 36.2575 35.0988Z" fill="black"/>
<path d="M15.2528 9.28698C14.9782 9.01241 14.5331 9.01241 14.2585 9.28698L11.2753 12.2702C11.0007 12.5448 11.0007 12.99 11.2753 13.2645C11.3405 13.3299 11.418 13.3817 11.5033 13.4171C11.5886 13.4524 11.6801 13.4706 11.7724 13.4704C11.8648 13.4705 11.9563 13.4524 12.0416 13.4171C12.1269 13.3817 12.2044 13.3299 12.2696 13.2645L15.2528 10.2813C15.5274 10.0068 15.5274 9.56162 15.2528 9.28698Z" fill="black"/>
</svg>
