<svg width="41" height="40" viewBox="0 0 41 40" fill="none" xmlns="http://www.w3.org/2000/svg">
<path d="M24.832 15.4399C24.832 14.6612 24.6011 13.8999 24.1684 13.2524C23.7358 12.6049 23.1208 12.1002 22.4013 11.8022C21.6819 11.5041 20.8902 11.4262 20.1264 11.5781C19.3626 11.73 18.661 12.105 18.1103 12.6557C17.5596 13.2064 17.1846 13.908 17.0327 14.6718C16.8808 15.4356 16.9587 16.2273 17.2568 16.9468C17.5548 17.6662 18.0595 18.2812 18.707 18.7139C19.3545 19.1465 20.1158 19.3774 20.8945 19.3774C21.9385 19.3763 22.9393 18.961 23.6775 18.2229C24.4156 17.4847 24.8308 16.4839 24.832 15.4399ZM20.8945 18.2524C20.3383 18.2524 19.7945 18.0875 19.332 17.7785C18.8695 17.4694 18.509 17.0302 18.2961 16.5162C18.0833 16.0023 18.0276 15.4368 18.1361 14.8913C18.2446 14.3457 18.5125 13.8445 18.9058 13.4512C19.2991 13.0579 19.8003 12.79 20.3458 12.6815C20.8914 12.573 21.4569 12.6287 21.9708 12.8415C22.4847 13.0544 22.924 13.4149 23.233 13.8774C23.5421 14.3399 23.707 14.8837 23.707 15.4399C23.7061 16.1856 23.4095 16.9004 22.8823 17.4277C22.355 17.9549 21.6402 18.2516 20.8945 18.2524Z" fill="black"/>
<path d="M21.457 8.68994H20.332V9.81494H21.457V8.68994Z" fill="black"/>
<path d="M8.25138 12.1774L9.35332 11.9524L8.7312 8.9335C9.52849 8.64361 10.2109 8.10418 10.6771 7.39538C11.1433 6.68659 11.3683 5.84628 11.3187 4.99938L13.5816 4.5325V12.6921C13.1311 13.1525 12.8001 13.7161 12.6175 14.3338C12.4348 14.9515 12.406 15.6045 12.5337 16.2359C12.6879 16.9725 13.0518 17.6488 13.5816 18.1833V24.7049C13.0557 24.5018 12.4924 24.4137 11.9296 24.4467L9.58788 13.0943L8.48595 13.3193L10.7691 24.3966L10.21 28.8702C10.1969 28.9744 10.2133 29.0802 10.2573 29.1756L13.6323 36.4881C13.6948 36.6236 13.8085 36.7287 13.9485 36.7803C14.0885 36.8318 14.2432 36.8257 14.3787 36.7632C14.5142 36.7007 14.6192 36.5869 14.6708 36.4469C14.7224 36.307 14.7163 36.1522 14.6538 36.0168L11.3474 28.8499L11.4762 27.8206L11.6134 28.4854C11.6394 28.6124 11.7083 28.7265 11.8087 28.8085C11.909 28.8905 12.0346 28.9353 12.1641 28.9354C12.2127 28.9354 12.2611 28.9291 12.3081 28.9169L16.4673 27.8149H18.6441V29.9598C18.6441 30.1089 18.7034 30.252 18.8089 30.3575C18.9144 30.463 19.0575 30.5223 19.2066 30.5223C19.3558 30.5223 19.4989 30.463 19.6044 30.3575C19.7099 30.252 19.7691 30.1089 19.7691 29.9598V23.3149C19.7691 23.0166 19.8877 22.7304 20.0986 22.5194C20.3096 22.3085 20.5958 22.1899 20.8941 22.1899C21.1925 22.1899 21.4787 22.3085 21.6896 22.5194C21.9006 22.7304 22.0191 23.0166 22.0191 23.3149V28.7071C22.019 28.8035 22.0437 28.8983 22.0908 28.9824C22.1379 29.0665 22.2058 29.1371 22.288 29.1874C23.1498 29.7145 23.7066 30.9424 23.7066 32.3149C23.7066 34.1442 22.6761 35.6899 21.4566 35.6899C21.3075 35.6899 21.1644 35.7492 21.0589 35.8547C20.9534 35.9602 20.8941 36.1033 20.8941 36.2524C20.8941 36.4016 20.9534 36.5447 21.0589 36.6502C21.1644 36.7557 21.3075 36.8149 21.4566 36.8149C23.3179 36.8149 24.8316 34.7961 24.8316 32.3149C24.8316 32.1698 24.8204 32.0275 24.8103 31.8846L25.8571 31.3902C26.2204 31.2256 26.5289 30.9603 26.7459 30.6257C26.963 30.2911 27.0795 29.9013 27.0816 29.5024C27.0814 29.0904 26.9561 28.688 26.7222 28.3488L29.5066 28.9231C29.5436 28.9304 29.5813 28.9341 29.6191 28.9343C29.7487 28.9343 29.8744 28.8896 29.9749 28.8076C30.0754 28.7256 30.1444 28.6114 30.1703 28.4843L31.7954 20.5998L30.6934 20.3748L29.8542 24.4473C29.2931 24.4143 28.7313 24.5015 28.2066 24.7032V18.1782C28.7346 17.6445 29.0971 16.9696 29.2506 16.2348C29.3778 15.6045 29.3492 14.9527 29.1673 14.336C28.9853 13.7193 28.6556 13.1564 28.2066 12.6961V4.53307L30.4639 4.99825C30.4138 5.84526 30.6386 6.68581 31.1048 7.39472C31.5711 8.10362 32.2538 8.64295 33.0514 8.93238L30.9241 19.2604L32.026 19.4854L34.9409 5.347C34.971 5.20136 34.9423 5.0497 34.8609 4.92521C34.7795 4.80071 34.6521 4.71351 34.5066 4.68269L28.1363 3.36982C28.0901 3.27876 28.0198 3.20216 27.933 3.14839C27.8462 3.09462 27.7462 3.06575 27.6441 3.06494H14.1441C14.0422 3.06575 13.9425 3.0945 13.8558 3.14805C13.7692 3.20161 13.6988 3.27793 13.6525 3.36869L7.28163 4.68269C7.13561 4.71288 7.00755 4.79981 6.92559 4.92438C6.84364 5.04895 6.8145 5.20096 6.84457 5.347L8.25138 12.1774ZM14.7066 26.6899V24.4962C15.2466 24.6075 15.7422 24.8746 16.1321 25.2645C16.522 25.6544 16.7891 26.1499 16.9004 26.6899H14.7066ZM12.1591 25.5616C12.6602 25.5648 13.1513 25.702 13.5816 25.9587V27.2524C13.5844 27.305 13.5949 27.357 13.6126 27.4066L12.595 27.676L12.1591 25.5616ZM20.8941 21.0649C20.2974 21.0649 19.7251 21.302 19.3031 21.724C18.8812 22.1459 18.6441 22.7182 18.6441 23.3149V26.6899H18.0366C17.9145 25.8502 17.5244 25.0723 16.9243 24.4722C16.3243 23.8722 15.5464 23.482 14.7066 23.3599V7.51994C15.5464 7.39784 16.3243 7.0077 16.9243 6.40764C17.5244 5.80759 17.9145 5.02972 18.0366 4.18994H23.7516C23.8737 5.02972 24.2639 5.80759 24.8639 6.40764C25.464 7.0077 26.2419 7.39784 27.0816 7.51994V23.3599C26.2534 23.4812 25.4852 23.863 24.8885 24.4501C24.2918 25.0372 23.8976 25.7991 23.7629 26.6253L23.1441 26.3333V23.3149C23.1441 22.7182 22.9071 22.1459 22.4851 21.724C22.0632 21.302 21.4909 21.0649 20.8941 21.0649ZM24.8879 26.6899C24.9992 26.1499 25.2663 25.6544 25.6562 25.2645C26.0461 24.8746 26.5416 24.6075 27.0816 24.4962V26.6899H24.8879ZM25.3761 30.3726L24.61 30.7343C24.3814 29.8239 23.8678 29.0103 23.1441 28.4123V27.8149H23.6464L25.3767 28.6323C25.5485 28.7039 25.6952 28.8247 25.7984 28.9795C25.9017 29.1344 25.9567 29.3163 25.9567 29.5024C25.9567 29.6885 25.9017 29.8705 25.7984 30.0253C25.6952 30.1802 25.5485 30.301 25.3767 30.3726H25.3761ZM29.6247 25.5616L29.1826 27.7075L28.1464 27.4938C28.1848 27.419 28.2054 27.3364 28.2066 27.2524V25.9587C28.6358 25.7025 29.1249 25.5654 29.6247 25.5616ZM33.2809 7.81863C32.7748 7.60067 32.3435 7.23917 32.0405 6.77882C31.7375 6.31847 31.576 5.77944 31.576 5.22832L33.7236 5.671L33.2809 7.81863ZM27.0816 6.38369C26.5416 6.27237 26.0461 6.00527 25.6562 5.6154C25.2663 5.22552 24.9992 4.72996 24.8879 4.18994H27.0816V6.38369ZM16.9004 4.18994C16.7891 4.72996 16.522 5.22552 16.1321 5.6154C15.7422 6.00527 15.2466 6.27237 14.7066 6.38369V4.18994H16.9004ZM10.2066 5.22832C10.2065 5.77956 10.045 6.3187 9.74186 6.77914C9.43876 7.23958 9.00743 7.60115 8.50113 7.81919L8.05845 5.671L10.2066 5.22832Z" fill="black"/>
</svg>
