<svg width="131" height="130" viewBox="0 0 131 130" fill="none" xmlns="http://www.w3.org/2000/svg">
<g filter="url(#filter0_d_204_203)">
<rect x="25.5" y="10" width="80" height="80" rx="16" fill="white"/>
<path d="M69.832 45.4399C69.832 44.6612 69.6011 43.8999 69.1684 43.2524C68.7358 42.6049 68.1208 42.1002 67.4013 41.8022C66.6819 41.5041 65.8902 41.4262 65.1264 41.5781C64.3626 41.73 63.661 42.105 63.1103 42.6557C62.5596 43.2064 62.1846 43.908 62.0327 44.6718C61.8808 45.4356 61.9587 46.2273 62.2568 46.9468C62.5548 47.6662 63.0595 48.2812 63.707 48.7139C64.3545 49.1465 65.1158 49.3774 65.8945 49.3774C66.9385 49.3763 67.9393 48.961 68.6775 48.2229C69.4156 47.4847 69.8308 46.4839 69.832 45.4399ZM65.8945 48.2524C65.3383 48.2524 64.7945 48.0875 64.332 47.7785C63.8695 47.4694 63.509 47.0302 63.2961 46.5162C63.0833 46.0023 63.0276 45.4368 63.1361 44.8913C63.2446 44.3457 63.5125 43.8445 63.9058 43.4512C64.2991 43.0579 64.8003 42.79 65.3458 42.6815C65.8914 42.573 66.4569 42.6287 66.9708 42.8415C67.4847 43.0544 67.924 43.4149 68.233 43.8774C68.5421 44.3399 68.707 44.8837 68.707 45.4399C68.7061 46.1856 68.4095 46.9004 67.8823 47.4277C67.355 47.9549 66.6402 48.2516 65.8945 48.2524Z" fill="black"/>
<path d="M66.457 38.6899H65.332V39.8149H66.457V38.6899Z" fill="black"/>
<path d="M53.2514 42.1774L54.3533 41.9524L53.7312 38.9335C54.5285 38.6436 55.2109 38.1042 55.6771 37.3954C56.1433 36.6866 56.3683 35.8463 56.3187 34.9994L58.5816 34.5325V42.6921C58.1311 43.1525 57.8001 43.7161 57.6175 44.3338C57.4348 44.9515 57.406 45.6045 57.5337 46.2359C57.6879 46.9725 58.0518 47.6488 58.5816 48.1833V54.7049C58.0557 54.5018 57.4924 54.4137 56.9296 54.4467L54.5879 43.0943L53.4859 43.3193L55.7691 54.3966L55.21 58.8702C55.1969 58.9744 55.2133 59.0802 55.2573 59.1756L58.6323 66.4881C58.6948 66.6236 58.8085 66.7287 58.9485 66.7803C59.0885 66.8318 59.2432 66.8257 59.3787 66.7632C59.5142 66.7007 59.6192 66.5869 59.6708 66.4469C59.7224 66.307 59.7163 66.1522 59.6538 66.0168L56.3474 58.8499L56.4762 57.8206L56.6134 58.4854C56.6394 58.6124 56.7083 58.7265 56.8087 58.8085C56.909 58.8905 57.0346 58.9353 57.1641 58.9354C57.2127 58.9354 57.2611 58.9291 57.3081 58.9169L61.4673 57.8149H63.6441V59.9598C63.6441 60.1089 63.7034 60.252 63.8089 60.3575C63.9144 60.463 64.0575 60.5223 64.2066 60.5223C64.3558 60.5223 64.4989 60.463 64.6044 60.3575C64.7099 60.252 64.7691 60.1089 64.7691 59.9598V53.3149C64.7691 53.0166 64.8877 52.7304 65.0986 52.5194C65.3096 52.3085 65.5958 52.1899 65.8941 52.1899C66.1925 52.1899 66.4787 52.3085 66.6896 52.5194C66.9006 52.7304 67.0191 53.0166 67.0191 53.3149V58.7071C67.019 58.8035 67.0437 58.8983 67.0908 58.9824C67.1379 59.0665 67.2058 59.1371 67.288 59.1874C68.1498 59.7145 68.7066 60.9424 68.7066 62.3149C68.7066 64.1442 67.6761 65.6899 66.4566 65.6899C66.3075 65.6899 66.1644 65.7492 66.0589 65.8547C65.9534 65.9602 65.8941 66.1033 65.8941 66.2524C65.8941 66.4016 65.9534 66.5447 66.0589 66.6502C66.1644 66.7557 66.3075 66.8149 66.4566 66.8149C68.3179 66.8149 69.8316 64.7961 69.8316 62.3149C69.8316 62.1698 69.8204 62.0275 69.8103 61.8846L70.8571 61.3902C71.2204 61.2256 71.5289 60.9603 71.7459 60.6257C71.963 60.2911 72.0795 59.9013 72.0816 59.5024C72.0814 59.0904 71.9561 58.688 71.7222 58.3488L74.5066 58.9231C74.5436 58.9304 74.5813 58.9341 74.6191 58.9343C74.7487 58.9343 74.8744 58.8896 74.9749 58.8076C75.0754 58.7256 75.1444 58.6114 75.1703 58.4843L76.7954 50.5998L75.6934 50.3748L74.8542 54.4473C74.2931 54.4143 73.7313 54.5015 73.2066 54.7032V48.1782C73.7346 47.6445 74.0971 46.9696 74.2506 46.2348C74.3778 45.6045 74.3492 44.9527 74.1673 44.336C73.9853 43.7193 73.6556 43.1564 73.2066 42.6961V34.5331L75.4639 34.9983C75.4138 35.8453 75.6386 36.6858 76.1048 37.3947C76.5711 38.1036 77.2538 38.643 78.0514 38.9324L75.9241 49.2604L77.026 49.4854L79.9409 35.347C79.971 35.2014 79.9423 35.0497 79.8609 34.9252C79.7795 34.8007 79.6521 34.7135 79.5066 34.6827L73.1363 33.3698C73.0901 33.2788 73.0198 33.2022 72.933 33.1484C72.8462 33.0946 72.7462 33.0658 72.6441 33.0649H59.1441C59.0422 33.0657 58.9425 33.0945 58.8558 33.1481C58.7692 33.2016 58.6988 33.2779 58.6525 33.3687L52.2816 34.6827C52.1356 34.7129 52.0075 34.7998 51.9256 34.9244C51.8436 35.0489 51.8145 35.201 51.8446 35.347L53.2514 42.1774ZM59.7066 56.6899V54.4962C60.2466 54.6075 60.7422 54.8746 61.1321 55.2645C61.522 55.6544 61.7891 56.1499 61.9004 56.6899H59.7066ZM57.1591 55.5616C57.6602 55.5648 58.1513 55.702 58.5816 55.9587V57.2524C58.5844 57.305 58.5949 57.357 58.6126 57.4066L57.595 57.676L57.1591 55.5616ZM65.8941 51.0649C65.2974 51.0649 64.7251 51.302 64.3031 51.724C63.8812 52.1459 63.6441 52.7182 63.6441 53.3149V56.6899H63.0366C62.9145 55.8502 62.5244 55.0723 61.9243 54.4722C61.3243 53.8722 60.5464 53.482 59.7066 53.3599V37.5199C60.5464 37.3978 61.3243 37.0077 61.9243 36.4076C62.5244 35.8076 62.9145 35.0297 63.0366 34.1899H68.7516C68.8737 35.0297 69.2639 35.8076 69.8639 36.4076C70.464 37.0077 71.2419 37.3978 72.0816 37.5199V53.3599C71.2534 53.4812 70.4852 53.863 69.8885 54.4501C69.2918 55.0372 68.8976 55.7991 68.7629 56.6253L68.1441 56.3333V53.3149C68.1441 52.7182 67.9071 52.1459 67.4851 51.724C67.0632 51.302 66.4909 51.0649 65.8941 51.0649ZM69.8879 56.6899C69.9992 56.1499 70.2663 55.6544 70.6562 55.2645C71.0461 54.8746 71.5416 54.6075 72.0816 54.4962V56.6899H69.8879ZM70.3761 60.3726L69.61 60.7343C69.3814 59.8239 68.8678 59.0103 68.1441 58.4123V57.8149H68.6464L70.3767 58.6323C70.5485 58.7039 70.6952 58.8247 70.7984 58.9795C70.9017 59.1344 70.9567 59.3163 70.9567 59.5024C70.9567 59.6885 70.9017 59.8705 70.7984 60.0253C70.6952 60.1802 70.5485 60.301 70.3767 60.3726H70.3761ZM74.6247 55.5616L74.1826 57.7075L73.1464 57.4938C73.1848 57.419 73.2054 57.3364 73.2066 57.2524V55.9587C73.6358 55.7025 74.1249 55.5654 74.6247 55.5616ZM78.2809 37.8186C77.7748 37.6007 77.3435 37.2392 77.0405 36.7788C76.7375 36.3185 76.576 35.7794 76.576 35.2283L78.7236 35.671L78.2809 37.8186ZM72.0816 36.3837C71.5416 36.2724 71.0461 36.0053 70.6562 35.6154C70.2663 35.2255 69.9992 34.73 69.8879 34.1899H72.0816V36.3837ZM61.9004 34.1899C61.7891 34.73 61.522 35.2255 61.1321 35.6154C60.7422 36.0053 60.2466 36.2724 59.7066 36.3837V34.1899H61.9004ZM55.2066 35.2283C55.2065 35.7796 55.045 36.3187 54.7419 36.7791C54.4388 37.2396 54.0074 37.6012 53.5011 37.8192L53.0584 35.671L55.2066 35.2283Z" fill="black"/>
</g>
<defs>
<filter id="filter0_d_204_203" x="0.5" y="0" width="130" height="130" filterUnits="userSpaceOnUse" color-interpolation-filters="sRGB">
<feFlood flood-opacity="0" result="BackgroundImageFix"/>
<feColorMatrix in="SourceAlpha" type="matrix" values="0 0 0 0 0 0 0 0 0 0 0 0 0 0 0 0 0 0 127 0" result="hardAlpha"/>
<feMorphology radius="5" operator="erode" in="SourceAlpha" result="effect1_dropShadow_204_203"/>
<feOffset dy="15"/>
<feGaussianBlur stdDeviation="15"/>
<feComposite in2="hardAlpha" operator="out"/>
<feColorMatrix type="matrix" values="0 0 0 0 0.121569 0 0 0 0 0.231373 0 0 0 0 0.282353 0 0 0 0.1 0"/>
<feBlend mode="normal" in2="BackgroundImageFix" result="effect1_dropShadow_204_203"/>
<feBlend mode="normal" in="SourceGraphic" in2="effect1_dropShadow_204_203" result="shape"/>
</filter>
</defs>
</svg>
