<svg width="40" height="40" viewBox="0 0 40 40" fill="none" xmlns="http://www.w3.org/2000/svg">
<path d="M32.1936 9.54844C31.8738 9.54844 31.613 9.28816 31.613 8.96779H30.4517C30.4517 9.72365 30.9387 10.3624 31.613 10.6028V11.2904H32.7742V10.6028C33.4485 10.3624 33.9355 9.72365 33.9355 8.96779C33.9355 8.00755 33.1538 7.22586 32.1936 7.22586C31.8738 7.22586 31.613 6.96558 31.613 6.64521C31.613 6.32484 31.8738 6.06457 32.1936 6.06457C32.5134 6.06457 32.7742 6.32484 32.7742 6.64521H33.9355C33.9355 5.88936 33.4485 5.25058 32.7742 5.01019V4.32263H31.613V5.01019C30.9387 5.25058 30.4517 5.88936 30.4517 6.64521C30.4517 7.60545 31.2334 8.38715 32.1936 8.38715C32.5134 8.38715 32.7742 8.64742 32.7742 8.96779C32.7742 9.28816 32.5134 9.54844 32.1936 9.54844Z" fill="#282832"/>
<path d="M32.1938 13.6129C35.3956 13.6129 38.0003 11.0082 38.0003 7.80645C38.0003 4.6047 35.3956 2 32.1938 2C28.9921 2 26.3874 4.6047 26.3874 7.80645C26.3874 11.0082 28.9921 13.6129 32.1938 13.6129ZM32.1938 3.16129C34.7552 3.16129 36.839 5.24508 36.839 7.80645C36.839 10.3678 34.7552 12.4516 32.1938 12.4516C29.6324 12.4516 27.5487 10.3678 27.5487 7.80645C27.5487 5.24508 29.6324 3.16129 32.1938 3.16129ZM36.839 13.6129H35.6777V20.5806H34.5164V14.7742H33.3551V20.5806H32.1938V16.5161H31.0325V20.5806H29.8712V18.2581H28.7099V20.5806H27.5487V19.4194H26.3874V20.5806H25.2261V21.7419H38.0003V20.5806H36.839V13.6129Z" fill="#282832"/>
<path d="M30.9574 30.3092L29.065 29.9307L24.4866 22.8084C24.0569 22.1407 23.3265 21.7418 22.5327 21.7418H21.1613V20.5805H22.9032V19.9999C22.9032 18.3991 21.6008 17.0967 20 17.0967H17.4795L16.8586 15.6485C16.2176 14.1524 15.3217 12.8028 14.1935 11.6333V10.9767C14.9043 10.3385 15.3548 9.41589 15.3548 8.38698V7.22569C15.3548 5.30426 13.7924 3.74182 11.871 3.74182C9.94954 3.74182 8.3871 5.30426 8.3871 7.22569V8.38698C8.3871 9.41531 8.83761 10.3379 9.54839 10.9767V12.2907L8.51244 14.0174L6.60742 9.34156C6.62731 9.21912 6.64516 9.0961 6.64516 8.96763C6.64516 7.68672 5.60348 6.64505 4.32258 6.64505C3.04168 6.64505 2 7.68672 2 8.96763C2 9.8542 2.50516 10.6172 3.23728 11.0087L10.0831 27.5523L8.27627 32.0692C7.85406 31.9473 7.43077 31.8311 7.0109 31.6998V31.6992C6.82726 31.6419 6.63599 31.6127 6.4436 31.6128H6.22245C5.17482 31.6128 4.32258 32.465 4.32258 33.5127C4.32258 34.3637 4.89502 35.1171 5.71439 35.3433L6.99645 35.6994C12.4906 37.226 18.1666 37.9999 23.8689 37.9999H29.2903C30.2506 37.9999 31.0323 37.2182 31.0323 36.2579C31.0323 35.2977 30.2506 34.516 29.2903 34.516H25.4674C24.0279 34.516 22.5924 34.4601 21.1613 34.3603V28.1289H23.4275L26.3035 32.8024C26.5161 33.1486 26.8858 33.3547 27.2924 33.3547H30.656C31.5037 33.3547 32.1936 32.6649 32.1936 31.8172C32.1936 31.086 31.6733 30.4515 30.9574 30.3092V30.3092ZM21.6427 19.4192H13.415L11.933 15.9609C11.8919 15.8652 11.8708 15.762 11.871 15.6578V15.543C11.871 15.1191 12.216 14.7741 12.6405 14.7741C12.9719 14.7741 13.265 14.9853 13.3696 15.3L14.3554 18.2579H20C20.7573 18.2579 21.4028 18.7434 21.6427 19.4192ZM12.2217 33.0726L14.02 28.1289H17.6774V34.0145C15.8457 33.7822 14.0253 33.4679 12.2217 33.0726ZM11.0975 26.9676L4.59904 11.2624C5.096 11.2026 5.54368 10.9911 5.8933 10.6679L12.0615 25.8063H17.6774V26.9676H11.0975ZM9.54839 7.22569C9.54839 5.94479 10.5901 4.90311 11.871 4.90311C13.1519 4.90311 14.1935 5.94479 14.1935 7.22569V8.38698C14.1935 9.66789 13.1519 10.7096 11.871 10.7096C10.5901 10.7096 9.54839 9.66789 9.54839 8.38698V7.22569ZM10.7097 12.6123V11.6676C11.0737 11.7971 11.4633 11.8709 11.871 11.8709C12.2787 11.8709 12.6682 11.7966 13.0323 11.6676V12.1113L13.2024 12.2814C14.3055 13.3846 15.1765 14.6714 15.7915 16.1055L16.2164 17.0967H15.193L14.4717 14.9326C14.3437 14.5482 14.0979 14.2138 13.7693 13.9769C13.4406 13.74 13.0456 13.6126 12.6405 13.6128C11.5761 13.6128 10.7097 14.4787 10.7097 15.543V15.6578C10.7097 15.9209 10.7619 16.1775 10.8659 16.4185L12.6495 20.5805H17.6774V24.645H12.8417L9.06014 15.3618L10.7097 12.6123ZM4.32258 7.80634C4.96303 7.80634 5.48387 8.32718 5.48387 8.96763C5.48387 9.60808 4.96303 10.1289 4.32258 10.1289C3.68213 10.1289 3.16129 9.60808 3.16129 8.96763C3.16129 8.32718 3.68213 7.80634 4.32258 7.80634ZM11.1026 28.1289H12.7836L11.0802 32.8135C10.518 32.6788 9.95665 32.5413 9.39815 32.3908L11.1026 28.1289ZM29.2903 35.6773C29.6101 35.6773 29.871 35.9376 29.871 36.2579C29.871 36.5783 29.6101 36.8386 29.2903 36.8386H23.8689C18.2718 36.8384 12.7006 36.0787 7.30775 34.5804L6.02569 34.2245C5.70611 34.1369 5.48387 33.8435 5.48387 33.5127C5.48387 33.1055 5.81527 32.7741 6.22245 32.7741H6.4436C6.51786 32.7741 6.5924 32.7857 6.66389 32.8078C12.7581 34.7116 19.0843 35.6773 25.4674 35.6773H29.2903ZM18.8387 34.1543V20.5805H20V34.2645C19.6127 34.2303 19.2254 34.1963 18.8387 34.1543ZM21.1613 26.9676V25.8063H21.9979L22.7127 26.9676H21.1613ZM30.656 32.1934H27.2924L22.6472 24.645H21.1613V22.9031H22.5327C22.7272 22.9029 22.9187 22.9516 23.0894 23.0449C23.2601 23.1381 23.4045 23.2729 23.5094 23.4367L28.3544 30.9729L30.7297 31.4478C30.8151 31.465 30.8918 31.5112 30.9469 31.5786C31.0021 31.6459 31.0322 31.7302 31.0323 31.8172C31.0321 31.917 30.9924 32.0126 30.9218 32.0831C30.8513 32.1536 30.7557 32.1933 30.656 32.1934Z" fill="#282832"/>
</svg>
