<svg width="130" height="130" viewBox="0 0 130 130" fill="none" xmlns="http://www.w3.org/2000/svg">
<g filter="url(#filter0_d_204_197)">
<rect x="25" y="10" width="80" height="80" rx="16" fill="white"/>
<path d="M77.1936 39.5484C76.8738 39.5484 76.613 39.2882 76.613 38.9678H75.4517C75.4517 39.7236 75.9387 40.3624 76.613 40.6028V41.2904H77.7742V40.6028C78.4485 40.3624 78.9355 39.7236 78.9355 38.9678C78.9355 38.0076 78.1538 37.2259 77.1936 37.2259C76.8738 37.2259 76.613 36.9656 76.613 36.6452C76.613 36.3248 76.8738 36.0646 77.1936 36.0646C77.5134 36.0646 77.7742 36.3248 77.7742 36.6452H78.9355C78.9355 35.8894 78.4485 35.2506 77.7742 35.0102V34.3226H76.613V35.0102C75.9387 35.2506 75.4517 35.8894 75.4517 36.6452C75.4517 37.6055 76.2334 38.3871 77.1936 38.3871C77.5134 38.3871 77.7742 38.6474 77.7742 38.9678C77.7742 39.2882 77.5134 39.5484 77.1936 39.5484Z" fill="#282832"/>
<path d="M77.1938 43.6129C80.3956 43.6129 83.0003 41.0082 83.0003 37.8065C83.0003 34.6047 80.3956 32 77.1938 32C73.9921 32 71.3874 34.6047 71.3874 37.8065C71.3874 41.0082 73.9921 43.6129 77.1938 43.6129ZM77.1938 33.1613C79.7552 33.1613 81.839 35.2451 81.839 37.8065C81.839 40.3678 79.7552 42.4516 77.1938 42.4516C74.6324 42.4516 72.5487 40.3678 72.5487 37.8065C72.5487 35.2451 74.6324 33.1613 77.1938 33.1613ZM81.839 43.6129H80.6777V50.5806H79.5164V44.7742H78.3551V50.5806H77.1938V46.5161H76.0325V50.5806H74.8712V48.2581H73.7099V50.5806H72.5487V49.4194H71.3874V50.5806H70.2261V51.7419H83.0003V50.5806H81.839V43.6129Z" fill="#282832"/>
<path d="M75.9574 60.3092L74.065 59.9307L69.4866 52.8084C69.0569 52.1407 68.3265 51.7418 67.5327 51.7418H66.1613V50.5805H67.9032V49.9999C67.9032 48.3991 66.6008 47.0967 65 47.0967H62.4795L61.8586 45.6485C61.2176 44.1524 60.3217 42.8028 59.1935 41.6333V40.9767C59.9043 40.3385 60.3548 39.4159 60.3548 38.387V37.2257C60.3548 35.3043 58.7924 33.7418 56.871 33.7418C54.9495 33.7418 53.3871 35.3043 53.3871 37.2257V38.387C53.3871 39.4153 53.8376 40.3379 54.5484 40.9767V42.2907L53.5124 44.0174L51.6074 39.3416C51.6273 39.2191 51.6452 39.0961 51.6452 38.9676C51.6452 37.6867 50.6035 36.645 49.3226 36.645C48.0417 36.645 47 37.6867 47 38.9676C47 39.8542 47.5052 40.6172 48.2373 41.0087L55.0831 57.5523L53.2763 62.0692C52.8541 61.9473 52.4308 61.8311 52.0109 61.6998V61.6992C51.8273 61.6419 51.636 61.6127 51.4436 61.6128H51.2225C50.1748 61.6128 49.3226 62.465 49.3226 63.5127C49.3226 64.3637 49.895 65.1171 50.7144 65.3433L51.9965 65.6994C57.4906 67.226 63.1666 67.9999 68.8689 67.9999H74.2903C75.2506 67.9999 76.0323 67.2182 76.0323 66.2579C76.0323 65.2977 75.2506 64.516 74.2903 64.516H70.4674C69.0279 64.516 67.5924 64.4601 66.1613 64.3603V58.1289H68.4275L71.3035 62.8024C71.5161 63.1486 71.8858 63.3547 72.2924 63.3547H75.656C76.5037 63.3547 77.1936 62.6649 77.1936 61.8172C77.1936 61.086 76.6733 60.4515 75.9574 60.3092V60.3092ZM66.6427 49.4192H58.415L56.933 45.9609C56.8919 45.8652 56.8708 45.762 56.871 45.6578V45.543C56.871 45.1191 57.216 44.7741 57.6405 44.7741C57.9719 44.7741 58.265 44.9853 58.3696 45.3L59.3554 48.2579H65C65.7573 48.2579 66.4028 48.7434 66.6427 49.4192ZM57.2217 63.0726L59.02 58.1289H62.6774V64.0145C60.8457 63.7822 59.0253 63.4679 57.2217 63.0726ZM56.0975 56.9676L49.599 41.2624C50.096 41.2026 50.5437 40.9911 50.8933 40.6679L57.0615 55.8063H62.6774V56.9676H56.0975ZM54.5484 37.2257C54.5484 35.9448 55.5901 34.9031 56.871 34.9031C58.1519 34.9031 59.1935 35.9448 59.1935 37.2257V38.387C59.1935 39.6679 58.1519 40.7096 56.871 40.7096C55.5901 40.7096 54.5484 39.6679 54.5484 38.387V37.2257ZM55.7097 42.6123V41.6676C56.0737 41.7971 56.4633 41.8709 56.871 41.8709C57.2787 41.8709 57.6682 41.7966 58.0323 41.6676V42.1113L58.2024 42.2814C59.3055 43.3846 60.1765 44.6714 60.7915 46.1055L61.2164 47.0967H60.193L59.4717 44.9326C59.3437 44.5482 59.0979 44.2138 58.7693 43.9769C58.4406 43.74 58.0456 43.6126 57.6405 43.6128C56.5761 43.6128 55.7097 44.4787 55.7097 45.543V45.6578C55.7097 45.9209 55.7619 46.1775 55.8659 46.4185L57.6495 50.5805H62.6774V54.645H57.8417L54.0601 45.3618L55.7097 42.6123ZM49.3226 37.8063C49.963 37.8063 50.4839 38.3272 50.4839 38.9676C50.4839 39.6081 49.963 40.1289 49.3226 40.1289C48.6821 40.1289 48.1613 39.6081 48.1613 38.9676C48.1613 38.3272 48.6821 37.8063 49.3226 37.8063ZM56.1026 58.1289H57.7836L56.0802 62.8135C55.518 62.6788 54.9567 62.5413 54.3981 62.3908L56.1026 58.1289ZM74.2903 65.6773C74.6101 65.6773 74.871 65.9376 74.871 66.2579C74.871 66.5783 74.6101 66.8386 74.2903 66.8386H68.8689C63.2718 66.8384 57.7006 66.0787 52.3078 64.5804L51.0257 64.2245C50.7061 64.1369 50.4839 63.8435 50.4839 63.5127C50.4839 63.1055 50.8153 62.7741 51.2225 62.7741H51.4436C51.5179 62.7741 51.5924 62.7857 51.6639 62.8078C57.7581 64.7116 64.0843 65.6773 70.4674 65.6773H74.2903ZM63.8387 64.1543V50.5805H65V64.2645C64.6127 64.2303 64.2254 64.1963 63.8387 64.1543ZM66.1613 56.9676V55.8063H66.9979L67.7127 56.9676H66.1613ZM75.656 62.1934H72.2924L67.6472 54.645H66.1613V52.9031H67.5327C67.7272 52.9029 67.9187 52.9516 68.0894 53.0449C68.2601 53.1381 68.4045 53.2729 68.5094 53.4367L73.3544 60.9729L75.7297 61.4478C75.8151 61.465 75.8918 61.5112 75.9469 61.5786C76.0021 61.6459 76.0322 61.7302 76.0323 61.8172C76.0321 61.917 75.9924 62.0126 75.9218 62.0831C75.8513 62.1536 75.7557 62.1933 75.656 62.1934Z" fill="#282832"/>
</g>
<defs>
<filter id="filter0_d_204_197" x="0" y="0" width="130" height="130" filterUnits="userSpaceOnUse" color-interpolation-filters="sRGB">
<feFlood flood-opacity="0" result="BackgroundImageFix"/>
<feColorMatrix in="SourceAlpha" type="matrix" values="0 0 0 0 0 0 0 0 0 0 0 0 0 0 0 0 0 0 127 0" result="hardAlpha"/>
<feMorphology radius="5" operator="erode" in="SourceAlpha" result="effect1_dropShadow_204_197"/>
<feOffset dy="15"/>
<feGaussianBlur stdDeviation="15"/>
<feComposite in2="hardAlpha" operator="out"/>
<feColorMatrix type="matrix" values="0 0 0 0 0.121569 0 0 0 0 0.231373 0 0 0 0 0.282353 0 0 0 0.1 0"/>
<feBlend mode="normal" in2="BackgroundImageFix" result="effect1_dropShadow_204_197"/>
<feBlend mode="normal" in="SourceGraphic" in2="effect1_dropShadow_204_197" result="shape"/>
</filter>
</defs>
</svg>
