<svg width="41" height="40" viewBox="0 0 41 40" fill="none" xmlns="http://www.w3.org/2000/svg">
<path d="M11.9375 36.815C11.7883 36.815 11.6452 36.7558 11.5398 36.6503C11.4343 36.5448 11.375 36.4017 11.375 36.2525V33.6707L7.58263 30.6984C7.10788 30.3204 6.47112 29.579 6.22362 28.9895L3.54613 22.7649C3.51568 22.6946 3.49998 22.6188 3.5 22.5422V17.1208C3.5 16.421 4.29312 15.9047 5.05925 15.8113C6.02225 15.6875 7.20238 16.2062 7.65125 18.0017C7.86387 18.8533 7.92462 19.8377 7.96962 20.5565L7.98537 20.8029C7.99026 20.8766 7.98058 20.9506 7.95688 21.0206C7.93318 21.0906 7.89592 21.1552 7.84723 21.2108C7.79855 21.2664 7.7394 21.3118 7.67315 21.3445C7.6069 21.3772 7.53485 21.3966 7.46112 21.4014C7.31252 21.4101 7.16646 21.36 7.05448 21.2619C6.94251 21.1638 6.8736 21.0256 6.86263 20.8772L6.84575 20.6263C6.80413 19.9513 6.74675 19.0265 6.56 18.2739C6.41937 17.7092 6.1145 17.015 5.46537 16.9284C5.039 16.8654 4.66887 17.0994 4.60812 17.2052L4.625 22.4263L7.25975 28.5497C7.424 28.9423 7.93363 29.5397 8.28125 29.8164L12.2863 32.9552C12.4201 33.0609 12.5 33.224 12.5 33.3973V36.2525C12.5 36.4017 12.4407 36.5448 12.3352 36.6503C12.2298 36.7558 12.0867 36.815 11.9375 36.815ZM18.6875 36.815C18.5383 36.815 18.3952 36.7558 18.2898 36.6503C18.1843 36.5448 18.125 36.4017 18.125 36.2525V31.7942C18.125 29.4238 16.4881 27.3572 14.1436 26.7677C14.072 26.7496 14.0046 26.7177 13.9453 26.6736C13.886 26.6295 13.8359 26.5742 13.798 26.5108C13.7601 26.4474 13.735 26.3771 13.7243 26.304C13.7135 26.2309 13.7172 26.1564 13.7352 26.0848C13.7533 26.0131 13.7852 25.9457 13.8293 25.8864C13.8734 25.8271 13.9287 25.7771 13.9921 25.7392C14.0555 25.7013 14.1258 25.6762 14.1989 25.6654C14.272 25.6547 14.3465 25.6584 14.4181 25.6764C17.2633 26.3919 19.25 28.9074 19.25 31.7942V36.2525C19.25 36.4017 19.1907 36.5448 19.0852 36.6503C18.9798 36.7558 18.8367 36.815 18.6875 36.815Z" fill="black"/>
<path d="M12.2323 28.8465C12.083 28.8466 11.9399 28.7875 11.834 28.6823L6.89865 23.7548C6.84627 23.7025 6.80471 23.6405 6.77635 23.5721C6.748 23.5038 6.7334 23.4305 6.7334 23.3565C6.7334 23.2825 6.748 23.2093 6.77635 23.1409C6.80471 23.0726 6.84627 23.0105 6.89865 22.9583C8.44665 21.4103 10.3535 21.5419 12.1288 23.3183L14.6645 25.8495C14.7183 25.9014 14.7613 25.9634 14.7908 26.0319C14.8204 26.1005 14.836 26.1743 14.8368 26.249C14.8375 26.3237 14.8234 26.3978 14.7952 26.4669C14.767 26.5361 14.7254 26.599 14.6726 26.6518C14.6199 26.7047 14.5571 26.7466 14.488 26.775C14.419 26.8034 14.3449 26.8177 14.2702 26.8172C14.1955 26.8166 14.1217 26.8012 14.053 26.7718C13.9844 26.7424 13.9222 26.6997 13.8703 26.646L11.3334 24.1148C10.1792 22.9594 9.10253 22.7164 8.1249 23.3903L12.6272 27.8858C12.7047 27.9647 12.7575 28.0646 12.7788 28.1732C12.8 28.2818 12.789 28.3942 12.7469 28.4965C12.7048 28.5989 12.6336 28.6866 12.5422 28.7488C12.4507 28.811 12.3429 28.845 12.2323 28.8465ZM28.8125 36.8149C28.6633 36.8149 28.5203 36.7556 28.4148 36.6502C28.3093 36.5447 28.25 36.4016 28.25 36.2524V33.3972C28.25 33.2239 28.3299 33.0608 28.4649 32.9539L32.4733 29.8129C32.8175 29.5395 33.3272 28.941 33.4892 28.5529L36.125 22.4262V17.1207C36.0823 17.0993 35.7122 16.8709 35.2847 16.9283C34.6367 17.0149 34.3318 17.7079 34.19 18.2738C34.0033 19.0253 33.9459 19.95 33.9043 20.625L33.8885 20.8759C33.8773 21.0243 33.8083 21.1623 33.6964 21.2603C33.5845 21.3583 33.4386 21.4085 33.29 21.4002C33.2163 21.3953 33.1443 21.376 33.078 21.3432C33.0118 21.3105 32.9526 21.2651 32.9039 21.2095C32.8552 21.1539 32.818 21.0893 32.7943 21.0193C32.7706 20.9494 32.7609 20.8754 32.7658 20.8017L32.7815 20.5553C32.8265 19.8364 32.8873 18.852 33.0988 18.0004C33.5488 16.206 34.73 15.6874 35.6908 15.81C36.4569 15.9057 37.25 16.4209 37.25 17.1207V22.542C37.2499 22.6186 37.2342 22.6944 37.2039 22.7648L34.5242 28.9939C34.2778 29.5789 33.6422 30.3203 33.1697 30.696L29.375 33.6705V36.2524C29.375 36.4016 29.3158 36.5447 29.2103 36.6502C29.1048 36.7556 28.9617 36.8149 28.8125 36.8149ZM22.0625 36.8149C21.9133 36.8149 21.7703 36.7556 21.6648 36.6502C21.5593 36.5447 21.5 36.4016 21.5 36.2524V31.794C21.5 28.9073 23.4868 26.3918 26.3319 25.6763C26.4036 25.6583 26.4781 25.6545 26.5512 25.6653C26.6242 25.6761 26.6945 25.7011 26.7579 25.739C26.8213 25.777 26.8766 25.827 26.9207 25.8863C26.9648 25.9456 26.9968 26.013 27.0148 26.0847C27.0328 26.1563 27.0365 26.2308 27.0258 26.3039C27.015 26.377 26.9899 26.4473 26.952 26.5107C26.9141 26.5741 26.8641 26.6294 26.8048 26.6735C26.7455 26.7176 26.6781 26.7495 26.6064 26.7675C24.2619 27.357 22.625 29.4237 22.625 31.794V36.2524C22.625 36.4016 22.5658 36.5447 22.4603 36.6502C22.3548 36.7556 22.2117 36.8149 22.0625 36.8149Z" fill="black"/>
<path d="M28.2066 28.7503C28.2986 28.8122 28.4069 28.8457 28.5178 28.8466C28.5915 28.8467 28.6646 28.8323 28.7327 28.8041C28.8009 28.7759 28.8628 28.7345 28.9149 28.6824L33.8503 23.7549C33.9027 23.7026 33.9442 23.6405 33.9726 23.5722C34.0009 23.5039 34.0155 23.4306 34.0155 23.3566C34.0155 23.2826 34.0009 23.2094 33.9726 23.141C33.9442 23.0727 33.9027 23.0106 33.8503 22.9584C32.3034 21.4115 30.3977 21.5431 28.6202 23.3184L26.0833 25.8496C25.9807 25.9555 25.9238 26.0976 25.9248 26.2451C25.9259 26.3925 25.9848 26.5337 26.089 26.6382C26.1931 26.7426 26.3341 26.802 26.4816 26.8034C26.6291 26.8049 26.7713 26.7484 26.8775 26.6461L29.4144 24.1149C30.5687 22.9595 31.643 22.7165 32.6218 23.3904L28.1195 27.8859C28.0417 27.9649 27.989 28.0652 27.9678 28.1741C27.9466 28.2829 27.958 28.3957 28.0005 28.4981C28.0429 28.6006 28.1146 28.6883 28.2066 28.7503Z" fill="black"/>
<path d="M24.418 10.7509H22.543V8.87585C22.543 8.71009 22.4771 8.55112 22.3599 8.43391C22.2427 8.3167 22.0837 8.25085 21.918 8.25085H19.418C19.2522 8.25085 19.0932 8.3167 18.976 8.43391C18.8588 8.55112 18.793 8.71009 18.793 8.87585V10.7509H16.918C16.7522 10.7509 16.5932 10.8167 16.476 10.9339C16.3588 11.0511 16.293 11.2101 16.293 11.3759V13.8759C16.293 14.0416 16.3588 14.2006 16.476 14.3178C16.5932 14.435 16.7522 14.5009 16.918 14.5009H18.793V16.3759C18.793 16.5416 18.8588 16.7006 18.976 16.8178C19.0932 16.935 19.2522 17.0009 19.418 17.0009H21.918C22.0837 17.0009 22.2427 16.935 22.3599 16.8178C22.4771 16.7006 22.543 16.5416 22.543 16.3759V14.5009H24.418C24.5837 14.5009 24.7427 14.435 24.8599 14.3178C24.9771 14.2006 25.043 14.0416 25.043 13.8759V11.3759C25.043 11.2101 24.9771 11.0511 24.8599 10.9339C24.7427 10.8167 24.5837 10.7509 24.418 10.7509ZM23.793 13.2509H21.918C21.7522 13.2509 21.5932 13.3167 21.476 13.4339C21.3588 13.5511 21.293 13.7101 21.293 13.8759V15.7509H20.043V13.8759C20.043 13.7101 19.9771 13.5511 19.8599 13.4339C19.7427 13.3167 19.5837 13.2509 19.418 13.2509H17.543V12.0009H19.418C19.5837 12.0009 19.7427 11.935 19.8599 11.8178C19.9771 11.7006 20.043 11.5416 20.043 11.3759V9.50085H21.293V11.3759C21.293 11.5416 21.3588 11.7006 21.476 11.8178C21.5932 11.935 21.7522 12.0009 21.918 12.0009H23.793V13.2509Z" fill="black"/>
<path d="M29.5099 5.83335C28.9297 5.25212 28.2405 4.79102 27.4819 4.47643C26.7233 4.16184 25.9101 3.99994 25.0888 4C24.2675 4.00006 23.4544 4.16207 22.6958 4.47677C21.9372 4.79146 21.2481 5.25266 20.668 5.83397C20.0879 5.25265 19.3989 4.79144 18.6403 4.47676C17.8818 4.16208 17.0686 4.00011 16.2474 4.00011C15.4261 4.00011 14.613 4.16208 13.8544 4.47676C13.0959 4.79144 12.4068 5.25265 11.8268 5.83397C10.657 7.00627 10 8.59474 10 10.2508C10 11.907 10.657 13.4954 11.8268 14.6677L20.2268 23.0677C20.344 23.1849 20.5029 23.2507 20.6686 23.2507C20.8344 23.2507 20.9933 23.1849 21.1105 23.0677L29.5105 14.6677C30.6802 13.4952 31.3371 11.9066 31.337 10.2504C31.3369 8.5942 30.6798 7.00567 29.5099 5.83335ZM20.668 21.7421L12.7099 13.784C12.0112 13.0844 11.5357 12.1933 11.3433 11.2234C11.151 10.2536 11.2505 9.24849 11.6293 8.33519C12.0082 7.4219 12.6493 6.64143 13.4716 6.09243C14.2939 5.54343 15.2605 5.25056 16.2493 5.25085C16.9061 5.24859 17.5567 5.37714 18.1633 5.62898C18.7699 5.88083 19.3203 6.25094 19.7824 6.71772L20.2261 7.16147C20.3433 7.27864 20.5023 7.34446 20.668 7.34446C20.8337 7.34446 20.9927 7.27864 21.1099 7.16147L21.5549 6.71647C22.0189 6.25163 22.57 5.88285 23.1767 5.63123C23.7834 5.37961 24.4337 5.2501 25.0905 5.2501C25.7473 5.2501 26.3976 5.37961 27.0043 5.63123C27.611 5.88285 28.1621 6.25163 28.6261 6.71647C29.5623 7.65396 30.0882 8.9247 30.0882 10.2496C30.0882 11.5745 29.5623 12.8452 28.6261 13.7827L20.668 21.7421Z" fill="black"/>
</svg>
