<svg width="41" height="40" viewBox="0 0 41 40" fill="none" xmlns="http://www.w3.org/2000/svg">
<path d="M14.3613 12.2937C10.2931 12.2937 6.99512 15.5917 6.99512 19.6599C6.99512 23.7281 10.2931 27.0261 14.3613 27.0261C18.4295 27.0261 21.7275 23.7281 21.7275 19.6599C21.7275 15.5917 18.4295 12.2937 14.3613 12.2937ZM19.8128 16.8976H17.1581C16.9042 15.6254 16.5076 14.5971 16.1027 13.8038C17.725 14.2879 19.0567 15.4127 19.8128 16.8976ZM16.2029 19.6599C16.2029 20.2079 16.1618 20.7113 16.1054 21.1945H12.6174C12.5608 20.7113 12.5197 20.2078 12.5197 19.6599C12.5197 19.1117 12.5601 18.6083 12.6162 18.1253H16.1066C16.1624 18.6083 16.2029 19.1117 16.2029 19.6599ZM14.1827 13.5394C14.2432 13.5376 14.3002 13.5214 14.3613 13.5214C14.4231 13.5214 14.4803 13.5379 14.5417 13.5397C15.0024 14.2464 15.5626 15.3645 15.9018 16.8976H12.8209C13.1618 15.3592 13.7241 14.2417 14.1827 13.5394ZM12.6199 13.8038C12.2164 14.5954 11.8196 15.6248 11.5655 16.8976H8.90979C9.28632 16.1574 9.80935 15.5015 10.4471 14.9697C11.0849 14.4378 11.8241 14.0412 12.6199 13.8038ZM8.22282 19.6599C8.22282 19.1269 8.31244 18.6187 8.44073 18.1253H11.379C11.3277 18.6114 11.2921 19.1171 11.2921 19.6599C11.2921 20.203 11.3287 20.708 11.3808 21.1945H8.44073C8.31244 20.7011 8.22282 20.1929 8.22282 19.6599ZM8.90979 22.4222H11.5685C11.825 23.6973 12.2221 24.7344 12.6181 25.5155C10.9968 25.0311 9.66575 23.9065 8.90979 22.4222ZM14.5396 25.7804C14.4791 25.7823 14.4225 25.7984 14.3613 25.7984C14.3002 25.7984 14.2435 25.7822 14.1827 25.7804C13.7427 25.1037 13.1696 23.9831 12.8225 22.4222H15.9002C15.5536 23.9821 14.9812 25.1021 14.5396 25.7804ZM16.1051 25.5155C16.5017 24.7336 16.8985 23.6973 17.1545 22.4222H19.8128C19.0569 23.9064 17.7261 25.0309 16.1051 25.5155ZM17.3422 21.1945C17.394 20.708 17.4306 20.203 17.4306 19.6599C17.4306 19.1171 17.3952 18.6114 17.3439 18.1253H20.2819C20.4102 18.6187 20.4998 19.127 20.4998 19.6599C20.4998 20.1929 20.4102 20.7011 20.2819 21.1945H17.3422ZM8.22282 30.7092H20.4998V31.9369H8.22282V30.7092ZM28.411 24.2373L29.0467 21.8657L30.2326 22.1835L29.5968 24.5552L28.411 24.2373ZM25.5513 34.9075L27.7753 26.6068L28.9611 26.9246L26.7371 35.2252L25.5513 34.9075Z" fill="black"/>
<path d="M35.867 5.89733L21.6367 2.08425C21.429 2.02843 21.2149 2.00011 20.9998 2C19.9157 2.00008 18.9236 2.72358 18.6296 3.82053L17.3462 8.61055H4.53971C3.86171 8.61055 3.31201 9.16018 3.31201 9.83825V34.3923C3.31201 35.0703 3.86171 35.6199 4.53971 35.6199H18.7197L27.2878 37.9157C27.4956 37.9716 27.7097 37.9999 27.9248 38C29.0089 38 30.001 37.2764 30.295 36.1795L37.6034 8.90451C37.9544 7.59471 37.1769 6.2483 35.867 5.89733ZM4.53971 34.3923V9.83825H22.9552C23.6323 9.83825 24.1829 10.389 24.1829 11.066V33.1646C24.1829 33.8415 23.6323 34.3923 22.9552 34.3923H4.53971ZM36.4176 8.58676L29.1093 35.8617C28.9654 36.3979 28.4784 36.7724 27.9247 36.7724C27.8181 36.7724 27.7107 36.7581 27.6055 36.7299L23.3244 35.5827C24.5038 35.4036 25.4105 34.3942 25.4105 33.1646V23.4317L26.0393 23.6002L26.6751 21.2285L25.489 20.9107L25.4105 21.2041V11.4478L26.6634 11.7836L28.1153 16.5304L29.1317 16.8028L29.0355 12.4192L30.8311 12.9004L31.6203 14.292L32.298 14.4736L32.1814 12.5359L33.2512 10.916L32.5735 10.7345L31.1945 11.5451C30.7476 11.4255 30.0663 11.2429 29.3985 11.064L31.6737 7.31594L30.6573 7.04355L27.0266 10.4285C26.3127 10.2372 25.5337 10.0283 25.1117 9.91537C24.6981 9.14237 23.8927 8.61063 22.9551 8.61063H18.6168L19.8151 4.13842C19.959 3.6023 20.4461 3.22785 20.9997 3.22778C21.1064 3.22778 21.2137 3.24205 21.3189 3.27029L35.5493 7.08337C35.7052 7.12468 35.8513 7.19652 35.9793 7.29471C36.1072 7.3929 36.2145 7.51549 36.2947 7.6554C36.3758 7.7948 36.4284 7.9489 36.4495 8.10877C36.4706 8.26864 36.4598 8.43111 36.4176 8.58676Z" fill="black"/>
<path d="M28.413 19.8072L28.727 18.6204L29.8936 18.9291L29.5796 20.1159L28.413 19.8072ZM30.743 20.4262L31.0571 19.2395L32.2237 19.5482L31.9097 20.735L30.743 20.4262ZM26.083 19.1901L26.397 18.0033L27.5636 18.312L27.2496 19.4988L26.083 19.1901Z" fill="black"/>
</svg>
