<svg width="131" height="130" viewBox="0 0 131 130" fill="none" xmlns="http://www.w3.org/2000/svg">
<g filter="url(#filter0_d_204_229)">
<rect x="25.5" y="10" width="80" height="80" rx="16" fill="white"/>
<path d="M59.3613 42.2937C55.2931 42.2937 51.9951 45.5917 51.9951 49.6599C51.9951 53.7281 55.2931 57.0261 59.3613 57.0261C63.4295 57.0261 66.7275 53.7281 66.7275 49.6599C66.7275 45.5917 63.4295 42.2937 59.3613 42.2937ZM64.8128 46.8976H62.1581C61.9042 45.6254 61.5076 44.5971 61.1027 43.8038C62.725 44.2879 64.0567 45.4127 64.8128 46.8976ZM61.2029 49.6599C61.2029 50.2079 61.1618 50.7113 61.1054 51.1945H57.6174C57.5608 50.7113 57.5197 50.2078 57.5197 49.6599C57.5197 49.1117 57.5601 48.6083 57.6162 48.1253H61.1066C61.1624 48.6083 61.2029 49.1117 61.2029 49.6599ZM59.1827 43.5394C59.2432 43.5376 59.3002 43.5214 59.3613 43.5214C59.4231 43.5214 59.4803 43.5379 59.5417 43.5397C60.0024 44.2464 60.5626 45.3645 60.9018 46.8976H57.8209C58.1618 45.3592 58.7241 44.2417 59.1827 43.5394ZM57.6199 43.8038C57.2164 44.5954 56.8196 45.6248 56.5655 46.8976H53.9098C54.2863 46.1574 54.8094 45.5015 55.4471 44.9697C56.0849 44.4378 56.8241 44.0412 57.6199 43.8038ZM53.2228 49.6599C53.2228 49.1269 53.3124 48.6187 53.4407 48.1253H56.379C56.3277 48.6114 56.2921 49.1171 56.2921 49.6599C56.2921 50.203 56.3287 50.708 56.3808 51.1945H53.4407C53.3124 50.7011 53.2228 50.1929 53.2228 49.6599ZM53.9098 52.4222H56.5685C56.825 53.6973 57.2221 54.7344 57.6181 55.5155C55.9968 55.0311 54.6657 53.9065 53.9098 52.4222ZM59.5396 55.7804C59.4791 55.7823 59.4225 55.7984 59.3613 55.7984C59.3002 55.7984 59.2435 55.7822 59.1827 55.7804C58.7427 55.1037 58.1696 53.9831 57.8225 52.4222H60.9002C60.5536 53.9821 59.9812 55.1021 59.5396 55.7804ZM61.1051 55.5155C61.5017 54.7336 61.8985 53.6973 62.1545 52.4222H64.8128C64.0569 53.9064 62.7261 55.0309 61.1051 55.5155ZM62.3422 51.1945C62.394 50.708 62.4306 50.203 62.4306 49.6599C62.4306 49.1171 62.3952 48.6114 62.3439 48.1253H65.2819C65.4102 48.6187 65.4998 49.127 65.4998 49.6599C65.4998 50.1929 65.4102 50.7011 65.2819 51.1945H62.3422ZM53.2228 60.7092H65.4998V61.9369H53.2228V60.7092ZM73.411 54.2373L74.0467 51.8657L75.2326 52.1835L74.5968 54.5552L73.411 54.2373ZM70.5513 64.9075L72.7753 56.6068L73.9611 56.9246L71.7371 65.2252L70.5513 64.9075Z" fill="black"/>
<path d="M80.867 35.8973L66.6367 32.0843C66.429 32.0284 66.2149 32.0001 65.9998 32C64.9157 32.0001 63.9236 32.7236 63.6296 33.8205L62.3462 38.6106H49.5397C48.8617 38.6106 48.312 39.1602 48.312 39.8383V64.3923C48.312 65.0703 48.8617 65.6199 49.5397 65.6199H63.7197L72.2878 67.9157C72.4956 67.9716 72.7097 67.9999 72.9248 68C74.0089 68 75.001 67.2764 75.295 66.1795L82.6034 38.9045C82.9544 37.5947 82.1769 36.2483 80.867 35.8973ZM49.5397 64.3923V39.8383H67.9552C68.6323 39.8383 69.1829 40.389 69.1829 41.066V63.1646C69.1829 63.8415 68.6323 64.3923 67.9552 64.3923H49.5397ZM81.4176 38.5868L74.1093 65.8617C73.9654 66.3979 73.4784 66.7724 72.9247 66.7724C72.8181 66.7724 72.7107 66.7581 72.6055 66.7299L68.3244 65.5827C69.5038 65.4036 70.4105 64.3942 70.4105 63.1646V53.4317L71.0393 53.6002L71.6751 51.2285L70.489 50.9107L70.4105 51.2041V41.4478L71.6634 41.7836L73.1153 46.5304L74.1317 46.8028L74.0355 42.4192L75.8311 42.9004L76.6203 44.292L77.298 44.4736L77.1814 42.5359L78.2512 40.916L77.5735 40.7345L76.1945 41.5451C75.7476 41.4255 75.0663 41.2429 74.3985 41.064L76.6737 37.3159L75.6573 37.0435L72.0266 40.4285C71.3127 40.2372 70.5337 40.0283 70.1117 39.9154C69.6981 39.1424 68.8927 38.6106 67.9551 38.6106H63.6168L64.8151 34.1384C64.959 33.6023 65.4461 33.2279 65.9997 33.2278C66.1064 33.2278 66.2137 33.242 66.3189 33.2703L80.5493 37.0834C80.7052 37.1247 80.8513 37.1965 80.9793 37.2947C81.1072 37.3929 81.2145 37.5155 81.2947 37.6554C81.3758 37.7948 81.4284 37.9489 81.4495 38.1088C81.4706 38.2686 81.4598 38.4311 81.4176 38.5868Z" fill="black"/>
<path d="M73.413 49.8072L73.727 48.6204L74.8936 48.9291L74.5796 50.1159L73.413 49.8072ZM75.743 50.4262L76.0571 49.2395L77.2237 49.5482L76.9097 50.735L75.743 50.4262ZM71.083 49.1901L71.397 48.0033L72.5636 48.312L72.2496 49.4988L71.083 49.1901Z" fill="black"/>
</g>
<defs>
<filter id="filter0_d_204_229" x="0.5" y="0" width="130" height="130" filterUnits="userSpaceOnUse" color-interpolation-filters="sRGB">
<feFlood flood-opacity="0" result="BackgroundImageFix"/>
<feColorMatrix in="SourceAlpha" type="matrix" values="0 0 0 0 0 0 0 0 0 0 0 0 0 0 0 0 0 0 127 0" result="hardAlpha"/>
<feMorphology radius="5" operator="erode" in="SourceAlpha" result="effect1_dropShadow_204_229"/>
<feOffset dy="15"/>
<feGaussianBlur stdDeviation="15"/>
<feComposite in2="hardAlpha" operator="out"/>
<feColorMatrix type="matrix" values="0 0 0 0 0.121569 0 0 0 0 0.231373 0 0 0 0 0.282353 0 0 0 0.1 0"/>
<feBlend mode="normal" in2="BackgroundImageFix" result="effect1_dropShadow_204_229"/>
<feBlend mode="normal" in="SourceGraphic" in2="effect1_dropShadow_204_229" result="shape"/>
</filter>
</defs>
</svg>
